<svg width="1419" height="1065" viewBox="0 0 1419 1065" fill="none" xmlns="http://www.w3.org/2000/svg">
<path d="M124.948 0.799805C872.9 608.336 313.121 888.508 1405.7 1064.49M117.192 4.9427C818.403 574.509 318.364 874.865 1406.51 1063.74M109.431 9.07836C763.894 540.673 323.599 861.217 1407.32 1062.99M101.696 13.2195C709.411 506.844 328.864 847.578 1408.14 1062.25M93.9504 17.363C654.918 473.016 334.111 833.935 1408.96 1061.51M86.205 21.5074C600.425 439.19 339.365 820.299 1409.78 1060.77M70.722 29.7817C491.447 371.522 349.875 793.006 1411.42 1059.27M62.9661 33.9294C436.946 337.697 355.115 779.371 1412.23 1058.53M1 67.0572C1 67.0572 397.124 670.232 1418.77 1052.57M55.2285 38.0739C382.461 303.87 360.374 765.732 1413.06 1057.79M47.4753 42.2076C327.961 270.033 365.62 752.085 1413.87 1057.04M78.4674 25.6431C545.94 405.355 344.624 806.651 1410.6 1060.02M39.7298 46.3531C273.464 236.204 370.867 738.444 1414.68 1056.29M24.239 54.6292C164.482 168.542 381.372 711.157 1416.32 1054.8M16.4935 58.7757C109.986 134.72 386.623 697.519 1417.14 1054.06M8.75586 62.9143C55.5034 100.885 391.881 683.875 1417.96 1053.32M31.9922 50.4946C218.982 202.378 376.126 724.802 1415.51 1055.55" stroke="url(#paint0_linear_92_617)" stroke-miterlimit="10"/>
<defs>
<linearGradient id="paint0_linear_92_617" x1="94.9658" y1="38.5528" x2="1418.97" y2="1064.05" gradientUnits="userSpaceOnUse">
<stop offset="0.0107281" stop-color="#0FC2C2" stop-opacity="0"/>
<stop offset="0.0314767" stop-color="#0FC2C2" stop-opacity="0.149889"/>
<stop offset="0.21" stop-color="#0FC2C2"/>
<stop offset="0.405" stop-color="#0FC2C2" stop-opacity="0"/>
<stop offset="0.74" stop-color="#0FC2C2" stop-opacity="0"/>
<stop offset="1" stop-color="#0FC2C2"/>
</linearGradient>
</defs>
</svg>
