<svg width="1746" height="261" viewBox="0 0 1746 261" fill="none" xmlns="http://www.w3.org/2000/svg">
<path d="M39.1147 32.8361C773.291 35.8987 768.066 510.75 1744.15 21.6206M35.9462 40.7951C708.941 43.6028 763.004 497.048 1744.29 20.546M32.7624 48.7531C644.576 51.3059 757.922 483.344 1744.41 19.4703M45.4742 16.9224C902.013 20.495 778.221 538.16 1743.9 23.7715M26.4172 64.6687C515.868 66.7082 747.781 455.936 1744.68 17.3145M42.2984 24.8761C837.656 28.1937 773.152 524.452 1744.03 22.6949M23.2333 72.6297C451.503 74.4142 742.699 442.235 1744.81 16.2418M16.8812 88.5438C322.783 89.818 732.551 414.826 1745.07 14.088M13.705 96.5028C258.431 97.5226 727.476 401.123 1745.2 13.0133M51.8347 1C1030.73 5.08532 788.378 565.564 1743.64 25.9199M7.34491 112.418C129.707 112.931 717.325 373.716 1745.46 10.861M10.5208 104.456C194.065 105.221 722.399 387.415 1745.32 11.9328M20.0571 80.5838C387.146 82.1135 737.629 428.528 1744.94 15.1622M48.6584 8.96535C966.379 12.7928 783.304 551.864 1743.77 24.8481M4.16852 120.373C65.3499 120.628 712.25 360.009 1745.59 9.78242M29.586 56.7063C580.218 59.0041 752.848 469.635 1744.55 18.3898M1 128.336C1 128.336 707.184 346.307 1745.72 8.70815" stroke="url(#paint0_linear_92_594)" stroke-miterlimit="10"/>
<defs>
<linearGradient id="paint0_linear_92_594" x1="27.7937" y1="129.938" x2="1745.71" y2="129.938" gradientUnits="userSpaceOnUse">
<stop stop-color="#0FC2C2" stop-opacity="0"/>
<stop offset="0.08" stop-color="#0FC2C2"/>
<stop offset="0.3" stop-color="#0FC2C2" stop-opacity="0"/>
<stop offset="0.49" stop-color="#0FC2C2" stop-opacity="0"/>
<stop offset="1" stop-color="#0FC2C2"/>
</linearGradient>
</defs>
</svg>
