<svg width="336" height="228" viewBox="0 0 336 228" fill="none" xmlns="http://www.w3.org/2000/svg">
<g clip-path="url(#clip0_128_3405)">
<path d="M0 0H336V228H0V0Z" fill="#1C1C1C"/>
<path d="M314 329.5C314 255.77 254.23 196 180.5 196C106.77 196 47 255.77 47 329.5M350 329.5C350 235.888 274.112 160 180.5 160C86.8877 160 11 235.888 11 329.5M388 329.5C388 214.901 295.099 122 180.5 122C65.9009 122 -27 214.901 -27 329.5M423 329.5C423 195.571 314.429 87 180.5 87C46.571 87 -62 195.571 -62 329.5M463 329.5C463 173.48 336.52 47 180.5 47C24.4796 47 -102 173.48 -102 329.5M497 329.5C497 154.702 355.298 13 180.5 13C5.70187 13 -136 154.702 -136 329.5" stroke="url(#paint0_linear_128_3405)" stroke-opacity="0.24" stroke-width="0.5"/>
<g filter="url(#filter0_f_128_3405)">
<path d="M166.902 42.4512L158.116 26.6365C156.936 24.5087 155.302 23.3418 153.504 23.3418C151.705 23.3418 150.072 24.5087 148.891 26.6365L140.105 42.4512C138.993 44.4692 138.87 46.4048 139.762 47.9286C140.654 49.4525 142.412 50.2899 144.718 50.2899H162.29C164.596 50.2899 166.353 49.4525 167.246 47.9286C168.138 46.4048 168.014 44.4555 166.902 42.4512ZM152.474 32.9514C152.474 32.3885 152.941 31.9218 153.504 31.9218C154.067 31.9218 154.533 32.3885 154.533 32.9514V39.8154C154.533 40.3782 154.067 40.845 153.504 40.845C152.941 40.845 152.474 40.3782 152.474 39.8154V32.9514ZM154.478 44.9085C154.41 44.9634 154.341 45.0183 154.273 45.0732C154.19 45.1281 154.108 45.1693 154.025 45.1968C153.943 45.238 153.861 45.2654 153.765 45.2791C153.682 45.2929 153.586 45.3066 153.504 45.3066C153.421 45.3066 153.325 45.2929 153.229 45.2791C153.147 45.2654 153.064 45.238 152.982 45.1968C152.9 45.1693 152.817 45.1281 152.735 45.0732C152.666 45.0183 152.598 44.9634 152.529 44.9085C152.282 44.6477 152.131 44.2907 152.131 43.9338C152.131 43.5769 152.282 43.2199 152.529 42.9591C152.598 42.9042 152.666 42.8493 152.735 42.7944C152.817 42.7395 152.9 42.6983 152.982 42.6708C153.064 42.6296 153.147 42.6022 153.229 42.5885C153.408 42.5473 153.6 42.5473 153.765 42.5885C153.861 42.6022 153.943 42.6296 154.025 42.6708C154.108 42.6983 154.19 42.7395 154.273 42.7944C154.341 42.8493 154.41 42.9042 154.478 42.9591C154.726 43.2199 154.877 43.5769 154.877 43.9338C154.877 44.2907 154.726 44.6477 154.478 44.9085Z" fill="white" fill-opacity="0.5"/>
<path d="M278.902 119.451L270.116 103.637C268.936 101.509 267.302 100.342 265.504 100.342C263.705 100.342 262.072 101.509 260.891 103.637L252.105 119.451C250.993 121.469 250.87 123.405 251.762 124.929C252.654 126.452 254.412 127.29 256.718 127.29H274.29C276.596 127.29 278.353 126.452 279.246 124.929C280.138 123.405 280.014 121.455 278.902 119.451ZM264.474 109.951C264.474 109.389 264.941 108.922 265.504 108.922C266.067 108.922 266.533 109.389 266.533 109.951V116.815C266.533 117.378 266.067 117.845 265.504 117.845C264.941 117.845 264.474 117.378 264.474 116.815V109.951ZM266.478 121.908C266.41 121.963 266.341 122.018 266.273 122.073C266.19 122.128 266.108 122.169 266.025 122.197C265.943 122.238 265.861 122.265 265.765 122.279C265.682 122.293 265.586 122.307 265.504 122.307C265.421 122.307 265.325 122.293 265.229 122.279C265.147 122.265 265.064 122.238 264.982 122.197C264.9 122.169 264.817 122.128 264.735 122.073C264.666 122.018 264.598 121.963 264.529 121.908C264.282 121.648 264.131 121.291 264.131 120.934C264.131 120.577 264.282 120.22 264.529 119.959C264.598 119.904 264.666 119.849 264.735 119.794C264.817 119.739 264.9 119.698 264.982 119.671C265.064 119.63 265.147 119.602 265.229 119.588C265.408 119.547 265.6 119.547 265.765 119.588C265.861 119.602 265.943 119.63 266.025 119.671C266.108 119.698 266.19 119.739 266.273 119.794C266.341 119.849 266.41 119.904 266.478 119.959C266.726 120.22 266.877 120.577 266.877 120.934C266.877 121.291 266.726 121.648 266.478 121.908Z" fill="white" fill-opacity="0.5"/>
<path d="M88.9023 149.451L80.1164 133.637C78.9358 131.509 77.3022 130.342 75.5038 130.342C73.7054 130.342 72.0718 131.509 70.8912 133.637L62.1053 149.451C60.9933 151.469 60.8697 153.405 61.7621 154.929C62.6544 156.452 64.4116 157.29 66.7179 157.29H84.2897C86.596 157.29 88.3532 156.452 89.2455 154.929C90.1378 153.405 90.0143 151.455 88.9023 149.451ZM74.4742 139.951C74.4742 139.389 74.9409 138.922 75.5038 138.922C76.0666 138.922 76.5334 139.389 76.5334 139.951V146.815C76.5334 147.378 76.0666 147.845 75.5038 147.845C74.9409 147.845 74.4742 147.378 74.4742 146.815V139.951ZM76.4785 151.908C76.4098 151.963 76.3412 152.018 76.2726 152.073C76.1902 152.128 76.1078 152.169 76.0255 152.197C75.9431 152.238 75.8607 152.265 75.7646 152.279C75.6823 152.293 75.5862 152.307 75.5038 152.307C75.4214 152.307 75.3253 152.293 75.2292 152.279C75.1469 152.265 75.0645 152.238 74.9821 152.197C74.8998 152.169 74.8174 152.128 74.735 152.073C74.6664 152.018 74.5977 151.963 74.5291 151.908C74.282 151.648 74.131 151.291 74.131 150.934C74.131 150.577 74.282 150.22 74.5291 149.959C74.5977 149.904 74.6664 149.849 74.735 149.794C74.8174 149.739 74.8998 149.698 74.9821 149.671C75.0645 149.63 75.1469 149.602 75.2292 149.588C75.4077 149.547 75.5999 149.547 75.7646 149.588C75.8607 149.602 75.9431 149.63 76.0255 149.671C76.1078 149.698 76.1902 149.739 76.2726 149.794C76.3412 149.849 76.4098 149.904 76.4785 149.959C76.7256 150.22 76.8766 150.577 76.8766 150.934C76.8766 151.291 76.7256 151.648 76.4785 151.908Z" fill="white" fill-opacity="0.5"/>
</g>
<g filter="url(#filter1_b_128_3405)">
<path d="M101.249 78.8594L90.2666 59.0911C88.7908 56.4313 86.7488 54.9727 84.5008 54.9727C82.2529 54.9727 80.2108 56.4313 78.7351 59.0911L67.7527 78.8594C66.3627 81.3819 66.2083 83.8015 67.3237 85.7062C68.4391 87.611 70.6356 88.6577 73.5184 88.6577H95.4832C98.3661 88.6577 100.563 87.611 101.678 85.7062C102.793 83.8015 102.639 81.3647 101.249 78.8594ZM83.2138 66.9847C83.2138 66.2811 83.7973 65.6977 84.5008 65.6977C85.2044 65.6977 85.7878 66.2811 85.7878 66.9847V75.5647C85.7878 76.2682 85.2044 76.8517 84.5008 76.8517C83.7973 76.8517 83.2138 76.2682 83.2138 75.5647V66.9847ZM85.7192 81.931C85.6334 81.9997 85.5476 82.0683 85.4618 82.1369C85.3588 82.2056 85.2559 82.2571 85.1529 82.2914C85.05 82.3429 84.947 82.3772 84.8269 82.3943C84.7239 82.4115 84.6038 82.4287 84.5008 82.4287C84.3979 82.4287 84.2778 82.4115 84.1576 82.3943C84.0547 82.3772 83.9517 82.3429 83.8488 82.2914C83.7458 82.2571 83.6428 82.2056 83.5399 82.1369C83.4541 82.0683 83.3683 81.9997 83.2825 81.931C82.9736 81.605 82.7848 81.1588 82.7848 80.7127C82.7848 80.2665 82.9736 79.8203 83.2825 79.4943C83.3683 79.4257 83.4541 79.357 83.5399 79.2884C83.6428 79.2197 83.7458 79.1683 83.8488 79.1339C83.9517 79.0825 84.0547 79.0481 84.1576 79.031C84.3807 78.9795 84.621 78.9795 84.8269 79.031C84.947 79.0481 85.05 79.0825 85.1529 79.1339C85.2559 79.1683 85.3588 79.2197 85.4618 79.2884C85.5476 79.357 85.6334 79.4257 85.7192 79.4943C86.0281 79.8203 86.2168 80.2665 86.2168 80.7127C86.2168 81.1588 86.0281 81.605 85.7192 81.931Z" fill="white" fill-opacity="0.5"/>
<path d="M250.249 58.8594L239.267 39.0911C237.791 36.4313 235.749 34.9727 233.501 34.9727C231.253 34.9727 229.211 36.4313 227.735 39.0911L216.753 58.8594C215.363 61.3819 215.208 63.8015 216.324 65.7062C217.439 67.611 219.636 68.6577 222.518 68.6577H244.483C247.366 68.6577 249.563 67.611 250.678 65.7062C251.793 63.8015 251.639 61.3647 250.249 58.8594ZM232.214 46.9847C232.214 46.2811 232.797 45.6977 233.501 45.6977C234.204 45.6977 234.788 46.2811 234.788 46.9847V55.5647C234.788 56.2682 234.204 56.8517 233.501 56.8517C232.797 56.8517 232.214 56.2682 232.214 55.5647V46.9847ZM234.719 61.931C234.633 61.9997 234.548 62.0683 234.462 62.1369C234.359 62.2056 234.256 62.2571 234.153 62.2914C234.05 62.3429 233.947 62.3772 233.827 62.3943C233.724 62.4115 233.604 62.4287 233.501 62.4287C233.398 62.4287 233.278 62.4115 233.158 62.3943C233.055 62.3772 232.952 62.3429 232.849 62.2914C232.746 62.2571 232.643 62.2056 232.54 62.1369C232.454 62.0683 232.368 61.9997 232.282 61.931C231.974 61.605 231.785 61.1588 231.785 60.7127C231.785 60.2665 231.974 59.8203 232.282 59.4943C232.368 59.4257 232.454 59.357 232.54 59.2884C232.643 59.2197 232.746 59.1683 232.849 59.1339C232.952 59.0825 233.055 59.0481 233.158 59.031C233.381 58.9795 233.621 58.9795 233.827 59.031C233.947 59.0481 234.05 59.0825 234.153 59.1339C234.256 59.1683 234.359 59.2197 234.462 59.2884C234.548 59.357 234.633 59.4257 234.719 59.4943C235.028 59.8203 235.217 60.2665 235.217 60.7127C235.217 61.1588 235.028 61.605 234.719 61.931Z" fill="white" fill-opacity="0.5"/>
<path d="M261.249 178.859L250.267 159.091C248.791 156.431 246.749 154.973 244.501 154.973C242.253 154.973 240.211 156.431 238.735 159.091L227.753 178.859C226.363 181.382 226.208 183.801 227.324 185.706C228.439 187.611 230.636 188.658 233.518 188.658H255.483C258.366 188.658 260.563 187.611 261.678 185.706C262.793 183.801 262.639 181.365 261.249 178.859ZM243.214 166.985C243.214 166.281 243.797 165.698 244.501 165.698C245.204 165.698 245.788 166.281 245.788 166.985V175.565C245.788 176.268 245.204 176.852 244.501 176.852C243.797 176.852 243.214 176.268 243.214 175.565V166.985ZM245.719 181.931C245.633 182 245.548 182.068 245.462 182.137C245.359 182.206 245.256 182.257 245.153 182.291C245.05 182.343 244.947 182.377 244.827 182.394C244.724 182.411 244.604 182.429 244.501 182.429C244.398 182.429 244.278 182.411 244.158 182.394C244.055 182.377 243.952 182.343 243.849 182.291C243.746 182.257 243.643 182.206 243.54 182.137C243.454 182.068 243.368 182 243.282 181.931C242.974 181.605 242.785 181.159 242.785 180.713C242.785 180.267 242.974 179.82 243.282 179.494C243.368 179.426 243.454 179.357 243.54 179.288C243.643 179.22 243.746 179.168 243.849 179.134C243.952 179.082 244.055 179.048 244.158 179.031C244.381 178.979 244.621 178.979 244.827 179.031C244.947 179.048 245.05 179.082 245.153 179.134C245.256 179.168 245.359 179.22 245.462 179.288C245.548 179.357 245.633 179.426 245.719 179.494C246.028 179.82 246.217 180.267 246.217 180.713C246.217 181.159 246.028 181.605 245.719 181.931Z" fill="white" fill-opacity="0.5"/>
<path d="M131.249 218.859L120.267 199.091C118.791 196.431 116.749 194.973 114.501 194.973C112.253 194.973 110.211 196.431 108.735 199.091L97.7527 218.859C96.3627 221.382 96.2083 223.801 97.3237 225.706C98.4391 227.611 100.636 228.658 103.518 228.658H125.483C128.366 228.658 130.563 227.611 131.678 225.706C132.793 223.801 132.639 221.365 131.249 218.859ZM113.214 206.985C113.214 206.281 113.797 205.698 114.501 205.698C115.204 205.698 115.788 206.281 115.788 206.985V215.565C115.788 216.268 115.204 216.852 114.501 216.852C113.797 216.852 113.214 216.268 113.214 215.565V206.985ZM115.719 221.931C115.633 222 115.548 222.068 115.462 222.137C115.359 222.206 115.256 222.257 115.153 222.291C115.05 222.343 114.947 222.377 114.827 222.394C114.724 222.411 114.604 222.429 114.501 222.429C114.398 222.429 114.278 222.411 114.158 222.394C114.055 222.377 113.952 222.343 113.849 222.291C113.746 222.257 113.643 222.206 113.54 222.137C113.454 222.068 113.368 222 113.282 221.931C112.974 221.605 112.785 221.159 112.785 220.713C112.785 220.267 112.974 219.82 113.282 219.494C113.368 219.426 113.454 219.357 113.54 219.288C113.643 219.22 113.746 219.168 113.849 219.134C113.952 219.082 114.055 219.048 114.158 219.031C114.381 218.979 114.621 218.979 114.827 219.031C114.947 219.048 115.05 219.082 115.153 219.134C115.256 219.168 115.359 219.22 115.462 219.288C115.548 219.357 115.633 219.426 115.719 219.494C116.028 219.82 116.217 220.267 116.217 220.713C116.217 221.159 116.028 221.605 115.719 221.931Z" fill="white" fill-opacity="0.5"/>
</g>
<g filter="url(#filter2_b_128_3405)">
<path d="M0 80H336V228H0V80Z" fill="white" fill-opacity="0.05"/>
</g>
<path d="M291.5 208H310C313.314 208 316 205.314 316 202V183.75M20 124.25V106C20 102.686 22.6863 100 26 100H44.5M20 183.75V202C20 205.314 22.6863 208 26 208H44.5M316 124.25V106C316 102.686 313.314 100 310 100H291.5" stroke="url(#paint1_radial_128_3405)"/>
<g filter="url(#filter3_b_128_3405)">
<circle cx="168.004" cy="154" r="47.52" fill="white" fill-opacity="0.05"/>
</g>
<circle cx="168.004" cy="154" r="47.02" stroke="url(#paint2_linear_128_3405)"/>
<g filter="url(#filter4_b_128_3405)">
<circle cx="167.712" cy="153.714" r="32.6342" fill="white" fill-opacity="0.07"/>
</g>
<g filter="url(#filter5_f_128_3405)">
<path d="M169.395 157.783C169.395 158.814 168.559 159.65 167.528 159.65C166.497 159.65 165.662 158.814 165.662 157.783C165.662 156.752 166.497 155.917 167.528 155.917C168.559 155.917 169.395 156.752 169.395 157.783Z" fill="url(#paint3_linear_128_3405)"/>
<path fill-rule="evenodd" clip-rule="evenodd" d="M178.979 158.987C178.979 158.941 178.979 158.895 178.979 158.848V156.719C178.979 156.672 178.979 156.627 178.979 156.581V150.605H174.72V149.264C174.72 146.173 173.975 142.073 167.529 142.073C161.082 142.073 160.338 146.173 160.338 149.264V150.605H156.125V155.384C156.093 155.796 156.078 156.24 156.078 156.719V158.848C156.078 159.33 156.093 159.777 156.125 160.191V164.995H163.461V164.974H171.643V164.995H178.979V158.987ZM164.071 157.783C164.071 159.684 165.616 161.242 167.529 161.242C169.441 161.242 170.987 159.696 170.987 157.783C170.987 155.883 169.43 154.325 167.529 154.325C165.628 154.325 164.071 155.871 164.071 157.783ZM161.941 150.592H162.204V150.604H173.117V149.264C173.117 145.909 172.166 143.676 167.529 143.676C162.891 143.676 161.941 145.909 161.941 149.264V150.592Z" fill="url(#paint4_linear_128_3405)"/>
</g>
<path d="M169.395 157.783C169.395 158.814 168.559 159.65 167.528 159.65C166.497 159.65 165.662 158.814 165.662 157.783C165.662 156.752 166.497 155.917 167.528 155.917C168.559 155.917 169.395 156.752 169.395 157.783Z" fill="url(#paint5_linear_128_3405)"/>
<path fill-rule="evenodd" clip-rule="evenodd" d="M178.979 158.987C178.979 158.941 178.979 158.895 178.979 158.848V156.719C178.979 156.672 178.979 156.627 178.979 156.581V152.045C178.979 151.25 178.334 150.605 177.539 150.605H174.72V149.264C174.72 146.173 173.975 142.073 167.529 142.073C161.082 142.073 160.338 146.173 160.338 149.264V150.605H157.565C156.77 150.605 156.125 151.25 156.125 152.045V155.384C156.093 155.796 156.078 156.24 156.078 156.719V158.848C156.078 159.33 156.093 159.777 156.125 160.191V163.555C156.125 164.35 156.77 164.995 157.565 164.995H163.461V164.974H171.643V164.995H177.539C178.334 164.995 178.979 164.35 178.979 163.555V158.987ZM164.071 157.783C164.071 159.684 165.616 161.242 167.529 161.242C169.441 161.242 170.987 159.696 170.987 157.783C170.987 155.883 169.43 154.325 167.529 154.325C165.628 154.325 164.071 155.871 164.071 157.783ZM161.941 150.592H162.204V150.604H173.117V149.264C173.117 145.909 172.166 143.676 167.529 143.676C162.891 143.676 161.941 145.909 161.941 149.264V150.592Z" fill="url(#paint6_linear_128_3405)"/>
<circle cx="168.001" cy="154" r="32.1342" stroke="url(#paint7_linear_128_3405)"/>
<path d="M336 80.2324L0 80.2324" stroke="url(#paint8_linear_128_3405)" stroke-width="0.5"/>
</g>
<defs>
<filter id="filter0_f_128_3405" x="54.7719" y="16.9418" width="231.464" height="146.748" filterUnits="userSpaceOnUse" color-interpolation-filters="sRGB">
<feFlood flood-opacity="0" result="BackgroundImageFix"/>
<feBlend mode="normal" in="SourceGraphic" in2="BackgroundImageFix" result="shape"/>
<feGaussianBlur stdDeviation="3.2" result="effect1_foregroundBlur_128_3405"/>
</filter>
<filter id="filter1_b_128_3405" x="53.3859" y="21.7727" width="222.23" height="220.086" filterUnits="userSpaceOnUse" color-interpolation-filters="sRGB">
<feFlood flood-opacity="0" result="BackgroundImageFix"/>
<feGaussianBlur in="BackgroundImageFix" stdDeviation="6.6"/>
<feComposite in2="SourceAlpha" operator="in" result="effect1_backgroundBlur_128_3405"/>
<feBlend mode="normal" in="SourceGraphic" in2="effect1_backgroundBlur_128_3405" result="shape"/>
</filter>
<filter id="filter2_b_128_3405" x="-3" y="77" width="342" height="154" filterUnits="userSpaceOnUse" color-interpolation-filters="sRGB">
<feFlood flood-opacity="0" result="BackgroundImageFix"/>
<feGaussianBlur in="BackgroundImageFix" stdDeviation="1.5"/>
<feComposite in2="SourceAlpha" operator="in" result="effect1_backgroundBlur_128_3405"/>
<feBlend mode="normal" in="SourceGraphic" in2="effect1_backgroundBlur_128_3405" result="shape"/>
</filter>
<filter id="filter3_b_128_3405" x="102.163" y="88.1595" width="131.682" height="131.682" filterUnits="userSpaceOnUse" color-interpolation-filters="sRGB">
<feFlood flood-opacity="0" result="BackgroundImageFix"/>
<feGaussianBlur in="BackgroundImageFix" stdDeviation="9.16048"/>
<feComposite in2="SourceAlpha" operator="in" result="effect1_backgroundBlur_128_3405"/>
<feBlend mode="normal" in="SourceGraphic" in2="effect1_backgroundBlur_128_3405" result="shape"/>
</filter>
<filter id="filter4_b_128_3405" x="123.628" y="109.629" width="88.1698" height="88.1698" filterUnits="userSpaceOnUse" color-interpolation-filters="sRGB">
<feFlood flood-opacity="0" result="BackgroundImageFix"/>
<feGaussianBlur in="BackgroundImageFix" stdDeviation="5.7253"/>
<feComposite in2="SourceAlpha" operator="in" result="effect1_backgroundBlur_128_3405"/>
<feBlend mode="normal" in="SourceGraphic" in2="effect1_backgroundBlur_128_3405" result="shape"/>
</filter>
<filter id="filter5_f_128_3405" x="120.078" y="106.073" width="94.9011" height="94.9219" filterUnits="userSpaceOnUse" color-interpolation-filters="sRGB">
<feFlood flood-opacity="0" result="BackgroundImageFix"/>
<feBlend mode="normal" in="SourceGraphic" in2="BackgroundImageFix" result="shape"/>
<feGaussianBlur stdDeviation="18" result="effect1_foregroundBlur_128_3405"/>
</filter>
<linearGradient id="paint0_linear_128_3405" x1="-136" y1="329.5" x2="497" y2="329.5" gradientUnits="userSpaceOnUse">
<stop stop-color="white" stop-opacity="0"/>
<stop offset="0.475865" stop-color="white" stop-opacity="0.75"/>
<stop offset="1" stop-color="white" stop-opacity="0"/>
</linearGradient>
<radialGradient id="paint1_radial_128_3405" cx="0" cy="0" r="1" gradientUnits="userSpaceOnUse" gradientTransform="translate(113 103) rotate(133.647) scale(134.741 123.178)">
<stop stop-color="#2EFCB6" stop-opacity="0.5"/>
<stop offset="0.478728" stop-color="#2EFCB6" stop-opacity="0.041728"/>
<stop offset="1" stop-color="#2EFCB6" stop-opacity="0.5"/>
</radialGradient>
<linearGradient id="paint2_linear_128_3405" x1="215.524" y1="104.19" x2="164.054" y2="204.147" gradientUnits="userSpaceOnUse">
<stop stop-color="#2EFCB6" stop-opacity="0.5"/>
<stop offset="0.221573" stop-color="#2EFCB6" stop-opacity="0.041728"/>
<stop offset="1" stop-color="#2EFCB6" stop-opacity="0"/>
</linearGradient>
<linearGradient id="paint3_linear_128_3405" x1="166.74" y1="153.534" x2="156.484" y2="153.534" gradientUnits="userSpaceOnUse">
<stop stop-color="#9EFFDE"/>
<stop offset="1" stop-color="#A2F1FF"/>
</linearGradient>
<linearGradient id="paint4_linear_128_3405" x1="166.74" y1="153.534" x2="156.484" y2="153.534" gradientUnits="userSpaceOnUse">
<stop stop-color="#9EFFDE"/>
<stop offset="1" stop-color="#A2F1FF"/>
</linearGradient>
<linearGradient id="paint5_linear_128_3405" x1="181.741" y1="156.573" x2="156.692" y2="152.31" gradientUnits="userSpaceOnUse">
<stop stop-color="#2EFCB6"/>
<stop offset="1" stop-color="#11CDED"/>
</linearGradient>
<linearGradient id="paint6_linear_128_3405" x1="181.741" y1="156.573" x2="156.692" y2="152.31" gradientUnits="userSpaceOnUse">
<stop stop-color="#2EFCB6"/>
<stop offset="1" stop-color="#11CDED"/>
</linearGradient>
<linearGradient id="paint7_linear_128_3405" x1="193.741" y1="123.205" x2="160.403" y2="188.007" gradientUnits="userSpaceOnUse">
<stop stop-color="#2EFCB6" stop-opacity="0.5"/>
<stop offset="0.221573" stop-color="#2EFCB6" stop-opacity="0.041728"/>
<stop offset="1" stop-color="#2EFCB6" stop-opacity="0"/>
</linearGradient>
<linearGradient id="paint8_linear_128_3405" x1="333.5" y1="80" x2="1.26596e-05" y2="79.7324" gradientUnits="userSpaceOnUse">
<stop stop-color="white" stop-opacity="0"/>
<stop offset="0.475865" stop-color="#2EFCB6" stop-opacity="0.75"/>
<stop offset="1" stop-color="white" stop-opacity="0"/>
</linearGradient>
<clipPath id="clip0_128_3405">
<rect width="336" height="228" fill="white"/>
</clipPath>
</defs>
</svg>
