<svg width="360" height="200" viewBox="0 0 360 200" fill="none" xmlns="http://www.w3.org/2000/svg">
<path d="M335.756 128.219H219.612L146.429 80.9512H16" stroke="url(#paint0_linear_59_5680)" stroke-width="2" stroke-linecap="round" stroke-linejoin="round"/>
<path d="M335.756 93.4639H219.612L146.429 61.4883H16" stroke="url(#paint1_linear_59_5680)" stroke-width="2" stroke-linecap="round" stroke-linejoin="round"/>
<path d="M238.758 143.144C238.126 143.144 237.566 142.968 237.078 142.616C236.598 142.264 236.222 141.764 235.95 141.116C235.686 140.468 235.554 139.696 235.554 138.8C235.554 137.904 235.686 137.132 235.95 136.484C236.222 135.836 236.598 135.336 237.078 134.984C237.566 134.632 238.126 134.456 238.758 134.456C239.398 134.456 239.958 134.632 240.438 134.984C240.918 135.336 241.29 135.836 241.554 136.484C241.826 137.132 241.962 137.904 241.962 138.8C241.962 139.696 241.826 140.468 241.554 141.116C241.29 141.764 240.918 142.264 240.438 142.616C239.958 142.968 239.398 143.144 238.758 143.144ZM236.586 138.8C236.586 139.344 236.642 139.836 236.754 140.276C236.874 140.708 237.038 141.072 237.246 141.368L239.574 135.596C239.326 135.46 239.054 135.392 238.758 135.392C238.334 135.392 237.958 135.532 237.63 135.812C237.302 136.084 237.046 136.476 236.862 136.988C236.678 137.492 236.586 138.096 236.586 138.8ZM238.758 142.22C239.182 142.22 239.558 142.084 239.886 141.812C240.214 141.532 240.47 141.136 240.654 140.624C240.838 140.112 240.93 139.504 240.93 138.8C240.93 138.256 240.87 137.768 240.75 137.336C240.638 136.896 240.478 136.528 240.27 136.232L237.93 142.016C238.186 142.152 238.462 142.22 238.758 142.22Z" fill="#15FFAB" fill-opacity="0.1"/>
<path d="M228.203 143V142.088H230.375V135.788L228.323 136.184V135.416L230.711 134.6H231.383V142.088H233.675V143H228.203Z" fill="#15FFAB" fill-opacity="0.1"/>
<path d="M223.167 143.144C222.535 143.144 221.975 142.968 221.487 142.616C221.007 142.264 220.631 141.764 220.359 141.116C220.095 140.468 219.963 139.696 219.963 138.8C219.963 137.904 220.095 137.132 220.359 136.484C220.631 135.836 221.007 135.336 221.487 134.984C221.975 134.632 222.535 134.456 223.167 134.456C223.807 134.456 224.367 134.632 224.847 134.984C225.327 135.336 225.699 135.836 225.963 136.484C226.235 137.132 226.371 137.904 226.371 138.8C226.371 139.696 226.235 140.468 225.963 141.116C225.699 141.764 225.327 142.264 224.847 142.616C224.367 142.968 223.807 143.144 223.167 143.144ZM220.995 138.8C220.995 139.344 221.051 139.836 221.163 140.276C221.283 140.708 221.447 141.072 221.655 141.368L223.983 135.596C223.735 135.46 223.463 135.392 223.167 135.392C222.743 135.392 222.367 135.532 222.039 135.812C221.711 136.084 221.455 136.476 221.271 136.988C221.087 137.492 220.995 138.096 220.995 138.8ZM223.167 142.22C223.591 142.22 223.967 142.084 224.295 141.812C224.623 141.532 224.879 141.136 225.063 140.624C225.247 140.112 225.339 139.504 225.339 138.8C225.339 138.256 225.279 137.768 225.159 137.336C225.047 136.896 224.887 136.528 224.679 136.232L222.339 142.016C222.595 142.152 222.871 142.22 223.167 142.22Z" fill="#15FFAB" fill-opacity="0.1"/>
<path d="M212.612 143V142.088H214.784V135.788L212.732 136.184V135.416L215.12 134.6H215.792V142.088H218.084V143H212.612Z" fill="#15FFAB" fill-opacity="0.3"/>
<path d="M207.577 143.144C206.945 143.144 206.385 142.968 205.897 142.616C205.417 142.264 205.041 141.764 204.769 141.116C204.505 140.468 204.373 139.696 204.373 138.8C204.373 137.904 204.505 137.132 204.769 136.484C205.041 135.836 205.417 135.336 205.897 134.984C206.385 134.632 206.945 134.456 207.577 134.456C208.217 134.456 208.777 134.632 209.257 134.984C209.737 135.336 210.109 135.836 210.373 136.484C210.645 137.132 210.781 137.904 210.781 138.8C210.781 139.696 210.645 140.468 210.373 141.116C210.109 141.764 209.737 142.264 209.257 142.616C208.777 142.968 208.217 143.144 207.577 143.144ZM205.405 138.8C205.405 139.344 205.461 139.836 205.573 140.276C205.693 140.708 205.857 141.072 206.065 141.368L208.393 135.596C208.145 135.46 207.873 135.392 207.577 135.392C207.153 135.392 206.777 135.532 206.449 135.812C206.121 136.084 205.865 136.476 205.681 136.988C205.497 137.492 205.405 138.096 205.405 138.8ZM207.577 142.22C208.001 142.22 208.377 142.084 208.705 141.812C209.033 141.532 209.289 141.136 209.473 140.624C209.657 140.112 209.749 139.504 209.749 138.8C209.749 138.256 209.689 137.768 209.569 137.336C209.457 136.896 209.297 136.528 209.089 136.232L206.749 142.016C207.005 142.152 207.281 142.22 207.577 142.22Z" fill="#15FFAB" fill-opacity="0.1"/>
<path d="M197.021 143V142.088H199.193V135.788L197.141 136.184V135.416L199.529 134.6H200.201V142.088H202.493V143H197.021Z" fill="#15FFAB" fill-opacity="0.1"/>
<path d="M191.986 143.144C191.354 143.144 190.794 142.968 190.306 142.616C189.826 142.264 189.45 141.764 189.178 141.116C188.914 140.468 188.782 139.696 188.782 138.8C188.782 137.904 188.914 137.132 189.178 136.484C189.45 135.836 189.826 135.336 190.306 134.984C190.794 134.632 191.354 134.456 191.986 134.456C192.626 134.456 193.186 134.632 193.666 134.984C194.146 135.336 194.518 135.836 194.782 136.484C195.054 137.132 195.19 137.904 195.19 138.8C195.19 139.696 195.054 140.468 194.782 141.116C194.518 141.764 194.146 142.264 193.666 142.616C193.186 142.968 192.626 143.144 191.986 143.144ZM189.814 138.8C189.814 139.344 189.87 139.836 189.982 140.276C190.102 140.708 190.266 141.072 190.474 141.368L192.802 135.596C192.554 135.46 192.282 135.392 191.986 135.392C191.562 135.392 191.186 135.532 190.858 135.812C190.53 136.084 190.274 136.476 190.09 136.988C189.906 137.492 189.814 138.096 189.814 138.8ZM191.986 142.22C192.41 142.22 192.786 142.084 193.114 141.812C193.442 141.532 193.698 141.136 193.882 140.624C194.066 140.112 194.158 139.504 194.158 138.8C194.158 138.256 194.098 137.768 193.978 137.336C193.866 136.896 193.706 136.528 193.498 136.232L191.158 142.016C191.414 142.152 191.69 142.22 191.986 142.22Z" fill="#15FFAB" fill-opacity="0.3"/>
<path d="M181.431 143V142.088H183.603V135.788L181.551 136.184V135.416L183.939 134.6H184.611V142.088H186.903V143H181.431Z" fill="#15FFAB" fill-opacity="0.3"/>
<path d="M176.395 143.144C175.763 143.144 175.203 142.968 174.715 142.616C174.235 142.264 173.859 141.764 173.587 141.116C173.323 140.468 173.191 139.696 173.191 138.8C173.191 137.904 173.323 137.132 173.587 136.484C173.859 135.836 174.235 135.336 174.715 134.984C175.203 134.632 175.763 134.456 176.395 134.456C177.035 134.456 177.595 134.632 178.075 134.984C178.555 135.336 178.927 135.836 179.191 136.484C179.463 137.132 179.599 137.904 179.599 138.8C179.599 139.696 179.463 140.468 179.191 141.116C178.927 141.764 178.555 142.264 178.075 142.616C177.595 142.968 177.035 143.144 176.395 143.144ZM174.223 138.8C174.223 139.344 174.279 139.836 174.391 140.276C174.511 140.708 174.675 141.072 174.883 141.368L177.211 135.596C176.963 135.46 176.691 135.392 176.395 135.392C175.971 135.392 175.595 135.532 175.267 135.812C174.939 136.084 174.683 136.476 174.499 136.988C174.315 137.492 174.223 138.096 174.223 138.8ZM176.395 142.22C176.819 142.22 177.195 142.084 177.523 141.812C177.851 141.532 178.107 141.136 178.291 140.624C178.475 140.112 178.567 139.504 178.567 138.8C178.567 138.256 178.507 137.768 178.387 137.336C178.275 136.896 178.115 136.528 177.907 136.232L175.567 142.016C175.823 142.152 176.099 142.22 176.395 142.22Z" fill="#15FFAB" fill-opacity="0.1"/>
<path d="M165.84 143V142.088H168.012V135.788L165.96 136.184V135.416L168.348 134.6H169.02V142.088H171.312V143H165.84Z" fill="#15FFAB" fill-opacity="0.1"/>
<path d="M235.998 116V115.088H238.17V108.788L236.118 109.184V108.416L238.506 107.6H239.178V115.088H241.47V116H235.998Z" fill="#15FFAB" fill-opacity="0.5"/>
<path d="M230.962 116.144C230.33 116.144 229.77 115.968 229.282 115.616C228.802 115.264 228.426 114.764 228.154 114.116C227.89 113.468 227.758 112.696 227.758 111.8C227.758 110.904 227.89 110.132 228.154 109.484C228.426 108.836 228.802 108.336 229.282 107.984C229.77 107.632 230.33 107.456 230.962 107.456C231.602 107.456 232.162 107.632 232.642 107.984C233.122 108.336 233.494 108.836 233.758 109.484C234.03 110.132 234.166 110.904 234.166 111.8C234.166 112.696 234.03 113.468 233.758 114.116C233.494 114.764 233.122 115.264 232.642 115.616C232.162 115.968 231.602 116.144 230.962 116.144ZM228.79 111.8C228.79 112.344 228.846 112.836 228.958 113.276C229.078 113.708 229.242 114.072 229.45 114.368L231.778 108.596C231.53 108.46 231.258 108.392 230.962 108.392C230.538 108.392 230.162 108.532 229.834 108.812C229.506 109.084 229.25 109.476 229.066 109.988C228.882 110.492 228.79 111.096 228.79 111.8ZM230.962 115.22C231.386 115.22 231.762 115.084 232.09 114.812C232.418 114.532 232.674 114.136 232.858 113.624C233.042 113.112 233.134 112.504 233.134 111.8C233.134 111.256 233.074 110.768 232.954 110.336C232.842 109.896 232.682 109.528 232.474 109.232L230.134 115.016C230.39 115.152 230.666 115.22 230.962 115.22Z" fill="#15FFAB" fill-opacity="0.5"/>
<path d="M220.407 116V115.088H222.579V108.788L220.527 109.184V108.416L222.915 107.6H223.587V115.088H225.879V116H220.407Z" fill="#15FFAB" fill-opacity="0.1"/>
<path d="M215.372 116.144C214.74 116.144 214.18 115.968 213.692 115.616C213.212 115.264 212.836 114.764 212.564 114.116C212.3 113.468 212.168 112.696 212.168 111.8C212.168 110.904 212.3 110.132 212.564 109.484C212.836 108.836 213.212 108.336 213.692 107.984C214.18 107.632 214.74 107.456 215.372 107.456C216.012 107.456 216.572 107.632 217.052 107.984C217.532 108.336 217.904 108.836 218.168 109.484C218.44 110.132 218.576 110.904 218.576 111.8C218.576 112.696 218.44 113.468 218.168 114.116C217.904 114.764 217.532 115.264 217.052 115.616C216.572 115.968 216.012 116.144 215.372 116.144ZM213.2 111.8C213.2 112.344 213.256 112.836 213.368 113.276C213.488 113.708 213.652 114.072 213.86 114.368L216.188 108.596C215.94 108.46 215.668 108.392 215.372 108.392C214.948 108.392 214.572 108.532 214.244 108.812C213.916 109.084 213.66 109.476 213.476 109.988C213.292 110.492 213.2 111.096 213.2 111.8ZM215.372 115.22C215.796 115.22 216.172 115.084 216.5 114.812C216.828 114.532 217.084 114.136 217.268 113.624C217.452 113.112 217.544 112.504 217.544 111.8C217.544 111.256 217.484 110.768 217.364 110.336C217.252 109.896 217.092 109.528 216.884 109.232L214.544 115.016C214.8 115.152 215.076 115.22 215.372 115.22Z" fill="#15FFAB" fill-opacity="0.1"/>
<path d="M207.577 116.144C206.945 116.144 206.385 115.968 205.897 115.616C205.417 115.264 205.041 114.764 204.769 114.116C204.505 113.468 204.373 112.696 204.373 111.8C204.373 110.904 204.505 110.132 204.769 109.484C205.041 108.836 205.417 108.336 205.897 107.984C206.385 107.632 206.945 107.456 207.577 107.456C208.217 107.456 208.777 107.632 209.257 107.984C209.737 108.336 210.109 108.836 210.373 109.484C210.645 110.132 210.781 110.904 210.781 111.8C210.781 112.696 210.645 113.468 210.373 114.116C210.109 114.764 209.737 115.264 209.257 115.616C208.777 115.968 208.217 116.144 207.577 116.144ZM205.405 111.8C205.405 112.344 205.461 112.836 205.573 113.276C205.693 113.708 205.857 114.072 206.065 114.368L208.393 108.596C208.145 108.46 207.873 108.392 207.577 108.392C207.153 108.392 206.777 108.532 206.449 108.812C206.121 109.084 205.865 109.476 205.681 109.988C205.497 110.492 205.405 111.096 205.405 111.8ZM207.577 115.22C208.001 115.22 208.377 115.084 208.705 114.812C209.033 114.532 209.289 114.136 209.473 113.624C209.657 113.112 209.749 112.504 209.749 111.8C209.749 111.256 209.689 110.768 209.569 110.336C209.457 109.896 209.297 109.528 209.089 109.232L206.749 115.016C207.005 115.152 207.281 115.22 207.577 115.22Z" fill="#15FFAB" fill-opacity="0.1"/>
<path d="M197.021 116V115.088H199.193V108.788L197.141 109.184V108.416L199.529 107.6H200.201V115.088H202.493V116H197.021Z" fill="#15FFAB" fill-opacity="0.1"/>
<path d="M191.986 116.144C191.354 116.144 190.794 115.968 190.306 115.616C189.826 115.264 189.45 114.764 189.178 114.116C188.914 113.468 188.782 112.696 188.782 111.8C188.782 110.904 188.914 110.132 189.178 109.484C189.45 108.836 189.826 108.336 190.306 107.984C190.794 107.632 191.354 107.456 191.986 107.456C192.626 107.456 193.186 107.632 193.666 107.984C194.146 108.336 194.518 108.836 194.782 109.484C195.054 110.132 195.19 110.904 195.19 111.8C195.19 112.696 195.054 113.468 194.782 114.116C194.518 114.764 194.146 115.264 193.666 115.616C193.186 115.968 192.626 116.144 191.986 116.144ZM189.814 111.8C189.814 112.344 189.87 112.836 189.982 113.276C190.102 113.708 190.266 114.072 190.474 114.368L192.802 108.596C192.554 108.46 192.282 108.392 191.986 108.392C191.562 108.392 191.186 108.532 190.858 108.812C190.53 109.084 190.274 109.476 190.09 109.988C189.906 110.492 189.814 111.096 189.814 111.8ZM191.986 115.22C192.41 115.22 192.786 115.084 193.114 114.812C193.442 114.532 193.698 114.136 193.882 113.624C194.066 113.112 194.158 112.504 194.158 111.8C194.158 111.256 194.098 110.768 193.978 110.336C193.866 109.896 193.706 109.528 193.498 109.232L191.158 115.016C191.414 115.152 191.69 115.22 191.986 115.22Z" fill="#15FFAB" fill-opacity="0.1"/>
<path d="M181.431 116V115.088H183.603V108.788L181.551 109.184V108.416L183.939 107.6H184.611V115.088H186.903V116H181.431Z" fill="#15FFAB" fill-opacity="0.1"/>
<path d="M176.395 116.144C175.763 116.144 175.203 115.968 174.715 115.616C174.235 115.264 173.859 114.764 173.587 114.116C173.323 113.468 173.191 112.696 173.191 111.8C173.191 110.904 173.323 110.132 173.587 109.484C173.859 108.836 174.235 108.336 174.715 107.984C175.203 107.632 175.763 107.456 176.395 107.456C177.035 107.456 177.595 107.632 178.075 107.984C178.555 108.336 178.927 108.836 179.191 109.484C179.463 110.132 179.599 110.904 179.599 111.8C179.599 112.696 179.463 113.468 179.191 114.116C178.927 114.764 178.555 115.264 178.075 115.616C177.595 115.968 177.035 116.144 176.395 116.144ZM174.223 111.8C174.223 112.344 174.279 112.836 174.391 113.276C174.511 113.708 174.675 114.072 174.883 114.368L177.211 108.596C176.963 108.46 176.691 108.392 176.395 108.392C175.971 108.392 175.595 108.532 175.267 108.812C174.939 109.084 174.683 109.476 174.499 109.988C174.315 110.492 174.223 111.096 174.223 111.8ZM176.395 115.22C176.819 115.22 177.195 115.084 177.523 114.812C177.851 114.532 178.107 114.136 178.291 113.624C178.475 113.112 178.567 112.504 178.567 111.8C178.567 111.256 178.507 110.768 178.387 110.336C178.275 109.896 178.115 109.528 177.907 109.232L175.567 115.016C175.823 115.152 176.099 115.22 176.395 115.22Z" fill="#15FFAB" fill-opacity="0.1"/>
<path d="M165.84 116V115.088H168.012V108.788L165.96 109.184V108.416L168.348 107.6H169.02V115.088H171.312V116H165.84Z" fill="#15FFAB" fill-opacity="0.1"/>
<path d="M235.998 64.9996V64.0876H238.17V57.7876L236.118 58.1836V57.4156L238.506 56.5996H239.178V64.0876H241.47V64.9996H235.998Z" fill="#15FFAB" fill-opacity="0.1"/>
<path d="M230.962 65.1441C230.33 65.1441 229.77 64.9681 229.282 64.6161C228.802 64.2641 228.426 63.7641 228.154 63.1161C227.89 62.4681 227.758 61.6961 227.758 60.8001C227.758 59.9041 227.89 59.1321 228.154 58.4841C228.426 57.8361 228.802 57.3361 229.282 56.9841C229.77 56.6321 230.33 56.4561 230.962 56.4561C231.602 56.4561 232.162 56.6321 232.642 56.9841C233.122 57.3361 233.494 57.8361 233.758 58.4841C234.03 59.1321 234.166 59.9041 234.166 60.8001C234.166 61.6961 234.03 62.4681 233.758 63.1161C233.494 63.7641 233.122 64.2641 232.642 64.6161C232.162 64.9681 231.602 65.1441 230.962 65.1441ZM228.79 60.8001C228.79 61.3441 228.846 61.8361 228.958 62.2761C229.078 62.7081 229.242 63.0721 229.45 63.3681L231.778 57.5961C231.53 57.4601 231.258 57.3921 230.962 57.3921C230.538 57.3921 230.162 57.5321 229.834 57.8121C229.506 58.0841 229.25 58.4761 229.066 58.9881C228.882 59.4921 228.79 60.0961 228.79 60.8001ZM230.962 64.2201C231.386 64.2201 231.762 64.0841 232.09 63.8121C232.418 63.5321 232.674 63.1361 232.858 62.6241C233.042 62.1121 233.134 61.5041 233.134 60.8001C233.134 60.2561 233.074 59.7681 232.954 59.3361C232.842 58.8961 232.682 58.5281 232.474 58.2321L230.134 64.0161C230.39 64.1521 230.666 64.2201 230.962 64.2201Z" fill="#15FFAB" fill-opacity="0.1"/>
<path d="M220.407 64.9996V64.0876H222.579V57.7876L220.527 58.1836V57.4156L222.915 56.5996H223.587V64.0876H225.879V64.9996H220.407Z" fill="#15FFAB" fill-opacity="0.1"/>
<path d="M215.372 65.1441C214.74 65.1441 214.18 64.9681 213.692 64.6161C213.212 64.2641 212.836 63.7641 212.564 63.1161C212.3 62.4681 212.168 61.6961 212.168 60.8001C212.168 59.9041 212.3 59.1321 212.564 58.4841C212.836 57.8361 213.212 57.3361 213.692 56.9841C214.18 56.6321 214.74 56.4561 215.372 56.4561C216.012 56.4561 216.572 56.6321 217.052 56.9841C217.532 57.3361 217.904 57.8361 218.168 58.4841C218.44 59.1321 218.576 59.9041 218.576 60.8001C218.576 61.6961 218.44 62.4681 218.168 63.1161C217.904 63.7641 217.532 64.2641 217.052 64.6161C216.572 64.9681 216.012 65.1441 215.372 65.1441ZM213.2 60.8001C213.2 61.3441 213.256 61.8361 213.368 62.2761C213.488 62.7081 213.652 63.0721 213.86 63.3681L216.188 57.5961C215.94 57.4601 215.668 57.3921 215.372 57.3921C214.948 57.3921 214.572 57.5321 214.244 57.8121C213.916 58.0841 213.66 58.4761 213.476 58.9881C213.292 59.4921 213.2 60.0961 213.2 60.8001ZM215.372 64.2201C215.796 64.2201 216.172 64.0841 216.5 63.8121C216.828 63.5321 217.084 63.1361 217.268 62.6241C217.452 62.1121 217.544 61.5041 217.544 60.8001C217.544 60.2561 217.484 59.7681 217.364 59.3361C217.252 58.8961 217.092 58.5281 216.884 58.2321L214.544 64.0161C214.8 64.1521 215.076 64.2201 215.372 64.2201Z" fill="#15FFAB" fill-opacity="0.5"/>
<path d="M207.577 65.1441C206.945 65.1441 206.385 64.9681 205.897 64.6161C205.417 64.2641 205.041 63.7641 204.769 63.1161C204.505 62.4681 204.373 61.6961 204.373 60.8001C204.373 59.9041 204.505 59.1321 204.769 58.4841C205.041 57.8361 205.417 57.3361 205.897 56.9841C206.385 56.6321 206.945 56.4561 207.577 56.4561C208.217 56.4561 208.777 56.6321 209.257 56.9841C209.737 57.3361 210.109 57.8361 210.373 58.4841C210.645 59.1321 210.781 59.9041 210.781 60.8001C210.781 61.6961 210.645 62.4681 210.373 63.1161C210.109 63.7641 209.737 64.2641 209.257 64.6161C208.777 64.9681 208.217 65.1441 207.577 65.1441ZM205.405 60.8001C205.405 61.3441 205.461 61.8361 205.573 62.2761C205.693 62.7081 205.857 63.0721 206.065 63.3681L208.393 57.5961C208.145 57.4601 207.873 57.3921 207.577 57.3921C207.153 57.3921 206.777 57.5321 206.449 57.8121C206.121 58.0841 205.865 58.4761 205.681 58.9881C205.497 59.4921 205.405 60.0961 205.405 60.8001ZM207.577 64.2201C208.001 64.2201 208.377 64.0841 208.705 63.8121C209.033 63.5321 209.289 63.1361 209.473 62.6241C209.657 62.1121 209.749 61.5041 209.749 60.8001C209.749 60.2561 209.689 59.7681 209.569 59.3361C209.457 58.8961 209.297 58.5281 209.089 58.2321L206.749 64.0161C207.005 64.1521 207.281 64.2201 207.577 64.2201Z" fill="#15FFAB" fill-opacity="0.5"/>
<path d="M197.021 64.9996V64.0876H199.193V57.7876L197.141 58.1836V57.4156L199.529 56.5996H200.201V64.0876H202.493V64.9996H197.021Z" fill="#15FFAB" fill-opacity="0.1"/>
<path d="M191.986 65.1441C191.354 65.1441 190.794 64.9681 190.306 64.6161C189.826 64.2641 189.45 63.7641 189.178 63.1161C188.914 62.4681 188.782 61.6961 188.782 60.8001C188.782 59.9041 188.914 59.1321 189.178 58.4841C189.45 57.8361 189.826 57.3361 190.306 56.9841C190.794 56.6321 191.354 56.4561 191.986 56.4561C192.626 56.4561 193.186 56.6321 193.666 56.9841C194.146 57.3361 194.518 57.8361 194.782 58.4841C195.054 59.1321 195.19 59.9041 195.19 60.8001C195.19 61.6961 195.054 62.4681 194.782 63.1161C194.518 63.7641 194.146 64.2641 193.666 64.6161C193.186 64.9681 192.626 65.1441 191.986 65.1441ZM189.814 60.8001C189.814 61.3441 189.87 61.8361 189.982 62.2761C190.102 62.7081 190.266 63.0721 190.474 63.3681L192.802 57.5961C192.554 57.4601 192.282 57.3921 191.986 57.3921C191.562 57.3921 191.186 57.5321 190.858 57.8121C190.53 58.0841 190.274 58.4761 190.09 58.9881C189.906 59.4921 189.814 60.0961 189.814 60.8001ZM191.986 64.2201C192.41 64.2201 192.786 64.0841 193.114 63.8121C193.442 63.5321 193.698 63.1361 193.882 62.6241C194.066 62.1121 194.158 61.5041 194.158 60.8001C194.158 60.2561 194.098 59.7681 193.978 59.3361C193.866 58.8961 193.706 58.5281 193.498 58.2321L191.158 64.0161C191.414 64.1521 191.69 64.2201 191.986 64.2201Z" fill="#15FFAB" fill-opacity="0.1"/>
<path d="M181.431 64.9996V64.0876H183.603V57.7876L181.551 58.1836V57.4156L183.939 56.5996H184.611V64.0876H186.903V64.9996H181.431Z" fill="#15FFAB" fill-opacity="0.1"/>
<path d="M176.395 65.1441C175.763 65.1441 175.203 64.9681 174.715 64.6161C174.235 64.2641 173.859 63.7641 173.587 63.1161C173.323 62.4681 173.191 61.6961 173.191 60.8001C173.191 59.9041 173.323 59.1321 173.587 58.4841C173.859 57.8361 174.235 57.3361 174.715 56.9841C175.203 56.6321 175.763 56.4561 176.395 56.4561C177.035 56.4561 177.595 56.6321 178.075 56.9841C178.555 57.3361 178.927 57.8361 179.191 58.4841C179.463 59.1321 179.599 59.9041 179.599 60.8001C179.599 61.6961 179.463 62.4681 179.191 63.1161C178.927 63.7641 178.555 64.2641 178.075 64.6161C177.595 64.9681 177.035 65.1441 176.395 65.1441ZM174.223 60.8001C174.223 61.3441 174.279 61.8361 174.391 62.2761C174.511 62.7081 174.675 63.0721 174.883 63.3681L177.211 57.5961C176.963 57.4601 176.691 57.3921 176.395 57.3921C175.971 57.3921 175.595 57.5321 175.267 57.8121C174.939 58.0841 174.683 58.4761 174.499 58.9881C174.315 59.4921 174.223 60.0961 174.223 60.8001ZM176.395 64.2201C176.819 64.2201 177.195 64.0841 177.523 63.8121C177.851 63.5321 178.107 63.1361 178.291 62.6241C178.475 62.1121 178.567 61.5041 178.567 60.8001C178.567 60.2561 178.507 59.7681 178.387 59.3361C178.275 58.8961 178.115 58.5281 177.907 58.2321L175.567 64.0161C175.823 64.1521 176.099 64.2201 176.395 64.2201Z" fill="#15FFAB" fill-opacity="0.1"/>
<path d="M165.84 64.9996V64.0876H168.012V57.7876L165.96 58.1836V57.4156L168.348 56.5996H169.02V64.0876H171.312V64.9996H165.84Z" fill="#15FFAB" fill-opacity="0.5"/>
<path d="M235.998 90.9996V90.0876H238.17V83.7876L236.118 84.1836V83.4156L238.506 82.5996H239.178V90.0876H241.47V90.9996H235.998Z" fill="#15FFAB" fill-opacity="0.1"/>
<path d="M230.962 91.1441C230.33 91.1441 229.77 90.9681 229.282 90.6161C228.802 90.2641 228.426 89.7641 228.154 89.1161C227.89 88.4681 227.758 87.6961 227.758 86.8001C227.758 85.9041 227.89 85.1321 228.154 84.4841C228.426 83.8361 228.802 83.3361 229.282 82.9841C229.77 82.6321 230.33 82.4561 230.962 82.4561C231.602 82.4561 232.162 82.6321 232.642 82.9841C233.122 83.3361 233.494 83.8361 233.758 84.4841C234.03 85.1321 234.166 85.9041 234.166 86.8001C234.166 87.6961 234.03 88.4681 233.758 89.1161C233.494 89.7641 233.122 90.2641 232.642 90.6161C232.162 90.9681 231.602 91.1441 230.962 91.1441ZM228.79 86.8001C228.79 87.3441 228.846 87.8361 228.958 88.2761C229.078 88.7081 229.242 89.0721 229.45 89.3681L231.778 83.5961C231.53 83.4601 231.258 83.3921 230.962 83.3921C230.538 83.3921 230.162 83.5321 229.834 83.8121C229.506 84.0841 229.25 84.4761 229.066 84.9881C228.882 85.4921 228.79 86.0961 228.79 86.8001ZM230.962 90.2201C231.386 90.2201 231.762 90.0841 232.09 89.8121C232.418 89.5321 232.674 89.1361 232.858 88.6241C233.042 88.1121 233.134 87.5041 233.134 86.8001C233.134 86.2561 233.074 85.7681 232.954 85.3361C232.842 84.8961 232.682 84.5281 232.474 84.2321L230.134 90.0161C230.39 90.1521 230.666 90.2201 230.962 90.2201Z" fill="#15FFAB" fill-opacity="0.1"/>
<path d="M220.407 90.9996V90.0876H222.579V83.7876L220.527 84.1836V83.4156L222.915 82.5996H223.587V90.0876H225.879V90.9996H220.407Z" fill="#15FFAB" fill-opacity="0.1"/>
<path d="M165.84 90.9996V90.0876H168.012V83.7876L165.96 84.1836V83.4156L168.348 82.5996H169.02V90.0876H171.312V90.9996H165.84Z" fill="#15FFAB" fill-opacity="0.5"/>
<path d="M210.032 93.9994V92.6314H213.29V83.1814L210.212 83.7754V82.6234L213.794 81.3994H214.802V92.6314H218.24V93.9994H210.032Z" fill="#15FFAB" fill-opacity="0.1"/>
<path d="M202.479 94.2156C201.531 94.2156 200.691 93.9516 199.959 93.4236C199.239 92.8956 198.675 92.1456 198.267 91.1736C197.871 90.2016 197.673 89.0436 197.673 87.6996C197.673 86.3556 197.871 85.1976 198.267 84.2256C198.675 83.2536 199.239 82.5036 199.959 81.9756C200.691 81.4476 201.531 81.1836 202.479 81.1836C203.439 81.1836 204.279 81.4476 204.999 81.9756C205.719 82.5036 206.277 83.2536 206.673 84.2256C207.081 85.1976 207.285 86.3556 207.285 87.6996C207.285 89.0436 207.081 90.2016 206.673 91.1736C206.277 92.1456 205.719 92.8956 204.999 93.4236C204.279 93.9516 203.439 94.2156 202.479 94.2156ZM199.221 87.6996C199.221 88.5156 199.305 89.2536 199.473 89.9136C199.653 90.5616 199.899 91.1076 200.211 91.5516L203.703 82.8936C203.331 82.6896 202.923 82.5876 202.479 82.5876C201.843 82.5876 201.279 82.7976 200.787 83.2176C200.295 83.6256 199.911 84.2136 199.635 84.9816C199.359 85.7376 199.221 86.6436 199.221 87.6996ZM202.479 92.8296C203.115 92.8296 203.679 92.6256 204.171 92.2176C204.663 91.7976 205.047 91.2036 205.323 90.4356C205.599 89.6676 205.737 88.7556 205.737 87.6996C205.737 86.8836 205.647 86.1516 205.467 85.5036C205.299 84.8436 205.059 84.2916 204.747 83.8476L201.237 92.5236C201.621 92.7276 202.035 92.8296 202.479 92.8296Z" fill="#15FFAB" fill-opacity="0.1"/>
<path d="M186.646 93.9994V92.6314H189.904V83.1814L186.826 83.7754V82.6234L190.408 81.3994H191.416V92.6314H194.854V93.9994H186.646Z" fill="#15FFAB" fill-opacity="0.1"/>
<path d="M179.093 94.2156C178.145 94.2156 177.305 93.9516 176.573 93.4236C175.853 92.8956 175.289 92.1456 174.881 91.1736C174.485 90.2016 174.287 89.0436 174.287 87.6996C174.287 86.3556 174.485 85.1976 174.881 84.2256C175.289 83.2536 175.853 82.5036 176.573 81.9756C177.305 81.4476 178.145 81.1836 179.093 81.1836C180.053 81.1836 180.893 81.4476 181.613 81.9756C182.333 82.5036 182.891 83.2536 183.287 84.2256C183.695 85.1976 183.899 86.3556 183.899 87.6996C183.899 89.0436 183.695 90.2016 183.287 91.1736C182.891 92.1456 182.333 92.8956 181.613 93.4236C180.893 93.9516 180.053 94.2156 179.093 94.2156ZM175.835 87.6996C175.835 88.5156 175.919 89.2536 176.087 89.9136C176.267 90.5616 176.513 91.1076 176.825 91.5516L180.317 82.8936C179.945 82.6896 179.537 82.5876 179.093 82.5876C178.457 82.5876 177.893 82.7976 177.401 83.2176C176.909 83.6256 176.525 84.2136 176.249 84.9816C175.973 85.7376 175.835 86.6436 175.835 87.6996ZM179.093 92.8296C179.729 92.8296 180.293 92.6256 180.785 92.2176C181.277 91.7976 181.661 91.2036 181.937 90.4356C182.213 89.6676 182.351 88.7556 182.351 87.6996C182.351 86.8836 182.261 86.1516 182.081 85.5036C181.913 84.8436 181.673 84.2916 181.361 83.8476L177.851 92.5236C178.235 92.7276 178.649 92.8296 179.093 92.8296Z" fill="#15FFAB" fill-opacity="0.1"/>
<g filter="url(#filter0_d_59_5680)">
<circle cx="195" cy="90" r="22" stroke="url(#paint2_linear_59_5680)" stroke-width="4" stroke-linecap="round" stroke-linejoin="round" shape-rendering="crispEdges"/>
<circle cx="195" cy="90" r="22" stroke="#15FFAB" stroke-width="4" stroke-linecap="round" stroke-linejoin="round" shape-rendering="crispEdges"/>
</g>
<g filter="url(#filter1_d_59_5680)">
<path d="M215.5 117L235.5 142.455" stroke="white" stroke-width="4" stroke-linecap="round" stroke-linejoin="round"/>
</g>
<path d="M163.5 43V43C152.73 43 144 51.7304 144 62.5V99M144 99H125M144 99V137.5C144 148.27 152.73 157 163.5 157V157" stroke="#2E3747" stroke-width="4" stroke-linecap="round" stroke-linejoin="round"/>
<path d="M244 157V157C254.77 157 263.5 148.27 263.5 137.5L263.5 101M263.5 101L282.5 101M263.5 101L263.5 62.5C263.5 51.7304 254.77 43 244 43V43" stroke="#2E3747" stroke-width="4" stroke-linecap="round" stroke-linejoin="round"/>
<defs>
<filter id="filter0_d_59_5680" x="159.617" y="54.6174" width="70.7651" height="70.7651" filterUnits="userSpaceOnUse" color-interpolation-filters="sRGB">
<feFlood flood-opacity="0" result="BackgroundImageFix"/>
<feColorMatrix in="SourceAlpha" type="matrix" values="0 0 0 0 0 0 0 0 0 0 0 0 0 0 0 0 0 0 127 0" result="hardAlpha"/>
<feOffset/>
<feGaussianBlur stdDeviation="5.69128"/>
<feComposite in2="hardAlpha" operator="out"/>
<feColorMatrix type="matrix" values="0 0 0 0 0.0823529 0 0 0 0 1 0 0 0 0 0.670588 0 0 0 0.5 0"/>
<feBlend mode="normal" in2="BackgroundImageFix" result="effect1_dropShadow_59_5680"/>
<feBlend mode="normal" in="SourceGraphic" in2="effect1_dropShadow_59_5680" result="shape"/>
</filter>
<filter id="filter1_d_59_5680" x="202.117" y="103.617" width="46.7654" height="52.2202" filterUnits="userSpaceOnUse" color-interpolation-filters="sRGB">
<feFlood flood-opacity="0" result="BackgroundImageFix"/>
<feColorMatrix in="SourceAlpha" type="matrix" values="0 0 0 0 0 0 0 0 0 0 0 0 0 0 0 0 0 0 127 0" result="hardAlpha"/>
<feOffset/>
<feGaussianBlur stdDeviation="5.69128"/>
<feComposite in2="hardAlpha" operator="out"/>
<feColorMatrix type="matrix" values="0 0 0 0 0.0823529 0 0 0 0 1 0 0 0 0 0.670588 0 0 0 0.5 0"/>
<feBlend mode="normal" in2="BackgroundImageFix" result="effect1_dropShadow_59_5680"/>
<feBlend mode="normal" in="SourceGraphic" in2="effect1_dropShadow_59_5680" result="shape"/>
</filter>
<linearGradient id="paint0_linear_59_5680" x1="40.8867" y1="128.219" x2="427.007" y2="128.219" gradientUnits="userSpaceOnUse">
<stop stop-color="#0F1117" stop-opacity="0"/>
<stop offset="0.0825055" stop-color="#8A92A3"/>
<stop offset="0.269166" stop-color="#0F1117" stop-opacity="0"/>
<stop offset="0.582236" stop-color="#0F1117" stop-opacity="0"/>
<stop offset="0.665239" stop-color="#8A92A3"/>
<stop offset="0.765564" stop-color="#0F1117" stop-opacity="0"/>
</linearGradient>
<linearGradient id="paint1_linear_59_5680" x1="53.1038" y1="108.995" x2="427.007" y2="108.696" gradientUnits="userSpaceOnUse">
<stop stop-color="#1D1C1C" stop-opacity="0"/>
<stop offset="0.0643812" stop-color="#4A5263"/>
<stop offset="0.247826" stop-color="#1D1C1C" stop-opacity="0"/>
<stop offset="0.569864" stop-color="#1D1C1C" stop-opacity="0"/>
<stop offset="0.665239" stop-color="#2F333C"/>
<stop offset="0.758725" stop-color="#1D1C1C" stop-opacity="0"/>
</linearGradient>
<linearGradient id="paint2_linear_59_5680" x1="173" y1="89.8825" x2="217" y2="89.8825" gradientUnits="userSpaceOnUse">
<stop stop-color="#15FFAB"/>
<stop offset="1" stop-color="#14D3F9"/>
</linearGradient>
</defs>
</svg>
