<svg width="578" height="290" viewBox="0 0 578 290" fill="none" xmlns="http://www.w3.org/2000/svg">
<rect width="578" height="290" fill="#1C1C1C"/>
<g filter="url(#filter0_b_128_530)">
<path d="M20 24H558M20 74H558M20 124H558M20 174H558M20 224H558M20 274H558" stroke="url(#paint0_linear_128_530)" stroke-opacity="0.3"/>
</g>
<g filter="url(#filter1_b_128_530)">
<path d="M249 26.1998C249 23.2175 251.418 20.7998 254.4 20.7998H323.6C326.582 20.7998 329 23.2175 329 26.1998V272H249V26.1998Z" fill="url(#paint1_linear_128_530)" fill-opacity="0.05"/>
</g>
<path d="M254.4 21.2998H323.6C326.306 21.2998 328.5 23.4936 328.5 26.1998V271.5H249.5V26.1998C249.5 23.4936 251.694 21.2998 254.4 21.2998Z" stroke="url(#paint2_linear_128_530)"/>
<g filter="url(#filter2_b_128_530)">
<path d="M259 33C259 31.8954 259.895 31 261 31H317C318.105 31 319 31.8954 319 33V269C319 270.105 318.105 271 317 271H261C259.895 271 259 270.105 259 269V33Z" fill="url(#paint3_linear_128_530)"/>
</g>
<path d="M442.6 170.1H495.4C497.112 170.1 498.5 171.488 498.5 173.2V273.1H439.5V173.2C439.5 171.488 440.888 170.1 442.6 170.1ZM352.6 97.5H405.4C407.112 97.5 408.5 98.8879 408.5 100.6V272.5H349.5V100.6C349.5 98.8879 350.888 97.5 352.6 97.5ZM82.6 52.5H135.4C137.112 52.5 138.5 53.8879 138.5 55.6V273.5H79.5V55.6C79.5 53.8879 80.8879 52.5 82.6 52.5ZM172.6 182.5H225.4C227.112 182.5 228.5 183.888 228.5 185.6V273.5H169.5V185.6C169.5 183.888 170.888 182.5 172.6 182.5Z" fill="url(#paint4_linear_128_530)" stroke="url(#paint5_linear_128_530)"/>
<g filter="url(#filter3_b_128_530)">
<rect x="193" y="70" width="119" height="114" rx="20" fill="black" fill-opacity="0.15"/>
</g>
<path d="M260.956 169.49V170.402H266.428V169.49H264.136V162.002H263.464L261.076 162.818V163.586L263.128 163.19V169.49H260.956Z" fill="#2EFCB6" fill-opacity="0.3"/>
<path d="M229.774 169.49V170.402H235.246V169.49H232.954V162.002H232.282L229.894 162.818V163.586L231.946 163.19V169.49H229.774Z" fill="#2EFCB6" fill-opacity="0.3"/>
<path fill-rule="evenodd" clip-rule="evenodd" d="M238.65 170.018C239.138 170.37 239.698 170.546 240.33 170.546C240.97 170.546 241.53 170.37 242.01 170.018C242.49 169.666 242.862 169.166 243.126 168.518C243.398 167.87 243.534 167.098 243.534 166.202C243.534 165.306 243.398 164.534 243.126 163.886C242.862 163.238 242.49 162.738 242.01 162.386C241.53 162.034 240.97 161.858 240.33 161.858C239.698 161.858 239.138 162.034 238.65 162.386C238.17 162.738 237.794 163.238 237.522 163.886C237.258 164.534 237.126 165.306 237.126 166.202C237.126 167.098 237.258 167.87 237.522 168.518C237.794 169.166 238.17 169.666 238.65 170.018ZM240.33 169.622C240.754 169.622 241.13 169.486 241.458 169.214C241.786 168.934 242.042 168.538 242.226 168.026C242.41 167.514 242.502 166.906 242.502 166.202C242.502 165.658 242.442 165.17 242.322 164.738C242.21 164.298 242.05 163.93 241.842 163.634L239.502 169.418C239.758 169.554 240.034 169.622 240.33 169.622ZM238.326 167.678C238.214 167.238 238.158 166.746 238.158 166.202C238.158 165.498 238.25 164.894 238.434 164.39C238.618 163.878 238.874 163.486 239.202 163.214C239.53 162.934 239.906 162.794 240.33 162.794C240.626 162.794 240.898 162.862 241.146 162.998L238.818 168.77C238.61 168.474 238.446 168.11 238.326 167.678Z" fill="#2EFCB6" fill-opacity="0.3"/>
<path d="M284.342 142.49V143.402H289.814V142.49H287.522V135.002H286.85L284.462 135.818V136.586L286.514 136.19V142.49H284.342Z" fill="#2EFCB6" fill-opacity="0.5"/>
<path d="M214.184 91.49V92.402H219.656V91.49H217.364V84.002H216.692L214.304 84.818V85.586L216.356 85.19V91.49H214.184Z" fill="#2EFCB6" fill-opacity="0.5"/>
<path d="M214.184 117.49V118.402H219.656V117.49H217.364V110.002H216.692L214.304 110.818V111.586L216.356 111.19V117.49H214.184Z" fill="#2EFCB6" fill-opacity="0.5"/>
<path fill-rule="evenodd" clip-rule="evenodd" d="M277.626 143.018C278.114 143.37 278.674 143.546 279.306 143.546C279.946 143.546 280.506 143.37 280.986 143.018C281.466 142.666 281.838 142.166 282.102 141.518C282.374 140.87 282.51 140.098 282.51 139.202C282.51 138.306 282.374 137.534 282.102 136.886C281.838 136.238 281.466 135.738 280.986 135.386C280.506 135.034 279.946 134.858 279.306 134.858C278.674 134.858 278.114 135.034 277.626 135.386C277.146 135.738 276.77 136.238 276.498 136.886C276.234 137.534 276.102 138.306 276.102 139.202C276.102 140.098 276.234 140.87 276.498 141.518C276.77 142.166 277.146 142.666 277.626 143.018ZM279.306 142.622C279.73 142.622 280.106 142.486 280.434 142.214C280.762 141.934 281.018 141.538 281.202 141.026C281.386 140.514 281.478 139.906 281.478 139.202C281.478 138.658 281.418 138.17 281.298 137.738C281.186 137.298 281.026 136.93 280.818 136.634L278.478 142.418C278.734 142.554 279.01 142.622 279.306 142.622ZM277.302 140.678C277.19 140.238 277.134 139.746 277.134 139.202C277.134 138.498 277.226 137.894 277.41 137.39C277.594 136.878 277.85 136.486 278.178 136.214C278.506 135.934 278.882 135.794 279.306 135.794C279.602 135.794 279.874 135.862 280.122 135.998L277.794 141.77C277.586 141.474 277.422 141.11 277.302 140.678Z" fill="#2EFCB6" fill-opacity="0.5"/>
<path fill-rule="evenodd" clip-rule="evenodd" d="M262.036 92.0184C262.524 92.3704 263.084 92.5464 263.716 92.5464C264.356 92.5464 264.916 92.3704 265.396 92.0184C265.876 91.6664 266.248 91.1664 266.512 90.5184C266.784 89.8704 266.92 89.0984 266.92 88.2024C266.92 87.3064 266.784 86.5344 266.512 85.8864C266.248 85.2384 265.876 84.7384 265.396 84.3864C264.916 84.0344 264.356 83.8584 263.716 83.8584C263.084 83.8584 262.524 84.0344 262.036 84.3864C261.556 84.7384 261.18 85.2384 260.908 85.8864C260.644 86.5344 260.512 87.3064 260.512 88.2024C260.512 89.0984 260.644 89.8704 260.908 90.5184C261.18 91.1664 261.556 91.6664 262.036 92.0184ZM263.716 91.6224C264.14 91.6224 264.516 91.4864 264.844 91.2144C265.172 90.9344 265.428 90.5384 265.612 90.0264C265.796 89.5144 265.888 88.9064 265.888 88.2024C265.888 87.6584 265.828 87.1704 265.708 86.7384C265.596 86.2984 265.436 85.9304 265.228 85.6344L262.888 91.4184C263.144 91.5544 263.42 91.6224 263.716 91.6224ZM261.712 89.6784C261.6 89.2384 261.544 88.7464 261.544 88.2024C261.544 87.4984 261.636 86.8944 261.82 86.3904C262.004 85.8784 262.26 85.4864 262.588 85.2144C262.916 84.9344 263.292 84.7944 263.716 84.7944C264.012 84.7944 264.284 84.8624 264.532 84.9984L262.204 90.7704C261.996 90.4744 261.832 90.1104 261.712 89.6784Z" fill="#2EFCB6" fill-opacity="0.5"/>
<path fill-rule="evenodd" clip-rule="evenodd" d="M254.24 92.0184C254.728 92.3704 255.288 92.5464 255.92 92.5464C256.56 92.5464 257.12 92.3704 257.6 92.0184C258.08 91.6664 258.452 91.1664 258.716 90.5184C258.988 89.8704 259.124 89.0984 259.124 88.2024C259.124 87.3064 258.988 86.5344 258.716 85.8864C258.452 85.2384 258.08 84.7384 257.6 84.3864C257.12 84.0344 256.56 83.8584 255.92 83.8584C255.288 83.8584 254.728 84.0344 254.24 84.3864C253.76 84.7384 253.384 85.2384 253.112 85.8864C252.848 86.5344 252.716 87.3064 252.716 88.2024C252.716 89.0984 252.848 89.8704 253.112 90.5184C253.384 91.1664 253.76 91.6664 254.24 92.0184ZM255.92 91.6224C256.344 91.6224 256.72 91.4864 257.048 91.2144C257.376 90.9344 257.632 90.5384 257.816 90.0264C258 89.5144 258.092 88.9064 258.092 88.2024C258.092 87.6584 258.032 87.1704 257.912 86.7384C257.8 86.2984 257.64 85.9304 257.432 85.6344L255.092 91.4184C255.348 91.5544 255.624 91.6224 255.92 91.6224ZM253.916 89.6784C253.804 89.2384 253.748 88.7464 253.748 88.2024C253.748 87.4984 253.84 86.8944 254.024 86.3904C254.208 85.8784 254.464 85.4864 254.792 85.2144C255.12 84.9344 255.496 84.7944 255.92 84.7944C256.216 84.7944 256.488 84.8624 256.736 84.9984L254.408 90.7704C254.2 90.4744 254.036 90.1104 253.916 89.6784Z" fill="#2EFCB6" fill-opacity="0.5"/>
<path d="M276.546 169.49V170.402H282.018V169.49H279.726V162.002H279.054L276.666 162.818V163.586L278.718 163.19V169.49H276.546Z" fill="#2EFCB6" fill-opacity="0.1"/>
<path d="M245.365 169.49V170.402H250.837V169.49H248.545V162.002H247.873L245.485 162.818V163.586L247.537 163.19V169.49H245.365Z" fill="#2EFCB6" fill-opacity="0.1"/>
<path d="M214.184 169.49V170.402H219.656V169.49H217.364V162.002H216.692L214.304 162.818V163.586L216.356 163.19V169.49H214.184Z" fill="#2EFCB6" fill-opacity="0.1"/>
<path d="M268.751 142.49V143.402H274.223V142.49H271.931V135.002H271.259L268.871 135.818V136.586L270.923 136.19V142.49H268.751Z" fill="#2EFCB6" fill-opacity="0.1"/>
<path d="M245.365 142.49V143.402H250.837V142.49H248.545V135.002H247.873L245.485 135.818V136.586L247.537 136.19V142.49H245.365Z" fill="#2EFCB6" fill-opacity="0.1"/>
<path d="M229.774 142.49V143.402H235.246V142.49H232.954V135.002H232.282L229.894 135.818V136.586L231.946 136.19V142.49H229.774Z" fill="#2EFCB6" fill-opacity="0.1"/>
<path d="M214.184 142.49V143.402H219.656V142.49H217.364V135.002H216.692L214.304 135.818V136.586L216.356 136.19V142.49H214.184Z" fill="#2EFCB6" fill-opacity="0.1"/>
<path d="M284.342 91.49V92.402H289.814V91.49H287.522V84.002H286.85L284.462 84.818V85.586L286.514 85.19V91.49H284.342Z" fill="#2EFCB6" fill-opacity="0.1"/>
<path d="M268.751 91.49V92.402H274.223V91.49H271.931V84.002H271.259L268.871 84.818V85.586L270.923 85.19V91.49H268.751Z" fill="#2EFCB6" fill-opacity="0.1"/>
<path d="M245.365 91.49V92.402H250.837V91.49H248.545V84.002H247.873L245.485 84.818V85.586L247.537 85.19V91.49H245.365Z" fill="#2EFCB6" fill-opacity="0.1"/>
<path d="M229.774 91.49V92.402H235.246V91.49H232.954V84.002H232.282L229.894 84.818V85.586L231.946 85.19V91.49H229.774Z" fill="#2EFCB6" fill-opacity="0.1"/>
<path d="M284.342 117.49V118.402H289.814V117.49H287.522V110.002H286.85L284.462 110.818V111.586L286.514 111.19V117.49H284.342Z" fill="#2EFCB6" fill-opacity="0.1"/>
<path d="M268.751 117.49V118.402H274.223V117.49H271.931V110.002H271.259L268.871 110.818V111.586L270.923 111.19V117.49H268.751Z" fill="#2EFCB6" fill-opacity="0.1"/>
<path d="M258.375 120.035V121.403H266.583V120.035H263.145V108.803H262.137L258.555 110.027V111.179L261.633 110.585V120.035H258.375Z" fill="#2EFCB6" fill-opacity="0.1"/>
<path d="M234.99 120.035V121.403H243.198V120.035H239.76V108.803H238.752L235.17 110.027V111.179L238.248 110.585V120.035H234.99Z" fill="#2EFCB6" fill-opacity="0.1"/>
<path fill-rule="evenodd" clip-rule="evenodd" d="M223.059 170.018C223.547 170.37 224.107 170.546 224.739 170.546C225.379 170.546 225.939 170.37 226.419 170.018C226.899 169.666 227.271 169.166 227.535 168.518C227.807 167.87 227.943 167.098 227.943 166.202C227.943 165.306 227.807 164.534 227.535 163.886C227.271 163.238 226.899 162.738 226.419 162.386C225.939 162.034 225.379 161.858 224.739 161.858C224.107 161.858 223.547 162.034 223.059 162.386C222.579 162.738 222.203 163.238 221.931 163.886C221.667 164.534 221.535 165.306 221.535 166.202C221.535 167.098 221.667 167.87 221.931 168.518C222.203 169.166 222.579 169.666 223.059 170.018ZM222.567 166.202C222.567 166.746 222.623 167.238 222.735 167.678C222.855 168.11 223.019 168.474 223.227 168.77L225.555 162.998C225.307 162.862 225.035 162.794 224.739 162.794C224.315 162.794 223.939 162.934 223.611 163.214C223.283 163.486 223.027 163.878 222.843 164.39C222.659 164.894 222.567 165.498 222.567 166.202ZM225.867 169.214C225.539 169.486 225.163 169.622 224.739 169.622C224.443 169.622 224.167 169.554 223.911 169.418L226.251 163.634C226.459 163.93 226.619 164.298 226.731 164.738C226.851 165.17 226.911 165.658 226.911 166.202C226.911 166.906 226.819 167.514 226.635 168.026C226.451 168.538 226.195 168.934 225.867 169.214Z" fill="#2EFCB6" fill-opacity="0.1"/>
<path fill-rule="evenodd" clip-rule="evenodd" d="M223.059 143.018C223.547 143.37 224.107 143.546 224.739 143.546C225.379 143.546 225.939 143.37 226.419 143.018C226.899 142.666 227.271 142.166 227.535 141.518C227.807 140.87 227.943 140.098 227.943 139.202C227.943 138.306 227.807 137.534 227.535 136.886C227.271 136.238 226.899 135.738 226.419 135.386C225.939 135.034 225.379 134.858 224.739 134.858C224.107 134.858 223.547 135.034 223.059 135.386C222.579 135.738 222.203 136.238 221.931 136.886C221.667 137.534 221.535 138.306 221.535 139.202C221.535 140.098 221.667 140.87 221.931 141.518C222.203 142.166 222.579 142.666 223.059 143.018ZM224.739 142.622C225.163 142.622 225.539 142.486 225.867 142.214C226.195 141.934 226.451 141.538 226.635 141.026C226.819 140.514 226.911 139.906 226.911 139.202C226.911 138.658 226.851 138.17 226.731 137.738C226.619 137.298 226.459 136.93 226.251 136.634L223.911 142.418C224.167 142.554 224.443 142.622 224.739 142.622ZM222.735 140.678C222.623 140.238 222.567 139.746 222.567 139.202C222.567 138.498 222.659 137.894 222.843 137.39C223.027 136.878 223.283 136.486 223.611 136.214C223.939 135.934 224.315 135.794 224.739 135.794C225.035 135.794 225.307 135.862 225.555 135.998L223.227 141.77C223.019 141.474 222.855 141.11 222.735 140.678Z" fill="#2EFCB6" fill-opacity="0.1"/>
<path fill-rule="evenodd" clip-rule="evenodd" d="M238.65 143.018C239.138 143.37 239.698 143.546 240.33 143.546C240.97 143.546 241.53 143.37 242.01 143.018C242.49 142.666 242.862 142.166 243.126 141.518C243.398 140.87 243.534 140.098 243.534 139.202C243.534 138.306 243.398 137.534 243.126 136.886C242.862 136.238 242.49 135.738 242.01 135.386C241.53 135.034 240.97 134.858 240.33 134.858C239.698 134.858 239.138 135.034 238.65 135.386C238.17 135.738 237.794 136.238 237.522 136.886C237.258 137.534 237.126 138.306 237.126 139.202C237.126 140.098 237.258 140.87 237.522 141.518C237.794 142.166 238.17 142.666 238.65 143.018ZM240.33 142.622C240.754 142.622 241.13 142.486 241.458 142.214C241.786 141.934 242.042 141.538 242.226 141.026C242.41 140.514 242.502 139.906 242.502 139.202C242.502 138.658 242.442 138.17 242.322 137.738C242.21 137.298 242.05 136.93 241.842 136.634L239.502 142.418C239.758 142.554 240.034 142.622 240.33 142.622ZM238.326 140.678C238.214 140.238 238.158 139.746 238.158 139.202C238.158 138.498 238.25 137.894 238.434 137.39C238.618 136.878 238.874 136.486 239.202 136.214C239.53 135.934 239.906 135.794 240.33 135.794C240.626 135.794 240.898 135.862 241.146 135.998L238.818 141.77C238.61 141.474 238.446 141.11 238.326 140.678Z" fill="#2EFCB6" fill-opacity="0.1"/>
<path fill-rule="evenodd" clip-rule="evenodd" d="M254.24 170.018C254.728 170.37 255.288 170.546 255.92 170.546C256.56 170.546 257.12 170.37 257.6 170.018C258.08 169.666 258.452 169.166 258.716 168.518C258.988 167.87 259.124 167.098 259.124 166.202C259.124 165.306 258.988 164.534 258.716 163.886C258.452 163.238 258.08 162.738 257.6 162.386C257.12 162.034 256.56 161.858 255.92 161.858C255.288 161.858 254.728 162.034 254.24 162.386C253.76 162.738 253.384 163.238 253.112 163.886C252.848 164.534 252.716 165.306 252.716 166.202C252.716 167.098 252.848 167.87 253.112 168.518C253.384 169.166 253.76 169.666 254.24 170.018ZM253.748 166.202C253.748 166.746 253.804 167.238 253.916 167.678C254.036 168.11 254.2 168.474 254.408 168.77L256.736 162.998C256.488 162.862 256.216 162.794 255.92 162.794C255.496 162.794 255.12 162.934 254.792 163.214C254.464 163.486 254.208 163.878 254.024 164.39C253.84 164.894 253.748 165.498 253.748 166.202ZM257.048 169.214C256.72 169.486 256.344 169.622 255.92 169.622C255.624 169.622 255.348 169.554 255.092 169.418L257.432 163.634C257.64 163.93 257.8 164.298 257.912 164.738C258.032 165.17 258.092 165.658 258.092 166.202C258.092 166.906 258 167.514 257.816 168.026C257.632 168.538 257.376 168.934 257.048 169.214Z" fill="#2EFCB6" fill-opacity="0.1"/>
<path fill-rule="evenodd" clip-rule="evenodd" d="M269.831 170.018C270.319 170.37 270.879 170.546 271.511 170.546C272.151 170.546 272.711 170.37 273.191 170.018C273.671 169.666 274.043 169.166 274.307 168.518C274.579 167.87 274.715 167.098 274.715 166.202C274.715 165.306 274.579 164.534 274.307 163.886C274.043 163.238 273.671 162.738 273.191 162.386C272.711 162.034 272.151 161.858 271.511 161.858C270.879 161.858 270.319 162.034 269.831 162.386C269.351 162.738 268.975 163.238 268.703 163.886C268.439 164.534 268.307 165.306 268.307 166.202C268.307 167.098 268.439 167.87 268.703 168.518C268.975 169.166 269.351 169.666 269.831 170.018ZM269.339 166.202C269.339 166.746 269.395 167.238 269.507 167.678C269.627 168.11 269.791 168.474 269.999 168.77L272.327 162.998C272.079 162.862 271.807 162.794 271.511 162.794C271.087 162.794 270.711 162.934 270.383 163.214C270.055 163.486 269.799 163.878 269.615 164.39C269.431 164.894 269.339 165.498 269.339 166.202ZM272.639 169.214C272.311 169.486 271.935 169.622 271.511 169.622C271.215 169.622 270.939 169.554 270.683 169.418L273.023 163.634C273.231 163.93 273.391 164.298 273.503 164.738C273.623 165.17 273.683 165.658 273.683 166.202C273.683 166.906 273.591 167.514 273.407 168.026C273.223 168.538 272.967 168.934 272.639 169.214Z" fill="#2EFCB6" fill-opacity="0.1"/>
<path fill-rule="evenodd" clip-rule="evenodd" d="M262.036 143.018C262.524 143.37 263.084 143.546 263.716 143.546C264.356 143.546 264.916 143.37 265.396 143.018C265.876 142.666 266.248 142.166 266.512 141.518C266.784 140.87 266.92 140.098 266.92 139.202C266.92 138.306 266.784 137.534 266.512 136.886C266.248 136.238 265.876 135.738 265.396 135.386C264.916 135.034 264.356 134.858 263.716 134.858C263.084 134.858 262.524 135.034 262.036 135.386C261.556 135.738 261.18 136.238 260.908 136.886C260.644 137.534 260.512 138.306 260.512 139.202C260.512 140.098 260.644 140.87 260.908 141.518C261.18 142.166 261.556 142.666 262.036 143.018ZM263.716 142.622C264.14 142.622 264.516 142.486 264.844 142.214C265.172 141.934 265.428 141.538 265.612 141.026C265.796 140.514 265.888 139.906 265.888 139.202C265.888 138.658 265.828 138.17 265.708 137.738C265.596 137.298 265.436 136.93 265.228 136.634L262.888 142.418C263.144 142.554 263.42 142.622 263.716 142.622ZM261.712 140.678C261.6 140.238 261.544 139.746 261.544 139.202C261.544 138.498 261.636 137.894 261.82 137.39C262.004 136.878 262.26 136.486 262.588 136.214C262.916 135.934 263.292 135.794 263.716 135.794C264.012 135.794 264.284 135.862 264.532 135.998L262.204 141.77C261.996 141.474 261.832 141.11 261.712 140.678Z" fill="#2EFCB6" fill-opacity="0.1"/>
<path fill-rule="evenodd" clip-rule="evenodd" d="M254.24 143.018C254.728 143.37 255.288 143.546 255.92 143.546C256.56 143.546 257.12 143.37 257.6 143.018C258.08 142.666 258.452 142.166 258.716 141.518C258.988 140.87 259.124 140.098 259.124 139.202C259.124 138.306 258.988 137.534 258.716 136.886C258.452 136.238 258.08 135.738 257.6 135.386C257.12 135.034 256.56 134.858 255.92 134.858C255.288 134.858 254.728 135.034 254.24 135.386C253.76 135.738 253.384 136.238 253.112 136.886C252.848 137.534 252.716 138.306 252.716 139.202C252.716 140.098 252.848 140.87 253.112 141.518C253.384 142.166 253.76 142.666 254.24 143.018ZM255.92 142.622C256.344 142.622 256.72 142.486 257.048 142.214C257.376 141.934 257.632 141.538 257.816 141.026C258 140.514 258.092 139.906 258.092 139.202C258.092 138.658 258.032 138.17 257.912 137.738C257.8 137.298 257.64 136.93 257.432 136.634L255.092 142.418C255.348 142.554 255.624 142.622 255.92 142.622ZM253.916 140.678C253.804 140.238 253.748 139.746 253.748 139.202C253.748 138.498 253.84 137.894 254.024 137.39C254.208 136.878 254.464 136.486 254.792 136.214C255.12 135.934 255.496 135.794 255.92 135.794C256.216 135.794 256.488 135.862 256.736 135.998L254.408 141.77C254.2 141.474 254.036 141.11 253.916 140.678Z" fill="#2EFCB6" fill-opacity="0.1"/>
<path fill-rule="evenodd" clip-rule="evenodd" d="M285.421 170.018C285.909 170.37 286.469 170.546 287.101 170.546C287.741 170.546 288.301 170.37 288.781 170.018C289.261 169.666 289.633 169.166 289.897 168.518C290.169 167.87 290.305 167.098 290.305 166.202C290.305 165.306 290.169 164.534 289.897 163.886C289.633 163.238 289.261 162.738 288.781 162.386C288.301 162.034 287.741 161.858 287.101 161.858C286.469 161.858 285.909 162.034 285.421 162.386C284.941 162.738 284.565 163.238 284.293 163.886C284.029 164.534 283.897 165.306 283.897 166.202C283.897 167.098 284.029 167.87 284.293 168.518C284.565 169.166 284.941 169.666 285.421 170.018ZM287.101 169.622C287.525 169.622 287.901 169.486 288.229 169.214C288.557 168.934 288.813 168.538 288.997 168.026C289.181 167.514 289.273 166.906 289.273 166.202C289.273 165.658 289.213 165.17 289.093 164.738C288.981 164.298 288.821 163.93 288.613 163.634L286.273 169.418C286.529 169.554 286.805 169.622 287.101 169.622ZM285.097 167.678C284.985 167.238 284.929 166.746 284.929 166.202C284.929 165.498 285.021 164.894 285.205 164.39C285.389 163.878 285.645 163.486 285.973 163.214C286.301 162.934 286.677 162.794 287.101 162.794C287.397 162.794 287.669 162.862 287.917 162.998L285.589 168.77C285.381 168.474 285.217 168.11 285.097 167.678Z" fill="#2EFCB6" fill-opacity="0.1"/>
<path fill-rule="evenodd" clip-rule="evenodd" d="M277.626 118.018C278.114 118.37 278.674 118.546 279.306 118.546C279.946 118.546 280.506 118.37 280.986 118.018C281.466 117.666 281.838 117.166 282.102 116.518C282.374 115.87 282.51 115.098 282.51 114.202C282.51 113.306 282.374 112.534 282.102 111.886C281.838 111.238 281.466 110.738 280.986 110.386C280.506 110.034 279.946 109.858 279.306 109.858C278.674 109.858 278.114 110.034 277.626 110.386C277.146 110.738 276.77 111.238 276.498 111.886C276.234 112.534 276.102 113.306 276.102 114.202C276.102 115.098 276.234 115.87 276.498 116.518C276.77 117.166 277.146 117.666 277.626 118.018ZM279.306 117.622C279.73 117.622 280.106 117.486 280.434 117.214C280.762 116.934 281.018 116.538 281.202 116.026C281.386 115.514 281.478 114.906 281.478 114.202C281.478 113.658 281.418 113.17 281.298 112.738C281.186 112.298 281.026 111.93 280.818 111.634L278.478 117.418C278.734 117.554 279.01 117.622 279.306 117.622ZM277.302 115.678C277.19 115.238 277.134 114.746 277.134 114.202C277.134 113.498 277.226 112.894 277.41 112.39C277.594 111.878 277.85 111.486 278.178 111.214C278.506 110.934 278.882 110.794 279.306 110.794C279.602 110.794 279.874 110.862 280.122 110.998L277.794 116.77C277.586 116.474 277.422 116.11 277.302 115.678Z" fill="#2EFCB6" fill-opacity="0.1"/>
<path fill-rule="evenodd" clip-rule="evenodd" d="M248.303 120.826C249.035 121.354 249.875 121.618 250.823 121.618C251.783 121.618 252.623 121.354 253.343 120.826C254.063 120.298 254.621 119.548 255.017 118.576C255.425 117.604 255.629 116.446 255.629 115.102C255.629 113.758 255.425 112.6 255.017 111.628C254.621 110.656 254.063 109.906 253.343 109.378C252.623 108.85 251.783 108.586 250.823 108.586C249.875 108.586 249.035 108.85 248.303 109.378C247.583 109.906 247.019 110.656 246.611 111.628C246.215 112.6 246.017 113.758 246.017 115.102C246.017 116.446 246.215 117.604 246.611 118.576C247.019 119.548 247.583 120.298 248.303 120.826ZM250.823 120.232C251.459 120.232 252.023 120.028 252.515 119.62C253.007 119.2 253.391 118.606 253.667 117.838C253.943 117.07 254.081 116.158 254.081 115.102C254.081 114.286 253.991 113.554 253.811 112.906C253.643 112.246 253.403 111.694 253.091 111.25L249.581 119.926C249.965 120.13 250.379 120.232 250.823 120.232ZM247.817 117.316C247.649 116.656 247.565 115.918 247.565 115.102C247.565 114.046 247.703 113.14 247.979 112.384C248.255 111.616 248.639 111.028 249.131 110.62C249.623 110.2 250.187 109.99 250.823 109.99C251.267 109.99 251.675 110.092 252.047 110.296L248.555 118.954C248.243 118.51 247.997 117.964 247.817 117.316Z" fill="#2EFCB6" fill-opacity="0.1"/>
<path fill-rule="evenodd" clip-rule="evenodd" d="M277.626 92.0184C278.114 92.3704 278.674 92.5464 279.306 92.5464C279.946 92.5464 280.506 92.3704 280.986 92.0184C281.466 91.6664 281.838 91.1664 282.102 90.5184C282.374 89.8704 282.51 89.0984 282.51 88.2024C282.51 87.3064 282.374 86.5344 282.102 85.8864C281.838 85.2384 281.466 84.7384 280.986 84.3864C280.506 84.0344 279.946 83.8584 279.306 83.8584C278.674 83.8584 278.114 84.0344 277.626 84.3864C277.146 84.7384 276.77 85.2384 276.498 85.8864C276.234 86.5344 276.102 87.3064 276.102 88.2024C276.102 89.0984 276.234 89.8704 276.498 90.5184C276.77 91.1664 277.146 91.6664 277.626 92.0184ZM279.306 91.6224C279.73 91.6224 280.106 91.4864 280.434 91.2144C280.762 90.9344 281.018 90.5384 281.202 90.0264C281.386 89.5144 281.478 88.9064 281.478 88.2024C281.478 87.6584 281.418 87.1704 281.298 86.7384C281.186 86.2984 281.026 85.9304 280.818 85.6344L278.478 91.4184C278.734 91.5544 279.01 91.6224 279.306 91.6224ZM277.302 89.6784C277.19 89.2384 277.134 88.7464 277.134 88.2024C277.134 87.4984 277.226 86.8944 277.41 86.3904C277.594 85.8784 277.85 85.4864 278.178 85.2144C278.506 84.9344 278.882 84.7944 279.306 84.7944C279.602 84.7944 279.874 84.8624 280.122 84.9984L277.794 90.7704C277.586 90.4744 277.422 90.1104 277.302 89.6784Z" fill="#2EFCB6" fill-opacity="0.1"/>
<path fill-rule="evenodd" clip-rule="evenodd" d="M238.65 92.0184C239.138 92.3704 239.698 92.5464 240.33 92.5464C240.97 92.5464 241.53 92.3704 242.01 92.0184C242.49 91.6664 242.862 91.1664 243.126 90.5184C243.398 89.8704 243.534 89.0984 243.534 88.2024C243.534 87.3064 243.398 86.5344 243.126 85.8864C242.862 85.2384 242.49 84.7384 242.01 84.3864C241.53 84.0344 240.97 83.8584 240.33 83.8584C239.698 83.8584 239.138 84.0344 238.65 84.3864C238.17 84.7384 237.794 85.2384 237.522 85.8864C237.258 86.5344 237.126 87.3064 237.126 88.2024C237.126 89.0984 237.258 89.8704 237.522 90.5184C237.794 91.1664 238.17 91.6664 238.65 92.0184ZM240.33 91.6224C240.754 91.6224 241.13 91.4864 241.458 91.2144C241.786 90.9344 242.042 90.5384 242.226 90.0264C242.41 89.5144 242.502 88.9064 242.502 88.2024C242.502 87.6584 242.442 87.1704 242.322 86.7384C242.21 86.2984 242.05 85.9304 241.842 85.6344L239.502 91.4184C239.758 91.5544 240.034 91.6224 240.33 91.6224ZM238.326 89.6784C238.214 89.2384 238.158 88.7464 238.158 88.2024C238.158 87.4984 238.25 86.8944 238.434 86.3904C238.618 85.8784 238.874 85.4864 239.202 85.2144C239.53 84.9344 239.906 84.7944 240.33 84.7944C240.626 84.7944 240.898 84.8624 241.146 84.9984L238.818 90.7704C238.61 90.4744 238.446 90.1104 238.326 89.6784Z" fill="#2EFCB6" fill-opacity="0.1"/>
<path fill-rule="evenodd" clip-rule="evenodd" d="M223.059 92.0184C223.547 92.3704 224.107 92.5464 224.739 92.5464C225.379 92.5464 225.939 92.3704 226.419 92.0184C226.899 91.6664 227.271 91.1664 227.535 90.5184C227.807 89.8704 227.943 89.0984 227.943 88.2024C227.943 87.3064 227.807 86.5344 227.535 85.8864C227.271 85.2384 226.899 84.7384 226.419 84.3864C225.939 84.0344 225.379 83.8584 224.739 83.8584C224.107 83.8584 223.547 84.0344 223.059 84.3864C222.579 84.7384 222.203 85.2384 221.931 85.8864C221.667 86.5344 221.535 87.3064 221.535 88.2024C221.535 89.0984 221.667 89.8704 221.931 90.5184C222.203 91.1664 222.579 91.6664 223.059 92.0184ZM224.739 91.6224C225.163 91.6224 225.539 91.4864 225.867 91.2144C226.195 90.9344 226.451 90.5384 226.635 90.0264C226.819 89.5144 226.911 88.9064 226.911 88.2024C226.911 87.6584 226.851 87.1704 226.731 86.7384C226.619 86.2984 226.459 85.9304 226.251 85.6344L223.911 91.4184C224.167 91.5544 224.443 91.6224 224.739 91.6224ZM222.735 89.6784C222.623 89.2384 222.567 88.7464 222.567 88.2024C222.567 87.4984 222.659 86.8944 222.843 86.3904C223.027 85.8784 223.283 85.4864 223.611 85.2144C223.939 84.9344 224.315 84.7944 224.739 84.7944C225.035 84.7944 225.307 84.8624 225.555 84.9984L223.227 90.7704C223.019 90.4744 222.855 90.1104 222.735 89.6784Z" fill="#2EFCB6" fill-opacity="0.1"/>
<path fill-rule="evenodd" clip-rule="evenodd" d="M227.437 121.618C226.489 121.618 225.649 121.354 224.917 120.826C224.197 120.298 223.633 119.548 223.225 118.576C222.829 117.604 222.631 116.446 222.631 115.102C222.631 113.758 222.829 112.6 223.225 111.628C223.633 110.656 224.197 109.906 224.917 109.378C225.649 108.85 226.489 108.586 227.437 108.586C228.397 108.586 229.237 108.85 229.957 109.378C230.677 109.906 231.235 110.656 231.631 111.628C232.039 112.6 232.243 113.758 232.243 115.102C232.243 115.698 232.203 116.257 232.122 116.779C232.051 117.243 231.949 117.678 231.815 118.083C231.759 118.253 231.697 118.417 231.631 118.576C231.235 119.548 230.677 120.298 229.957 120.826C229.237 121.354 228.397 121.618 227.437 121.618ZM224.431 117.316C224.263 116.656 224.179 115.918 224.179 115.102C224.179 114.046 224.317 113.14 224.593 112.384C224.869 111.616 225.253 111.028 225.745 110.62C226.237 110.2 226.801 109.99 227.437 109.99C227.881 109.99 228.289 110.092 228.661 110.296L225.169 118.954C224.857 118.51 224.611 117.964 224.431 117.316ZM229.129 119.62C228.637 120.028 228.073 120.232 227.437 120.232C226.993 120.232 226.579 120.13 226.195 119.926L229.705 111.25C230.017 111.694 230.257 112.246 230.425 112.906C230.605 113.554 230.695 114.286 230.695 115.102C230.695 116.158 230.557 117.07 230.281 117.838C230.005 118.606 229.621 119.2 229.129 119.62Z" fill="#2EFCB6" fill-opacity="0.1"/>
<g filter="url(#filter4_f_128_530)">
<path fill-rule="evenodd" clip-rule="evenodd" d="M275.155 117.402C275.155 106.357 266.201 97.4023 255.155 97.4023C244.11 97.4023 235.155 106.357 235.155 117.402C235.155 128.448 244.11 137.402 255.155 137.402C266.201 137.402 275.155 128.448 275.155 117.402ZM255.155 93.4023C268.41 93.4023 279.155 104.148 279.155 117.402C279.155 130.657 268.41 141.402 255.155 141.402C250.96 141.402 247.016 140.326 243.585 138.434L223.543 162.771C222.841 163.624 221.58 163.746 220.728 163.044C219.875 162.342 219.753 161.081 220.455 160.228L240.239 136.205C234.704 131.809 231.155 125.02 231.155 117.402C231.155 104.148 241.9 93.4023 255.155 93.4023Z" fill="url(#paint6_linear_128_530)"/>
</g>
<path fill-rule="evenodd" clip-rule="evenodd" d="M275.156 117.402C275.156 106.357 266.202 97.4023 255.156 97.4023C244.111 97.4023 235.156 106.357 235.156 117.402C235.156 128.448 244.111 137.402 255.156 137.402C266.202 137.402 275.156 128.448 275.156 117.402ZM255.156 93.4023C268.411 93.4023 279.156 104.148 279.156 117.402C279.156 130.657 268.411 141.402 255.156 141.402C250.961 141.402 247.017 140.326 243.586 138.434L223.544 162.771C222.842 163.624 221.581 163.746 220.729 163.044C219.876 162.342 219.754 161.081 220.456 160.228L240.24 136.205C234.705 131.809 231.156 125.02 231.156 117.402C231.156 104.148 241.901 93.4023 255.156 93.4023Z" fill="url(#paint7_linear_128_530)"/>
<path d="M211.844 70.4023V70.4023C201.074 70.4023 192.344 79.1328 192.344 89.9023V126.402M192.344 126.402H173.344M192.344 126.402V164.902C192.344 175.672 201.074 184.402 211.844 184.402V184.402M292.344 184.402V184.402C303.113 184.402 311.844 175.672 311.844 164.902V128.402M311.844 128.402L330.844 128.402M311.844 128.402L311.844 89.9024C311.844 79.1328 303.113 70.4023 292.344 70.4023V70.4023" stroke="#595555" stroke-width="4" stroke-linecap="square" stroke-linejoin="round"/>
<defs>
<filter id="filter0_b_128_530" x="-1.6" y="1.9" width="581.2" height="294.2" filterUnits="userSpaceOnUse" color-interpolation-filters="sRGB">
<feFlood flood-opacity="0" result="BackgroundImageFix"/>
<feGaussianBlur in="BackgroundImageFix" stdDeviation="10.8"/>
<feComposite in2="SourceAlpha" operator="in" result="effect1_backgroundBlur_128_530"/>
<feBlend mode="normal" in="SourceGraphic" in2="effect1_backgroundBlur_128_530" result="shape"/>
</filter>
<filter id="filter1_b_128_530" x="234.6" y="6.39981" width="108.8" height="280" filterUnits="userSpaceOnUse" color-interpolation-filters="sRGB">
<feFlood flood-opacity="0" result="BackgroundImageFix"/>
<feGaussianBlur in="BackgroundImageFix" stdDeviation="7.2"/>
<feComposite in2="SourceAlpha" operator="in" result="effect1_backgroundBlur_128_530"/>
<feBlend mode="normal" in="SourceGraphic" in2="effect1_backgroundBlur_128_530" result="shape"/>
</filter>
<filter id="filter2_b_128_530" x="235" y="7" width="108" height="288" filterUnits="userSpaceOnUse" color-interpolation-filters="sRGB">
<feFlood flood-opacity="0" result="BackgroundImageFix"/>
<feGaussianBlur in="BackgroundImageFix" stdDeviation="12"/>
<feComposite in2="SourceAlpha" operator="in" result="effect1_backgroundBlur_128_530"/>
<feBlend mode="normal" in="SourceGraphic" in2="effect1_backgroundBlur_128_530" result="shape"/>
</filter>
<filter id="filter3_b_128_530" x="183" y="60" width="139" height="134" filterUnits="userSpaceOnUse" color-interpolation-filters="sRGB">
<feFlood flood-opacity="0" result="BackgroundImageFix"/>
<feGaussianBlur in="BackgroundImageFix" stdDeviation="5"/>
<feComposite in2="SourceAlpha" operator="in" result="effect1_backgroundBlur_128_530"/>
<feBlend mode="normal" in="SourceGraphic" in2="effect1_backgroundBlur_128_530" result="shape"/>
</filter>
<filter id="filter4_f_128_530" x="179.999" y="53.4023" width="139.156" height="150.098" filterUnits="userSpaceOnUse" color-interpolation-filters="sRGB">
<feFlood flood-opacity="0" result="BackgroundImageFix"/>
<feBlend mode="normal" in="SourceGraphic" in2="BackgroundImageFix" result="shape"/>
<feGaussianBlur stdDeviation="20" result="effect1_foregroundBlur_128_530"/>
</filter>
<linearGradient id="paint0_linear_128_530" x1="-21.9458" y1="-29.2895" x2="427.505" y2="408.095" gradientUnits="userSpaceOnUse">
<stop stop-color="white" stop-opacity="0.2"/>
<stop offset="1" stop-color="white" stop-opacity="0.13"/>
</linearGradient>
<linearGradient id="paint1_linear_128_530" x1="289" y1="-19.2002" x2="289" y2="272" gradientUnits="userSpaceOnUse">
<stop stop-color="white"/>
<stop offset="1" stop-color="white" stop-opacity="0.5"/>
</linearGradient>
<linearGradient id="paint2_linear_128_530" x1="311.031" y1="24.9877" x2="182.74" y2="89.0624" gradientUnits="userSpaceOnUse">
<stop stop-color="#2EFCB6" stop-opacity="0.5"/>
<stop offset="0.221573" stop-color="#2EFCB6" stop-opacity="0.041728"/>
<stop offset="1" stop-color="#2EFCB6" stop-opacity="0"/>
</linearGradient>
<linearGradient id="paint3_linear_128_530" x1="281.5" y1="271" x2="281.5" y2="-16.6087" gradientUnits="userSpaceOnUse">
<stop stop-color="#DBDBEB" stop-opacity="0"/>
<stop offset="0.394031" stop-color="#DBDBEB" stop-opacity="0.24"/>
<stop offset="1" stop-color="#DBDBEB" stop-opacity="0.32"/>
</linearGradient>
<linearGradient id="paint4_linear_128_530" x1="289" y1="71.9551" x2="289" y2="274" gradientUnits="userSpaceOnUse">
<stop stop-color="#1C1C1C"/>
<stop offset="0.791198" stop-color="#1C1C1C" stop-opacity="0.8"/>
<stop offset="1" stop-color="#1C1C1C" stop-opacity="0"/>
</linearGradient>
<linearGradient id="paint5_linear_128_530" x1="297.814" y1="223.848" x2="297.864" y2="271.932" gradientUnits="userSpaceOnUse">
<stop stop-color="#494848"/>
<stop offset="0.421798" stop-color="#494848" stop-opacity="0.194564"/>
<stop offset="1" stop-color="#494848" stop-opacity="0"/>
</linearGradient>
<linearGradient id="paint6_linear_128_530" x1="212.865" y1="137.745" x2="278.094" y2="128.368" gradientUnits="userSpaceOnUse">
<stop stop-color="#2EFCB6"/>
<stop offset="1" stop-color="#11CDED"/>
</linearGradient>
<linearGradient id="paint7_linear_128_530" x1="212.866" y1="137.745" x2="278.095" y2="128.368" gradientUnits="userSpaceOnUse">
<stop stop-color="#2EFCB6"/>
<stop offset="1" stop-color="#11CDED"/>
</linearGradient>
</defs>
</svg>
