<svg width="605" height="408" viewBox="0 0 605 408" fill="none" xmlns="http://www.w3.org/2000/svg">
<g clip-path="url(#clip0_108_185)">
<mask id="mask0_108_185" style="mask-type:alpha" maskUnits="userSpaceOnUse" x="0" y="0" width="605" height="408">
<rect width="605" height="408" fill="url(#paint0_linear_108_185)"/>
</mask>
<g mask="url(#mask0_108_185)">
<rect width="605" height="408" fill="#111010"/>
<g filter="url(#filter0_b_108_185)">
<mask id="path-3-inside-1_108_185" fill="white">
<path d="M23.094 -18.8988C23.094 -20.1742 24.1278 -21.208 25.4032 -21.208H94.678C95.9533 -21.208 96.9871 -20.1742 96.9871 -18.8988V50.376C96.9871 51.6513 95.9533 52.6851 94.678 52.6851H25.4032C24.1278 52.6851 23.094 51.6513 23.094 50.376V-18.8988Z"/>
<path d="M120.079 -18.8988C120.079 -20.1742 121.113 -21.208 122.388 -21.208H191.663C192.938 -21.208 193.972 -20.1742 193.972 -18.8988V50.376C193.972 51.6513 192.938 52.6851 191.663 52.6851H122.388C121.113 52.6851 120.079 51.6513 120.079 50.376V-18.8988Z"/>
<path d="M217.063 -18.8988C217.063 -20.1742 218.097 -21.208 219.373 -21.208H288.647C289.923 -21.208 290.957 -20.1742 290.957 -18.8988V50.376C290.957 51.6513 289.923 52.6851 288.647 52.6851H219.373C218.097 52.6851 217.063 51.6513 217.063 50.376V-18.8988Z"/>
<path d="M314.048 -18.8988C314.048 -20.1742 315.082 -21.208 316.357 -21.208H385.632C386.908 -21.208 387.941 -20.1742 387.941 -18.8988V50.376C387.941 51.6513 386.908 52.6851 385.632 52.6851H316.357C315.082 52.6851 314.048 51.6513 314.048 50.376V-18.8988Z"/>
<path d="M411.033 -18.8988C411.033 -20.1742 412.067 -21.208 413.342 -21.208H482.617C483.892 -21.208 484.926 -20.1742 484.926 -18.8988V50.376C484.926 51.6513 483.892 52.6851 482.617 52.6851H413.342C412.067 52.6851 411.033 51.6513 411.033 50.376V-18.8988Z"/>
<path d="M508.018 -18.8988C508.018 -20.1742 509.052 -21.208 510.327 -21.208H579.602C580.877 -21.208 581.911 -20.1742 581.911 -18.8988V50.376C581.911 51.6513 580.877 52.6851 579.602 52.6851H510.327C509.052 52.6851 508.018 51.6513 508.018 50.376V-18.8988Z"/>
<path d="M23.094 78.0855C23.094 76.8102 24.1278 75.7764 25.4032 75.7764H94.678C95.9533 75.7764 96.9871 76.8102 96.9871 78.0855V147.36C96.9871 148.636 95.9533 149.669 94.678 149.669H25.4032C24.1278 149.669 23.094 148.636 23.094 147.36V78.0855Z"/>
<path d="M120.079 78.0855C120.079 76.8102 121.113 75.7764 122.388 75.7764H191.663C192.938 75.7764 193.972 76.8102 193.972 78.0855V147.36C193.972 148.636 192.938 149.669 191.663 149.669H122.388C121.113 149.669 120.079 148.636 120.079 147.36V78.0855Z"/>
<path d="M217.063 78.0855C217.063 76.8102 218.097 75.7764 219.373 75.7764H288.647C289.923 75.7764 290.957 76.8102 290.957 78.0855V147.36C290.957 148.636 289.923 149.669 288.647 149.669H219.373C218.097 149.669 217.063 148.636 217.063 147.36V78.0855Z"/>
<path d="M314.048 78.0855C314.048 76.8102 315.082 75.7764 316.357 75.7764H385.632C386.908 75.7764 387.941 76.8102 387.941 78.0855V147.36C387.941 148.636 386.908 149.669 385.632 149.669H316.357C315.082 149.669 314.048 148.636 314.048 147.36V78.0855Z"/>
<path d="M411.033 78.0855C411.033 76.8102 412.067 75.7764 413.342 75.7764H482.617C483.892 75.7764 484.926 76.8102 484.926 78.0855V147.36C484.926 148.636 483.892 149.669 482.617 149.669H413.342C412.067 149.669 411.033 148.636 411.033 147.36V78.0855Z"/>
<path d="M508.018 78.0855C508.018 76.8102 509.052 75.7764 510.327 75.7764H579.602C580.877 75.7764 581.911 76.8102 581.911 78.0855V147.36C581.911 148.636 580.877 149.669 579.602 149.669H510.327C509.052 149.669 508.018 148.636 508.018 147.36V78.0855Z"/>
<path d="M23.094 175.071C23.094 173.796 24.1278 172.762 25.4032 172.762H94.678C95.9533 172.762 96.9871 173.796 96.9871 175.071V244.346C96.9871 245.621 95.9533 246.655 94.678 246.655H25.4032C24.1278 246.655 23.094 245.621 23.094 244.346V175.071Z"/>
<path d="M120.079 175.071C120.079 173.796 121.113 172.762 122.388 172.762H191.663C192.938 172.762 193.972 173.796 193.972 175.071V244.346C193.972 245.621 192.938 246.655 191.663 246.655H122.388C121.113 246.655 120.079 245.621 120.079 244.346V175.071Z"/>
<path d="M217.063 175.071C217.063 173.796 218.097 172.762 219.373 172.762H288.647C289.923 172.762 290.957 173.796 290.957 175.071V244.346C290.957 245.621 289.923 246.655 288.647 246.655H219.373C218.097 246.655 217.063 245.621 217.063 244.346V175.071Z"/>
<path d="M314.048 175.071C314.048 173.796 315.082 172.762 316.357 172.762H385.632C386.908 172.762 387.941 173.796 387.941 175.071V244.346C387.941 245.621 386.908 246.655 385.632 246.655H316.357C315.082 246.655 314.048 245.621 314.048 244.346V175.071Z"/>
<path d="M411.033 175.071C411.033 173.796 412.067 172.762 413.342 172.762H482.617C483.892 172.762 484.926 173.796 484.926 175.071V244.346C484.926 245.621 483.892 246.655 482.617 246.655H413.342C412.067 246.655 411.033 245.621 411.033 244.346V175.071Z"/>
<path d="M508.018 175.071C508.018 173.796 509.052 172.762 510.327 172.762H579.602C580.877 172.762 581.911 173.796 581.911 175.071V244.346C581.911 245.621 580.877 246.655 579.602 246.655H510.327C509.052 246.655 508.018 245.621 508.018 244.346V175.071Z"/>
<path d="M23.094 272.055C23.094 270.78 24.1278 269.746 25.4032 269.746H94.678C95.9533 269.746 96.9871 270.78 96.9871 272.055V341.33C96.9871 342.605 95.9533 343.639 94.678 343.639H25.4032C24.1278 343.639 23.094 342.605 23.094 341.33V272.055Z"/>
<path d="M120.079 272.055C120.079 270.78 121.113 269.746 122.388 269.746H191.663C192.938 269.746 193.972 270.78 193.972 272.055V341.33C193.972 342.605 192.938 343.639 191.663 343.639H122.388C121.113 343.639 120.079 342.605 120.079 341.33V272.055Z"/>
<path d="M217.063 272.055C217.063 270.78 218.097 269.746 219.373 269.746H288.647C289.923 269.746 290.957 270.78 290.957 272.055V341.33C290.957 342.605 289.923 343.639 288.647 343.639H219.373C218.097 343.639 217.063 342.605 217.063 341.33V272.055Z"/>
<path d="M314.048 272.055C314.048 270.78 315.082 269.746 316.357 269.746H385.632C386.908 269.746 387.941 270.78 387.941 272.055V341.33C387.941 342.605 386.908 343.639 385.632 343.639H316.357C315.082 343.639 314.048 342.605 314.048 341.33V272.055Z"/>
<path d="M411.033 272.055C411.033 270.78 412.067 269.746 413.342 269.746H482.617C483.892 269.746 484.926 270.78 484.926 272.055V341.33C484.926 342.605 483.892 343.639 482.617 343.639H413.342C412.067 343.639 411.033 342.605 411.033 341.33V272.055Z"/>
<path d="M508.018 272.055C508.018 270.78 509.052 269.746 510.327 269.746H579.602C580.877 269.746 581.911 270.78 581.911 272.055V341.33C581.911 342.605 580.877 343.639 579.602 343.639H510.327C509.052 343.639 508.018 342.605 508.018 341.33V272.055Z"/>
<path d="M23.094 369.04C23.094 367.764 24.1278 366.73 25.4032 366.73H94.678C95.9533 366.73 96.9871 367.764 96.9871 369.04V438.314C96.9871 439.59 95.9533 440.624 94.678 440.624H25.4032C24.1278 440.624 23.094 439.59 23.094 438.314V369.04Z"/>
<path d="M120.079 369.04C120.079 367.764 121.113 366.73 122.388 366.73H191.663C192.938 366.73 193.972 367.764 193.972 369.04V438.314C193.972 439.59 192.938 440.624 191.663 440.624H122.388C121.113 440.624 120.079 439.59 120.079 438.314V369.04Z"/>
<path d="M217.063 369.04C217.063 367.764 218.097 366.73 219.373 366.73H288.647C289.923 366.73 290.957 367.764 290.957 369.04V438.314C290.957 439.59 289.923 440.624 288.647 440.624H219.373C218.097 440.624 217.063 439.59 217.063 438.314V369.04Z"/>
<path d="M314.048 369.04C314.048 367.764 315.082 366.73 316.357 366.73H385.632C386.908 366.73 387.941 367.764 387.941 369.04V438.314C387.941 439.59 386.908 440.624 385.632 440.624H316.357C315.082 440.624 314.048 439.59 314.048 438.314V369.04Z"/>
<path d="M411.033 369.04C411.033 367.764 412.067 366.73 413.342 366.73H482.617C483.892 366.73 484.926 367.764 484.926 369.04V438.314C484.926 439.59 483.892 440.624 482.617 440.624H413.342C412.067 440.624 411.033 439.59 411.033 438.314V369.04Z"/>
<path d="M508.018 369.04C508.018 367.764 509.052 366.73 510.327 366.73H579.602C580.877 366.73 581.911 367.764 581.911 369.04V438.314C581.911 439.59 580.877 440.624 579.602 440.624H510.327C509.052 440.624 508.018 439.59 508.018 438.314V369.04Z"/>
</mask>
<path d="M23.094 -18.8988C23.094 -20.1742 24.1278 -21.208 25.4032 -21.208H94.678C95.9533 -21.208 96.9871 -20.1742 96.9871 -18.8988V50.376C96.9871 51.6513 95.9533 52.6851 94.678 52.6851H25.4032C24.1278 52.6851 23.094 51.6513 23.094 50.376V-18.8988Z" fill="url(#paint1_linear_108_185)" fill-opacity="0.3"/>
<path d="M120.079 -18.8988C120.079 -20.1742 121.113 -21.208 122.388 -21.208H191.663C192.938 -21.208 193.972 -20.1742 193.972 -18.8988V50.376C193.972 51.6513 192.938 52.6851 191.663 52.6851H122.388C121.113 52.6851 120.079 51.6513 120.079 50.376V-18.8988Z" fill="url(#paint2_linear_108_185)" fill-opacity="0.3"/>
<path d="M217.063 -18.8988C217.063 -20.1742 218.097 -21.208 219.373 -21.208H288.647C289.923 -21.208 290.957 -20.1742 290.957 -18.8988V50.376C290.957 51.6513 289.923 52.6851 288.647 52.6851H219.373C218.097 52.6851 217.063 51.6513 217.063 50.376V-18.8988Z" fill="url(#paint3_linear_108_185)" fill-opacity="0.3"/>
<path d="M314.048 -18.8988C314.048 -20.1742 315.082 -21.208 316.357 -21.208H385.632C386.908 -21.208 387.941 -20.1742 387.941 -18.8988V50.376C387.941 51.6513 386.908 52.6851 385.632 52.6851H316.357C315.082 52.6851 314.048 51.6513 314.048 50.376V-18.8988Z" fill="url(#paint4_linear_108_185)" fill-opacity="0.3"/>
<path d="M411.033 -18.8988C411.033 -20.1742 412.067 -21.208 413.342 -21.208H482.617C483.892 -21.208 484.926 -20.1742 484.926 -18.8988V50.376C484.926 51.6513 483.892 52.6851 482.617 52.6851H413.342C412.067 52.6851 411.033 51.6513 411.033 50.376V-18.8988Z" fill="url(#paint5_linear_108_185)" fill-opacity="0.3"/>
<path d="M508.018 -18.8988C508.018 -20.1742 509.052 -21.208 510.327 -21.208H579.602C580.877 -21.208 581.911 -20.1742 581.911 -18.8988V50.376C581.911 51.6513 580.877 52.6851 579.602 52.6851H510.327C509.052 52.6851 508.018 51.6513 508.018 50.376V-18.8988Z" fill="url(#paint6_linear_108_185)" fill-opacity="0.3"/>
<path d="M23.094 78.0855C23.094 76.8102 24.1278 75.7764 25.4032 75.7764H94.678C95.9533 75.7764 96.9871 76.8102 96.9871 78.0855V147.36C96.9871 148.636 95.9533 149.669 94.678 149.669H25.4032C24.1278 149.669 23.094 148.636 23.094 147.36V78.0855Z" fill="url(#paint7_linear_108_185)" fill-opacity="0.3"/>
<path d="M120.079 78.0855C120.079 76.8102 121.113 75.7764 122.388 75.7764H191.663C192.938 75.7764 193.972 76.8102 193.972 78.0855V147.36C193.972 148.636 192.938 149.669 191.663 149.669H122.388C121.113 149.669 120.079 148.636 120.079 147.36V78.0855Z" fill="url(#paint8_linear_108_185)" fill-opacity="0.3"/>
<path d="M217.063 78.0855C217.063 76.8102 218.097 75.7764 219.373 75.7764H288.647C289.923 75.7764 290.957 76.8102 290.957 78.0855V147.36C290.957 148.636 289.923 149.669 288.647 149.669H219.373C218.097 149.669 217.063 148.636 217.063 147.36V78.0855Z" fill="url(#paint9_linear_108_185)" fill-opacity="0.3"/>
<path d="M314.048 78.0855C314.048 76.8102 315.082 75.7764 316.357 75.7764H385.632C386.908 75.7764 387.941 76.8102 387.941 78.0855V147.36C387.941 148.636 386.908 149.669 385.632 149.669H316.357C315.082 149.669 314.048 148.636 314.048 147.36V78.0855Z" fill="url(#paint10_linear_108_185)" fill-opacity="0.3"/>
<path d="M411.033 78.0855C411.033 76.8102 412.067 75.7764 413.342 75.7764H482.617C483.892 75.7764 484.926 76.8102 484.926 78.0855V147.36C484.926 148.636 483.892 149.669 482.617 149.669H413.342C412.067 149.669 411.033 148.636 411.033 147.36V78.0855Z" fill="url(#paint11_linear_108_185)" fill-opacity="0.3"/>
<path d="M508.018 78.0855C508.018 76.8102 509.052 75.7764 510.327 75.7764H579.602C580.877 75.7764 581.911 76.8102 581.911 78.0855V147.36C581.911 148.636 580.877 149.669 579.602 149.669H510.327C509.052 149.669 508.018 148.636 508.018 147.36V78.0855Z" fill="url(#paint12_linear_108_185)" fill-opacity="0.3"/>
<path d="M23.094 175.071C23.094 173.796 24.1278 172.762 25.4032 172.762H94.678C95.9533 172.762 96.9871 173.796 96.9871 175.071V244.346C96.9871 245.621 95.9533 246.655 94.678 246.655H25.4032C24.1278 246.655 23.094 245.621 23.094 244.346V175.071Z" fill="url(#paint13_linear_108_185)" fill-opacity="0.3"/>
<path d="M120.079 175.071C120.079 173.796 121.113 172.762 122.388 172.762H191.663C192.938 172.762 193.972 173.796 193.972 175.071V244.346C193.972 245.621 192.938 246.655 191.663 246.655H122.388C121.113 246.655 120.079 245.621 120.079 244.346V175.071Z" fill="url(#paint14_linear_108_185)" fill-opacity="0.3"/>
<path d="M217.063 175.071C217.063 173.796 218.097 172.762 219.373 172.762H288.647C289.923 172.762 290.957 173.796 290.957 175.071V244.346C290.957 245.621 289.923 246.655 288.647 246.655H219.373C218.097 246.655 217.063 245.621 217.063 244.346V175.071Z" fill="url(#paint15_linear_108_185)" fill-opacity="0.3"/>
<path d="M314.048 175.071C314.048 173.796 315.082 172.762 316.357 172.762H385.632C386.908 172.762 387.941 173.796 387.941 175.071V244.346C387.941 245.621 386.908 246.655 385.632 246.655H316.357C315.082 246.655 314.048 245.621 314.048 244.346V175.071Z" fill="url(#paint16_linear_108_185)" fill-opacity="0.3"/>
<path d="M411.033 175.071C411.033 173.796 412.067 172.762 413.342 172.762H482.617C483.892 172.762 484.926 173.796 484.926 175.071V244.346C484.926 245.621 483.892 246.655 482.617 246.655H413.342C412.067 246.655 411.033 245.621 411.033 244.346V175.071Z" fill="url(#paint17_linear_108_185)" fill-opacity="0.3"/>
<path d="M508.018 175.071C508.018 173.796 509.052 172.762 510.327 172.762H579.602C580.877 172.762 581.911 173.796 581.911 175.071V244.346C581.911 245.621 580.877 246.655 579.602 246.655H510.327C509.052 246.655 508.018 245.621 508.018 244.346V175.071Z" fill="url(#paint18_linear_108_185)" fill-opacity="0.3"/>
<path d="M23.094 272.055C23.094 270.78 24.1278 269.746 25.4032 269.746H94.678C95.9533 269.746 96.9871 270.78 96.9871 272.055V341.33C96.9871 342.605 95.9533 343.639 94.678 343.639H25.4032C24.1278 343.639 23.094 342.605 23.094 341.33V272.055Z" fill="url(#paint19_linear_108_185)" fill-opacity="0.3"/>
<path d="M120.079 272.055C120.079 270.78 121.113 269.746 122.388 269.746H191.663C192.938 269.746 193.972 270.78 193.972 272.055V341.33C193.972 342.605 192.938 343.639 191.663 343.639H122.388C121.113 343.639 120.079 342.605 120.079 341.33V272.055Z" fill="url(#paint20_linear_108_185)" fill-opacity="0.3"/>
<path d="M217.063 272.055C217.063 270.78 218.097 269.746 219.373 269.746H288.647C289.923 269.746 290.957 270.78 290.957 272.055V341.33C290.957 342.605 289.923 343.639 288.647 343.639H219.373C218.097 343.639 217.063 342.605 217.063 341.33V272.055Z" fill="url(#paint21_linear_108_185)" fill-opacity="0.3"/>
<path d="M314.048 272.055C314.048 270.78 315.082 269.746 316.357 269.746H385.632C386.908 269.746 387.941 270.78 387.941 272.055V341.33C387.941 342.605 386.908 343.639 385.632 343.639H316.357C315.082 343.639 314.048 342.605 314.048 341.33V272.055Z" fill="url(#paint22_linear_108_185)" fill-opacity="0.3"/>
<path d="M411.033 272.055C411.033 270.78 412.067 269.746 413.342 269.746H482.617C483.892 269.746 484.926 270.78 484.926 272.055V341.33C484.926 342.605 483.892 343.639 482.617 343.639H413.342C412.067 343.639 411.033 342.605 411.033 341.33V272.055Z" fill="url(#paint23_linear_108_185)" fill-opacity="0.3"/>
<path d="M508.018 272.055C508.018 270.78 509.052 269.746 510.327 269.746H579.602C580.877 269.746 581.911 270.78 581.911 272.055V341.33C581.911 342.605 580.877 343.639 579.602 343.639H510.327C509.052 343.639 508.018 342.605 508.018 341.33V272.055Z" fill="url(#paint24_linear_108_185)" fill-opacity="0.3"/>
<path d="M23.094 369.04C23.094 367.764 24.1278 366.73 25.4032 366.73H94.678C95.9533 366.73 96.9871 367.764 96.9871 369.04V438.314C96.9871 439.59 95.9533 440.624 94.678 440.624H25.4032C24.1278 440.624 23.094 439.59 23.094 438.314V369.04Z" fill="url(#paint25_linear_108_185)" fill-opacity="0.3"/>
<path d="M120.079 369.04C120.079 367.764 121.113 366.73 122.388 366.73H191.663C192.938 366.73 193.972 367.764 193.972 369.04V438.314C193.972 439.59 192.938 440.624 191.663 440.624H122.388C121.113 440.624 120.079 439.59 120.079 438.314V369.04Z" fill="url(#paint26_linear_108_185)" fill-opacity="0.3"/>
<path d="M217.063 369.04C217.063 367.764 218.097 366.73 219.373 366.73H288.647C289.923 366.73 290.957 367.764 290.957 369.04V438.314C290.957 439.59 289.923 440.624 288.647 440.624H219.373C218.097 440.624 217.063 439.59 217.063 438.314V369.04Z" fill="url(#paint27_linear_108_185)" fill-opacity="0.3"/>
<path d="M314.048 369.04C314.048 367.764 315.082 366.73 316.357 366.73H385.632C386.908 366.73 387.941 367.764 387.941 369.04V438.314C387.941 439.59 386.908 440.624 385.632 440.624H316.357C315.082 440.624 314.048 439.59 314.048 438.314V369.04Z" fill="url(#paint28_linear_108_185)" fill-opacity="0.3"/>
<path d="M411.033 369.04C411.033 367.764 412.067 366.73 413.342 366.73H482.617C483.892 366.73 484.926 367.764 484.926 369.04V438.314C484.926 439.59 483.892 440.624 482.617 440.624H413.342C412.067 440.624 411.033 439.59 411.033 438.314V369.04Z" fill="url(#paint29_linear_108_185)" fill-opacity="0.3"/>
<path d="M508.018 369.04C508.018 367.764 509.052 366.73 510.327 366.73H579.602C580.877 366.73 581.911 367.764 581.911 369.04V438.314C581.911 439.59 580.877 440.624 579.602 440.624H510.327C509.052 440.624 508.018 439.59 508.018 438.314V369.04Z" fill="url(#paint30_linear_108_185)" fill-opacity="0.3"/>
<path d="M23.094 -18.8988C23.094 -20.1742 24.1278 -21.208 25.4032 -21.208H94.678C95.9533 -21.208 96.9871 -20.1742 96.9871 -18.8988V50.376C96.9871 51.6513 95.9533 52.6851 94.678 52.6851H25.4032C24.1278 52.6851 23.094 51.6513 23.094 50.376V-18.8988Z" stroke="url(#paint31_linear_108_185)" stroke-opacity="0.3" stroke-width="2" mask="url(#path-3-inside-1_108_185)"/>
<path d="M120.079 -18.8988C120.079 -20.1742 121.113 -21.208 122.388 -21.208H191.663C192.938 -21.208 193.972 -20.1742 193.972 -18.8988V50.376C193.972 51.6513 192.938 52.6851 191.663 52.6851H122.388C121.113 52.6851 120.079 51.6513 120.079 50.376V-18.8988Z" stroke="url(#paint32_linear_108_185)" stroke-opacity="0.3" stroke-width="2" mask="url(#path-3-inside-1_108_185)"/>
<path d="M217.063 -18.8988C217.063 -20.1742 218.097 -21.208 219.373 -21.208H288.647C289.923 -21.208 290.957 -20.1742 290.957 -18.8988V50.376C290.957 51.6513 289.923 52.6851 288.647 52.6851H219.373C218.097 52.6851 217.063 51.6513 217.063 50.376V-18.8988Z" stroke="url(#paint33_linear_108_185)" stroke-opacity="0.3" stroke-width="2" mask="url(#path-3-inside-1_108_185)"/>
<path d="M314.048 -18.8988C314.048 -20.1742 315.082 -21.208 316.357 -21.208H385.632C386.908 -21.208 387.941 -20.1742 387.941 -18.8988V50.376C387.941 51.6513 386.908 52.6851 385.632 52.6851H316.357C315.082 52.6851 314.048 51.6513 314.048 50.376V-18.8988Z" stroke="url(#paint34_linear_108_185)" stroke-opacity="0.3" stroke-width="2" mask="url(#path-3-inside-1_108_185)"/>
<path d="M411.033 -18.8988C411.033 -20.1742 412.067 -21.208 413.342 -21.208H482.617C483.892 -21.208 484.926 -20.1742 484.926 -18.8988V50.376C484.926 51.6513 483.892 52.6851 482.617 52.6851H413.342C412.067 52.6851 411.033 51.6513 411.033 50.376V-18.8988Z" stroke="url(#paint35_linear_108_185)" stroke-opacity="0.3" stroke-width="2" mask="url(#path-3-inside-1_108_185)"/>
<path d="M508.018 -18.8988C508.018 -20.1742 509.052 -21.208 510.327 -21.208H579.602C580.877 -21.208 581.911 -20.1742 581.911 -18.8988V50.376C581.911 51.6513 580.877 52.6851 579.602 52.6851H510.327C509.052 52.6851 508.018 51.6513 508.018 50.376V-18.8988Z" stroke="url(#paint36_linear_108_185)" stroke-opacity="0.3" stroke-width="2" mask="url(#path-3-inside-1_108_185)"/>
<path d="M23.094 78.0855C23.094 76.8102 24.1278 75.7764 25.4032 75.7764H94.678C95.9533 75.7764 96.9871 76.8102 96.9871 78.0855V147.36C96.9871 148.636 95.9533 149.669 94.678 149.669H25.4032C24.1278 149.669 23.094 148.636 23.094 147.36V78.0855Z" stroke="url(#paint37_linear_108_185)" stroke-opacity="0.3" stroke-width="2" mask="url(#path-3-inside-1_108_185)"/>
<path d="M120.079 78.0855C120.079 76.8102 121.113 75.7764 122.388 75.7764H191.663C192.938 75.7764 193.972 76.8102 193.972 78.0855V147.36C193.972 148.636 192.938 149.669 191.663 149.669H122.388C121.113 149.669 120.079 148.636 120.079 147.36V78.0855Z" stroke="url(#paint38_linear_108_185)" stroke-opacity="0.3" stroke-width="2" mask="url(#path-3-inside-1_108_185)"/>
<path d="M217.063 78.0855C217.063 76.8102 218.097 75.7764 219.373 75.7764H288.647C289.923 75.7764 290.957 76.8102 290.957 78.0855V147.36C290.957 148.636 289.923 149.669 288.647 149.669H219.373C218.097 149.669 217.063 148.636 217.063 147.36V78.0855Z" stroke="url(#paint39_linear_108_185)" stroke-opacity="0.3" stroke-width="2" mask="url(#path-3-inside-1_108_185)"/>
<path d="M314.048 78.0855C314.048 76.8102 315.082 75.7764 316.357 75.7764H385.632C386.908 75.7764 387.941 76.8102 387.941 78.0855V147.36C387.941 148.636 386.908 149.669 385.632 149.669H316.357C315.082 149.669 314.048 148.636 314.048 147.36V78.0855Z" stroke="url(#paint40_linear_108_185)" stroke-opacity="0.3" stroke-width="2" mask="url(#path-3-inside-1_108_185)"/>
<path d="M411.033 78.0855C411.033 76.8102 412.067 75.7764 413.342 75.7764H482.617C483.892 75.7764 484.926 76.8102 484.926 78.0855V147.36C484.926 148.636 483.892 149.669 482.617 149.669H413.342C412.067 149.669 411.033 148.636 411.033 147.36V78.0855Z" stroke="url(#paint41_linear_108_185)" stroke-opacity="0.3" stroke-width="2" mask="url(#path-3-inside-1_108_185)"/>
<path d="M508.018 78.0855C508.018 76.8102 509.052 75.7764 510.327 75.7764H579.602C580.877 75.7764 581.911 76.8102 581.911 78.0855V147.36C581.911 148.636 580.877 149.669 579.602 149.669H510.327C509.052 149.669 508.018 148.636 508.018 147.36V78.0855Z" stroke="url(#paint42_linear_108_185)" stroke-opacity="0.3" stroke-width="2" mask="url(#path-3-inside-1_108_185)"/>
<path d="M23.094 175.071C23.094 173.796 24.1278 172.762 25.4032 172.762H94.678C95.9533 172.762 96.9871 173.796 96.9871 175.071V244.346C96.9871 245.621 95.9533 246.655 94.678 246.655H25.4032C24.1278 246.655 23.094 245.621 23.094 244.346V175.071Z" stroke="url(#paint43_linear_108_185)" stroke-opacity="0.3" stroke-width="2" mask="url(#path-3-inside-1_108_185)"/>
<path d="M120.079 175.071C120.079 173.796 121.113 172.762 122.388 172.762H191.663C192.938 172.762 193.972 173.796 193.972 175.071V244.346C193.972 245.621 192.938 246.655 191.663 246.655H122.388C121.113 246.655 120.079 245.621 120.079 244.346V175.071Z" stroke="url(#paint44_linear_108_185)" stroke-opacity="0.3" stroke-width="2" mask="url(#path-3-inside-1_108_185)"/>
<path d="M217.063 175.071C217.063 173.796 218.097 172.762 219.373 172.762H288.647C289.923 172.762 290.957 173.796 290.957 175.071V244.346C290.957 245.621 289.923 246.655 288.647 246.655H219.373C218.097 246.655 217.063 245.621 217.063 244.346V175.071Z" stroke="url(#paint45_linear_108_185)" stroke-opacity="0.3" stroke-width="2" mask="url(#path-3-inside-1_108_185)"/>
<path d="M314.048 175.071C314.048 173.796 315.082 172.762 316.357 172.762H385.632C386.908 172.762 387.941 173.796 387.941 175.071V244.346C387.941 245.621 386.908 246.655 385.632 246.655H316.357C315.082 246.655 314.048 245.621 314.048 244.346V175.071Z" stroke="url(#paint46_linear_108_185)" stroke-opacity="0.3" stroke-width="2" mask="url(#path-3-inside-1_108_185)"/>
<path d="M411.033 175.071C411.033 173.796 412.067 172.762 413.342 172.762H482.617C483.892 172.762 484.926 173.796 484.926 175.071V244.346C484.926 245.621 483.892 246.655 482.617 246.655H413.342C412.067 246.655 411.033 245.621 411.033 244.346V175.071Z" stroke="url(#paint47_linear_108_185)" stroke-opacity="0.3" stroke-width="2" mask="url(#path-3-inside-1_108_185)"/>
<path d="M508.018 175.071C508.018 173.796 509.052 172.762 510.327 172.762H579.602C580.877 172.762 581.911 173.796 581.911 175.071V244.346C581.911 245.621 580.877 246.655 579.602 246.655H510.327C509.052 246.655 508.018 245.621 508.018 244.346V175.071Z" stroke="url(#paint48_linear_108_185)" stroke-opacity="0.3" stroke-width="2" mask="url(#path-3-inside-1_108_185)"/>
<path d="M23.094 272.055C23.094 270.78 24.1278 269.746 25.4032 269.746H94.678C95.9533 269.746 96.9871 270.78 96.9871 272.055V341.33C96.9871 342.605 95.9533 343.639 94.678 343.639H25.4032C24.1278 343.639 23.094 342.605 23.094 341.33V272.055Z" stroke="url(#paint49_linear_108_185)" stroke-opacity="0.3" stroke-width="2" mask="url(#path-3-inside-1_108_185)"/>
<path d="M120.079 272.055C120.079 270.78 121.113 269.746 122.388 269.746H191.663C192.938 269.746 193.972 270.78 193.972 272.055V341.33C193.972 342.605 192.938 343.639 191.663 343.639H122.388C121.113 343.639 120.079 342.605 120.079 341.33V272.055Z" stroke="url(#paint50_linear_108_185)" stroke-opacity="0.3" stroke-width="2" mask="url(#path-3-inside-1_108_185)"/>
<path d="M217.063 272.055C217.063 270.78 218.097 269.746 219.373 269.746H288.647C289.923 269.746 290.957 270.78 290.957 272.055V341.33C290.957 342.605 289.923 343.639 288.647 343.639H219.373C218.097 343.639 217.063 342.605 217.063 341.33V272.055Z" stroke="url(#paint51_linear_108_185)" stroke-opacity="0.3" stroke-width="2" mask="url(#path-3-inside-1_108_185)"/>
<path d="M314.048 272.055C314.048 270.78 315.082 269.746 316.357 269.746H385.632C386.908 269.746 387.941 270.78 387.941 272.055V341.33C387.941 342.605 386.908 343.639 385.632 343.639H316.357C315.082 343.639 314.048 342.605 314.048 341.33V272.055Z" stroke="url(#paint52_linear_108_185)" stroke-opacity="0.3" stroke-width="2" mask="url(#path-3-inside-1_108_185)"/>
<path d="M411.033 272.055C411.033 270.78 412.067 269.746 413.342 269.746H482.617C483.892 269.746 484.926 270.78 484.926 272.055V341.33C484.926 342.605 483.892 343.639 482.617 343.639H413.342C412.067 343.639 411.033 342.605 411.033 341.33V272.055Z" stroke="url(#paint53_linear_108_185)" stroke-opacity="0.3" stroke-width="2" mask="url(#path-3-inside-1_108_185)"/>
<path d="M508.018 272.055C508.018 270.78 509.052 269.746 510.327 269.746H579.602C580.877 269.746 581.911 270.78 581.911 272.055V341.33C581.911 342.605 580.877 343.639 579.602 343.639H510.327C509.052 343.639 508.018 342.605 508.018 341.33V272.055Z" stroke="url(#paint54_linear_108_185)" stroke-opacity="0.3" stroke-width="2" mask="url(#path-3-inside-1_108_185)"/>
<path d="M23.094 369.04C23.094 367.764 24.1278 366.73 25.4032 366.73H94.678C95.9533 366.73 96.9871 367.764 96.9871 369.04V438.314C96.9871 439.59 95.9533 440.624 94.678 440.624H25.4032C24.1278 440.624 23.094 439.59 23.094 438.314V369.04Z" stroke="url(#paint55_linear_108_185)" stroke-opacity="0.3" stroke-width="2" mask="url(#path-3-inside-1_108_185)"/>
<path d="M120.079 369.04C120.079 367.764 121.113 366.73 122.388 366.73H191.663C192.938 366.73 193.972 367.764 193.972 369.04V438.314C193.972 439.59 192.938 440.624 191.663 440.624H122.388C121.113 440.624 120.079 439.59 120.079 438.314V369.04Z" stroke="url(#paint56_linear_108_185)" stroke-opacity="0.3" stroke-width="2" mask="url(#path-3-inside-1_108_185)"/>
<path d="M217.063 369.04C217.063 367.764 218.097 366.73 219.373 366.73H288.647C289.923 366.73 290.957 367.764 290.957 369.04V438.314C290.957 439.59 289.923 440.624 288.647 440.624H219.373C218.097 440.624 217.063 439.59 217.063 438.314V369.04Z" stroke="url(#paint57_linear_108_185)" stroke-opacity="0.3" stroke-width="2" mask="url(#path-3-inside-1_108_185)"/>
<path d="M314.048 369.04C314.048 367.764 315.082 366.73 316.357 366.73H385.632C386.908 366.73 387.941 367.764 387.941 369.04V438.314C387.941 439.59 386.908 440.624 385.632 440.624H316.357C315.082 440.624 314.048 439.59 314.048 438.314V369.04Z" stroke="url(#paint58_linear_108_185)" stroke-opacity="0.3" stroke-width="2" mask="url(#path-3-inside-1_108_185)"/>
<path d="M411.033 369.04C411.033 367.764 412.067 366.73 413.342 366.73H482.617C483.892 366.73 484.926 367.764 484.926 369.04V438.314C484.926 439.59 483.892 440.624 482.617 440.624H413.342C412.067 440.624 411.033 439.59 411.033 438.314V369.04Z" stroke="url(#paint59_linear_108_185)" stroke-opacity="0.3" stroke-width="2" mask="url(#path-3-inside-1_108_185)"/>
<path d="M508.018 369.04C508.018 367.764 509.052 366.73 510.327 366.73H579.602C580.877 366.73 581.911 367.764 581.911 369.04V438.314C581.911 439.59 580.877 440.624 579.602 440.624H510.327C509.052 440.624 508.018 439.59 508.018 438.314V369.04Z" stroke="url(#paint60_linear_108_185)" stroke-opacity="0.3" stroke-width="2" mask="url(#path-3-inside-1_108_185)"/>
</g>
<g filter="url(#filter1_f_108_185)">
<path d="M349.875 147.19L310.57 132.349C306.496 130.836 299.85 130.836 295.776 132.349L256.471 147.19C248.896 150.071 242.75 159.005 242.75 167.146V225.502C242.75 231.338 246.538 239.046 251.183 242.505L290.488 272.115C297.42 277.374 308.783 277.374 315.715 272.115L355.02 242.505C359.666 238.974 363.454 231.338 363.454 225.502V167.146C363.525 159.005 357.379 150.071 349.875 147.19Z" fill="url(#paint61_linear_108_185)" fill-opacity="0.6"/>
</g>
<path d="M410.12 0.331173V-31.9971H-787.18V297.058H-541.831L-515.276 318.418H-283.205L-35.548 70.7606H335.65L410.12 0.331173Z" stroke="url(#paint62_linear_108_185)" stroke-opacity="0.7"/>
<path d="M1203.85 301.266L1272.55 225.064V107.297L1299.11 74.9688H1371.84V442.125H259.406L393.338 301.266H606.358L636.954 331.863H974.091L994.874 301.266H1203.85Z" stroke="url(#paint63_linear_108_185)" stroke-opacity="0.7"/>
<path d="M224.86 278.164L224.858 278.163C209.116 266.444 198.797 245.721 198.797 226.06V167.704C198.797 141.41 216.154 116.194 240.717 106.849L280.346 91.8867C294.272 86.7144 311.732 86.7318 325.835 91.9708L365.368 106.899C365.369 106.899 365.369 106.899 365.369 106.899C389.908 116.324 407.245 141.687 407.019 167.7V167.704V226.06C407.019 245.591 396.82 266.109 381.153 278.015L341.97 307.533L341.969 307.534C319.413 324.646 286.427 324.667 263.965 307.625L263.964 307.624L224.86 278.164Z" stroke="url(#paint64_linear_108_185)"/>
<g filter="url(#filter2_b_108_185)">
<path d="M280.172 91.418L240.54 106.382C215.782 115.8 198.297 141.203 198.297 167.704V226.06C198.297 245.878 208.689 266.749 224.559 278.564L263.663 308.023C286.304 325.201 319.537 325.18 342.271 307.932L381.456 278.413C397.247 266.413 407.519 245.748 407.519 226.06V167.704C407.747 141.48 390.279 115.93 365.547 106.432L326.009 91.5021C311.794 86.2218 294.211 86.2036 280.172 91.418Z" fill="white" fill-opacity="0.05"/>
</g>
<g filter="url(#filter3_b_108_185)">
<path d="M287.176 110.276L247.692 125.184C230.738 131.634 218.414 149.556 218.414 167.704V226.06C218.414 239.495 225.782 254.394 236.572 262.427L275.767 291.955C291.26 303.709 314.553 303.709 330.111 291.905L369.351 262.344C380.084 254.188 387.401 239.44 387.401 226.06V167.704C387.557 149.724 375.259 131.711 358.335 125.212L318.902 110.322C309.284 106.749 296.672 106.749 287.176 110.276Z" fill="white" fill-opacity="0.07"/>
</g>
<path d="M251.484 242.105L251.481 242.103C249.24 240.435 247.177 237.715 245.673 234.673C244.169 231.632 243.25 228.323 243.25 225.502V167.146C243.25 163.196 244.744 159.024 247.182 155.479C249.62 151.934 252.975 149.055 256.649 147.657L295.951 132.817C295.951 132.817 295.951 132.817 295.952 132.817C297.916 132.088 300.532 131.714 303.173 131.714C305.814 131.714 308.43 132.088 310.394 132.817C310.395 132.817 310.395 132.817 310.396 132.817L349.696 147.656C349.696 147.657 349.696 147.657 349.697 147.657C353.335 149.054 356.672 151.933 359.092 155.478C361.512 159.023 362.988 163.193 362.954 167.142V167.146V225.502C362.954 228.322 362.035 231.614 360.531 234.646C359.028 237.677 356.964 240.399 354.719 242.105C354.719 242.106 354.718 242.106 354.718 242.106L315.414 271.715L315.413 271.716C312.049 274.269 307.586 275.559 303.102 275.559C298.617 275.559 294.155 274.269 290.79 271.716L290.789 271.715L251.484 242.105Z" fill="#111010" stroke="url(#paint65_linear_108_185)"/>
<path fill-rule="evenodd" clip-rule="evenodd" d="M311.391 192.903C310.107 192.903 308.91 193.551 308.215 194.617C308.212 194.62 308.21 194.624 308.207 194.628L297.153 212.64C297.152 212.642 297.151 212.644 297.15 212.645C296.638 213.44 295.745 213.922 294.793 213.922C294.621 213.922 294.453 213.907 294.29 213.877C292.982 213.643 291.992 212.511 291.992 211.149L291.992 180.746L281.968 184.807C280.52 185.395 279.578 186.788 279.578 188.332L279.578 211.067C279.578 213.17 281.303 214.877 283.428 214.877H294.793C296.078 214.877 297.275 214.229 297.97 213.164C297.973 213.16 297.975 213.157 297.977 213.153L309.031 195.141C309.032 195.139 309.033 195.137 309.034 195.136C309.547 194.34 310.44 193.859 311.391 193.859C311.563 193.859 311.731 193.874 311.895 193.903C313.202 194.138 314.193 195.27 314.193 196.632V227.035L324.217 222.974C325.665 222.385 326.607 220.993 326.607 219.449V196.714C326.607 194.61 324.882 192.903 322.757 192.903H311.391ZM323.841 222.047C324.916 221.61 325.607 220.581 325.607 219.449V196.714C325.607 195.172 324.339 193.903 322.757 193.903H314.018C314.741 194.589 315.193 195.556 315.193 196.632V225.551L323.84 222.047M292.167 213.877H283.428C281.845 213.877 280.578 212.608 280.578 211.067L280.578 188.332C280.578 187.2 281.269 186.171 282.344 185.733C282.344 185.734 282.344 185.733 282.344 185.733L290.992 182.23L290.992 211.149C290.992 212.225 291.444 213.192 292.167 213.877Z" fill="url(#paint66_linear_108_185)"/>
<path d="M236.873 262.027L236.871 262.026C226.21 254.089 218.914 239.339 218.914 226.06V167.704C218.914 149.762 231.111 132.027 247.87 125.652L287.35 110.745C287.351 110.745 287.351 110.745 287.352 110.744C296.734 107.26 309.221 107.26 318.727 110.79C318.727 110.79 318.728 110.791 318.728 110.791L358.156 125.678C374.886 132.104 387.055 149.93 386.901 167.7V167.704V226.06C386.901 239.283 379.658 253.884 369.049 261.946L329.81 291.506L329.809 291.507C314.429 303.176 291.384 303.175 276.07 291.556L276.068 291.555L236.873 262.027Z" stroke="url(#paint67_linear_108_185)"/>
</g>
</g>
<defs>
<filter id="filter0_b_108_185" x="-4.61593" y="-48.9179" width="614.237" height="517.252" filterUnits="userSpaceOnUse" color-interpolation-filters="sRGB">
<feFlood flood-opacity="0" result="BackgroundImageFix"/>
<feGaussianBlur in="BackgroundImageFix" stdDeviation="13.855"/>
<feComposite in2="SourceAlpha" operator="in" result="effect1_backgroundBlur_108_185"/>
<feBlend mode="normal" in="SourceGraphic" in2="effect1_backgroundBlur_108_185" result="shape"/>
</filter>
<filter id="filter1_f_108_185" x="153.847" y="42.3112" width="298.51" height="322.651" filterUnits="userSpaceOnUse" color-interpolation-filters="sRGB">
<feFlood flood-opacity="0" result="BackgroundImageFix"/>
<feBlend mode="normal" in="SourceGraphic" in2="BackgroundImageFix" result="shape"/>
<feGaussianBlur stdDeviation="44.4513" result="effect1_foregroundBlur_108_185"/>
</filter>
<filter id="filter2_b_108_185" x="177.976" y="67.2038" width="249.865" height="274.005" filterUnits="userSpaceOnUse" color-interpolation-filters="sRGB">
<feFlood flood-opacity="0" result="BackgroundImageFix"/>
<feGaussianBlur in="BackgroundImageFix" stdDeviation="10.1603"/>
<feComposite in2="SourceAlpha" operator="in" result="effect1_backgroundBlur_108_185"/>
<feBlend mode="normal" in="SourceGraphic" in2="effect1_backgroundBlur_108_185" result="shape"/>
</filter>
<filter id="filter3_b_108_185" x="205.714" y="94.9363" width="194.389" height="218.529" filterUnits="userSpaceOnUse" color-interpolation-filters="sRGB">
<feFlood flood-opacity="0" result="BackgroundImageFix"/>
<feGaussianBlur in="BackgroundImageFix" stdDeviation="6.35019"/>
<feComposite in2="SourceAlpha" operator="in" result="effect1_backgroundBlur_108_185"/>
<feBlend mode="normal" in="SourceGraphic" in2="effect1_backgroundBlur_108_185" result="shape"/>
</filter>
<linearGradient id="paint0_linear_108_185" x1="0" y1="204" x2="605" y2="204" gradientUnits="userSpaceOnUse">
<stop stop-color="#111010" stop-opacity="0"/>
<stop offset="0.05" stop-color="#111010" stop-opacity="0.69"/>
<stop offset="0.12" stop-color="#111010"/>
<stop offset="1" stop-color="#111010"/>
</linearGradient>
<linearGradient id="paint1_linear_108_185" x1="-21.7897" y1="54.8241" x2="-79.9795" y2="28.1959" gradientUnits="userSpaceOnUse">
<stop stop-color="#DBDBEB" stop-opacity="0.07"/>
<stop offset="0.394031" stop-color="#DBDBEB" stop-opacity="0.06"/>
<stop offset="1" stop-color="#DBDBEB" stop-opacity="0.1"/>
</linearGradient>
<linearGradient id="paint2_linear_108_185" x1="-21.7897" y1="54.8241" x2="-79.9795" y2="28.1959" gradientUnits="userSpaceOnUse">
<stop stop-color="#DBDBEB" stop-opacity="0.07"/>
<stop offset="0.394031" stop-color="#DBDBEB" stop-opacity="0.06"/>
<stop offset="1" stop-color="#DBDBEB" stop-opacity="0.1"/>
</linearGradient>
<linearGradient id="paint3_linear_108_185" x1="-21.7897" y1="54.8241" x2="-79.9795" y2="28.1959" gradientUnits="userSpaceOnUse">
<stop stop-color="#DBDBEB" stop-opacity="0.07"/>
<stop offset="0.394031" stop-color="#DBDBEB" stop-opacity="0.06"/>
<stop offset="1" stop-color="#DBDBEB" stop-opacity="0.1"/>
</linearGradient>
<linearGradient id="paint4_linear_108_185" x1="-21.7897" y1="54.8241" x2="-79.9795" y2="28.1959" gradientUnits="userSpaceOnUse">
<stop stop-color="#DBDBEB" stop-opacity="0.07"/>
<stop offset="0.394031" stop-color="#DBDBEB" stop-opacity="0.06"/>
<stop offset="1" stop-color="#DBDBEB" stop-opacity="0.1"/>
</linearGradient>
<linearGradient id="paint5_linear_108_185" x1="-21.7897" y1="54.8241" x2="-79.9795" y2="28.1959" gradientUnits="userSpaceOnUse">
<stop stop-color="#DBDBEB" stop-opacity="0.07"/>
<stop offset="0.394031" stop-color="#DBDBEB" stop-opacity="0.06"/>
<stop offset="1" stop-color="#DBDBEB" stop-opacity="0.1"/>
</linearGradient>
<linearGradient id="paint6_linear_108_185" x1="-21.7897" y1="54.8241" x2="-79.9795" y2="28.1959" gradientUnits="userSpaceOnUse">
<stop stop-color="#DBDBEB" stop-opacity="0.07"/>
<stop offset="0.394031" stop-color="#DBDBEB" stop-opacity="0.06"/>
<stop offset="1" stop-color="#DBDBEB" stop-opacity="0.1"/>
</linearGradient>
<linearGradient id="paint7_linear_108_185" x1="-21.7897" y1="54.8241" x2="-79.9795" y2="28.1959" gradientUnits="userSpaceOnUse">
<stop stop-color="#DBDBEB" stop-opacity="0.07"/>
<stop offset="0.394031" stop-color="#DBDBEB" stop-opacity="0.06"/>
<stop offset="1" stop-color="#DBDBEB" stop-opacity="0.1"/>
</linearGradient>
<linearGradient id="paint8_linear_108_185" x1="-21.7897" y1="54.8241" x2="-79.9795" y2="28.1959" gradientUnits="userSpaceOnUse">
<stop stop-color="#DBDBEB" stop-opacity="0.07"/>
<stop offset="0.394031" stop-color="#DBDBEB" stop-opacity="0.06"/>
<stop offset="1" stop-color="#DBDBEB" stop-opacity="0.1"/>
</linearGradient>
<linearGradient id="paint9_linear_108_185" x1="-21.7897" y1="54.8241" x2="-79.9795" y2="28.1959" gradientUnits="userSpaceOnUse">
<stop stop-color="#DBDBEB" stop-opacity="0.07"/>
<stop offset="0.394031" stop-color="#DBDBEB" stop-opacity="0.06"/>
<stop offset="1" stop-color="#DBDBEB" stop-opacity="0.1"/>
</linearGradient>
<linearGradient id="paint10_linear_108_185" x1="-21.7897" y1="54.8241" x2="-79.9795" y2="28.1959" gradientUnits="userSpaceOnUse">
<stop stop-color="#DBDBEB" stop-opacity="0.07"/>
<stop offset="0.394031" stop-color="#DBDBEB" stop-opacity="0.06"/>
<stop offset="1" stop-color="#DBDBEB" stop-opacity="0.1"/>
</linearGradient>
<linearGradient id="paint11_linear_108_185" x1="-21.7897" y1="54.8241" x2="-79.9795" y2="28.1959" gradientUnits="userSpaceOnUse">
<stop stop-color="#DBDBEB" stop-opacity="0.07"/>
<stop offset="0.394031" stop-color="#DBDBEB" stop-opacity="0.06"/>
<stop offset="1" stop-color="#DBDBEB" stop-opacity="0.1"/>
</linearGradient>
<linearGradient id="paint12_linear_108_185" x1="-21.7897" y1="54.8241" x2="-79.9795" y2="28.1959" gradientUnits="userSpaceOnUse">
<stop stop-color="#DBDBEB" stop-opacity="0.07"/>
<stop offset="0.394031" stop-color="#DBDBEB" stop-opacity="0.06"/>
<stop offset="1" stop-color="#DBDBEB" stop-opacity="0.1"/>
</linearGradient>
<linearGradient id="paint13_linear_108_185" x1="-21.7897" y1="54.8241" x2="-79.9795" y2="28.1959" gradientUnits="userSpaceOnUse">
<stop stop-color="#DBDBEB" stop-opacity="0.07"/>
<stop offset="0.394031" stop-color="#DBDBEB" stop-opacity="0.06"/>
<stop offset="1" stop-color="#DBDBEB" stop-opacity="0.1"/>
</linearGradient>
<linearGradient id="paint14_linear_108_185" x1="-21.7897" y1="54.8241" x2="-79.9795" y2="28.1959" gradientUnits="userSpaceOnUse">
<stop stop-color="#DBDBEB" stop-opacity="0.07"/>
<stop offset="0.394031" stop-color="#DBDBEB" stop-opacity="0.06"/>
<stop offset="1" stop-color="#DBDBEB" stop-opacity="0.1"/>
</linearGradient>
<linearGradient id="paint15_linear_108_185" x1="-21.7897" y1="54.8241" x2="-79.9795" y2="28.1959" gradientUnits="userSpaceOnUse">
<stop stop-color="#DBDBEB" stop-opacity="0.07"/>
<stop offset="0.394031" stop-color="#DBDBEB" stop-opacity="0.06"/>
<stop offset="1" stop-color="#DBDBEB" stop-opacity="0.1"/>
</linearGradient>
<linearGradient id="paint16_linear_108_185" x1="-21.7897" y1="54.8241" x2="-79.9795" y2="28.1959" gradientUnits="userSpaceOnUse">
<stop stop-color="#DBDBEB" stop-opacity="0.07"/>
<stop offset="0.394031" stop-color="#DBDBEB" stop-opacity="0.06"/>
<stop offset="1" stop-color="#DBDBEB" stop-opacity="0.1"/>
</linearGradient>
<linearGradient id="paint17_linear_108_185" x1="-21.7897" y1="54.8241" x2="-79.9795" y2="28.1959" gradientUnits="userSpaceOnUse">
<stop stop-color="#DBDBEB" stop-opacity="0.07"/>
<stop offset="0.394031" stop-color="#DBDBEB" stop-opacity="0.06"/>
<stop offset="1" stop-color="#DBDBEB" stop-opacity="0.1"/>
</linearGradient>
<linearGradient id="paint18_linear_108_185" x1="-21.7897" y1="54.8241" x2="-79.9795" y2="28.1959" gradientUnits="userSpaceOnUse">
<stop stop-color="#DBDBEB" stop-opacity="0.07"/>
<stop offset="0.394031" stop-color="#DBDBEB" stop-opacity="0.06"/>
<stop offset="1" stop-color="#DBDBEB" stop-opacity="0.1"/>
</linearGradient>
<linearGradient id="paint19_linear_108_185" x1="-21.7897" y1="54.8241" x2="-79.9795" y2="28.1959" gradientUnits="userSpaceOnUse">
<stop stop-color="#DBDBEB" stop-opacity="0.07"/>
<stop offset="0.394031" stop-color="#DBDBEB" stop-opacity="0.06"/>
<stop offset="1" stop-color="#DBDBEB" stop-opacity="0.1"/>
</linearGradient>
<linearGradient id="paint20_linear_108_185" x1="-21.7897" y1="54.8241" x2="-79.9795" y2="28.1959" gradientUnits="userSpaceOnUse">
<stop stop-color="#DBDBEB" stop-opacity="0.07"/>
<stop offset="0.394031" stop-color="#DBDBEB" stop-opacity="0.06"/>
<stop offset="1" stop-color="#DBDBEB" stop-opacity="0.1"/>
</linearGradient>
<linearGradient id="paint21_linear_108_185" x1="-21.7897" y1="54.8241" x2="-79.9795" y2="28.1959" gradientUnits="userSpaceOnUse">
<stop stop-color="#DBDBEB" stop-opacity="0.07"/>
<stop offset="0.394031" stop-color="#DBDBEB" stop-opacity="0.06"/>
<stop offset="1" stop-color="#DBDBEB" stop-opacity="0.1"/>
</linearGradient>
<linearGradient id="paint22_linear_108_185" x1="-21.7897" y1="54.8241" x2="-79.9795" y2="28.1959" gradientUnits="userSpaceOnUse">
<stop stop-color="#DBDBEB" stop-opacity="0.07"/>
<stop offset="0.394031" stop-color="#DBDBEB" stop-opacity="0.06"/>
<stop offset="1" stop-color="#DBDBEB" stop-opacity="0.1"/>
</linearGradient>
<linearGradient id="paint23_linear_108_185" x1="-21.7897" y1="54.8241" x2="-79.9795" y2="28.1959" gradientUnits="userSpaceOnUse">
<stop stop-color="#DBDBEB" stop-opacity="0.07"/>
<stop offset="0.394031" stop-color="#DBDBEB" stop-opacity="0.06"/>
<stop offset="1" stop-color="#DBDBEB" stop-opacity="0.1"/>
</linearGradient>
<linearGradient id="paint24_linear_108_185" x1="-21.7897" y1="54.8241" x2="-79.9795" y2="28.1959" gradientUnits="userSpaceOnUse">
<stop stop-color="#DBDBEB" stop-opacity="0.07"/>
<stop offset="0.394031" stop-color="#DBDBEB" stop-opacity="0.06"/>
<stop offset="1" stop-color="#DBDBEB" stop-opacity="0.1"/>
</linearGradient>
<linearGradient id="paint25_linear_108_185" x1="-21.7897" y1="54.8241" x2="-79.9795" y2="28.1959" gradientUnits="userSpaceOnUse">
<stop stop-color="#DBDBEB" stop-opacity="0.07"/>
<stop offset="0.394031" stop-color="#DBDBEB" stop-opacity="0.06"/>
<stop offset="1" stop-color="#DBDBEB" stop-opacity="0.1"/>
</linearGradient>
<linearGradient id="paint26_linear_108_185" x1="-21.7897" y1="54.8241" x2="-79.9795" y2="28.1959" gradientUnits="userSpaceOnUse">
<stop stop-color="#DBDBEB" stop-opacity="0.07"/>
<stop offset="0.394031" stop-color="#DBDBEB" stop-opacity="0.06"/>
<stop offset="1" stop-color="#DBDBEB" stop-opacity="0.1"/>
</linearGradient>
<linearGradient id="paint27_linear_108_185" x1="-21.7897" y1="54.8241" x2="-79.9795" y2="28.1959" gradientUnits="userSpaceOnUse">
<stop stop-color="#DBDBEB" stop-opacity="0.07"/>
<stop offset="0.394031" stop-color="#DBDBEB" stop-opacity="0.06"/>
<stop offset="1" stop-color="#DBDBEB" stop-opacity="0.1"/>
</linearGradient>
<linearGradient id="paint28_linear_108_185" x1="-21.7897" y1="54.8241" x2="-79.9795" y2="28.1959" gradientUnits="userSpaceOnUse">
<stop stop-color="#DBDBEB" stop-opacity="0.07"/>
<stop offset="0.394031" stop-color="#DBDBEB" stop-opacity="0.06"/>
<stop offset="1" stop-color="#DBDBEB" stop-opacity="0.1"/>
</linearGradient>
<linearGradient id="paint29_linear_108_185" x1="-21.7897" y1="54.8241" x2="-79.9795" y2="28.1959" gradientUnits="userSpaceOnUse">
<stop stop-color="#DBDBEB" stop-opacity="0.07"/>
<stop offset="0.394031" stop-color="#DBDBEB" stop-opacity="0.06"/>
<stop offset="1" stop-color="#DBDBEB" stop-opacity="0.1"/>
</linearGradient>
<linearGradient id="paint30_linear_108_185" x1="-21.7897" y1="54.8241" x2="-79.9795" y2="28.1959" gradientUnits="userSpaceOnUse">
<stop stop-color="#DBDBEB" stop-opacity="0.07"/>
<stop offset="0.394031" stop-color="#DBDBEB" stop-opacity="0.06"/>
<stop offset="1" stop-color="#DBDBEB" stop-opacity="0.1"/>
</linearGradient>
<linearGradient id="paint31_linear_108_185" x1="-79.6518" y1="-36.9589" x2="20.1347" y2="8.16546" gradientUnits="userSpaceOnUse">
<stop stop-color="white" stop-opacity="0.2"/>
<stop offset="1" stop-color="white" stop-opacity="0.13"/>
</linearGradient>
<linearGradient id="paint32_linear_108_185" x1="-79.6518" y1="-36.9589" x2="20.1347" y2="8.16546" gradientUnits="userSpaceOnUse">
<stop stop-color="white" stop-opacity="0.2"/>
<stop offset="1" stop-color="white" stop-opacity="0.13"/>
</linearGradient>
<linearGradient id="paint33_linear_108_185" x1="-79.6518" y1="-36.9589" x2="20.1347" y2="8.16546" gradientUnits="userSpaceOnUse">
<stop stop-color="white" stop-opacity="0.2"/>
<stop offset="1" stop-color="white" stop-opacity="0.13"/>
</linearGradient>
<linearGradient id="paint34_linear_108_185" x1="-79.6518" y1="-36.9589" x2="20.1347" y2="8.16546" gradientUnits="userSpaceOnUse">
<stop stop-color="white" stop-opacity="0.2"/>
<stop offset="1" stop-color="white" stop-opacity="0.13"/>
</linearGradient>
<linearGradient id="paint35_linear_108_185" x1="-79.6518" y1="-36.9589" x2="20.1347" y2="8.16546" gradientUnits="userSpaceOnUse">
<stop stop-color="white" stop-opacity="0.2"/>
<stop offset="1" stop-color="white" stop-opacity="0.13"/>
</linearGradient>
<linearGradient id="paint36_linear_108_185" x1="-79.6518" y1="-36.9589" x2="20.1347" y2="8.16546" gradientUnits="userSpaceOnUse">
<stop stop-color="white" stop-opacity="0.2"/>
<stop offset="1" stop-color="white" stop-opacity="0.13"/>
</linearGradient>
<linearGradient id="paint37_linear_108_185" x1="-79.6518" y1="-36.9589" x2="20.1347" y2="8.16546" gradientUnits="userSpaceOnUse">
<stop stop-color="white" stop-opacity="0.2"/>
<stop offset="1" stop-color="white" stop-opacity="0.13"/>
</linearGradient>
<linearGradient id="paint38_linear_108_185" x1="-79.6518" y1="-36.9589" x2="20.1347" y2="8.16546" gradientUnits="userSpaceOnUse">
<stop stop-color="white" stop-opacity="0.2"/>
<stop offset="1" stop-color="white" stop-opacity="0.13"/>
</linearGradient>
<linearGradient id="paint39_linear_108_185" x1="-79.6518" y1="-36.9589" x2="20.1347" y2="8.16546" gradientUnits="userSpaceOnUse">
<stop stop-color="white" stop-opacity="0.2"/>
<stop offset="1" stop-color="white" stop-opacity="0.13"/>
</linearGradient>
<linearGradient id="paint40_linear_108_185" x1="-79.6518" y1="-36.9589" x2="20.1347" y2="8.16546" gradientUnits="userSpaceOnUse">
<stop stop-color="white" stop-opacity="0.2"/>
<stop offset="1" stop-color="white" stop-opacity="0.13"/>
</linearGradient>
<linearGradient id="paint41_linear_108_185" x1="-79.6518" y1="-36.9589" x2="20.1347" y2="8.16546" gradientUnits="userSpaceOnUse">
<stop stop-color="white" stop-opacity="0.2"/>
<stop offset="1" stop-color="white" stop-opacity="0.13"/>
</linearGradient>
<linearGradient id="paint42_linear_108_185" x1="-79.6518" y1="-36.9589" x2="20.1347" y2="8.16546" gradientUnits="userSpaceOnUse">
<stop stop-color="white" stop-opacity="0.2"/>
<stop offset="1" stop-color="white" stop-opacity="0.13"/>
</linearGradient>
<linearGradient id="paint43_linear_108_185" x1="-79.6518" y1="-36.9589" x2="20.1347" y2="8.16546" gradientUnits="userSpaceOnUse">
<stop stop-color="white" stop-opacity="0.2"/>
<stop offset="1" stop-color="white" stop-opacity="0.13"/>
</linearGradient>
<linearGradient id="paint44_linear_108_185" x1="-79.6518" y1="-36.9589" x2="20.1347" y2="8.16546" gradientUnits="userSpaceOnUse">
<stop stop-color="white" stop-opacity="0.2"/>
<stop offset="1" stop-color="white" stop-opacity="0.13"/>
</linearGradient>
<linearGradient id="paint45_linear_108_185" x1="-79.6518" y1="-36.9589" x2="20.1347" y2="8.16546" gradientUnits="userSpaceOnUse">
<stop stop-color="white" stop-opacity="0.2"/>
<stop offset="1" stop-color="white" stop-opacity="0.13"/>
</linearGradient>
<linearGradient id="paint46_linear_108_185" x1="-79.6518" y1="-36.9589" x2="20.1347" y2="8.16546" gradientUnits="userSpaceOnUse">
<stop stop-color="white" stop-opacity="0.2"/>
<stop offset="1" stop-color="white" stop-opacity="0.13"/>
</linearGradient>
<linearGradient id="paint47_linear_108_185" x1="-79.6518" y1="-36.9589" x2="20.1347" y2="8.16546" gradientUnits="userSpaceOnUse">
<stop stop-color="white" stop-opacity="0.2"/>
<stop offset="1" stop-color="white" stop-opacity="0.13"/>
</linearGradient>
<linearGradient id="paint48_linear_108_185" x1="-79.6518" y1="-36.9589" x2="20.1347" y2="8.16546" gradientUnits="userSpaceOnUse">
<stop stop-color="white" stop-opacity="0.2"/>
<stop offset="1" stop-color="white" stop-opacity="0.13"/>
</linearGradient>
<linearGradient id="paint49_linear_108_185" x1="-79.6518" y1="-36.9589" x2="20.1347" y2="8.16546" gradientUnits="userSpaceOnUse">
<stop stop-color="white" stop-opacity="0.2"/>
<stop offset="1" stop-color="white" stop-opacity="0.13"/>
</linearGradient>
<linearGradient id="paint50_linear_108_185" x1="-79.6518" y1="-36.9589" x2="20.1347" y2="8.16546" gradientUnits="userSpaceOnUse">
<stop stop-color="white" stop-opacity="0.2"/>
<stop offset="1" stop-color="white" stop-opacity="0.13"/>
</linearGradient>
<linearGradient id="paint51_linear_108_185" x1="-79.6518" y1="-36.9589" x2="20.1347" y2="8.16546" gradientUnits="userSpaceOnUse">
<stop stop-color="white" stop-opacity="0.2"/>
<stop offset="1" stop-color="white" stop-opacity="0.13"/>
</linearGradient>
<linearGradient id="paint52_linear_108_185" x1="-79.6518" y1="-36.9589" x2="20.1347" y2="8.16546" gradientUnits="userSpaceOnUse">
<stop stop-color="white" stop-opacity="0.2"/>
<stop offset="1" stop-color="white" stop-opacity="0.13"/>
</linearGradient>
<linearGradient id="paint53_linear_108_185" x1="-79.6518" y1="-36.9589" x2="20.1347" y2="8.16546" gradientUnits="userSpaceOnUse">
<stop stop-color="white" stop-opacity="0.2"/>
<stop offset="1" stop-color="white" stop-opacity="0.13"/>
</linearGradient>
<linearGradient id="paint54_linear_108_185" x1="-79.6518" y1="-36.9589" x2="20.1347" y2="8.16546" gradientUnits="userSpaceOnUse">
<stop stop-color="white" stop-opacity="0.2"/>
<stop offset="1" stop-color="white" stop-opacity="0.13"/>
</linearGradient>
<linearGradient id="paint55_linear_108_185" x1="-79.6518" y1="-36.9589" x2="20.1347" y2="8.16546" gradientUnits="userSpaceOnUse">
<stop stop-color="white" stop-opacity="0.2"/>
<stop offset="1" stop-color="white" stop-opacity="0.13"/>
</linearGradient>
<linearGradient id="paint56_linear_108_185" x1="-79.6518" y1="-36.9589" x2="20.1347" y2="8.16546" gradientUnits="userSpaceOnUse">
<stop stop-color="white" stop-opacity="0.2"/>
<stop offset="1" stop-color="white" stop-opacity="0.13"/>
</linearGradient>
<linearGradient id="paint57_linear_108_185" x1="-79.6518" y1="-36.9589" x2="20.1347" y2="8.16546" gradientUnits="userSpaceOnUse">
<stop stop-color="white" stop-opacity="0.2"/>
<stop offset="1" stop-color="white" stop-opacity="0.13"/>
</linearGradient>
<linearGradient id="paint58_linear_108_185" x1="-79.6518" y1="-36.9589" x2="20.1347" y2="8.16546" gradientUnits="userSpaceOnUse">
<stop stop-color="white" stop-opacity="0.2"/>
<stop offset="1" stop-color="white" stop-opacity="0.13"/>
</linearGradient>
<linearGradient id="paint59_linear_108_185" x1="-79.6518" y1="-36.9589" x2="20.1347" y2="8.16546" gradientUnits="userSpaceOnUse">
<stop stop-color="white" stop-opacity="0.2"/>
<stop offset="1" stop-color="white" stop-opacity="0.13"/>
</linearGradient>
<linearGradient id="paint60_linear_108_185" x1="-79.6518" y1="-36.9589" x2="20.1347" y2="8.16546" gradientUnits="userSpaceOnUse">
<stop stop-color="white" stop-opacity="0.2"/>
<stop offset="1" stop-color="white" stop-opacity="0.13"/>
</linearGradient>
<linearGradient id="paint61_linear_108_185" x1="298.944" y1="203.637" x2="244.89" y2="203.637" gradientUnits="userSpaceOnUse">
<stop stop-color="#9EFFDE"/>
<stop offset="1" stop-color="#A2F1FF"/>
</linearGradient>
<linearGradient id="paint62_linear_108_185" x1="-458.792" y1="193.435" x2="850.529" y2="193.435" gradientUnits="userSpaceOnUse">
<stop offset="0.131141" stop-color="#0FFFA9" stop-opacity="0"/>
<stop offset="0.329665" stop-color="white" stop-opacity="0.4"/>
<stop offset="0.433243" stop-color="#D6FFF0" stop-opacity="0.3"/>
<stop offset="0.52301" stop-color="#3BD49D" stop-opacity="0.02"/>
<stop offset="0.667385" stop-color="white" stop-opacity="0.4"/>
<stop offset="1" stop-color="#0CC784" stop-opacity="0"/>
</linearGradient>
<linearGradient id="paint63_linear_108_185" x1="-336.377" y1="268.361" x2="971.05" y2="268.361" gradientUnits="userSpaceOnUse">
<stop stop-color="#0FFFA9" stop-opacity="0"/>
<stop offset="0.0879327" stop-color="white" stop-opacity="0.4"/>
<stop offset="0.26112" stop-color="#D6FFF0" stop-opacity="0.4"/>
<stop offset="0.450171" stop-color="#3BD49D" stop-opacity="0.02"/>
<stop offset="0.667385" stop-color="white" stop-opacity="0.3"/>
<stop offset="1" stop-color="white" stop-opacity="0"/>
</linearGradient>
<linearGradient id="paint64_linear_108_185" x1="421.189" y1="88.0323" x2="272.027" y2="315.015" gradientUnits="userSpaceOnUse">
<stop stop-color="#2EFCB6" stop-opacity="0.5"/>
<stop offset="0.221573" stop-color="#2EFCB6" stop-opacity="0.041728"/>
<stop offset="1" stop-color="#2EFCB6" stop-opacity="0"/>
</linearGradient>
<linearGradient id="paint65_linear_108_185" x1="350.068" y1="143.279" x2="288.471" y2="271.553" gradientUnits="userSpaceOnUse">
<stop stop-color="white" stop-opacity="0.75"/>
<stop offset="1" stop-color="white" stop-opacity="0"/>
</linearGradient>
<linearGradient id="paint66_linear_108_185" x1="283.987" y1="180.698" x2="326.968" y2="231.403" gradientUnits="userSpaceOnUse">
<stop stop-color="#2EFCB6"/>
<stop offset="1" stop-color="#69EAE9"/>
</linearGradient>
<linearGradient id="paint67_linear_108_185" x1="374.832" y1="140.104" x2="273.864" y2="293.143" gradientUnits="userSpaceOnUse">
<stop stop-color="#2EFCB6" stop-opacity="0.5"/>
<stop offset="0.221573" stop-color="#2EFCB6" stop-opacity="0.041728"/>
<stop offset="1" stop-color="#2EFCB6" stop-opacity="0"/>
</linearGradient>
<clipPath id="clip0_108_185">
<rect width="605" height="408" fill="white"/>
</clipPath>
</defs>
</svg>
