<svg width="359" height="172" viewBox="0 0 359 172" fill="none" xmlns="http://www.w3.org/2000/svg">
<g clip-path="url(#clip0_65_332)">
<path d="M0.666626 83.1577H354.667" stroke="url(#paint0_linear_65_332)" stroke-width="2" stroke-linecap="round" stroke-linejoin="round"/>
<path d="M0.916626 111.5H67.9761L108.704 67.7773L191.267 114.534L257.957 44.5H354.547" stroke="url(#paint1_linear_65_332)" stroke-width="2" stroke-linecap="round" stroke-linejoin="round"/>
<path d="M157.072 43.7049L168.479 39.2806L200.66 122.25L189.254 126.674C166.223 135.607 140.308 124.275 131.426 101.374C122.546 78.4805 134.032 52.6332 157.069 43.6976L157.072 43.7049Z" fill="#1D1C1C" stroke="#8A92A3" stroke-width="16" stroke-linecap="round" stroke-linejoin="round"/>
<path d="M206.261 120.08C226.343 112.291 235.417 87.4018 226.53 64.4884C217.642 41.575 194.158 29.3142 174.077 37.1033C153.995 44.8923 144.921 69.7816 153.808 92.695C162.696 115.608 186.18 127.869 206.261 120.08Z" fill="#1D1C1C" stroke="white" stroke-width="16" stroke-linecap="round" stroke-linejoin="round"/>
<path fill-rule="evenodd" clip-rule="evenodd" d="M206.825 50.5033C208.824 50.4266 210.634 51.679 211.267 53.577L219.462 78.1643L222.605 64.0238C223.018 62.1644 224.557 60.7665 226.448 60.5337C228.338 60.301 230.17 61.2838 231.022 62.9876L234.779 70.5H246.997C249.483 70.5 251.497 72.5147 251.497 75C251.497 77.4853 249.483 79.5 246.997 79.5H231.997C230.729 79.5 229.542 78.967 228.704 78.0663L224.724 95.9762C224.285 97.9507 222.583 99.3898 220.563 99.4941C218.543 99.5983 216.701 98.3419 216.062 96.4231L207.615 71.0833L206.363 76.0914C205.862 78.0947 204.062 79.5 201.997 79.5H186.997C184.512 79.5 182.497 77.4853 182.497 75C182.497 72.5147 184.512 70.5 186.997 70.5H198.484L202.632 53.9086C203.117 51.9676 204.826 50.5801 206.825 50.5033Z" fill="#1D1C1C"/>
<g filter="url(#filter0_d_65_332)">
<path fill-rule="evenodd" clip-rule="evenodd" d="M204.825 42.5033C206.824 42.4266 208.634 43.679 209.267 45.577L217.462 70.1643L220.605 56.0238C221.018 54.1644 222.557 52.7665 224.448 52.5337C226.338 52.301 228.17 53.2838 229.022 54.9876L232.779 62.5H244.997C247.483 62.5 249.497 64.5147 249.497 67C249.497 69.4853 247.483 71.5 244.997 71.5H229.997C228.729 71.5 227.542 70.967 226.704 70.0663L222.724 87.9762C222.285 89.9507 220.583 91.3898 218.563 91.4941C216.543 91.5983 214.701 90.3419 214.062 88.4231L205.615 63.0833L204.363 68.0914C203.862 70.0947 202.062 71.5 199.997 71.5H184.997C182.512 71.5 180.497 69.4853 180.497 67C180.497 64.5147 182.512 62.5 184.997 62.5H196.484L200.632 45.9086C201.117 43.9676 202.826 42.5801 204.825 42.5033Z" fill="#15FFAB"/>
</g>
</g>
<defs>
<filter id="filter0_d_65_332" x="163.431" y="25.4333" width="103.133" height="83.1333" filterUnits="userSpaceOnUse" color-interpolation-filters="sRGB">
<feFlood flood-opacity="0" result="BackgroundImageFix"/>
<feColorMatrix in="SourceAlpha" type="matrix" values="0 0 0 0 0 0 0 0 0 0 0 0 0 0 0 0 0 0 127 0" result="hardAlpha"/>
<feOffset/>
<feGaussianBlur stdDeviation="8.53333"/>
<feComposite in2="hardAlpha" operator="out"/>
<feColorMatrix type="matrix" values="0 0 0 0 0.0823529 0 0 0 0 1 0 0 0 0 0.670588 0 0 0 0.5 0"/>
<feBlend mode="normal" in2="BackgroundImageFix" result="effect1_dropShadow_65_332"/>
<feBlend mode="normal" in="SourceGraphic" in2="effect1_dropShadow_65_332" result="shape"/>
</filter>
<linearGradient id="paint0_linear_65_332" x1="41.744" y1="84.6434" x2="455.359" y2="72.942" gradientUnits="userSpaceOnUse">
<stop stop-color="#0F1117" stop-opacity="0"/>
<stop offset="0.0643812" stop-color="#565E6F"/>
<stop offset="0.247826" stop-color="#0F1117" stop-opacity="0"/>
<stop offset="0.455" stop-color="#0F1117" stop-opacity="0"/>
<stop offset="0.665239" stop-color="#565E6F"/>
<stop offset="0.790009" stop-color="#0F1117" stop-opacity="0"/>
</linearGradient>
<linearGradient id="paint1_linear_65_332" x1="28.4398" y1="114.534" x2="455.466" y2="114.534" gradientUnits="userSpaceOnUse">
<stop stop-color="#0F1117" stop-opacity="0"/>
<stop offset="0.110541" stop-color="#8A92A3"/>
<stop offset="0.186843" stop-color="#0F1117" stop-opacity="0"/>
<stop offset="0.475" stop-color="#0F1117" stop-opacity="0"/>
<stop offset="0.63" stop-color="#8A92A3"/>
<stop offset="0.765564" stop-color="#0F1117" stop-opacity="0"/>
</linearGradient>
<clipPath id="clip0_65_332">
<rect width="358" height="172" fill="white" transform="translate(0.333374)"/>
</clipPath>
</defs>
</svg>
