<svg width="24" height="24" viewBox="0 0 24 24" fill="none" xmlns="http://www.w3.org/2000/svg">
<path d="M14.9786 3L15.1016 3.006C17.1156 3.22 18.6286 3.678 20.0676 4.679C20.2393 4.79882 20.3691 4.96951 20.4386 5.167C22.3146 10.482 22.8116 15.154 21.8896 17.447C20.8866 19.452 19.2836 21 17.4956 21C16.7636 21 15.8026 20.032 15.1676 18.955C15.8764 18.826 16.5783 18.6614 17.2706 18.462C17.397 18.4259 17.5149 18.3652 17.6178 18.2835C17.7207 18.2018 17.8065 18.1006 17.8703 17.9858C17.9341 17.8709 17.9747 17.7446 17.9896 17.6141C18.0046 17.4835 17.9937 17.3513 17.9576 17.225C17.9215 17.0987 17.8609 16.9807 17.7792 16.8778C17.6974 16.7749 17.5963 16.6891 17.4814 16.6253C17.3665 16.5615 17.2402 16.521 17.1097 16.506C16.9792 16.491 16.847 16.5019 16.7206 16.538C13.4006 17.488 10.5906 17.488 7.27062 16.538C7.01548 16.4651 6.74182 16.4965 6.50984 16.6253C6.27786 16.7541 6.10656 16.9699 6.03362 17.225C5.96069 17.4801 5.99209 17.7538 6.12093 17.9858C6.24977 18.2178 6.46548 18.3891 6.72062 18.462C7.43762 18.666 8.13662 18.832 8.82362 18.956C8.18862 20.031 7.22762 21 6.49562 21C4.70762 21 3.10462 19.452 2.06762 17.371C1.17962 15.154 1.67762 10.481 3.55262 5.167C3.62215 4.96951 3.75192 4.79882 3.92362 4.679C5.36262 3.678 6.87562 3.22 8.88962 3.006C9.07029 2.98673 9.25279 3.01704 9.41752 3.09368C9.58225 3.17032 9.72299 3.29039 9.82462 3.441L9.88762 3.548L10.5386 4.833L10.6756 4.817C11.5543 4.727 12.4399 4.727 13.3186 4.817L13.4526 4.833L14.1026 3.549C14.1754 3.40479 14.2819 3.28035 14.4132 3.18631C14.5445 3.09227 14.6967 3.03143 14.8566 3.009L14.9786 3ZM8.99562 10C8.51768 9.99998 8.05554 10.1711 7.69288 10.4824C7.33022 10.7937 7.09103 11.2246 7.01862 11.697L7.00062 11.851L6.99562 12L7.00062 12.15C7.02981 12.538 7.17157 12.9092 7.40852 13.2178C7.64548 13.5265 7.96734 13.7594 8.33467 13.8878C8.70199 14.0163 9.09881 14.0349 9.47651 13.9412C9.85421 13.8475 10.1964 13.6456 10.4611 13.3604C10.7258 13.0751 10.9015 12.7188 10.9667 12.3352C11.0319 11.9516 10.9838 11.5572 10.8282 11.2005C10.6727 10.8438 10.4165 10.5403 10.0909 10.327C9.76542 10.1138 9.38477 10.0001 8.99562 10ZM14.9956 10C14.5177 9.99998 14.0555 10.1711 13.6929 10.4824C13.3302 10.7937 13.091 11.2246 13.0186 11.697L13.0006 11.851L12.9956 12L13.0006 12.15C13.0298 12.538 13.1716 12.9092 13.4085 13.2178C13.6455 13.5265 13.9673 13.7594 14.3347 13.8878C14.702 14.0163 15.0988 14.0349 15.4765 13.9412C15.8542 13.8475 16.1964 13.6456 16.4611 13.3604C16.7258 13.0751 16.9015 12.7188 16.9667 12.3352C17.0319 11.9516 16.9838 11.5572 16.8282 11.2005C16.6727 10.8438 16.4165 10.5403 16.0909 10.327C15.7654 10.1138 15.3848 10.0001 14.9956 10Z" fill="white"/>
</svg>
