<svg width="24" height="25" viewBox="0 0 24 25" fill="none" xmlns="http://www.w3.org/2000/svg">
<path fill-rule="evenodd" clip-rule="evenodd" d="M23.75 12.0439C23.75 12.4582 23.4142 12.7939 23 12.7939L21.0234 12.7939C21.0156 12.7942 21.0078 12.7943 21 12.7943L14.0156 12.7943C14.0077 12.7943 13.9998 12.7942 13.992 12.7939L13.1078 12.7939L16.6964 21.7654C16.7888 21.9965 16.7606 22.2583 16.621 22.4644C16.4815 22.6705 16.2489 22.7939 16 22.7939L8 22.7939C7.75113 22.7939 7.51847 22.6705 7.37895 22.4644C7.23942 22.2583 7.21121 21.9965 7.30364 21.7654L10.8922 12.7939L6.00304 12.7939C6.00203 12.7939 6.00101 12.7939 6 12.7939C5.99898 12.7939 5.99797 12.7939 5.99696 12.7939L1 12.7939C0.585786 12.7939 0.25 12.4582 0.25 12.0439C0.25 11.6297 0.585786 11.2939 1 11.2939L2.53588 11.2939C1.73843 10.4443 1.25 9.30116 1.25 8.04394C1.25 5.42059 3.37665 3.29394 6 3.29394C8.62335 3.29394 10.75 5.42059 10.75 8.04394C10.75 9.30116 10.2616 10.4443 9.46412 11.2939L13.2656 11.2939L13.2656 4.65625C13.2656 4.24204 13.6014 3.90625 14.0156 3.90625L21 3.90625C21.1989 3.90625 21.3897 3.98527 21.5303 4.12592C21.671 4.26657 21.75 4.45734 21.75 4.65625L21.75 11.2939L23 11.2939C23.4142 11.2939 23.75 11.6297 23.75 12.0439ZM20.25 11.2939L20.25 5.40625L14.7656 5.40625L14.7656 11.2939L20.25 11.2939ZM6.00252 11.2939C7.79629 11.2926 9.25 9.83803 9.25 8.04394C9.25 6.24902 7.79493 4.79394 6 4.79394C4.20507 4.79394 2.75 6.24902 2.75 8.04394C2.75 9.83803 4.20371 11.2926 5.99748 11.2939L6.00252 11.2939ZM12 14.0634L9.10777 21.2939L14.8922 21.2939L12 14.0634Z" fill="#15FFAB"/>
</svg>
