<svg width="24" height="24" viewBox="0 0 24 24" fill="none" xmlns="http://www.w3.org/2000/svg">
<path fill-rule="evenodd" clip-rule="evenodd" d="M16.6499 3C16.6499 2.03579 17.4357 1.25 18.3999 1.25H19.9999C20.9641 1.25 21.7499 2.03579 21.7499 3V18C21.7499 18.9642 20.9641 19.75 19.9999 19.75H18.3999C17.4357 19.75 16.6499 18.9642 16.6499 18V3ZM18.3999 2.75C18.2641 2.75 18.1499 2.86421 18.1499 3V18C18.1499 18.1358 18.2641 18.25 18.3999 18.25H19.9999C20.1357 18.25 20.2499 18.1358 20.2499 18V3C20.2499 2.86421 20.1357 2.75 19.9999 2.75H18.3999ZM9.4502 6.19043C9.4502 5.22622 10.236 4.44043 11.2002 4.44043H12.8002C13.7644 4.44043 14.5502 5.22622 14.5502 6.19043V18.0004C14.5502 18.9646 13.7644 19.7504 12.8002 19.7504H11.2002C10.236 19.7504 9.4502 18.9646 9.4502 18.0004V6.19043ZM11.2002 5.94043C11.0644 5.94043 10.9502 6.05464 10.9502 6.19043V18.0004C10.9502 18.1362 11.0644 18.2504 11.2002 18.2504H12.8002C12.936 18.2504 13.0502 18.1362 13.0502 18.0004V6.19043C13.0502 6.05464 12.936 5.94043 12.8002 5.94043H11.2002ZM2.25 9.37988C2.25 8.41567 3.03579 7.62988 4 7.62988H5.59998C6.56419 7.62988 7.34998 8.41567 7.34998 9.37988V17.9999C7.34998 18.9641 6.56419 19.7499 5.59998 19.7499H4C3.03579 19.7499 2.25 18.9641 2.25 17.9999V9.37988ZM4 9.12988C3.86421 9.12988 3.75 9.2441 3.75 9.37988V17.9999C3.75 18.1357 3.86421 18.2499 4 18.2499H5.59998C5.73576 18.2499 5.84998 18.1357 5.84998 17.9999V9.37988C5.84998 9.2441 5.73576 9.12988 5.59998 9.12988H4ZM2.25 22C2.25 21.5858 2.58579 21.25 3 21.25H21C21.4142 21.25 21.75 21.5858 21.75 22C21.75 22.4142 21.4142 22.75 21 22.75H3C2.58579 22.75 2.25 22.4142 2.25 22Z" fill="#0FC2C2"/>
</svg>
