<svg width="24" height="25" viewBox="0 0 24 25" fill="none" xmlns="http://www.w3.org/2000/svg">
<path fill-rule="evenodd" clip-rule="evenodd" d="M12 2.79395C6.89421 2.79395 2.75 6.93816 2.75 12.0439C2.75 17.1497 6.89421 21.2939 12 21.2939C17.1058 21.2939 21.25 17.1497 21.25 12.0439C21.25 6.93816 17.1058 2.79395 12 2.79395ZM1.25 12.0439C1.25 6.10973 6.06579 1.29395 12 1.29395C17.9342 1.29395 22.75 6.10973 22.75 12.0439C22.75 17.9782 17.9342 22.7939 12 22.7939C6.06579 22.7939 1.25 17.9782 1.25 12.0439ZM11.6299 6.80371C12.0441 6.80371 12.3799 7.1395 12.3799 7.55371V11.6537C12.3799 11.8073 12.4385 12.0298 12.5689 12.2584C12.6993 12.4871 12.8609 12.6507 12.9922 12.7285L12.9942 12.7297L16.0942 14.5797C16.4499 14.7919 16.5662 15.2524 16.3539 15.6081C16.1417 15.9637 15.6812 16.08 15.3255 15.8677L12.2275 14.0189C12.2272 14.0187 12.2269 14.0185 12.2265 14.0183C11.8183 13.7761 11.4903 13.395 11.2659 13.0015C11.0412 12.6076 10.8799 12.1302 10.8799 11.6537V7.55371C10.8799 7.1395 11.2157 6.80371 11.6299 6.80371Z" fill="#15FFAB"/>
</svg>
