<svg width="24" height="25" viewBox="0 0 24 25" fill="none" xmlns="http://www.w3.org/2000/svg">
<path d="M14 12.0439C14 13.1485 13.1046 14.0439 12 14.0439C10.8954 14.0439 10 13.1485 10 12.0439C10 10.9394 10.8954 10.0439 12 10.0439C13.1046 10.0439 14 10.9394 14 12.0439Z" fill="#15FFAB"/>
<path fill-rule="evenodd" clip-rule="evenodd" d="M7.57821 2.95588C4.8091 3.59831 2.75 6.07736 2.75 9.04395C2.75 9.45816 2.41421 9.79395 2 9.79395C1.58579 9.79395 1.25 9.45816 1.25 9.04395C1.25 4.75973 4.71579 1.29395 9 1.29395C9.2702 1.29395 9.51952 1.43929 9.65265 1.67442C9.78578 1.90955 9.78214 2.19812 9.64312 2.42981L8.59313 4.17981C8.38002 4.535 7.91933 4.65018 7.56414 4.43707C7.20896 4.22396 7.09378 3.76326 7.30689 3.40808L7.57821 2.95588ZM11.9844 6.79395C9.08488 6.79395 6.73438 9.14445 6.73438 12.0439C6.73438 14.9434 9.08488 17.2939 11.9844 17.2939C14.8839 17.2939 17.2344 14.9434 17.2344 12.0439C17.2344 9.14445 14.8839 6.79395 11.9844 6.79395ZM5.23438 12.0439C5.23438 8.31602 8.25645 5.29395 11.9844 5.29395C15.7123 5.29395 18.7344 8.31602 18.7344 12.0439C18.7344 15.7719 15.7123 18.7939 11.9844 18.7939C8.25645 18.7939 5.23438 15.7719 5.23438 12.0439ZM22 14.2939C22.4142 14.2939 22.75 14.6297 22.75 15.0439C22.75 19.3282 19.2842 22.7939 15 22.7939C14.7298 22.7939 14.4805 22.6486 14.3474 22.4135C14.2142 22.1783 14.2179 21.8898 14.3569 21.6581L15.4069 19.9081C15.62 19.5529 16.0807 19.4377 16.4359 19.6508C16.791 19.8639 16.9062 20.3246 16.6931 20.6798L16.4218 21.132C19.1909 20.4896 21.25 18.0105 21.25 15.0439C21.25 14.6297 21.5858 14.2939 22 14.2939Z" fill="#15FFAB"/>
</svg>
