<svg width="22" height="22" viewBox="0 0 22 22" fill="none" xmlns="http://www.w3.org/2000/svg">
<path fill-rule="evenodd" clip-rule="evenodd" d="M0.75 0.0439453C1.16421 0.0439453 1.5 0.379732 1.5 0.793945V17.7939C1.5 19.0397 2.50421 20.0439 3.75 20.0439H20.75C21.1642 20.0439 21.5 20.3797 21.5 20.7939C21.5 21.2082 21.1642 21.5439 20.75 21.5439H3.75C1.67579 21.5439 0 19.8682 0 17.7939V0.793945C0 0.379732 0.335786 0.0439453 0.75 0.0439453ZM20.2379 5.22435C20.5525 5.49382 20.5891 5.96729 20.3196 6.28186L15.7196 11.6519L15.7176 11.6542C14.6736 12.863 12.8187 12.9333 11.6897 11.8043L10.7365 10.8511C10.2307 10.3392 9.38867 10.3684 8.90852 10.9231C8.90822 10.9235 8.90792 10.9238 8.90762 10.9242L4.31967 16.2818C4.05024 16.5964 3.57679 16.633 3.26217 16.3636C2.94755 16.0942 2.91091 15.6207 3.18033 15.3061L7.77033 9.94613L7.77238 9.94374C8.81184 8.74016 10.6676 8.64915 11.8018 9.79505C11.8024 9.79564 11.8029 9.79624 11.8035 9.79684L12.7503 10.7436C13.261 11.2543 14.1055 11.2249 14.5816 10.6746C14.5819 10.6743 14.5821 10.674 14.5824 10.6737L19.1804 5.30603C19.4499 4.99145 19.9233 4.95488 20.2379 5.22435Z" fill="#15FFAB"/>
</svg>
