<svg width="24" height="25" viewBox="0 0 24 25" fill="none" xmlns="http://www.w3.org/2000/svg">
<path fill-rule="evenodd" clip-rule="evenodd" d="M12.0027 1.2915C12.6109 1.2915 13.2561 1.37572 13.7871 1.5694L13.7934 1.57167L18.7828 3.44151C18.7829 3.44152 18.7828 3.44149 18.7828 3.44151C19.5298 3.72084 20.1665 4.2816 20.6132 4.92732C21.06 5.57316 21.3602 6.36667 21.3602 7.164V14.594C21.3602 15.3329 21.1213 16.1318 20.7714 16.8273C20.4214 17.523 19.9221 18.1916 19.3291 18.6348L15.0308 21.8435C15.0304 21.8438 15.03 21.8441 15.0296 21.8445C14.1719 22.4887 13.0734 22.789 12.0102 22.789C10.9469 22.789 9.84846 22.4887 8.99076 21.8445C8.99033 21.8441 8.9899 21.8438 8.98948 21.8435L4.6915 18.635C4.09851 18.1918 3.59887 17.523 3.24889 16.8273C2.89905 16.1318 2.66016 15.3329 2.66016 14.594V7.164C2.66016 6.37056 2.9611 5.57932 3.40757 4.93541C3.85394 4.29162 4.49005 3.73125 5.23654 3.45186C5.23685 3.45174 5.23717 3.45162 5.23748 3.45151L10.2257 1.57216L10.2277 1.57141C10.7524 1.37547 11.3953 1.2915 12.0027 1.2915ZM10.7535 2.97624C10.7532 2.97636 10.7529 2.97648 10.7526 2.9766L5.76283 4.8565C5.35973 5.00723 4.95118 5.34166 4.64025 5.7901C4.32921 6.23869 4.16016 6.73745 4.16016 7.164V14.594C4.16016 15.0351 4.31126 15.6012 4.58892 16.1532C4.86636 16.7048 5.23191 17.1661 5.58881 17.433M5.58881 17.433L9.89084 20.6445C10.4429 21.0596 11.209 21.289 12.0102 21.289C12.8113 21.289 13.5774 21.0596 14.1295 20.6445L14.1315 20.643L18.4312 17.4332C18.7882 17.1664 19.1539 16.705 19.4314 16.1532C19.7091 15.6012 19.8602 15.0351 19.8602 14.594V7.164C19.8602 6.73133 19.6903 6.22985 19.3796 5.78069C19.0688 5.33145 18.6605 4.99718 18.2575 4.8465L13.2703 2.97756C12.9515 2.86186 12.4929 2.7915 12.0027 2.7915C11.5105 2.7915 11.0589 2.86239 10.7535 2.97624M12.04 6.49414C12.4543 6.49414 12.79 6.82993 12.79 7.24414V7.56592H12.9379C14.3701 7.56592 15.4639 8.7685 15.4639 10.1799C15.4639 10.5941 15.1281 10.9299 14.7139 10.9299C14.2997 10.9299 13.9639 10.5941 13.9639 10.1799C13.9639 9.52734 13.4738 9.06592 12.9379 9.06592H12.79V11.5084L13.9085 11.897C14.2786 12.0282 14.6997 12.2313 15.0132 12.6312C15.3336 13.04 15.4639 13.5526 15.4639 14.1479C15.4639 15.4258 14.4637 16.5219 13.1619 16.5219H12.79V16.8441C12.79 17.2584 12.4543 17.5941 12.04 17.5941C11.6258 17.5941 11.29 17.2584 11.29 16.8441V16.5219H11.1539C9.72176 16.5219 8.62793 15.3193 8.62793 13.9079C8.62793 13.4937 8.96372 13.1579 9.37793 13.1579C9.79214 13.1579 10.1279 13.4937 10.1279 13.9079C10.1279 14.5605 10.6181 15.0219 11.1539 15.0219H11.29V12.5753L10.1878 12.1924L10.1834 12.1908C9.81324 12.0596 9.39217 11.8565 9.07867 11.4566C8.75821 11.0478 8.62793 10.5352 8.62793 9.93992C8.62793 8.66203 9.62811 7.56592 10.9299 7.56592H11.29V7.24414C11.29 6.82993 11.6258 6.49414 12.04 6.49414ZM11.29 9.06592H10.9299C10.5197 9.06592 10.1279 9.4258 10.1279 9.93992C10.1279 10.3206 10.2096 10.468 10.2592 10.5312C10.3155 10.6031 10.4221 10.6838 10.6824 10.7763C10.6831 10.7765 10.6838 10.7768 10.6845 10.777L11.29 10.9874V9.06592ZM12.79 13.0964V15.0219H13.1619C13.5721 15.0219 13.9639 14.662 13.9639 14.1479C13.9639 13.7672 13.8822 13.6198 13.8327 13.5566C13.7763 13.4847 13.6698 13.4041 13.4094 13.3116C13.4087 13.3113 13.4081 13.3111 13.4074 13.3108L12.79 13.0964Z" fill="#15FFAB"/>
</svg>
