<svg width="60" height="60" viewBox="0 0 60 60" fill="none" xmlns="http://www.w3.org/2000/svg">
<g clip-path="url(#clip0_2_7879)">
<mask id="mask0_2_7879" style="mask-type:luminance" maskUnits="userSpaceOnUse" x="0" y="0" width="60" height="60">
<path d="M59.72 0H0V59.72H59.72V0Z" fill="white"/>
</mask>
<g mask="url(#mask0_2_7879)">
<path d="M29.86 59.72C46.3513 59.72 59.72 46.3513 59.72 29.86C59.72 13.3688 46.3513 0 29.86 0C13.3688 0 0 13.3688 0 29.86C0 46.3513 13.3688 59.72 29.86 59.72Z" fill="#2470FF"/>
<path opacity="0.8" d="M17.4048 35.2944V44.1877C17.4048 44.7353 17.8681 44.9624 18.0123 45.014C18.1564 45.0761 18.6403 45.2103 19.0728 44.8076L25.8006 38.3421C26.3735 37.7915 26.9265 37.2128 27.3421 36.5357C27.5376 36.2174 27.6186 36.0381 27.6186 36.0381C28.0307 35.2014 28.0307 34.3958 27.629 33.59C27.032 32.3918 25.5079 31.1729 23.2119 30.0161L19.289 32.2058C18.1255 32.8669 17.4048 34.0343 17.4048 35.2944Z" fill="white"/>
<path d="M13.5366 15.514V24.8413C13.5366 26.0084 14.3192 27.0414 15.4312 27.3719C19.2202 28.4667 25.82 30.8219 27.4161 34.2821C27.6218 34.7365 27.7454 35.1808 27.7868 35.6455C28.8474 33.7139 29.3312 31.4931 29.1048 29.2415C28.7957 26.0497 27.107 23.1473 24.4714 21.2983L15.0708 14.7186C14.906 14.5947 14.7104 14.5327 14.5148 14.5327C14.35 14.5327 14.2059 14.5637 14.0514 14.6463C13.7425 14.8219 13.5366 15.1421 13.5366 15.514Z" fill="white"/>
<path opacity="0.8" d="M42.4284 35.2944V44.1877C42.4284 44.7353 41.9652 44.9624 41.8209 45.014C41.677 45.0761 41.1926 45.2103 40.7605 44.8076L33.8759 38.1918C33.4073 37.7413 32.9598 37.2649 32.6069 36.7191C32.3272 36.2869 32.2145 36.0381 32.2145 36.0381C31.8027 35.2014 31.8027 34.3958 32.204 33.59C32.8014 32.3918 34.3252 31.1729 36.6211 30.0161L40.5441 32.2058C41.718 32.8669 42.4284 34.0343 42.4284 35.2944Z" fill="white"/>
<path d="M46.303 15.513V24.8402C46.303 26.0075 45.5203 27.0403 44.4083 27.3709C40.6193 28.4658 34.0196 30.821 32.4235 34.2811C32.2175 34.7356 32.0939 35.1797 32.0529 35.6446C30.9922 33.713 30.5085 31.4922 30.7348 29.2406C31.0436 26.0487 32.7323 23.1463 35.3683 21.2974L44.7688 14.7177C44.9337 14.5937 45.1292 14.5317 45.3248 14.5317C45.4895 14.5317 45.6338 14.5627 45.7879 14.6454C46.097 14.821 46.303 15.1412 46.303 15.513Z" fill="white"/>
</g>
</g>
<defs>
<clipPath id="clip0_2_7879">
<rect width="59.72" height="59.72" fill="white"/>
</clipPath>
</defs>
</svg>
