<svg width="41" height="41" viewBox="0 0 41 41" fill="none" xmlns="http://www.w3.org/2000/svg">
<path fill-rule="evenodd" clip-rule="evenodd" d="M16.4888 4.39771C17.5853 4.20352 18.8316 4.09219 20.1368 4.08622C21.4419 4.07995 22.8024 4.17932 24.1141 4.39742C26.1858 4.74279 27.9311 6.29712 27.9311 8.36594V15.6358C27.9311 17.7676 26.2367 19.5152 24.1141 19.5152H16.4888C13.8998 19.5152 11.7197 21.7378 11.7197 24.2576V27.7455H9.0948C6.87621 27.7455 5.58014 26.1351 5.03745 23.875C4.30542 20.8386 4.33645 19.0241 5.03745 16.1162C5.64505 13.5793 7.58802 12.2456 9.80661 12.2456H20.3059V11.2758H12.6718V8.36622C12.6718 6.16301 13.2583 4.96858 16.4888 4.39771ZM17.4407 7.88532C17.4407 7.08068 16.7969 6.4261 16.0082 6.4261C15.217 6.4261 14.5758 7.08068 14.5758 7.88532C14.5758 8.68739 15.217 9.33571 16.0082 9.33571C16.7966 9.33571 17.4407 8.68711 17.4407 7.88532Z" fill="white"/>
<path fill-rule="evenodd" clip-rule="evenodd" d="M28.8829 15.6353V12.2454H31.7479C33.9693 12.2454 35.0165 13.9073 35.5649 16.1159C36.3283 19.1836 36.3621 21.4836 35.5649 23.8747C34.7933 26.1975 33.9667 27.7453 31.7479 27.7453H20.3056V28.7151H27.9308V31.6244C27.9308 33.8273 26.0357 34.9474 24.1138 35.5038C21.2224 36.3429 18.905 36.2145 16.4885 35.5038C14.4704 34.9104 12.6715 33.6935 12.6715 31.6244V24.355C12.6715 22.2632 14.3998 20.4756 16.4885 20.4756H24.1138C26.6547 20.4756 28.8829 18.2636 28.8829 15.6353ZM26.0266 32.105C26.0266 31.3029 25.3854 30.6546 24.5941 30.6546C23.8057 30.6546 23.1617 31.3032 23.1617 32.105C23.1617 32.9096 23.8054 33.5642 24.5941 33.5642C25.3854 33.5642 26.0266 32.9096 26.0266 32.105Z" fill="white"/>
</svg>
