<svg width="41" height="41" viewBox="0 0 41 41" fill="none" xmlns="http://www.w3.org/2000/svg">
<path d="M36.2814 19.9702L34.938 19.1385C34.9267 19.008 34.9139 18.8776 34.8997 18.7473L36.0543 17.6704C36.112 17.6168 36.155 17.5492 36.1792 17.4742C36.2034 17.3992 36.2079 17.3193 36.1924 17.242C36.1772 17.1647 36.1425 17.0926 36.0915 17.0326C36.0405 16.9725 35.975 16.9265 35.9011 16.899L34.4252 16.3472C34.3882 16.2197 34.3496 16.0927 34.3096 15.9662L35.2302 14.6875C35.2764 14.6236 35.3054 14.549 35.3145 14.4707C35.3237 14.3924 35.3126 14.3131 35.2825 14.2403C35.2523 14.1674 35.2041 14.1035 35.1423 14.0546C35.0805 14.0057 35.0072 13.9734 34.9294 13.9608L33.3731 13.7077C33.3126 13.5897 33.2496 13.4734 33.1861 13.3582L33.84 11.9228C33.8729 11.8512 33.8869 11.7723 33.8806 11.6937C33.8743 11.6151 33.8479 11.5395 33.804 11.474C33.7604 11.4084 33.7007 11.355 33.6306 11.3191C33.5604 11.2831 33.4823 11.2658 33.4035 11.2688L31.824 11.3238C31.7424 11.2216 31.6592 11.1207 31.5745 11.0212L31.9375 9.48267C31.9557 9.40594 31.9539 9.32583 31.9323 9.24999C31.9107 9.17415 31.8701 9.1051 31.8143 9.04942C31.7586 8.99367 31.6896 8.95309 31.6138 8.93152C31.538 8.90995 31.4579 8.9081 31.3813 8.92617L29.8431 9.28879C29.7433 9.20413 29.6422 9.12096 29.5399 9.03929L29.5951 7.45992C29.5981 7.38118 29.5808 7.303 29.5449 7.23286C29.509 7.16271 29.4557 7.10295 29.3901 7.05929C29.3246 7.01545 29.249 6.9891 29.1705 6.98275C29.0919 6.97641 29.0131 6.99028 28.9414 7.02304L27.5064 7.67729C27.3906 7.61341 27.2741 7.5509 27.1569 7.48979L26.9031 5.93329C26.8904 5.85557 26.8581 5.78238 26.8092 5.72065C26.7603 5.65893 26.6964 5.61071 26.6236 5.58058C26.5509 5.55045 26.4716 5.53939 26.3934 5.54846C26.3152 5.55754 26.2406 5.58643 26.1766 5.63242L24.8971 6.55304C24.7712 6.51304 24.6446 6.47442 24.5169 6.43779L23.965 4.96167C23.9375 4.88772 23.8916 4.82204 23.8315 4.77092C23.7714 4.7198 23.6993 4.68494 23.6219 4.66967C23.5447 4.65447 23.4649 4.65919 23.39 4.68338C23.3151 4.70757 23.2476 4.75043 23.1939 4.80792L22.117 5.96329C21.9868 5.9487 21.8563 5.93595 21.7257 5.92504L20.8941 4.58129C20.8527 4.51433 20.7948 4.45907 20.726 4.42075C20.6572 4.38242 20.5798 4.3623 20.5011 4.3623C20.4223 4.3623 20.3449 4.38242 20.2761 4.42075C20.2073 4.45907 20.1494 4.51433 20.108 4.58129L19.2764 5.92504C19.1457 5.93593 19.0151 5.94868 18.8848 5.96329L17.8076 4.80792C17.7539 4.75021 17.6864 4.70721 17.6114 4.68299C17.5364 4.65877 17.4564 4.65415 17.3791 4.66956C17.3019 4.68497 17.2298 4.7199 17.1698 4.77103C17.1098 4.82216 17.0639 4.88779 17.0365 4.96167L16.4847 6.43779C16.3569 6.47442 16.2304 6.51329 16.1041 6.55304L14.8249 5.63242C14.761 5.58622 14.6863 5.55719 14.608 5.54811C14.5296 5.53903 14.4503 5.55019 14.3775 5.58054C14.3048 5.61074 14.241 5.65898 14.1921 5.72071C14.1432 5.78243 14.1109 5.85559 14.0981 5.93329L13.8444 7.48979C13.7269 7.55067 13.6108 7.61329 13.4949 7.67729L12.0598 7.02292C11.9881 6.99013 11.9093 6.97626 11.8308 6.98263C11.7522 6.989 11.6767 7.01539 11.6112 7.05929C11.5456 7.10292 11.4923 7.16267 11.4563 7.23282C11.4204 7.30296 11.4031 7.38116 11.406 7.45992L11.461 9.03929C11.3588 9.12111 11.2577 9.20428 11.1578 9.28879L9.61963 8.92629C9.5429 8.90831 9.46285 8.91018 9.38705 8.93173C9.31124 8.95327 9.24218 8.99377 9.18638 9.04942C9.13055 9.1051 9.08991 9.17415 9.06834 9.24999C9.04676 9.32583 9.04497 9.40594 9.06313 9.48267L9.4255 11.0212C9.34137 11.1208 9.25825 11.2217 9.17662 11.3238L7.59713 11.2688C7.51847 11.2663 7.44046 11.2838 7.37042 11.3197C7.30037 11.3556 7.24058 11.4086 7.19663 11.4739C7.15279 11.5394 7.12644 11.615 7.12008 11.6936C7.11371 11.7721 7.12754 11.851 7.16025 11.9227L7.8145 13.3582C7.75088 13.4734 7.688 13.5897 7.627 13.7077L6.07088 13.9608C5.99311 13.9735 5.91988 14.0058 5.85812 14.0547C5.79636 14.1037 5.74812 14.1676 5.71798 14.2403C5.68784 14.3131 5.6768 14.3924 5.68591 14.4707C5.69501 14.549 5.72396 14.6236 5.77 14.6875L6.69063 15.9663C6.65063 16.0925 6.61175 16.2193 6.575 16.3472L5.099 16.899C5.02529 16.9267 4.95986 16.9728 4.90891 17.0328C4.85796 17.0928 4.82318 17.1649 4.80784 17.2421C4.79251 17.3194 4.79714 17.3992 4.8213 17.4742C4.84545 17.5491 4.88833 17.6167 4.94588 17.6704L6.1005 18.7472C6.08613 18.8772 6.07338 19.008 6.06238 19.1385L4.71875 19.9702C4.6518 20.0116 4.59656 20.0695 4.55828 20.1383C4.51999 20.2071 4.49993 20.2846 4.5 20.3633C4.5 20.5238 4.58288 20.6724 4.71888 20.7562L6.06238 21.5878C6.07338 21.7187 6.08613 21.8493 6.1005 21.9792L4.94575 23.0563C4.8881 23.11 4.84513 23.1775 4.82092 23.2525C4.79671 23.3274 4.79206 23.4073 4.80741 23.4846C4.82277 23.5618 4.85762 23.6339 4.90865 23.6939C4.95968 23.7539 5.02521 23.7999 5.099 23.8274L6.575 24.3793C6.61175 24.507 6.65063 24.6339 6.69063 24.7602L5.77 26.039C5.72387 26.103 5.69486 26.1776 5.68574 26.2559C5.67661 26.3342 5.68767 26.4136 5.71786 26.4864C5.74806 26.5592 5.79638 26.6231 5.85824 26.6719C5.92009 26.7208 5.99342 26.753 6.07125 26.7655L7.62713 27.0187C7.688 27.1367 7.75038 27.2529 7.81463 27.3687L7.16025 28.8037C7.12748 28.8753 7.11362 28.9542 7.11999 29.0328C7.12635 29.1113 7.15274 29.187 7.19663 29.2524C7.24026 29.318 7.29999 29.3713 7.37012 29.4072C7.44024 29.4431 7.5184 29.4605 7.59713 29.4575L9.17588 29.4023C9.25825 29.5049 9.34113 29.6055 9.4255 29.7055L9.06313 31.2443C9.04498 31.3209 9.04678 31.4009 9.06836 31.4766C9.08994 31.5523 9.13057 31.6212 9.18638 31.6767C9.24202 31.7325 9.31109 31.7732 9.38695 31.7947C9.46281 31.8162 9.54293 31.8179 9.61963 31.7995L11.1578 31.4373C11.2578 31.5223 11.359 31.6048 11.4611 31.686L11.4061 33.2659C11.4033 33.3446 11.4206 33.4228 11.4565 33.4929C11.4924 33.563 11.5456 33.6228 11.6111 33.6666C11.6766 33.7103 11.7523 33.7366 11.8308 33.7428C11.9093 33.7491 11.9881 33.7352 12.0598 33.7024L13.4949 33.0485C13.6104 33.1127 13.7269 33.1752 13.8444 33.2359L14.0981 34.7915C14.1107 34.8694 14.1429 34.9427 14.1918 35.0045C14.2407 35.0663 14.3047 35.1146 14.3775 35.1447C14.4503 35.1748 14.5296 35.1859 14.6079 35.1769C14.6862 35.1678 14.7609 35.139 14.8249 35.093L16.1035 34.1718C16.2298 34.2118 16.3566 34.2509 16.4844 34.2877L17.0363 35.7632C17.0637 35.837 17.1097 35.9026 17.1697 35.9536C17.2298 36.0046 17.3019 36.0394 17.3792 36.0545C17.4565 36.0701 17.5364 36.0656 17.6114 36.0414C17.6864 36.0172 17.7538 35.9741 17.8074 35.9163L18.8845 34.7615C19.0145 34.7765 19.1453 34.789 19.2761 34.8007L20.1077 36.1442C20.1492 36.211 20.2071 36.2662 20.2758 36.3045C20.3446 36.3427 20.4219 36.3629 20.5006 36.3629C20.5793 36.3629 20.6568 36.3428 20.7256 36.3045C20.7943 36.2662 20.8522 36.2111 20.8937 36.1442L21.7254 34.8007C21.8562 34.789 21.9869 34.7765 22.1168 34.7615L23.1936 35.9163C23.2472 35.974 23.3146 36.0171 23.3896 36.0413C23.4645 36.0655 23.5444 36.0701 23.6216 36.0545C23.6989 36.0393 23.771 36.0045 23.8311 35.9535C23.8911 35.9025 23.9371 35.837 23.9646 35.7632L24.5165 34.2877C24.6443 34.2509 24.7712 34.2118 24.8975 34.1718L26.1764 35.093C26.2404 35.139 26.315 35.1679 26.3933 35.177C26.4716 35.186 26.5508 35.1749 26.6236 35.1447C26.6964 35.1145 26.7602 35.0662 26.8091 35.0044C26.858 34.9426 26.8903 34.8693 26.9029 34.7915L27.1566 33.2359C27.274 33.175 27.3901 33.1118 27.506 33.0484L28.9411 33.7024C29.0128 33.7353 29.0916 33.7493 29.1702 33.7431C29.2487 33.7368 29.3244 33.7106 29.39 33.6668C29.4555 33.6231 29.5088 33.5632 29.5446 33.4931C29.5805 33.4229 29.5978 33.3447 29.5949 33.2659L29.5399 31.6862C29.6421 31.6048 29.7431 31.5218 29.8428 31.4373L31.381 31.7995C31.5373 31.8363 31.701 31.7908 31.8139 31.6767C31.8697 31.6212 31.9103 31.5523 31.9319 31.4766C31.9535 31.4009 31.9553 31.3209 31.9371 31.2443L31.5749 29.7055C31.6593 29.6055 31.7424 29.5049 31.8236 29.4023L33.4031 29.4575C33.4818 29.4605 33.56 29.4432 33.6301 29.4073C33.7003 29.3714 33.76 29.3181 33.8036 29.2525C33.8476 29.1871 33.874 29.1114 33.8803 29.0328C33.8866 28.9541 33.8727 28.8752 33.8398 28.8035L33.1857 27.3688C33.2496 27.2529 33.3124 27.1367 33.3729 27.0188L34.9291 26.7655C35.0069 26.753 35.0802 26.7208 35.142 26.6719C35.2038 26.6229 35.2519 26.5589 35.2819 26.486C35.312 26.4133 35.3231 26.334 35.314 26.2558C35.305 26.1776 35.276 26.1029 35.23 26.039L34.3094 24.7603C34.3491 24.6339 34.388 24.507 34.425 24.3793L35.9007 23.8274C35.9746 23.7999 36.0402 23.754 36.0912 23.6939C36.1422 23.6338 36.177 23.5616 36.1921 23.4843C36.2077 23.4071 36.2031 23.3272 36.1789 23.2522C36.1547 23.1773 36.1117 23.1098 36.0539 23.0563L34.8995 21.9792C34.9135 21.8492 34.9264 21.7184 34.9376 21.5879L36.2811 20.7562C36.3481 20.7148 36.4034 20.657 36.4417 20.5882C36.48 20.5194 36.5001 20.442 36.5 20.3633C36.5 20.2032 36.4175 20.0543 36.2814 19.9702ZM27.2899 31.1147C26.7769 31.004 26.4506 30.4984 26.5607 29.9838C26.6705 29.4698 27.1758 29.1427 27.6886 29.2533C28.2016 29.3632 28.5284 29.8697 28.4184 30.3833C28.3084 30.897 27.8026 31.2245 27.2899 31.1147ZM26.8334 28.0273C26.7221 28.0034 26.6071 28.0017 26.4952 28.0223C26.3832 28.0429 26.2764 28.0854 26.1808 28.1473C26.0853 28.2092 26.0029 28.2893 25.9383 28.3831C25.8738 28.4769 25.8283 28.5824 25.8046 28.6938L25.3276 30.9197C23.8558 31.5877 22.2214 31.9588 20.5 31.9588C18.7393 31.9588 17.0693 31.5693 15.5712 30.8728L15.0945 28.647C14.9942 28.1787 14.5337 27.8803 14.066 27.9808L12.101 28.4028C11.7358 28.0269 11.3964 27.6268 11.085 27.2053H20.6462C20.7544 27.2053 20.8265 27.1857 20.8265 27.0872V23.705C20.8265 23.6067 20.7544 23.587 20.6461 23.587H17.85V21.4433H20.8744C21.1504 21.4433 22.3505 21.522 22.7341 23.056C22.8544 23.5278 23.1181 25.0623 23.2986 25.5535C23.4784 26.1045 24.2102 27.2052 24.9902 27.2052H29.7546C29.8088 27.2052 29.8665 27.199 29.9274 27.188C29.5968 27.637 29.2347 28.0618 28.8438 28.4593L26.8334 28.0273ZM13.6096 31.0682C13.0965 31.1789 12.5914 30.8518 12.481 30.3378C12.3713 29.8229 12.6975 29.3175 13.2105 29.2069C13.7236 29.0972 14.229 29.4243 14.339 29.9382C14.4487 30.4519 14.1224 30.9582 13.6096 31.0682ZM9.9825 16.3607C10.1954 16.8409 9.97875 17.4038 9.49913 17.6163C9.0195 17.8294 8.45813 17.6125 8.24538 17.1319C8.0325 16.6513 8.249 16.0894 8.72875 15.8763C8.84286 15.8257 8.96582 15.7981 9.09061 15.795C9.2154 15.792 9.33957 15.8135 9.45601 15.8585C9.57245 15.9035 9.67889 15.971 9.76923 16.0571C9.85957 16.1433 9.93204 16.2465 9.9825 16.3607ZM8.86775 19.0032L10.9148 18.0935C11.1249 18.0001 11.2893 17.827 11.3719 17.6123C11.4545 17.3977 11.4485 17.159 11.3552 16.9488L10.9338 15.9955H12.5918V23.469H9.24662C8.9501 22.4252 8.80009 21.3452 8.80088 20.26C8.80088 19.8353 8.82375 19.4157 8.86775 19.0032ZM17.8505 18.2773V16.0744H21.7987C22.0028 16.0744 23.2388 16.3102 23.2388 17.2344C23.2388 18.0018 22.2908 18.2769 21.5111 18.2769H17.8505V18.2773ZM32.1995 20.26C32.1995 20.5523 32.1888 20.8415 32.1674 21.1285H30.967C30.8469 21.1285 30.7985 21.2075 30.7985 21.3252V21.8764C30.7985 23.1739 30.0669 23.4562 29.4258 23.528C28.8153 23.5968 28.1383 23.2724 28.0549 22.8988C27.6946 20.873 27.0945 20.4404 26.1467 19.6928C27.323 18.9459 28.5467 17.844 28.5467 16.369C28.5467 14.7765 27.455 13.7734 26.7108 13.2815C25.6667 12.5933 24.5107 12.4553 24.1989 12.4553H11.7849C13.4683 10.5765 15.7498 9.24567 18.3301 8.76142L19.7934 10.2964C19.8719 10.3788 19.9659 10.4449 20.0699 10.4909C20.174 10.537 20.2862 10.562 20.4 10.5646C20.5137 10.5672 20.6269 10.5474 20.733 10.5062C20.8391 10.4651 20.936 10.4034 21.0182 10.3247L22.6555 8.75867C26.0861 9.39742 28.9907 11.5329 30.6646 14.4628L29.5438 16.9944C29.3503 17.4325 29.5478 17.9449 29.9846 18.139L32.1426 19.0975C32.1799 19.4807 32.1995 19.8677 32.1995 20.26ZM19.794 7.45554C20.1731 7.09242 20.7745 7.10679 21.1375 7.48642C21.4998 7.86717 21.486 8.46917 21.106 8.83204C20.7269 9.19529 20.1255 9.18117 19.7625 8.80079C19.5886 8.61808 19.4942 8.37385 19.5001 8.12165C19.506 7.86946 19.6117 7.62991 19.794 7.45554ZM30.9169 16.4068C30.9673 16.2926 31.0398 16.1895 31.1301 16.1034C31.2204 16.0173 31.3268 15.9498 31.4433 15.9048C31.5597 15.8599 31.6838 15.8383 31.8086 15.8414C31.9334 15.8445 32.0563 15.8721 32.1704 15.9228C32.6501 16.1355 32.8666 16.6982 32.6537 17.1784C32.6033 17.2926 32.5309 17.3958 32.4406 17.482C32.3502 17.5681 32.2438 17.6357 32.1273 17.6807C32.0109 17.7257 31.8867 17.7472 31.7619 17.7442C31.6371 17.7411 31.5141 17.7134 31.4 17.6628C30.9209 17.4499 30.7044 16.8878 30.9169 16.4068Z" fill="white"/>
</svg>
