<svg width="40" height="40" viewBox="0 0 40 40" fill="none" xmlns="http://www.w3.org/2000/svg">
<g clip-path="url(#clip0_2_7987)">
<path d="M15.1404 22.2838L20.2821 13.1443L15.1404 4.00098L10 13.1443L15.1404 22.2838Z" fill="#C2C2C2"/>
<path d="M25.4264 4.00098L20.2821 13.1443H10L15.1404 4.00098H25.4264Z" fill="#D8D8D8"/>
<path opacity="0.6" d="M20.2822 13.1443H30.5671L25.427 4.00098H15.1406L20.2822 13.1443Z" fill="#929292"/>
<path d="M15.1875 35.9988L20.3319 26.8555H30.6175L25.4731 35.9988H15.1875Z" fill="#BEBEBE"/>
<path opacity="0.6" d="M20.3317 26.8555H10.0469L15.1873 35.9988H25.4729L20.3317 26.8555Z" fill="#929292"/>
<path d="M25.4772 17.7158L20.3359 26.856L25.4772 35.9994L30.6215 26.856L25.4772 17.7158Z" fill="#C2C2C2"/>
<path d="M25.4772 17.7158L20.3359 26.856L25.4772 35.9994L30.6215 26.856L25.4772 17.7158Z" fill="#D8D8D8"/>
<path d="M20.3359 26.856L25.4772 17.7158L30.6215 26.856L30.5405 27H20.4169L20.3359 26.856Z" fill="#C2C2C2"/>
<path d="M10.081 13L10 13.1441L15.1404 22.2835L20.2821 13.1441L20.201 13H10.081Z" fill="#C2C2C2"/>
</g>
<defs>
<clipPath id="clip0_2_7987">
<rect width="20.6208" height="32" fill="white" transform="translate(10 4)"/>
</clipPath>
</defs>
</svg>
