<svg width="24" height="24" viewBox="0 0 24 24" fill="none" xmlns="http://www.w3.org/2000/svg">
<path fill-rule="evenodd" clip-rule="evenodd" d="M11.7989 2C12.7476 2 13.5162 2.76857 13.5162 3.71724C13.5162 4.66802 12.7476 5.4366 11.7989 5.4366C10.8502 5.4366 10.0796 4.66804 10.0796 3.71724C10.0796 2.76857 10.8502 2 11.7989 2ZM6.15496 4.69947C6.74764 4.69947 7.22928 5.18118 7.22928 5.77379C7.22928 6.36648 6.74757 6.84606 6.15496 6.84606C5.56227 6.84606 5.08269 6.36648 5.08269 5.77379C5.08269 5.18111 5.56227 4.69947 6.15496 4.69947ZM3.15183 9.81987C3.7906 9.81987 4.30577 10.3372 4.30577 10.9738C4.30577 11.6105 3.79059 12.1277 3.15183 12.1277C2.51518 12.1277 2 11.6105 2 10.9738C2 10.3372 2.51518 9.81987 3.15183 9.81987ZM4.19479 15.6544C4.87753 15.6544 5.43041 16.2073 5.43041 16.8879C5.43041 17.5685 4.87753 18.1214 4.19479 18.1214C3.51417 18.1214 2.96129 17.5685 2.96129 16.8879C2.96129 16.2073 3.51417 15.6544 4.19479 15.6544ZM8.79582 19.4366C9.52043 19.4366 10.1089 20.025 10.1089 20.7517C10.1089 21.4764 9.52041 22.0669 8.79582 22.0669C8.06911 22.0669 7.48066 21.4763 7.48066 20.7517C7.48066 20.025 8.06912 19.4366 8.79582 19.4366ZM14.8021 19.3549C15.5728 19.3549 16.1969 19.9811 16.1969 20.7518C16.1969 21.5224 15.5728 22.1465 14.8021 22.1465C14.0314 22.1465 13.4073 21.5224 13.4073 20.7518C13.4073 19.9811 14.0314 19.3549 14.8021 19.3549ZM19.401 15.4115C20.2178 15.4115 20.8775 16.0733 20.8775 16.8879C20.8775 17.7026 20.2178 18.3644 19.401 18.3644C18.5864 18.3644 17.9246 17.7026 17.9246 16.8879C17.9246 16.0733 18.5864 15.4115 19.401 15.4115ZM20.444 9.41778C21.3047 9.41778 22 10.1131 22 10.9738C22 11.8345 21.3047 12.5298 20.444 12.5298C19.5854 12.5298 18.888 11.8345 18.888 10.9738C18.888 10.1131 19.5854 9.41778 20.444 9.41778ZM17.4409 4.13612C18.3456 4.13612 19.0785 4.86911 19.0785 5.77381C19.0785 6.67852 18.3456 7.4115 17.4409 7.4115C16.5361 7.4115 15.8032 6.67852 15.8032 5.77381C15.8032 4.86911 16.5361 4.13612 17.4409 4.13612Z" fill="#15FFAB"/>
</svg>
