<svg width="332" height="332" viewBox="0 0 332 332" fill="none" xmlns="http://www.w3.org/2000/svg">
<path d="M145.22 204.232L190.128 129.884C192.208 126.589 195.843 124.593 199.717 124.593C206.006 124.593 211.099 129.716 211.099 136.04V261.531L251.823 244.77C257.705 242.341 261.531 236.593 261.531 230.221V136.377C261.531 127.696 254.525 120.65 245.892 120.65H199.717C194.48 120.65 189.602 123.343 186.78 127.768L141.872 202.116C139.792 205.41 136.157 207.406 132.283 207.406C125.994 207.406 120.901 202.284 120.901 195.96L120.901 70.469L80.1778 87.2303C74.2953 89.6592 70.4693 95.4066 70.4693 101.779L70.4692 195.623C70.4692 204.304 77.4757 211.35 86.1081 211.35H132.283C137.52 211.35 142.398 208.657 145.22 204.232Z" fill="#05060B"/>
</svg>
