<svg width="64" height="64" viewBox="0 0 64 64" fill="none" xmlns="http://www.w3.org/2000/svg">
<rect width="64" height="64" rx="8" fill="#0F1117"/>
<path d="M27.4321 40.4044L37.3039 24.0608C37.7612 23.3367 38.5602 22.8979 39.4117 22.8979C40.7943 22.8979 41.9139 24.0238 41.9139 25.4141V53L50.8658 49.3154C52.1589 48.7815 53 47.5182 53 46.1172V25.4881C53 23.5797 51.4599 22.0309 49.5622 22.0309H39.4117C38.2606 22.0309 37.1883 22.623 36.5679 23.5956L26.6961 39.9392C26.2388 40.6633 25.4398 41.1021 24.5883 41.1021C23.2057 41.1021 22.0861 39.9762 22.0861 38.5859V11L13.1342 14.6846C11.8411 15.2185 11 16.4818 11 17.8828V38.5119C11 40.4203 12.5401 41.9691 14.4378 41.9691H24.5883C25.7394 41.9691 26.8117 41.377 27.4321 40.4044Z" fill="white"/>
</svg>
