<svg width="645" height="581" viewBox="0 0 645 581" fill="none" xmlns="http://www.w3.org/2000/svg">
<rect x="146.5" y="64.5" width="160" height="83" stroke="url(#paint0_linear_1153_302)"/>
<path d="M204.308 110L203.024 101.6H204.044L204.896 108.08L206.084 101.6H207.116L208.304 108.08L209.156 101.6H210.176L208.892 110H207.74L206.6 103.544L205.46 110H204.308ZM211.827 110V101.6H217.071V102.512H212.835V105.308H216.711V106.22H212.835V109.088H217.071V110H211.827ZM219.383 110V101.6H222.179C223.051 101.6 223.707 101.8 224.147 102.2C224.587 102.6 224.807 103.112 224.807 103.736C224.807 104.224 224.675 104.628 224.411 104.948C224.147 105.26 223.851 105.48 223.523 105.608V105.692C223.915 105.82 224.259 106.052 224.555 106.388C224.851 106.724 224.999 107.156 224.999 107.684C224.999 108.116 224.891 108.508 224.675 108.86C224.467 109.204 224.159 109.48 223.751 109.688C223.351 109.896 222.859 110 222.275 110H219.383ZM220.391 105.224H222.107C222.643 105.224 223.051 105.108 223.331 104.876C223.619 104.636 223.763 104.292 223.763 103.844C223.763 103.42 223.623 103.092 223.343 102.86C223.063 102.628 222.639 102.512 222.071 102.512H220.391V105.224ZM220.391 109.076H222.167C222.743 109.076 223.187 108.948 223.499 108.692C223.811 108.428 223.967 108.06 223.967 107.588C223.967 107.116 223.803 106.752 223.475 106.496C223.147 106.232 222.703 106.1 222.143 106.1H220.391V109.076ZM237.769 110.144C237.209 110.144 236.709 110.028 236.269 109.796C235.837 109.564 235.493 109.212 235.237 108.74C234.989 108.26 234.865 107.66 234.865 106.94V101.6H235.873V106.976C235.873 107.696 236.049 108.252 236.401 108.644C236.753 109.036 237.217 109.232 237.793 109.232C238.369 109.232 238.829 109.036 239.173 108.644C239.517 108.252 239.689 107.696 239.689 106.976V101.6H240.697V106.94C240.697 107.66 240.569 108.26 240.313 108.74C240.057 109.212 239.709 109.564 239.269 109.796C238.829 110.028 238.329 110.144 237.769 110.144ZM243.165 110V109.124H245.073V102.476H243.165V101.6H247.989V102.476H246.081V109.124H247.989V110H243.165Z" fill="#DAD3D3"/>
<path d="M39.6 77.144C38.92 77.144 38.336 76.964 37.848 76.604C37.36 76.244 36.984 75.74 36.72 75.092C36.464 74.436 36.336 73.672 36.336 72.8C36.336 71.928 36.464 71.168 36.72 70.52C36.984 69.864 37.36 69.356 37.848 68.996C38.336 68.636 38.92 68.456 39.6 68.456C40.28 68.456 40.864 68.636 41.352 68.996C41.84 69.356 42.212 69.864 42.468 70.52C42.732 71.168 42.864 71.928 42.864 72.8C42.864 73.672 42.732 74.436 42.468 75.092C42.212 75.74 41.84 76.244 41.352 76.604C40.864 76.964 40.28 77.144 39.6 77.144ZM39.6 76.196C40.264 76.196 40.8 75.9 41.208 75.308C41.624 74.716 41.832 73.88 41.832 72.8C41.832 71.72 41.624 70.884 41.208 70.292C40.8 69.7 40.264 69.404 39.6 69.404C38.928 69.404 38.388 69.7 37.98 70.292C37.572 70.884 37.368 71.72 37.368 72.8C37.368 73.88 37.572 74.716 37.98 75.308C38.388 75.9 38.928 76.196 39.6 76.196ZM44.8873 77V68.6H50.1313V69.536H45.8953V72.464H49.5193V73.364H45.8953V77H44.8873ZM52.6826 77V68.6H57.9266V69.536H53.6906V72.464H57.3146V73.364H53.6906V77H52.6826ZM61.0059 73.232V72.368H64.9659V73.232H61.0059ZM70.8412 77.144C70.1612 77.144 69.5732 76.964 69.0772 76.604C68.5892 76.244 68.2132 75.74 67.9492 75.092C67.6932 74.444 67.5652 73.68 67.5652 72.8C67.5652 71.928 67.6932 71.168 67.9492 70.52C68.2132 69.864 68.5892 69.356 69.0772 68.996C69.5732 68.636 70.1612 68.456 70.8412 68.456C71.7052 68.456 72.4012 68.696 72.9293 69.176C73.4572 69.648 73.7652 70.28 73.8533 71.072H72.7372C72.6572 70.6 72.4572 70.204 72.1372 69.884C71.8172 69.564 71.3852 69.404 70.8412 69.404C70.1452 69.404 69.5972 69.708 69.1972 70.316C68.7972 70.916 68.5972 71.744 68.5972 72.8C68.5972 73.864 68.7972 74.696 69.1972 75.296C69.5972 75.896 70.1452 76.196 70.8412 76.196C71.4092 76.196 71.8452 76.044 72.1493 75.74C72.4612 75.436 72.6572 75.044 72.7372 74.564H73.8533C73.7253 75.364 73.4052 75.996 72.8932 76.46C72.3892 76.916 71.7052 77.144 70.8412 77.144ZM75.5406 77V68.6H76.5486V72.224H80.6166V68.6H81.6246V77H80.6166V73.136H76.5486V77H75.5406ZM83.1679 77L85.7959 68.6H86.9599L89.5759 77H88.4719L87.8599 74.912H84.8839L84.2719 77H83.1679ZM86.3479 70.016L85.1359 74.072H87.6079L86.3959 70.016H86.3479ZM91.7552 77V76.124H93.6632V69.476H91.7552V68.6H96.5792V69.476H94.6712V76.124H96.5792V77H91.7552ZM99.0465 77V68.6H100.078L103.894 75.236V68.6H104.89V77H103.846L100.03 70.364V77H99.0465ZM39.588 95.144C39.028 95.144 38.528 95.028 38.088 94.796C37.656 94.564 37.312 94.212 37.056 93.74C36.808 93.26 36.684 92.66 36.684 91.94V86.6H37.692V91.976C37.692 92.696 37.868 93.252 38.22 93.644C38.572 94.036 39.036 94.232 39.612 94.232C40.188 94.232 40.648 94.036 40.992 93.644C41.336 93.252 41.508 92.696 41.508 91.976V86.6H42.516V91.94C42.516 92.66 42.388 93.26 42.132 93.74C41.876 94.212 41.528 94.564 41.088 94.796C40.648 95.028 40.148 95.144 39.588 95.144ZM46.8913 95V87.512H44.6353V86.6H50.1553V87.512H47.8993V95H46.8913ZM52.7786 95V94.124H54.6866V87.476H52.7786V86.6H57.6026V87.476H55.6946V94.124H57.6026V95H52.7786ZM60.4299 95V86.6H61.4379V94.088H65.6979V95H60.4299ZM68.3692 95V94.124H70.2772V87.476H68.3692V86.6H73.1933V87.476H71.2852V94.124H73.1933V95H68.3692ZM78.0726 95V87.512H75.8166V86.6H81.3366V87.512H79.0806V95H78.0726ZM83.9599 95V94.124H85.8679V87.476H83.9599V86.6H88.7839V87.476H86.8759V94.124H88.7839V95H83.9599ZM91.5992 95V86.6H96.8432V87.512H92.6072V90.308H96.4832V91.22H92.6072V94.088H96.8432V95H91.5992ZM102.046 95.144C101.454 95.144 100.938 95.032 100.498 94.808C100.066 94.584 99.7305 94.272 99.4905 93.872C99.2585 93.472 99.1385 93.004 99.1305 92.468H100.186C100.194 92.948 100.354 93.364 100.666 93.716C100.986 94.06 101.446 94.232 102.046 94.232C102.598 94.232 103.022 94.1 103.318 93.836C103.622 93.564 103.774 93.24 103.774 92.864C103.774 92.552 103.702 92.292 103.558 92.084C103.414 91.868 103.178 91.68 102.85 91.52C102.53 91.352 102.098 91.18 101.554 91.004C100.786 90.772 100.226 90.456 99.8745 90.056C99.5225 89.656 99.3465 89.16 99.3465 88.568C99.3465 88.168 99.4505 87.808 99.6585 87.488C99.8665 87.168 100.166 86.916 100.558 86.732C100.95 86.548 101.426 86.456 101.986 86.456C102.514 86.456 102.974 86.556 103.366 86.756C103.766 86.948 104.074 87.22 104.29 87.572C104.514 87.924 104.626 88.328 104.626 88.784H103.57C103.57 88.56 103.51 88.34 103.39 88.124C103.27 87.908 103.09 87.728 102.85 87.584C102.61 87.44 102.306 87.368 101.938 87.368C101.498 87.368 101.13 87.476 100.834 87.692C100.538 87.9 100.39 88.188 100.39 88.556C100.39 88.836 100.454 89.072 100.582 89.264C100.718 89.456 100.938 89.632 101.242 89.792C101.546 89.944 101.958 90.108 102.478 90.284C102.966 90.444 103.382 90.632 103.726 90.848C104.078 91.056 104.346 91.316 104.53 91.628C104.722 91.94 104.818 92.328 104.818 92.792C104.818 93.248 104.702 93.652 104.47 94.004C104.238 94.356 103.914 94.636 103.498 94.844C103.082 95.044 102.598 95.144 102.046 95.144Z" fill="white"/>
<path d="M39.6 346.144C38.92 346.144 38.336 345.964 37.848 345.604C37.36 345.244 36.984 344.74 36.72 344.092C36.464 343.436 36.336 342.672 36.336 341.8C36.336 340.928 36.464 340.168 36.72 339.52C36.984 338.864 37.36 338.356 37.848 337.996C38.336 337.636 38.92 337.456 39.6 337.456C40.28 337.456 40.864 337.636 41.352 337.996C41.84 338.356 42.212 338.864 42.468 339.52C42.732 340.168 42.864 340.928 42.864 341.8C42.864 342.672 42.732 343.436 42.468 344.092C42.212 344.74 41.84 345.244 41.352 345.604C40.864 345.964 40.28 346.144 39.6 346.144ZM39.6 345.196C40.264 345.196 40.8 344.9 41.208 344.308C41.624 343.716 41.832 342.88 41.832 341.8C41.832 340.72 41.624 339.884 41.208 339.292C40.8 338.7 40.264 338.404 39.6 338.404C38.928 338.404 38.388 338.7 37.98 339.292C37.572 339.884 37.368 340.72 37.368 341.8C37.368 342.88 37.572 343.716 37.98 344.308C38.388 344.9 38.928 345.196 39.6 345.196ZM44.4793 346V337.6H45.5113L49.3273 344.236V337.6H50.3233V346H49.2793L45.4633 339.364V346H44.4793ZM53.2106 342.232V341.368H57.1706V342.232H53.2106ZM63.0459 346.144C62.3659 346.144 61.7779 345.964 61.2819 345.604C60.7939 345.244 60.4179 344.74 60.1539 344.092C59.8979 343.444 59.7699 342.68 59.7699 341.8C59.7699 340.928 59.8979 340.168 60.1539 339.52C60.4179 338.864 60.7939 338.356 61.2819 337.996C61.7779 337.636 62.3659 337.456 63.0459 337.456C63.9099 337.456 64.6059 337.696 65.1339 338.176C65.6619 338.648 65.9699 339.28 66.0579 340.072H64.9419C64.8619 339.6 64.6619 339.204 64.3419 338.884C64.0219 338.564 63.5899 338.404 63.0459 338.404C62.3499 338.404 61.8019 338.708 61.4019 339.316C61.0019 339.916 60.8019 340.744 60.8019 341.8C60.8019 342.864 61.0019 343.696 61.4019 344.296C61.8019 344.896 62.3499 345.196 63.0459 345.196C63.6139 345.196 64.0499 345.044 64.3539 344.74C64.6659 344.436 64.8619 344.044 64.9419 343.564H66.0579C65.9299 344.364 65.6099 344.996 65.0979 345.46C64.5939 345.916 63.9099 346.144 63.0459 346.144ZM67.7452 346V337.6H68.7532V341.224H72.8212V337.6H73.8292V346H72.8212V342.136H68.7532V346H67.7452ZM75.3726 346L78.0006 337.6H79.1646L81.7806 346H80.6766L80.0646 343.912H77.0886L76.4766 346H75.3726ZM78.5526 339.016L77.3406 343.072H79.8126L78.6006 339.016H78.5526ZM83.9599 346V345.124H85.8679V338.476H83.9599V337.6H88.7839V338.476H86.8759V345.124H88.7839V346H83.9599ZM91.2512 346V337.6H92.2832L96.0992 344.236V337.6H97.0952V346H96.0512L92.2352 339.364V346H91.2512ZM39.66 364.144C38.98 364.144 38.392 363.964 37.896 363.604C37.408 363.244 37.032 362.74 36.768 362.092C36.512 361.444 36.384 360.68 36.384 359.8C36.384 358.928 36.512 358.168 36.768 357.52C37.032 356.864 37.408 356.356 37.896 355.996C38.392 355.636 38.98 355.456 39.66 355.456C40.524 355.456 41.22 355.696 41.748 356.176C42.276 356.648 42.584 357.28 42.672 358.072H41.556C41.476 357.6 41.276 357.204 40.956 356.884C40.636 356.564 40.204 356.404 39.66 356.404C38.964 356.404 38.416 356.708 38.016 357.316C37.616 357.916 37.416 358.744 37.416 359.8C37.416 360.864 37.616 361.696 38.016 362.296C38.416 362.896 38.964 363.196 39.66 363.196C40.228 363.196 40.664 363.044 40.968 362.74C41.28 362.436 41.476 362.044 41.556 361.564H42.672C42.544 362.364 42.224 362.996 41.712 363.46C41.208 363.916 40.524 364.144 39.66 364.144ZM47.3953 364.144C46.7153 364.144 46.1313 363.964 45.6433 363.604C45.1553 363.244 44.7793 362.74 44.5153 362.092C44.2593 361.436 44.1313 360.672 44.1313 359.8C44.1313 358.928 44.2593 358.168 44.5153 357.52C44.7793 356.864 45.1553 356.356 45.6433 355.996C46.1313 355.636 46.7153 355.456 47.3953 355.456C48.0753 355.456 48.6593 355.636 49.1473 355.996C49.6353 356.356 50.0073 356.864 50.2633 357.52C50.5273 358.168 50.6593 358.928 50.6593 359.8C50.6593 360.672 50.5273 361.436 50.2633 362.092C50.0073 362.74 49.6353 363.244 49.1473 363.604C48.6593 363.964 48.0753 364.144 47.3953 364.144ZM47.3953 363.196C48.0593 363.196 48.5953 362.9 49.0033 362.308C49.4193 361.716 49.6273 360.88 49.6273 359.8C49.6273 358.72 49.4193 357.884 49.0033 357.292C48.5953 356.7 48.0593 356.404 47.3953 356.404C46.7233 356.404 46.1833 356.7 45.7753 357.292C45.3673 357.884 45.1633 358.72 45.1633 359.8C45.1633 360.88 45.3673 361.716 45.7753 362.308C46.1833 362.9 46.7233 363.196 47.3953 363.196ZM52.2746 364V355.6H53.3066L57.1226 362.236V355.6H58.1186V364H57.0746L53.2586 357.364V364H52.2746ZM62.4819 364V356.512H60.2259V355.6H65.7459V356.512H63.4899V364H62.4819ZM68.1652 364V355.6H70.7452C71.3932 355.6 71.9252 355.708 72.3412 355.924C72.7652 356.14 73.0812 356.436 73.2892 356.812C73.4972 357.18 73.6012 357.6 73.6012 358.072C73.6012 358.624 73.4572 359.112 73.1692 359.536C72.8892 359.952 72.4572 360.244 71.8733 360.412L73.6973 364H72.4972L70.8052 360.556H70.7452H69.1732V364H68.1652ZM69.1732 359.632H70.7092C71.3492 359.632 71.8172 359.488 72.1132 359.2C72.4172 358.904 72.5692 358.528 72.5692 358.072C72.5692 357.592 72.4212 357.212 72.1252 356.932C71.8372 356.652 71.3612 356.512 70.6972 356.512H69.1732V359.632ZM75.3726 364L78.0006 355.6H79.1646L81.7806 364H80.6766L80.0646 361.912H77.0886L76.4766 364H75.3726ZM78.5526 357.016L77.3406 361.072H79.8126L78.6006 357.016H78.5526ZM86.4319 364.144C85.7519 364.144 85.1639 363.964 84.6679 363.604C84.1799 363.244 83.8039 362.74 83.5399 362.092C83.2839 361.444 83.1559 360.68 83.1559 359.8C83.1559 358.928 83.2839 358.168 83.5399 357.52C83.8039 356.864 84.1799 356.356 84.6679 355.996C85.1639 355.636 85.7519 355.456 86.4319 355.456C87.2959 355.456 87.9919 355.696 88.5199 356.176C89.0479 356.648 89.3559 357.28 89.4439 358.072H88.3279C88.2479 357.6 88.0479 357.204 87.7279 356.884C87.4079 356.564 86.9759 356.404 86.4319 356.404C85.7359 356.404 85.1879 356.708 84.7879 357.316C84.3879 357.916 84.1879 358.744 84.1879 359.8C84.1879 360.864 84.3879 361.696 84.7879 362.296C85.1879 362.896 85.7359 363.196 86.4319 363.196C86.9999 363.196 87.4359 363.044 87.7399 362.74C88.0519 362.436 88.2479 362.044 88.3279 361.564H89.4439C89.3159 362.364 88.9959 362.996 88.4839 363.46C87.9799 363.916 87.2959 364.144 86.4319 364.144ZM93.6632 364V356.512H91.4072V355.6H96.9272V356.512H94.6712V364H93.6632ZM102.046 364.144C101.454 364.144 100.938 364.032 100.498 363.808C100.066 363.584 99.7305 363.272 99.4905 362.872C99.2585 362.472 99.1385 362.004 99.1305 361.468H100.186C100.194 361.948 100.354 362.364 100.666 362.716C100.986 363.06 101.446 363.232 102.046 363.232C102.598 363.232 103.022 363.1 103.318 362.836C103.622 362.564 103.774 362.24 103.774 361.864C103.774 361.552 103.702 361.292 103.558 361.084C103.414 360.868 103.178 360.68 102.85 360.52C102.53 360.352 102.098 360.18 101.554 360.004C100.786 359.772 100.226 359.456 99.8745 359.056C99.5225 358.656 99.3465 358.16 99.3465 357.568C99.3465 357.168 99.4505 356.808 99.6585 356.488C99.8665 356.168 100.166 355.916 100.558 355.732C100.95 355.548 101.426 355.456 101.986 355.456C102.514 355.456 102.974 355.556 103.366 355.756C103.766 355.948 104.074 356.22 104.29 356.572C104.514 356.924 104.626 357.328 104.626 357.784H103.57C103.57 357.56 103.51 357.34 103.39 357.124C103.27 356.908 103.09 356.728 102.85 356.584C102.61 356.44 102.306 356.368 101.938 356.368C101.498 356.368 101.13 356.476 100.834 356.692C100.538 356.9 100.39 357.188 100.39 357.556C100.39 357.836 100.454 358.072 100.582 358.264C100.718 358.456 100.938 358.632 101.242 358.792C101.546 358.944 101.958 359.108 102.478 359.284C102.966 359.444 103.382 359.632 103.726 359.848C104.078 360.056 104.346 360.316 104.53 360.628C104.722 360.94 104.818 361.328 104.818 361.792C104.818 362.248 104.702 362.652 104.47 363.004C104.238 363.356 103.914 363.636 103.498 363.844C103.082 364.044 102.598 364.144 102.046 364.144Z" fill="white"/>
<path d="M36 309H601.5" stroke="#565E6F" stroke-dasharray="4 8"/>
<rect x="177.5" y="364.5" width="98" height="63" stroke="url(#paint1_linear_1153_302)"/>
<path d="M188.387 391V382.6H189.395V386.224H193.463V382.6H194.471V391H193.463V387.136H189.395V391H188.387ZM198.715 391V387.7L195.991 382.6H197.131L199.219 386.68L201.307 382.6H202.447L199.723 387.7V391H198.715ZM204.302 391V382.6H207.098C207.738 382.6 208.262 382.716 208.67 382.948C209.078 383.18 209.378 383.488 209.57 383.872C209.762 384.256 209.858 384.68 209.858 385.144C209.858 385.608 209.762 386.032 209.57 386.416C209.378 386.8 209.078 387.108 208.67 387.34C208.262 387.572 207.738 387.688 207.098 387.688H205.31V391H204.302ZM205.31 386.764H207.074C207.666 386.764 208.106 386.616 208.394 386.32C208.682 386.016 208.826 385.624 208.826 385.144C208.826 384.664 208.682 384.272 208.394 383.968C208.106 383.664 207.666 383.512 207.074 383.512H205.31V386.764ZM212.241 391V382.6H217.485V383.512H213.249V386.308H217.125V387.22H213.249V390.088H217.485V391H212.241ZM219.989 391V382.6H222.569C223.217 382.6 223.749 382.708 224.165 382.924C224.589 383.14 224.905 383.436 225.113 383.812C225.321 384.18 225.425 384.6 225.425 385.072C225.425 385.624 225.281 386.112 224.993 386.536C224.713 386.952 224.281 387.244 223.697 387.412L225.521 391H224.321L222.629 387.556H222.569H220.997V391H219.989ZM220.997 386.632H222.533C223.173 386.632 223.641 386.488 223.937 386.2C224.241 385.904 224.393 385.528 224.393 385.072C224.393 384.592 224.245 384.212 223.949 383.932C223.661 383.652 223.185 383.512 222.521 383.512H220.997V386.632ZM227.592 391V382.6H229.356C230.732 382.6 231.748 382.976 232.404 383.728C233.068 384.48 233.4 385.504 233.4 386.8C233.4 388.096 233.068 389.12 232.404 389.872C231.748 390.624 230.732 391 229.356 391H227.592ZM228.6 390.076H229.332C230.068 390.076 230.656 389.94 231.096 389.668C231.544 389.396 231.868 389.016 232.068 388.528C232.268 388.04 232.368 387.464 232.368 386.8C232.368 386.136 232.268 385.56 232.068 385.072C231.868 384.584 231.544 384.204 231.096 383.932C230.656 383.66 230.068 383.524 229.332 383.524H228.6V390.076ZM235.579 391V382.6H238.159C238.807 382.6 239.339 382.708 239.755 382.924C240.179 383.14 240.495 383.436 240.703 383.812C240.911 384.18 241.015 384.6 241.015 385.072C241.015 385.624 240.871 386.112 240.583 386.536C240.303 386.952 239.871 387.244 239.287 387.412L241.111 391H239.911L238.219 387.556H238.159H236.587V391H235.579ZM236.587 386.632H238.123C238.763 386.632 239.231 386.488 239.527 386.2C239.831 385.904 239.983 385.528 239.983 385.072C239.983 384.592 239.835 384.212 239.539 383.932C239.251 383.652 238.775 383.512 238.111 383.512H236.587V386.632ZM243.579 391V390.124H245.487V383.476H243.579V382.6H248.403V383.476H246.495V390.124H248.403V391H243.579ZM253.186 391L250.51 382.6H251.59L253.786 389.692L255.982 382.6H257.074L254.386 391H253.186ZM259.013 391V382.6H264.257V383.512H260.021V386.308H263.897V387.22H260.021V390.088H264.257V391H259.013ZM215.503 409L218.131 400.6H219.295L221.911 409H220.807L220.195 406.912H217.219L216.607 409H215.503ZM218.683 402.016L217.471 406.072H219.943L218.731 402.016H218.683ZM223.502 409V400.6H224.582L226.502 404.596L228.422 400.6H229.502V409H228.518V402.544L226.886 405.94H226.118L224.486 402.556V409H223.502ZM231.298 409V400.6H232.378L234.298 404.596L236.218 400.6H237.298V409H236.314V402.544L234.682 405.94H233.914L232.282 402.556V409H231.298Z" fill="#DAD3D3"/>
<rect x="491.5" y="364.5" width="98" height="63" stroke="url(#paint2_linear_1153_302)"/>
<path d="M502.387 391V382.6H503.395V386.224H507.463V382.6H508.471V391H507.463V387.136H503.395V391H502.387ZM512.715 391V387.7L509.991 382.6H511.131L513.219 386.68L515.307 382.6H516.447L513.723 387.7V391H512.715ZM518.302 391V382.6H521.098C521.738 382.6 522.262 382.716 522.67 382.948C523.078 383.18 523.378 383.488 523.57 383.872C523.762 384.256 523.858 384.68 523.858 385.144C523.858 385.608 523.762 386.032 523.57 386.416C523.378 386.8 523.078 387.108 522.67 387.34C522.262 387.572 521.738 387.688 521.098 387.688H519.31V391H518.302ZM519.31 386.764H521.074C521.666 386.764 522.106 386.616 522.394 386.32C522.682 386.016 522.826 385.624 522.826 385.144C522.826 384.664 522.682 384.272 522.394 383.968C522.106 383.664 521.666 383.512 521.074 383.512H519.31V386.764ZM526.241 391V382.6H531.485V383.512H527.249V386.308H531.125V387.22H527.249V390.088H531.485V391H526.241ZM533.989 391V382.6H536.569C537.217 382.6 537.749 382.708 538.165 382.924C538.589 383.14 538.905 383.436 539.113 383.812C539.321 384.18 539.425 384.6 539.425 385.072C539.425 385.624 539.281 386.112 538.993 386.536C538.713 386.952 538.281 387.244 537.697 387.412L539.521 391H538.321L536.629 387.556H536.569H534.997V391H533.989ZM534.997 386.632H536.533C537.173 386.632 537.641 386.488 537.937 386.2C538.241 385.904 538.393 385.528 538.393 385.072C538.393 384.592 538.245 384.212 537.949 383.932C537.661 383.652 537.185 383.512 536.521 383.512H534.997V386.632ZM541.592 391V382.6H543.356C544.732 382.6 545.748 382.976 546.404 383.728C547.068 384.48 547.4 385.504 547.4 386.8C547.4 388.096 547.068 389.12 546.404 389.872C545.748 390.624 544.732 391 543.356 391H541.592ZM542.6 390.076H543.332C544.068 390.076 544.656 389.94 545.096 389.668C545.544 389.396 545.868 389.016 546.068 388.528C546.268 388.04 546.368 387.464 546.368 386.8C546.368 386.136 546.268 385.56 546.068 385.072C545.868 384.584 545.544 384.204 545.096 383.932C544.656 383.66 544.068 383.524 543.332 383.524H542.6V390.076ZM549.579 391V382.6H552.159C552.807 382.6 553.339 382.708 553.755 382.924C554.179 383.14 554.495 383.436 554.703 383.812C554.911 384.18 555.015 384.6 555.015 385.072C555.015 385.624 554.871 386.112 554.583 386.536C554.303 386.952 553.871 387.244 553.287 387.412L555.111 391H553.911L552.219 387.556H552.159H550.587V391H549.579ZM550.587 386.632H552.123C552.763 386.632 553.231 386.488 553.527 386.2C553.831 385.904 553.983 385.528 553.983 385.072C553.983 384.592 553.835 384.212 553.539 383.932C553.251 383.652 552.775 383.512 552.111 383.512H550.587V386.632ZM557.579 391V390.124H559.487V383.476H557.579V382.6H562.403V383.476H560.495V390.124H562.403V391H557.579ZM567.186 391L564.51 382.6H565.59L567.786 389.692L569.982 382.6H571.074L568.386 391H567.186ZM573.013 391V382.6H578.257V383.512H574.021V386.308H577.897V387.22H574.021V390.088H578.257V391H573.013ZM529.503 409L532.131 400.6H533.295L535.911 409H534.807L534.195 406.912H531.219L530.607 409H529.503ZM532.683 402.016L531.471 406.072H533.943L532.731 402.016H532.683ZM537.502 409V400.6H538.582L540.502 404.596L542.422 400.6H543.502V409H542.518V402.544L540.886 405.94H540.118L538.486 402.556V409H537.502ZM545.298 409V400.6H546.378L548.298 404.596L550.218 400.6H551.298V409H550.314V402.544L548.682 405.94H547.914L546.282 402.556V409H545.298Z" fill="#DAD3D3"/>
<rect x="334.5" y="364.5" width="98" height="63" stroke="url(#paint3_linear_1153_302)"/>
<path d="M345.387 391V382.6H346.395V386.224H350.463V382.6H351.471V391H350.463V387.136H346.395V391H345.387ZM355.715 391V387.7L352.991 382.6H354.131L356.219 386.68L358.307 382.6H359.447L356.723 387.7V391H355.715ZM361.302 391V382.6H364.098C364.738 382.6 365.262 382.716 365.67 382.948C366.078 383.18 366.378 383.488 366.57 383.872C366.762 384.256 366.858 384.68 366.858 385.144C366.858 385.608 366.762 386.032 366.57 386.416C366.378 386.8 366.078 387.108 365.67 387.34C365.262 387.572 364.738 387.688 364.098 387.688H362.31V391H361.302ZM362.31 386.764H364.074C364.666 386.764 365.106 386.616 365.394 386.32C365.682 386.016 365.826 385.624 365.826 385.144C365.826 384.664 365.682 384.272 365.394 383.968C365.106 383.664 364.666 383.512 364.074 383.512H362.31V386.764ZM369.241 391V382.6H374.485V383.512H370.249V386.308H374.125V387.22H370.249V390.088H374.485V391H369.241ZM376.989 391V382.6H379.569C380.217 382.6 380.749 382.708 381.165 382.924C381.589 383.14 381.905 383.436 382.113 383.812C382.321 384.18 382.425 384.6 382.425 385.072C382.425 385.624 382.281 386.112 381.993 386.536C381.713 386.952 381.281 387.244 380.697 387.412L382.521 391H381.321L379.629 387.556H379.569H377.997V391H376.989ZM377.997 386.632H379.533C380.173 386.632 380.641 386.488 380.937 386.2C381.241 385.904 381.393 385.528 381.393 385.072C381.393 384.592 381.245 384.212 380.949 383.932C380.661 383.652 380.185 383.512 379.521 383.512H377.997V386.632ZM384.592 391V382.6H386.356C387.732 382.6 388.748 382.976 389.404 383.728C390.068 384.48 390.4 385.504 390.4 386.8C390.4 388.096 390.068 389.12 389.404 389.872C388.748 390.624 387.732 391 386.356 391H384.592ZM385.6 390.076H386.332C387.068 390.076 387.656 389.94 388.096 389.668C388.544 389.396 388.868 389.016 389.068 388.528C389.268 388.04 389.368 387.464 389.368 386.8C389.368 386.136 389.268 385.56 389.068 385.072C388.868 384.584 388.544 384.204 388.096 383.932C387.656 383.66 387.068 383.524 386.332 383.524H385.6V390.076ZM392.579 391V382.6H395.159C395.807 382.6 396.339 382.708 396.755 382.924C397.179 383.14 397.495 383.436 397.703 383.812C397.911 384.18 398.015 384.6 398.015 385.072C398.015 385.624 397.871 386.112 397.583 386.536C397.303 386.952 396.871 387.244 396.287 387.412L398.111 391H396.911L395.219 387.556H395.159H393.587V391H392.579ZM393.587 386.632H395.123C395.763 386.632 396.231 386.488 396.527 386.2C396.831 385.904 396.983 385.528 396.983 385.072C396.983 384.592 396.835 384.212 396.539 383.932C396.251 383.652 395.775 383.512 395.111 383.512H393.587V386.632ZM400.579 391V390.124H402.487V383.476H400.579V382.6H405.403V383.476H403.495V390.124H405.403V391H400.579ZM410.186 391L407.51 382.6H408.59L410.786 389.692L412.982 382.6H414.074L411.386 391H410.186ZM416.013 391V382.6H421.257V383.512H417.021V386.308H420.897V387.22H417.021V390.088H421.257V391H416.013ZM372.503 409L375.131 400.6H376.295L378.911 409H377.807L377.195 406.912H374.219L373.607 409H372.503ZM375.683 402.016L374.471 406.072H376.943L375.731 402.016H375.683ZM380.502 409V400.6H381.582L383.502 404.596L385.422 400.6H386.502V409H385.518V402.544L383.886 405.94H383.118L381.486 402.556V409H380.502ZM388.298 409V400.6H389.378L391.298 404.596L393.218 400.6H394.298V409H393.314V402.544L391.682 405.94H390.914L389.282 402.556V409H388.298Z" fill="#DAD3D3"/>
<rect x="163.5" y="474.5" width="128" height="33" stroke="url(#paint4_linear_1153_302)"/>
<path d="M176.329 495V491.7L173.605 486.6H174.745L176.833 490.68L178.921 486.6H180.061L177.337 491.7V495H176.329ZM182.216 495V494.124H184.124V487.476H182.216V486.6H187.04V487.476H185.132V494.124H187.04V495H182.216ZM189.855 495V486.6H195.099V487.512H190.863V490.308H194.739V491.22H190.863V494.088H195.099V495H189.855ZM197.663 495V486.6H198.671V494.088H202.931V495H197.663ZM205.206 495V486.6H206.97C208.346 486.6 209.362 486.976 210.018 487.728C210.682 488.48 211.014 489.504 211.014 490.8C211.014 492.096 210.682 493.12 210.018 493.872C209.362 494.624 208.346 495 206.97 495H205.206ZM206.214 494.076H206.946C207.682 494.076 208.27 493.94 208.71 493.668C209.158 493.396 209.482 493.016 209.682 492.528C209.882 492.04 209.982 491.464 209.982 490.8C209.982 490.136 209.882 489.56 209.682 489.072C209.482 488.584 209.158 488.204 208.71 487.932C208.27 487.66 207.682 487.524 206.946 487.524H206.214V494.076ZM223.689 495.144C223.097 495.144 222.581 495.032 222.141 494.808C221.709 494.584 221.373 494.272 221.133 493.872C220.901 493.472 220.781 493.004 220.773 492.468H221.829C221.837 492.948 221.997 493.364 222.309 493.716C222.629 494.06 223.089 494.232 223.689 494.232C224.241 494.232 224.665 494.1 224.961 493.836C225.265 493.564 225.417 493.24 225.417 492.864C225.417 492.552 225.345 492.292 225.201 492.084C225.057 491.868 224.821 491.68 224.493 491.52C224.173 491.352 223.741 491.18 223.197 491.004C222.429 490.772 221.869 490.456 221.517 490.056C221.165 489.656 220.989 489.16 220.989 488.568C220.989 488.168 221.093 487.808 221.301 487.488C221.509 487.168 221.809 486.916 222.201 486.732C222.593 486.548 223.069 486.456 223.629 486.456C224.157 486.456 224.617 486.556 225.009 486.756C225.409 486.948 225.717 487.22 225.933 487.572C226.157 487.924 226.269 488.328 226.269 488.784H225.213C225.213 488.56 225.153 488.34 225.033 488.124C224.913 487.908 224.733 487.728 224.493 487.584C224.253 487.44 223.949 487.368 223.581 487.368C223.141 487.368 222.773 487.476 222.477 487.692C222.181 487.9 222.033 488.188 222.033 488.556C222.033 488.836 222.097 489.072 222.225 489.264C222.361 489.456 222.581 489.632 222.885 489.792C223.189 489.944 223.601 490.108 224.121 490.284C224.609 490.444 225.025 490.632 225.369 490.848C225.721 491.056 225.989 491.316 226.173 491.628C226.365 491.94 226.461 492.328 226.461 492.792C226.461 493.248 226.345 493.652 226.113 494.004C225.881 494.356 225.557 494.636 225.141 494.844C224.725 495.044 224.241 495.144 223.689 495.144ZM231.4 495.144C230.72 495.144 230.136 494.964 229.648 494.604C229.16 494.244 228.784 493.74 228.52 493.092C228.264 492.436 228.136 491.672 228.136 490.8C228.136 489.928 228.264 489.168 228.52 488.52C228.784 487.864 229.16 487.356 229.648 486.996C230.136 486.636 230.72 486.456 231.4 486.456C232.08 486.456 232.664 486.636 233.152 486.996C233.64 487.356 234.012 487.864 234.268 488.52C234.532 489.168 234.664 489.928 234.664 490.8C234.664 491.672 234.532 492.436 234.268 493.092C234.012 493.74 233.64 494.244 233.152 494.604C232.664 494.964 232.08 495.144 231.4 495.144ZM231.4 494.196C232.064 494.196 232.6 493.9 233.008 493.308C233.424 492.716 233.632 491.88 233.632 490.8C233.632 489.72 233.424 488.884 233.008 488.292C232.6 487.7 232.064 487.404 231.4 487.404C230.728 487.404 230.188 487.7 229.78 488.292C229.372 488.884 229.168 489.72 229.168 490.8C229.168 491.88 229.372 492.716 229.78 493.308C230.188 493.9 230.728 494.196 231.4 494.196ZM239.183 495.144C238.623 495.144 238.123 495.028 237.683 494.796C237.251 494.564 236.907 494.212 236.651 493.74C236.403 493.26 236.279 492.66 236.279 491.94V486.6H237.287V491.976C237.287 492.696 237.463 493.252 237.815 493.644C238.167 494.036 238.631 494.232 239.207 494.232C239.783 494.232 240.243 494.036 240.587 493.644C240.931 493.252 241.103 492.696 241.103 491.976V486.6H242.111V491.94C242.111 492.66 241.983 493.26 241.727 493.74C241.471 494.212 241.123 494.564 240.683 494.796C240.243 495.028 239.743 495.144 239.183 495.144ZM244.375 495V486.6H246.955C247.603 486.6 248.135 486.708 248.551 486.924C248.975 487.14 249.291 487.436 249.499 487.812C249.707 488.18 249.811 488.6 249.811 489.072C249.811 489.624 249.667 490.112 249.379 490.536C249.099 490.952 248.667 491.244 248.083 491.412L249.907 495H248.707L247.015 491.556H246.955H245.383V495H244.375ZM245.383 490.632H246.919C247.559 490.632 248.027 490.488 248.323 490.2C248.627 489.904 248.779 489.528 248.779 489.072C248.779 488.592 248.631 488.212 248.335 487.932C248.047 487.652 247.571 487.512 246.907 487.512H245.383V490.632ZM254.846 495.144C254.166 495.144 253.578 494.964 253.082 494.604C252.594 494.244 252.218 493.74 251.954 493.092C251.698 492.444 251.57 491.68 251.57 490.8C251.57 489.928 251.698 489.168 251.954 488.52C252.218 487.864 252.594 487.356 253.082 486.996C253.578 486.636 254.166 486.456 254.846 486.456C255.71 486.456 256.406 486.696 256.934 487.176C257.462 487.648 257.77 488.28 257.858 489.072H256.742C256.662 488.6 256.462 488.204 256.142 487.884C255.822 487.564 255.39 487.404 254.846 487.404C254.15 487.404 253.602 487.708 253.202 488.316C252.802 488.916 252.602 489.744 252.602 490.8C252.602 491.864 252.802 492.696 253.202 493.296C253.602 493.896 254.15 494.196 254.846 494.196C255.414 494.196 255.85 494.044 256.154 493.74C256.466 493.436 256.662 493.044 256.742 492.564H257.858C257.73 493.364 257.41 493.996 256.898 494.46C256.394 494.916 255.71 495.144 254.846 495.144ZM260.013 495V486.6H265.257V487.512H261.021V490.308H264.897V491.22H261.021V494.088H265.257V495H260.013ZM275.412 495V494.088H277.584V487.788L275.532 488.184V487.416L277.92 486.6H278.592V494.088H280.884V495H275.412Z" fill="#DAD3D3"/>
<rect x="319.5" y="474.5" width="128" height="33" stroke="url(#paint5_linear_1153_302)"/>
<path d="M332.329 495V491.7L329.605 486.6H330.745L332.833 490.68L334.921 486.6H336.061L333.337 491.7V495H332.329ZM338.216 495V494.124H340.124V487.476H338.216V486.6H343.04V487.476H341.132V494.124H343.04V495H338.216ZM345.855 495V486.6H351.099V487.512H346.863V490.308H350.739V491.22H346.863V494.088H351.099V495H345.855ZM353.663 495V486.6H354.671V494.088H358.931V495H353.663ZM361.206 495V486.6H362.97C364.346 486.6 365.362 486.976 366.018 487.728C366.682 488.48 367.014 489.504 367.014 490.8C367.014 492.096 366.682 493.12 366.018 493.872C365.362 494.624 364.346 495 362.97 495H361.206ZM362.214 494.076H362.946C363.682 494.076 364.27 493.94 364.71 493.668C365.158 493.396 365.482 493.016 365.682 492.528C365.882 492.04 365.982 491.464 365.982 490.8C365.982 490.136 365.882 489.56 365.682 489.072C365.482 488.584 365.158 488.204 364.71 487.932C364.27 487.66 363.682 487.524 362.946 487.524H362.214V494.076ZM379.689 495.144C379.097 495.144 378.581 495.032 378.141 494.808C377.709 494.584 377.373 494.272 377.133 493.872C376.901 493.472 376.781 493.004 376.773 492.468H377.829C377.837 492.948 377.997 493.364 378.309 493.716C378.629 494.06 379.089 494.232 379.689 494.232C380.241 494.232 380.665 494.1 380.961 493.836C381.265 493.564 381.417 493.24 381.417 492.864C381.417 492.552 381.345 492.292 381.201 492.084C381.057 491.868 380.821 491.68 380.493 491.52C380.173 491.352 379.741 491.18 379.197 491.004C378.429 490.772 377.869 490.456 377.517 490.056C377.165 489.656 376.989 489.16 376.989 488.568C376.989 488.168 377.093 487.808 377.301 487.488C377.509 487.168 377.809 486.916 378.201 486.732C378.593 486.548 379.069 486.456 379.629 486.456C380.157 486.456 380.617 486.556 381.009 486.756C381.409 486.948 381.717 487.22 381.933 487.572C382.157 487.924 382.269 488.328 382.269 488.784H381.213C381.213 488.56 381.153 488.34 381.033 488.124C380.913 487.908 380.733 487.728 380.493 487.584C380.253 487.44 379.949 487.368 379.581 487.368C379.141 487.368 378.773 487.476 378.477 487.692C378.181 487.9 378.033 488.188 378.033 488.556C378.033 488.836 378.097 489.072 378.225 489.264C378.361 489.456 378.581 489.632 378.885 489.792C379.189 489.944 379.601 490.108 380.121 490.284C380.609 490.444 381.025 490.632 381.369 490.848C381.721 491.056 381.989 491.316 382.173 491.628C382.365 491.94 382.461 492.328 382.461 492.792C382.461 493.248 382.345 493.652 382.113 494.004C381.881 494.356 381.557 494.636 381.141 494.844C380.725 495.044 380.241 495.144 379.689 495.144ZM387.4 495.144C386.72 495.144 386.136 494.964 385.648 494.604C385.16 494.244 384.784 493.74 384.52 493.092C384.264 492.436 384.136 491.672 384.136 490.8C384.136 489.928 384.264 489.168 384.52 488.52C384.784 487.864 385.16 487.356 385.648 486.996C386.136 486.636 386.72 486.456 387.4 486.456C388.08 486.456 388.664 486.636 389.152 486.996C389.64 487.356 390.012 487.864 390.268 488.52C390.532 489.168 390.664 489.928 390.664 490.8C390.664 491.672 390.532 492.436 390.268 493.092C390.012 493.74 389.64 494.244 389.152 494.604C388.664 494.964 388.08 495.144 387.4 495.144ZM387.4 494.196C388.064 494.196 388.6 493.9 389.008 493.308C389.424 492.716 389.632 491.88 389.632 490.8C389.632 489.72 389.424 488.884 389.008 488.292C388.6 487.7 388.064 487.404 387.4 487.404C386.728 487.404 386.188 487.7 385.78 488.292C385.372 488.884 385.168 489.72 385.168 490.8C385.168 491.88 385.372 492.716 385.78 493.308C386.188 493.9 386.728 494.196 387.4 494.196ZM395.183 495.144C394.623 495.144 394.123 495.028 393.683 494.796C393.251 494.564 392.907 494.212 392.651 493.74C392.403 493.26 392.279 492.66 392.279 491.94V486.6H393.287V491.976C393.287 492.696 393.463 493.252 393.815 493.644C394.167 494.036 394.631 494.232 395.207 494.232C395.783 494.232 396.243 494.036 396.587 493.644C396.931 493.252 397.103 492.696 397.103 491.976V486.6H398.111V491.94C398.111 492.66 397.983 493.26 397.727 493.74C397.471 494.212 397.123 494.564 396.683 494.796C396.243 495.028 395.743 495.144 395.183 495.144ZM400.375 495V486.6H402.955C403.603 486.6 404.135 486.708 404.551 486.924C404.975 487.14 405.291 487.436 405.499 487.812C405.707 488.18 405.811 488.6 405.811 489.072C405.811 489.624 405.667 490.112 405.379 490.536C405.099 490.952 404.667 491.244 404.083 491.412L405.907 495H404.707L403.015 491.556H402.955H401.383V495H400.375ZM401.383 490.632H402.919C403.559 490.632 404.027 490.488 404.323 490.2C404.627 489.904 404.779 489.528 404.779 489.072C404.779 488.592 404.631 488.212 404.335 487.932C404.047 487.652 403.571 487.512 402.907 487.512H401.383V490.632ZM410.846 495.144C410.166 495.144 409.578 494.964 409.082 494.604C408.594 494.244 408.218 493.74 407.954 493.092C407.698 492.444 407.57 491.68 407.57 490.8C407.57 489.928 407.698 489.168 407.954 488.52C408.218 487.864 408.594 487.356 409.082 486.996C409.578 486.636 410.166 486.456 410.846 486.456C411.71 486.456 412.406 486.696 412.934 487.176C413.462 487.648 413.77 488.28 413.858 489.072H412.742C412.662 488.6 412.462 488.204 412.142 487.884C411.822 487.564 411.39 487.404 410.846 487.404C410.15 487.404 409.602 487.708 409.202 488.316C408.802 488.916 408.602 489.744 408.602 490.8C408.602 491.864 408.802 492.696 409.202 493.296C409.602 493.896 410.15 494.196 410.846 494.196C411.414 494.196 411.85 494.044 412.154 493.74C412.466 493.436 412.662 493.044 412.742 492.564H413.858C413.73 493.364 413.41 493.996 412.898 494.46C412.394 494.916 411.71 495.144 410.846 495.144ZM416.013 495V486.6H421.257V487.512H417.021V490.308H420.897V491.22H417.021V494.088H421.257V495H416.013ZM431.46 495V494.208C432.324 493.52 433.076 492.888 433.716 492.312C434.364 491.736 434.864 491.18 435.216 490.644C435.568 490.108 435.744 489.56 435.744 489C435.744 488.496 435.6 488.1 435.312 487.812C435.032 487.516 434.652 487.368 434.172 487.368C433.804 487.368 433.492 487.448 433.236 487.608C432.98 487.768 432.788 487.98 432.66 488.244C432.532 488.508 432.468 488.792 432.468 489.096H431.472C431.48 488.544 431.6 488.072 431.832 487.68C432.072 487.28 432.392 486.976 432.792 486.768C433.2 486.56 433.66 486.456 434.172 486.456C434.996 486.456 435.636 486.684 436.092 487.14C436.548 487.596 436.776 488.208 436.776 488.976C436.776 489.48 436.668 489.964 436.452 490.428C436.236 490.884 435.948 491.324 435.588 491.748C435.228 492.172 434.824 492.58 434.376 492.972C433.928 493.364 433.476 493.74 433.02 494.1H437.004V495H431.46Z" fill="#DAD3D3"/>
<rect x="475.5" y="474.5" width="128" height="33" stroke="url(#paint6_linear_1153_302)"/>
<path d="M488.329 495V491.7L485.605 486.6H486.745L488.833 490.68L490.921 486.6H492.061L489.337 491.7V495H488.329ZM494.216 495V494.124H496.124V487.476H494.216V486.6H499.04V487.476H497.132V494.124H499.04V495H494.216ZM501.855 495V486.6H507.099V487.512H502.863V490.308H506.739V491.22H502.863V494.088H507.099V495H501.855ZM509.663 495V486.6H510.671V494.088H514.931V495H509.663ZM517.206 495V486.6H518.97C520.346 486.6 521.362 486.976 522.018 487.728C522.682 488.48 523.014 489.504 523.014 490.8C523.014 492.096 522.682 493.12 522.018 493.872C521.362 494.624 520.346 495 518.97 495H517.206ZM518.214 494.076H518.946C519.682 494.076 520.27 493.94 520.71 493.668C521.158 493.396 521.482 493.016 521.682 492.528C521.882 492.04 521.982 491.464 521.982 490.8C521.982 490.136 521.882 489.56 521.682 489.072C521.482 488.584 521.158 488.204 520.71 487.932C520.27 487.66 519.682 487.524 518.946 487.524H518.214V494.076ZM535.689 495.144C535.097 495.144 534.581 495.032 534.141 494.808C533.709 494.584 533.373 494.272 533.133 493.872C532.901 493.472 532.781 493.004 532.773 492.468H533.829C533.837 492.948 533.997 493.364 534.309 493.716C534.629 494.06 535.089 494.232 535.689 494.232C536.241 494.232 536.665 494.1 536.961 493.836C537.265 493.564 537.417 493.24 537.417 492.864C537.417 492.552 537.345 492.292 537.201 492.084C537.057 491.868 536.821 491.68 536.493 491.52C536.173 491.352 535.741 491.18 535.197 491.004C534.429 490.772 533.869 490.456 533.517 490.056C533.165 489.656 532.989 489.16 532.989 488.568C532.989 488.168 533.093 487.808 533.301 487.488C533.509 487.168 533.809 486.916 534.201 486.732C534.593 486.548 535.069 486.456 535.629 486.456C536.157 486.456 536.617 486.556 537.009 486.756C537.409 486.948 537.717 487.22 537.933 487.572C538.157 487.924 538.269 488.328 538.269 488.784H537.213C537.213 488.56 537.153 488.34 537.033 488.124C536.913 487.908 536.733 487.728 536.493 487.584C536.253 487.44 535.949 487.368 535.581 487.368C535.141 487.368 534.773 487.476 534.477 487.692C534.181 487.9 534.033 488.188 534.033 488.556C534.033 488.836 534.097 489.072 534.225 489.264C534.361 489.456 534.581 489.632 534.885 489.792C535.189 489.944 535.601 490.108 536.121 490.284C536.609 490.444 537.025 490.632 537.369 490.848C537.721 491.056 537.989 491.316 538.173 491.628C538.365 491.94 538.461 492.328 538.461 492.792C538.461 493.248 538.345 493.652 538.113 494.004C537.881 494.356 537.557 494.636 537.141 494.844C536.725 495.044 536.241 495.144 535.689 495.144ZM543.4 495.144C542.72 495.144 542.136 494.964 541.648 494.604C541.16 494.244 540.784 493.74 540.52 493.092C540.264 492.436 540.136 491.672 540.136 490.8C540.136 489.928 540.264 489.168 540.52 488.52C540.784 487.864 541.16 487.356 541.648 486.996C542.136 486.636 542.72 486.456 543.4 486.456C544.08 486.456 544.664 486.636 545.152 486.996C545.64 487.356 546.012 487.864 546.268 488.52C546.532 489.168 546.664 489.928 546.664 490.8C546.664 491.672 546.532 492.436 546.268 493.092C546.012 493.74 545.64 494.244 545.152 494.604C544.664 494.964 544.08 495.144 543.4 495.144ZM543.4 494.196C544.064 494.196 544.6 493.9 545.008 493.308C545.424 492.716 545.632 491.88 545.632 490.8C545.632 489.72 545.424 488.884 545.008 488.292C544.6 487.7 544.064 487.404 543.4 487.404C542.728 487.404 542.188 487.7 541.78 488.292C541.372 488.884 541.168 489.72 541.168 490.8C541.168 491.88 541.372 492.716 541.78 493.308C542.188 493.9 542.728 494.196 543.4 494.196ZM551.183 495.144C550.623 495.144 550.123 495.028 549.683 494.796C549.251 494.564 548.907 494.212 548.651 493.74C548.403 493.26 548.279 492.66 548.279 491.94V486.6H549.287V491.976C549.287 492.696 549.463 493.252 549.815 493.644C550.167 494.036 550.631 494.232 551.207 494.232C551.783 494.232 552.243 494.036 552.587 493.644C552.931 493.252 553.103 492.696 553.103 491.976V486.6H554.111V491.94C554.111 492.66 553.983 493.26 553.727 493.74C553.471 494.212 553.123 494.564 552.683 494.796C552.243 495.028 551.743 495.144 551.183 495.144ZM556.375 495V486.6H558.955C559.603 486.6 560.135 486.708 560.551 486.924C560.975 487.14 561.291 487.436 561.499 487.812C561.707 488.18 561.811 488.6 561.811 489.072C561.811 489.624 561.667 490.112 561.379 490.536C561.099 490.952 560.667 491.244 560.083 491.412L561.907 495H560.707L559.015 491.556H558.955H557.383V495H556.375ZM557.383 490.632H558.919C559.559 490.632 560.027 490.488 560.323 490.2C560.627 489.904 560.779 489.528 560.779 489.072C560.779 488.592 560.631 488.212 560.335 487.932C560.047 487.652 559.571 487.512 558.907 487.512H557.383V490.632ZM566.846 495.144C566.166 495.144 565.578 494.964 565.082 494.604C564.594 494.244 564.218 493.74 563.954 493.092C563.698 492.444 563.57 491.68 563.57 490.8C563.57 489.928 563.698 489.168 563.954 488.52C564.218 487.864 564.594 487.356 565.082 486.996C565.578 486.636 566.166 486.456 566.846 486.456C567.71 486.456 568.406 486.696 568.934 487.176C569.462 487.648 569.77 488.28 569.858 489.072H568.742C568.662 488.6 568.462 488.204 568.142 487.884C567.822 487.564 567.39 487.404 566.846 487.404C566.15 487.404 565.602 487.708 565.202 488.316C564.802 488.916 564.602 489.744 564.602 490.8C564.602 491.864 564.802 492.696 565.202 493.296C565.602 493.896 566.15 494.196 566.846 494.196C567.414 494.196 567.85 494.044 568.154 493.74C568.466 493.436 568.662 493.044 568.742 492.564H569.858C569.73 493.364 569.41 493.996 568.898 494.46C568.394 494.916 567.71 495.144 566.846 495.144ZM572.013 495V486.6H577.257V487.512H573.021V490.308H576.897V491.22H573.021V494.088H577.257V495H572.013ZM590.28 495.144C589.728 495.144 589.232 495.044 588.792 494.844C588.36 494.636 588.012 494.336 587.748 493.944C587.484 493.552 587.34 493.072 587.316 492.504H588.348C588.364 492.984 588.54 493.392 588.876 493.728C589.212 494.056 589.68 494.22 590.28 494.22C590.864 494.22 591.316 494.072 591.636 493.776C591.956 493.472 592.116 493.06 592.116 492.54C592.116 492.18 592.024 491.884 591.84 491.652C591.656 491.412 591.408 491.236 591.096 491.124C590.792 491.004 590.452 490.944 590.076 490.944H589.344V490.032H589.98C590.524 490.032 590.956 489.916 591.276 489.684C591.604 489.452 591.768 489.112 591.768 488.664C591.768 488.288 591.636 487.98 591.372 487.74C591.116 487.5 590.748 487.38 590.268 487.38C589.804 487.38 589.428 487.512 589.14 487.776C588.852 488.032 588.688 488.368 588.648 488.784H587.64C587.656 488.328 587.776 487.928 588 487.584C588.224 487.232 588.528 486.956 588.912 486.756C589.304 486.556 589.756 486.456 590.268 486.456C590.82 486.456 591.28 486.552 591.648 486.744C592.024 486.936 592.308 487.196 592.5 487.524C592.692 487.844 592.788 488.2 592.788 488.592C592.788 489.008 592.66 489.376 592.404 489.696C592.148 490.008 591.844 490.228 591.492 490.356V490.428C591.964 490.572 592.356 490.816 592.668 491.16C592.98 491.504 593.136 491.964 593.136 492.54C593.136 493.028 593.02 493.468 592.788 493.86C592.564 494.252 592.236 494.564 591.804 494.796C591.38 495.028 590.872 495.144 590.28 495.144Z" fill="#DAD3D3"/>
<path d="M228 148L228 195" stroke="#565E6F"/>
<path d="M541 333H228" stroke="#565E6F"/>
<path d="M540.646 359.354C540.842 359.549 541.158 359.549 541.354 359.354L544.536 356.172C544.731 355.976 544.731 355.66 544.536 355.464C544.34 355.269 544.024 355.269 543.828 355.464L541 358.293L538.172 355.464C537.976 355.269 537.66 355.269 537.464 355.464C537.269 355.66 537.269 355.976 537.464 356.172L540.646 359.354ZM540.5 279L540.5 359L541.5 359L541.5 279L540.5 279Z" fill="#565E6F"/>
<path d="M386.646 359.354C386.842 359.549 387.158 359.549 387.354 359.354L390.536 356.172C390.731 355.976 390.731 355.66 390.536 355.464C390.34 355.269 390.024 355.269 389.828 355.464L387 358.293L384.172 355.464C383.976 355.269 383.66 355.269 383.464 355.464C383.269 355.66 383.269 355.976 383.464 356.172L386.646 359.354ZM386.5 333L386.5 359L387.5 359L387.5 333L386.5 333Z" fill="#565E6F"/>
<path d="M226.646 359.354C226.842 359.549 227.158 359.549 227.354 359.354L230.536 356.172C230.731 355.976 230.731 355.66 230.536 355.464C230.34 355.269 230.024 355.269 229.828 355.464L227 358.293L224.172 355.464C223.976 355.269 223.66 355.269 223.464 355.464C223.269 355.66 223.269 355.976 223.464 356.172L226.646 359.354ZM226.5 279L226.5 359L227.5 359L227.5 279L226.5 279Z" fill="#565E6F"/>
<path d="M227.354 433.646C227.158 433.451 226.842 433.451 226.646 433.646L223.464 436.828C223.269 437.024 223.269 437.34 223.464 437.536C223.66 437.731 223.976 437.731 224.172 437.536L227 434.707L229.828 437.536C230.024 437.731 230.34 437.731 230.536 437.536C230.731 437.34 230.731 437.024 230.536 436.828L227.354 433.646ZM226.5 434L226.5 473L227.5 473L227.5 434L226.5 434Z" fill="#565E6F"/>
<path d="M387.354 433.646C387.158 433.451 386.842 433.451 386.646 433.646L383.464 436.828C383.269 437.024 383.269 437.34 383.464 437.536C383.66 437.731 383.976 437.731 384.172 437.536L387 434.707L389.828 437.536C390.024 437.731 390.34 437.731 390.536 437.536C390.731 437.34 390.731 437.024 390.536 436.828L387.354 433.646ZM386.5 434L386.5 473L387.5 473L387.5 434L386.5 434Z" fill="#565E6F"/>
<path d="M541.354 433.646C541.158 433.451 540.842 433.451 540.646 433.646L537.464 436.828C537.269 437.024 537.269 437.34 537.464 437.536C537.66 437.731 537.976 437.731 538.172 437.536L541 434.707L543.828 437.536C544.024 437.731 544.34 437.731 544.536 437.536C544.731 437.34 544.731 437.024 544.536 436.828L541.354 433.646ZM540.5 434L540.5 473L541.5 473L541.5 434L540.5 434Z" fill="#565E6F"/>
<rect x="460.5" y="195.5" width="160" height="83" stroke="url(#paint7_linear_1153_302)"/>
<path d="M498.022 220L500.65 211.6H501.814L504.43 220H503.326L502.714 217.912H499.738L499.126 220H498.022ZM501.202 213.016L499.99 217.072H502.462L501.25 213.016H501.202ZM508.937 220.144C508.345 220.144 507.817 219.972 507.353 219.628C506.889 219.276 506.525 218.776 506.261 218.128C506.005 217.48 505.877 216.704 505.877 215.8C505.877 214.904 506.009 214.132 506.273 213.484C506.537 212.836 506.909 212.336 507.389 211.984C507.877 211.632 508.453 211.456 509.117 211.456C509.909 211.456 510.553 211.688 511.049 212.152C511.553 212.616 511.853 213.24 511.949 214.024H510.833C510.753 213.544 510.565 213.156 510.269 212.86C509.981 212.556 509.597 212.404 509.117 212.404C508.429 212.404 507.889 212.704 507.497 213.304C507.105 213.904 506.909 214.736 506.909 215.8C506.909 216.88 507.105 217.716 507.497 218.308C507.889 218.9 508.397 219.196 509.021 219.196C509.469 219.196 509.837 219.064 510.125 218.8C510.413 218.528 510.629 218.184 510.773 217.768C510.925 217.344 511.009 216.908 511.025 216.46H509.153V215.596H512.057V220H511.133L511.049 218.728H511.001C510.833 219.16 510.585 219.504 510.257 219.76C509.937 220.016 509.497 220.144 508.937 220.144ZM514.248 220V211.6H519.492V212.512H515.256V215.308H519.132V216.22H515.256V219.088H519.492V220H514.248ZM521.696 220V211.6H522.728L526.544 218.236V211.6H527.54V220H526.496L522.68 213.364V220H521.696ZM531.903 220V212.512H529.647V211.6H535.167V212.512H532.911V220H531.903ZM540.202 220.144C539.57 220.144 539.01 219.968 538.522 219.616C538.042 219.264 537.666 218.764 537.394 218.116C537.13 217.468 536.998 216.696 536.998 215.8C536.998 214.904 537.13 214.132 537.394 213.484C537.666 212.836 538.042 212.336 538.522 211.984C539.01 211.632 539.57 211.456 540.202 211.456C540.842 211.456 541.402 211.632 541.882 211.984C542.362 212.336 542.734 212.836 542.998 213.484C543.27 214.132 543.406 214.904 543.406 215.8C543.406 216.696 543.27 217.468 542.998 218.116C542.734 218.764 542.362 219.264 541.882 219.616C541.402 219.968 540.842 220.144 540.202 220.144ZM538.03 215.8C538.03 216.344 538.086 216.836 538.198 217.276C538.318 217.708 538.482 218.072 538.69 218.368L541.018 212.596C540.77 212.46 540.498 212.392 540.202 212.392C539.778 212.392 539.402 212.532 539.074 212.812C538.746 213.084 538.49 213.476 538.306 213.988C538.122 214.492 538.03 215.096 538.03 215.8ZM540.202 219.22C540.626 219.22 541.002 219.084 541.33 218.812C541.658 218.532 541.914 218.136 542.098 217.624C542.282 217.112 542.374 216.504 542.374 215.8C542.374 215.256 542.314 214.768 542.194 214.336C542.082 213.896 541.922 213.528 541.714 213.232L539.374 219.016C539.63 219.152 539.906 219.22 540.202 219.22ZM552.985 220V211.6H555.781C556.653 211.6 557.309 211.8 557.749 212.2C558.189 212.6 558.409 213.112 558.409 213.736C558.409 214.224 558.277 214.628 558.013 214.948C557.749 215.26 557.453 215.48 557.125 215.608V215.692C557.517 215.82 557.861 216.052 558.157 216.388C558.453 216.724 558.601 217.156 558.601 217.684C558.601 218.116 558.493 218.508 558.277 218.86C558.069 219.204 557.761 219.48 557.353 219.688C556.953 219.896 556.461 220 555.877 220H552.985ZM553.993 215.224H555.709C556.245 215.224 556.653 215.108 556.933 214.876C557.221 214.636 557.365 214.292 557.365 213.844C557.365 213.42 557.225 213.092 556.945 212.86C556.665 212.628 556.241 212.512 555.673 212.512H553.993V215.224ZM553.993 219.076H555.769C556.345 219.076 556.789 218.948 557.101 218.692C557.413 218.428 557.569 218.06 557.569 217.588C557.569 217.116 557.405 216.752 557.077 216.496C556.749 216.232 556.305 216.1 555.745 216.1H553.993V219.076ZM563.588 220.144C562.908 220.144 562.324 219.964 561.836 219.604C561.348 219.244 560.972 218.74 560.708 218.092C560.452 217.436 560.324 216.672 560.324 215.8C560.324 214.928 560.452 214.168 560.708 213.52C560.972 212.864 561.348 212.356 561.836 211.996C562.324 211.636 562.908 211.456 563.588 211.456C564.268 211.456 564.852 211.636 565.34 211.996C565.828 212.356 566.2 212.864 566.456 213.52C566.72 214.168 566.852 214.928 566.852 215.8C566.852 216.672 566.72 217.436 566.456 218.092C566.2 218.74 565.828 219.244 565.34 219.604C564.852 219.964 564.268 220.144 563.588 220.144ZM563.588 219.196C564.252 219.196 564.788 218.9 565.196 218.308C565.612 217.716 565.82 216.88 565.82 215.8C565.82 214.72 565.612 213.884 565.196 213.292C564.788 212.7 564.252 212.404 563.588 212.404C562.916 212.404 562.376 212.7 561.968 213.292C561.56 213.884 561.356 214.72 561.356 215.8C561.356 216.88 561.56 217.716 561.968 218.308C562.376 218.9 562.916 219.196 563.588 219.196ZM570.88 220V212.512H568.624V211.6H574.144V212.512H571.888V220H570.88ZM579.263 220.144C578.671 220.144 578.155 220.032 577.715 219.808C577.283 219.584 576.947 219.272 576.707 218.872C576.475 218.472 576.355 218.004 576.347 217.468H577.403C577.411 217.948 577.571 218.364 577.883 218.716C578.203 219.06 578.663 219.232 579.263 219.232C579.815 219.232 580.239 219.1 580.535 218.836C580.839 218.564 580.991 218.24 580.991 217.864C580.991 217.552 580.919 217.292 580.775 217.084C580.631 216.868 580.395 216.68 580.067 216.52C579.747 216.352 579.315 216.18 578.771 216.004C578.003 215.772 577.443 215.456 577.091 215.056C576.739 214.656 576.563 214.16 576.563 213.568C576.563 213.168 576.667 212.808 576.875 212.488C577.083 212.168 577.383 211.916 577.775 211.732C578.167 211.548 578.643 211.456 579.203 211.456C579.731 211.456 580.191 211.556 580.583 211.756C580.983 211.948 581.291 212.22 581.507 212.572C581.731 212.924 581.843 213.328 581.843 213.784H580.787C580.787 213.56 580.727 213.34 580.607 213.124C580.487 212.908 580.307 212.728 580.067 212.584C579.827 212.44 579.523 212.368 579.155 212.368C578.715 212.368 578.347 212.476 578.051 212.692C577.755 212.9 577.607 213.188 577.607 213.556C577.607 213.836 577.671 214.072 577.799 214.264C577.935 214.456 578.155 214.632 578.459 214.792C578.763 214.944 579.175 215.108 579.695 215.284C580.183 215.444 580.599 215.632 580.943 215.848C581.295 216.056 581.563 216.316 581.747 216.628C581.939 216.94 582.035 217.328 582.035 217.792C582.035 218.248 581.919 218.652 581.687 219.004C581.455 219.356 581.131 219.636 580.715 219.844C580.299 220.044 579.815 220.144 579.263 220.144ZM506.813 238V229.6H512.057V230.536H507.821V233.464H511.445V234.364H507.821V238H506.813ZM514.5 238V229.6H517.08C517.728 229.6 518.26 229.708 518.676 229.924C519.1 230.14 519.416 230.436 519.624 230.812C519.832 231.18 519.936 231.6 519.936 232.072C519.936 232.624 519.792 233.112 519.504 233.536C519.224 233.952 518.792 234.244 518.208 234.412L520.032 238H518.832L517.14 234.556H517.08H515.508V238H514.5ZM515.508 233.632H517.044C517.684 233.632 518.152 233.488 518.448 233.2C518.752 232.904 518.904 232.528 518.904 232.072C518.904 231.592 518.756 231.212 518.46 230.932C518.172 230.652 517.696 230.512 517.032 230.512H515.508V233.632ZM521.708 238L524.336 229.6H525.5L528.116 238H527.012L526.4 235.912H523.424L522.812 238H521.708ZM524.888 231.016L523.676 235.072H526.148L524.936 231.016H524.888ZM529.707 238V229.6H530.787L532.707 233.596L534.627 229.6H535.707V238H534.723V231.544L533.091 234.94H532.323L530.691 231.556V238H529.707ZM537.934 238V229.6H543.178V230.512H538.942V233.308H542.818V234.22H538.942V237.088H543.178V238H537.934ZM546.006 238L544.722 229.6H545.742L546.594 236.08L547.782 229.6H548.814L550.002 236.08L550.854 229.6H551.874L550.59 238H549.438L548.298 231.544L547.158 238H546.006ZM556.093 238.144C555.413 238.144 554.829 237.964 554.341 237.604C553.853 237.244 553.477 236.74 553.213 236.092C552.957 235.436 552.829 234.672 552.829 233.8C552.829 232.928 552.957 232.168 553.213 231.52C553.477 230.864 553.853 230.356 554.341 229.996C554.829 229.636 555.413 229.456 556.093 229.456C556.773 229.456 557.357 229.636 557.845 229.996C558.333 230.356 558.705 230.864 558.961 231.52C559.225 232.168 559.357 232.928 559.357 233.8C559.357 234.672 559.225 235.436 558.961 236.092C558.705 236.74 558.333 237.244 557.845 237.604C557.357 237.964 556.773 238.144 556.093 238.144ZM556.093 237.196C556.757 237.196 557.293 236.9 557.701 236.308C558.117 235.716 558.325 234.88 558.325 233.8C558.325 232.72 558.117 231.884 557.701 231.292C557.293 230.7 556.757 230.404 556.093 230.404C555.421 230.404 554.881 230.7 554.473 231.292C554.065 231.884 553.861 232.72 553.861 233.8C553.861 234.88 554.065 235.716 554.473 236.308C554.881 236.9 555.421 237.196 556.093 237.196ZM561.272 238V229.6H563.852C564.5 229.6 565.032 229.708 565.448 229.924C565.872 230.14 566.188 230.436 566.396 230.812C566.604 231.18 566.708 231.6 566.708 232.072C566.708 232.624 566.564 233.112 566.276 233.536C565.996 233.952 565.564 234.244 564.98 234.412L566.804 238H565.604L563.912 234.556H563.852H562.28V238H561.272ZM562.28 233.632H563.816C564.456 233.632 564.924 233.488 565.22 233.2C565.524 232.904 565.676 232.528 565.676 232.072C565.676 231.592 565.528 231.212 565.232 230.932C564.944 230.652 564.468 230.512 563.804 230.512H562.28V233.632ZM569.068 238V229.6H570.076V233.512L573.364 229.6H574.648L571.108 233.776V233.824L574.696 238H573.388L570.076 234.148V238H569.068Z" fill="#DAD3D3"/>
<rect x="460.5" y="251.5" width="160" height="27" stroke="url(#paint8_linear_1153_302)"/>
<path d="M510.603 269V260.6H513.183C513.831 260.6 514.363 260.708 514.779 260.924C515.203 261.14 515.519 261.436 515.727 261.812C515.935 262.18 516.039 262.6 516.039 263.072C516.039 263.624 515.895 264.112 515.607 264.536C515.327 264.952 514.895 265.244 514.311 265.412L516.135 269H514.935L513.243 265.556H513.183H511.611V269H510.603ZM511.611 264.632H513.147C513.787 264.632 514.255 264.488 514.551 264.2C514.855 263.904 515.007 263.528 515.007 263.072C515.007 262.592 514.859 262.212 514.563 261.932C514.275 261.652 513.799 261.512 513.135 261.512H511.611V264.632ZM521.002 269.144C520.442 269.144 519.942 269.028 519.502 268.796C519.07 268.564 518.726 268.212 518.47 267.74C518.222 267.26 518.098 266.66 518.098 265.94V260.6H519.106V265.976C519.106 266.696 519.282 267.252 519.634 267.644C519.986 268.036 520.45 268.232 521.026 268.232C521.602 268.232 522.062 268.036 522.406 267.644C522.75 267.252 522.922 266.696 522.922 265.976V260.6H523.93V265.94C523.93 266.66 523.802 267.26 523.546 267.74C523.29 268.212 522.942 268.564 522.502 268.796C522.062 269.028 521.562 269.144 521.002 269.144ZM528.893 269.144C528.301 269.144 527.785 269.032 527.345 268.808C526.913 268.584 526.577 268.272 526.337 267.872C526.105 267.472 525.985 267.004 525.977 266.468H527.033C527.041 266.948 527.201 267.364 527.513 267.716C527.833 268.06 528.293 268.232 528.893 268.232C529.445 268.232 529.869 268.1 530.165 267.836C530.469 267.564 530.621 267.24 530.621 266.864C530.621 266.552 530.549 266.292 530.405 266.084C530.261 265.868 530.025 265.68 529.697 265.52C529.377 265.352 528.945 265.18 528.401 265.004C527.633 264.772 527.073 264.456 526.721 264.056C526.369 263.656 526.193 263.16 526.193 262.568C526.193 262.168 526.297 261.808 526.505 261.488C526.713 261.168 527.013 260.916 527.405 260.732C527.797 260.548 528.273 260.456 528.833 260.456C529.361 260.456 529.821 260.556 530.213 260.756C530.613 260.948 530.921 261.22 531.137 261.572C531.361 261.924 531.473 262.328 531.473 262.784H530.417C530.417 262.56 530.357 262.34 530.237 262.124C530.117 261.908 529.937 261.728 529.697 261.584C529.457 261.44 529.153 261.368 528.785 261.368C528.345 261.368 527.977 261.476 527.681 261.692C527.385 261.9 527.237 262.188 527.237 262.556C527.237 262.836 527.301 263.072 527.429 263.264C527.565 263.456 527.785 263.632 528.089 263.792C528.393 263.944 528.805 264.108 529.325 264.284C529.813 264.444 530.229 264.632 530.573 264.848C530.925 265.056 531.193 265.316 531.377 265.628C531.569 265.94 531.665 266.328 531.665 266.792C531.665 267.248 531.549 267.652 531.317 268.004C531.085 268.356 530.761 268.636 530.345 268.844C529.929 269.044 529.445 269.144 528.893 269.144ZM536.101 269V261.512H533.845V260.6H539.365V261.512H537.109V269H536.101ZM552.279 269.144C551.687 269.144 551.171 269.032 550.731 268.808C550.299 268.584 549.963 268.272 549.723 267.872C549.491 267.472 549.371 267.004 549.363 266.468H550.419C550.427 266.948 550.587 267.364 550.899 267.716C551.219 268.06 551.679 268.232 552.279 268.232C552.831 268.232 553.255 268.1 553.551 267.836C553.855 267.564 554.007 267.24 554.007 266.864C554.007 266.552 553.935 266.292 553.791 266.084C553.647 265.868 553.411 265.68 553.083 265.52C552.763 265.352 552.331 265.18 551.787 265.004C551.019 264.772 550.459 264.456 550.107 264.056C549.755 263.656 549.579 263.16 549.579 262.568C549.579 262.168 549.683 261.808 549.891 261.488C550.099 261.168 550.399 260.916 550.791 260.732C551.183 260.548 551.659 260.456 552.219 260.456C552.747 260.456 553.207 260.556 553.599 260.756C553.999 260.948 554.307 261.22 554.523 261.572C554.747 261.924 554.859 262.328 554.859 262.784H553.803C553.803 262.56 553.743 262.34 553.623 262.124C553.503 261.908 553.323 261.728 553.083 261.584C552.843 261.44 552.539 261.368 552.171 261.368C551.731 261.368 551.363 261.476 551.067 261.692C550.771 261.9 550.623 262.188 550.623 262.556C550.623 262.836 550.687 263.072 550.815 263.264C550.951 263.456 551.171 263.632 551.475 263.792C551.779 263.944 552.191 264.108 552.711 264.284C553.199 264.444 553.615 264.632 553.959 264.848C554.311 265.056 554.579 265.316 554.763 265.628C554.955 265.94 555.051 266.328 555.051 266.792C555.051 267.248 554.935 267.652 554.703 268.004C554.471 268.356 554.147 268.636 553.731 268.844C553.315 269.044 552.831 269.144 552.279 269.144ZM557.183 269V260.6H558.947C560.323 260.6 561.339 260.976 561.995 261.728C562.659 262.48 562.991 263.504 562.991 264.8C562.991 266.096 562.659 267.12 561.995 267.872C561.339 268.624 560.323 269 558.947 269H557.183ZM558.191 268.076H558.923C559.659 268.076 560.247 267.94 560.687 267.668C561.135 267.396 561.459 267.016 561.659 266.528C561.859 266.04 561.959 265.464 561.959 264.8C561.959 264.136 561.859 263.56 561.659 263.072C561.459 262.584 561.135 262.204 560.687 261.932C560.247 261.66 559.659 261.524 558.923 261.524H558.191V268.076ZM565.17 269V260.6H566.178V264.512L569.466 260.6H570.75L567.21 264.776V264.824L570.798 269H569.49L566.178 265.148V269H565.17Z" fill="#DAD3D3"/>
<rect x="147.5" y="252.5" width="160" height="27" stroke="url(#paint9_linear_1153_302)"/>
<path d="M197.603 270V261.6H200.183C200.831 261.6 201.363 261.708 201.779 261.924C202.203 262.14 202.519 262.436 202.727 262.812C202.935 263.18 203.039 263.6 203.039 264.072C203.039 264.624 202.895 265.112 202.607 265.536C202.327 265.952 201.895 266.244 201.311 266.412L203.135 270H201.935L200.243 266.556H200.183H198.611V270H197.603ZM198.611 265.632H200.147C200.787 265.632 201.255 265.488 201.551 265.2C201.855 264.904 202.007 264.528 202.007 264.072C202.007 263.592 201.859 263.212 201.563 262.932C201.275 262.652 200.799 262.512 200.135 262.512H198.611V265.632ZM208.002 270.144C207.442 270.144 206.942 270.028 206.502 269.796C206.07 269.564 205.726 269.212 205.47 268.74C205.222 268.26 205.098 267.66 205.098 266.94V261.6H206.106V266.976C206.106 267.696 206.282 268.252 206.634 268.644C206.986 269.036 207.45 269.232 208.026 269.232C208.602 269.232 209.062 269.036 209.406 268.644C209.75 268.252 209.922 267.696 209.922 266.976V261.6H210.93V266.94C210.93 267.66 210.802 268.26 210.546 268.74C210.29 269.212 209.942 269.564 209.502 269.796C209.062 270.028 208.562 270.144 208.002 270.144ZM215.893 270.144C215.301 270.144 214.785 270.032 214.345 269.808C213.913 269.584 213.577 269.272 213.337 268.872C213.105 268.472 212.985 268.004 212.977 267.468H214.033C214.041 267.948 214.201 268.364 214.513 268.716C214.833 269.06 215.293 269.232 215.893 269.232C216.445 269.232 216.869 269.1 217.165 268.836C217.469 268.564 217.621 268.24 217.621 267.864C217.621 267.552 217.549 267.292 217.405 267.084C217.261 266.868 217.025 266.68 216.697 266.52C216.377 266.352 215.945 266.18 215.401 266.004C214.633 265.772 214.073 265.456 213.721 265.056C213.369 264.656 213.193 264.16 213.193 263.568C213.193 263.168 213.297 262.808 213.505 262.488C213.713 262.168 214.013 261.916 214.405 261.732C214.797 261.548 215.273 261.456 215.833 261.456C216.361 261.456 216.821 261.556 217.213 261.756C217.613 261.948 217.921 262.22 218.137 262.572C218.361 262.924 218.473 263.328 218.473 263.784H217.417C217.417 263.56 217.357 263.34 217.237 263.124C217.117 262.908 216.937 262.728 216.697 262.584C216.457 262.44 216.153 262.368 215.785 262.368C215.345 262.368 214.977 262.476 214.681 262.692C214.385 262.9 214.237 263.188 214.237 263.556C214.237 263.836 214.301 264.072 214.429 264.264C214.565 264.456 214.785 264.632 215.089 264.792C215.393 264.944 215.805 265.108 216.325 265.284C216.813 265.444 217.229 265.632 217.573 265.848C217.925 266.056 218.193 266.316 218.377 266.628C218.569 266.94 218.665 267.328 218.665 267.792C218.665 268.248 218.549 268.652 218.317 269.004C218.085 269.356 217.761 269.636 217.345 269.844C216.929 270.044 216.445 270.144 215.893 270.144ZM223.101 270V262.512H220.845V261.6H226.365V262.512H224.109V270H223.101ZM239.279 270.144C238.687 270.144 238.171 270.032 237.731 269.808C237.299 269.584 236.963 269.272 236.723 268.872C236.491 268.472 236.371 268.004 236.363 267.468H237.419C237.427 267.948 237.587 268.364 237.899 268.716C238.219 269.06 238.679 269.232 239.279 269.232C239.831 269.232 240.255 269.1 240.551 268.836C240.855 268.564 241.007 268.24 241.007 267.864C241.007 267.552 240.935 267.292 240.791 267.084C240.647 266.868 240.411 266.68 240.083 266.52C239.763 266.352 239.331 266.18 238.787 266.004C238.019 265.772 237.459 265.456 237.107 265.056C236.755 264.656 236.579 264.16 236.579 263.568C236.579 263.168 236.683 262.808 236.891 262.488C237.099 262.168 237.399 261.916 237.791 261.732C238.183 261.548 238.659 261.456 239.219 261.456C239.747 261.456 240.207 261.556 240.599 261.756C240.999 261.948 241.307 262.22 241.523 262.572C241.747 262.924 241.859 263.328 241.859 263.784H240.803C240.803 263.56 240.743 263.34 240.623 263.124C240.503 262.908 240.323 262.728 240.083 262.584C239.843 262.44 239.539 262.368 239.171 262.368C238.731 262.368 238.363 262.476 238.067 262.692C237.771 262.9 237.623 263.188 237.623 263.556C237.623 263.836 237.687 264.072 237.815 264.264C237.951 264.456 238.171 264.632 238.475 264.792C238.779 264.944 239.191 265.108 239.711 265.284C240.199 265.444 240.615 265.632 240.959 265.848C241.311 266.056 241.579 266.316 241.763 266.628C241.955 266.94 242.051 267.328 242.051 267.792C242.051 268.248 241.935 268.652 241.703 269.004C241.471 269.356 241.147 269.636 240.731 269.844C240.315 270.044 239.831 270.144 239.279 270.144ZM244.183 270V261.6H245.947C247.323 261.6 248.339 261.976 248.995 262.728C249.659 263.48 249.991 264.504 249.991 265.8C249.991 267.096 249.659 268.12 248.995 268.872C248.339 269.624 247.323 270 245.947 270H244.183ZM245.191 269.076H245.923C246.659 269.076 247.247 268.94 247.687 268.668C248.135 268.396 248.459 268.016 248.659 267.528C248.859 267.04 248.959 266.464 248.959 265.8C248.959 265.136 248.859 264.56 248.659 264.072C248.459 263.584 248.135 263.204 247.687 262.932C247.247 262.66 246.659 262.524 245.923 262.524H245.191V269.076ZM252.17 270V261.6H253.178V265.512L256.466 261.6H257.75L254.21 265.776V265.824L257.798 270H256.49L253.178 266.148V270H252.17Z" fill="#DAD3D3"/>
<rect x="147.5" y="196.5" width="160" height="56" stroke="url(#paint10_linear_1153_302)"/>
<path d="M174.096 228.5V221.012H171.84V220.1H177.36V221.012H175.104V228.5H174.096ZM181.891 228.5V225.2L179.167 220.1H180.307L182.395 224.18L184.483 220.1H185.623L182.899 225.2V228.5H181.891ZM187.479 228.5V220.1H190.275C190.915 220.1 191.439 220.216 191.847 220.448C192.255 220.68 192.555 220.988 192.747 221.372C192.939 221.756 193.035 222.18 193.035 222.644C193.035 223.108 192.939 223.532 192.747 223.916C192.555 224.3 192.255 224.608 191.847 224.84C191.439 225.072 190.915 225.188 190.275 225.188H188.487V228.5H187.479ZM188.487 224.264H190.251C190.843 224.264 191.283 224.116 191.571 223.82C191.859 223.516 192.003 223.124 192.003 222.644C192.003 222.164 191.859 221.772 191.571 221.468C191.283 221.164 190.843 221.012 190.251 221.012H188.487V224.264ZM195.418 228.5V220.1H200.662V221.012H196.426V223.808H200.302V224.72H196.426V227.588H200.662V228.5H195.418ZM205.865 228.644C205.273 228.644 204.757 228.532 204.317 228.308C203.885 228.084 203.549 227.772 203.309 227.372C203.077 226.972 202.957 226.504 202.949 225.968H204.005C204.013 226.448 204.173 226.864 204.485 227.216C204.805 227.56 205.265 227.732 205.865 227.732C206.417 227.732 206.841 227.6 207.137 227.336C207.441 227.064 207.593 226.74 207.593 226.364C207.593 226.052 207.521 225.792 207.377 225.584C207.233 225.368 206.997 225.18 206.669 225.02C206.349 224.852 205.917 224.68 205.373 224.504C204.605 224.272 204.045 223.956 203.693 223.556C203.341 223.156 203.165 222.66 203.165 222.068C203.165 221.668 203.269 221.308 203.477 220.988C203.685 220.668 203.985 220.416 204.377 220.232C204.769 220.048 205.245 219.956 205.805 219.956C206.333 219.956 206.793 220.056 207.185 220.256C207.585 220.448 207.893 220.72 208.109 221.072C208.333 221.424 208.445 221.828 208.445 222.284H207.389C207.389 222.06 207.329 221.84 207.209 221.624C207.089 221.408 206.909 221.228 206.669 221.084C206.429 220.94 206.125 220.868 205.757 220.868C205.317 220.868 204.949 220.976 204.653 221.192C204.357 221.4 204.209 221.688 204.209 222.056C204.209 222.336 204.273 222.572 204.401 222.764C204.537 222.956 204.757 223.132 205.061 223.292C205.365 223.444 205.777 223.608 206.297 223.784C206.785 223.944 207.201 224.132 207.545 224.348C207.897 224.556 208.165 224.816 208.349 225.128C208.541 225.44 208.637 225.828 208.637 226.292C208.637 226.748 208.521 227.152 208.289 227.504C208.057 227.856 207.733 228.136 207.317 228.344C206.901 228.544 206.417 228.644 205.865 228.644ZM213.637 228.644C212.957 228.644 212.369 228.464 211.873 228.104C211.385 227.744 211.009 227.24 210.745 226.592C210.489 225.944 210.361 225.18 210.361 224.3C210.361 223.428 210.489 222.668 210.745 222.02C211.009 221.364 211.385 220.856 211.873 220.496C212.369 220.136 212.957 219.956 213.637 219.956C214.501 219.956 215.197 220.196 215.725 220.676C216.253 221.148 216.561 221.78 216.649 222.572H215.533C215.453 222.1 215.253 221.704 214.933 221.384C214.613 221.064 214.181 220.904 213.637 220.904C212.941 220.904 212.393 221.208 211.993 221.816C211.593 222.416 211.393 223.244 211.393 224.3C211.393 225.364 211.593 226.196 211.993 226.796C212.393 227.396 212.941 227.696 213.637 227.696C214.205 227.696 214.641 227.544 214.945 227.24C215.257 226.936 215.453 226.544 215.533 226.064H216.649C216.521 226.864 216.201 227.496 215.689 227.96C215.185 228.416 214.501 228.644 213.637 228.644ZM218.756 228.5V220.1H221.336C221.984 220.1 222.516 220.208 222.932 220.424C223.356 220.64 223.672 220.936 223.88 221.312C224.088 221.68 224.192 222.1 224.192 222.572C224.192 223.124 224.048 223.612 223.76 224.036C223.48 224.452 223.048 224.744 222.464 224.912L224.288 228.5H223.088L221.396 225.056H221.336H219.764V228.5H218.756ZM219.764 224.132H221.3C221.94 224.132 222.408 223.988 222.704 223.7C223.008 223.404 223.16 223.028 223.16 222.572C223.16 222.092 223.012 221.712 222.716 221.432C222.428 221.152 221.952 221.012 221.288 221.012H219.764V224.132ZM226.755 228.5V227.624H228.663V220.976H226.755V220.1H231.579V220.976H229.671V227.624H231.579V228.5H226.755ZM234.25 228.5V220.1H237.046C237.686 220.1 238.21 220.216 238.618 220.448C239.026 220.68 239.326 220.988 239.518 221.372C239.71 221.756 239.806 222.18 239.806 222.644C239.806 223.108 239.71 223.532 239.518 223.916C239.326 224.3 239.026 224.608 238.618 224.84C238.21 225.072 237.686 225.188 237.046 225.188H235.258V228.5H234.25ZM235.258 224.264H237.022C237.614 224.264 238.054 224.116 238.342 223.82C238.63 223.516 238.774 223.124 238.774 222.644C238.774 222.164 238.63 221.772 238.342 221.468C238.054 221.164 237.614 221.012 237.022 221.012H235.258V224.264ZM244.254 228.5V221.012H241.998V220.1H247.518V221.012H245.262V228.5H244.254ZM260.432 228.644C259.84 228.644 259.324 228.532 258.884 228.308C258.452 228.084 258.116 227.772 257.876 227.372C257.644 226.972 257.524 226.504 257.516 225.968H258.572C258.58 226.448 258.74 226.864 259.052 227.216C259.372 227.56 259.832 227.732 260.432 227.732C260.984 227.732 261.408 227.6 261.704 227.336C262.008 227.064 262.16 226.74 262.16 226.364C262.16 226.052 262.088 225.792 261.944 225.584C261.8 225.368 261.564 225.18 261.236 225.02C260.916 224.852 260.484 224.68 259.94 224.504C259.172 224.272 258.612 223.956 258.26 223.556C257.908 223.156 257.732 222.66 257.732 222.068C257.732 221.668 257.836 221.308 258.044 220.988C258.252 220.668 258.552 220.416 258.944 220.232C259.336 220.048 259.812 219.956 260.372 219.956C260.9 219.956 261.36 220.056 261.752 220.256C262.152 220.448 262.46 220.72 262.676 221.072C262.9 221.424 263.012 221.828 263.012 222.284H261.956C261.956 222.06 261.896 221.84 261.776 221.624C261.656 221.408 261.476 221.228 261.236 221.084C260.996 220.94 260.692 220.868 260.324 220.868C259.884 220.868 259.516 220.976 259.22 221.192C258.924 221.4 258.776 221.688 258.776 222.056C258.776 222.336 258.84 222.572 258.968 222.764C259.104 222.956 259.324 223.132 259.628 223.292C259.932 223.444 260.344 223.608 260.864 223.784C261.352 223.944 261.768 224.132 262.112 224.348C262.464 224.556 262.732 224.816 262.916 225.128C263.108 225.44 263.204 225.828 263.204 226.292C263.204 226.748 263.088 227.152 262.856 227.504C262.624 227.856 262.3 228.136 261.884 228.344C261.468 228.544 260.984 228.644 260.432 228.644ZM265.336 228.5V220.1H267.1C268.476 220.1 269.492 220.476 270.148 221.228C270.812 221.98 271.144 223.004 271.144 224.3C271.144 225.596 270.812 226.62 270.148 227.372C269.492 228.124 268.476 228.5 267.1 228.5H265.336ZM266.344 227.576H267.076C267.812 227.576 268.4 227.44 268.84 227.168C269.288 226.896 269.612 226.516 269.812 226.028C270.012 225.54 270.112 224.964 270.112 224.3C270.112 223.636 270.012 223.06 269.812 222.572C269.612 222.084 269.288 221.704 268.84 221.432C268.4 221.16 267.812 221.024 267.076 221.024H266.344V227.576ZM273.323 228.5V220.1H274.331V224.012L277.619 220.1H278.903L275.363 224.276V224.324L278.951 228.5H277.643L274.331 224.648V228.5H273.323Z" fill="#DAD3D3"/>
<defs>
<linearGradient id="paint0_linear_1153_302" x1="146" y1="105.776" x2="307" y2="105.776" gradientUnits="userSpaceOnUse">
<stop stop-color="white"/>
<stop offset="0.0001" stop-color="#D3FEF0"/>
<stop offset="0.0002" stop-color="#50FFC4"/>
<stop offset="1" stop-color="#F3F3F3"/>
</linearGradient>
<linearGradient id="paint1_linear_1153_302" x1="177" y1="395.829" x2="276" y2="395.829" gradientUnits="userSpaceOnUse">
<stop stop-color="white"/>
<stop offset="0.0001" stop-color="#D3FEF0"/>
<stop offset="0.0002" stop-color="#50FFC4"/>
<stop offset="1" stop-color="#F3F3F3"/>
</linearGradient>
<linearGradient id="paint2_linear_1153_302" x1="491" y1="395.829" x2="590" y2="395.829" gradientUnits="userSpaceOnUse">
<stop stop-color="white"/>
<stop offset="0.0001" stop-color="#D3FEF0"/>
<stop offset="0.0002" stop-color="#50FFC4"/>
<stop offset="1" stop-color="#F3F3F3"/>
</linearGradient>
<linearGradient id="paint3_linear_1153_302" x1="334" y1="395.829" x2="433" y2="395.829" gradientUnits="userSpaceOnUse">
<stop stop-color="white"/>
<stop offset="0.0001" stop-color="#D3FEF0"/>
<stop offset="0.0002" stop-color="#50FFC4"/>
<stop offset="1" stop-color="#F3F3F3"/>
</linearGradient>
<linearGradient id="paint4_linear_1153_302" x1="163" y1="490.909" x2="292" y2="490.909" gradientUnits="userSpaceOnUse">
<stop stop-color="white"/>
<stop offset="0.0001" stop-color="#D3FEF0"/>
<stop offset="0.0002" stop-color="#50FFC4"/>
<stop offset="1" stop-color="#F3F3F3"/>
</linearGradient>
<linearGradient id="paint5_linear_1153_302" x1="319" y1="490.909" x2="448" y2="490.909" gradientUnits="userSpaceOnUse">
<stop stop-color="white"/>
<stop offset="0.0001" stop-color="#D3FEF0"/>
<stop offset="0.0002" stop-color="#50FFC4"/>
<stop offset="1" stop-color="#F3F3F3"/>
</linearGradient>
<linearGradient id="paint6_linear_1153_302" x1="475" y1="490.909" x2="604" y2="490.909" gradientUnits="userSpaceOnUse">
<stop stop-color="white"/>
<stop offset="0.0001" stop-color="#D3FEF0"/>
<stop offset="0.0002" stop-color="#50FFC4"/>
<stop offset="1" stop-color="#F3F3F3"/>
</linearGradient>
<linearGradient id="paint7_linear_1153_302" x1="460" y1="236.776" x2="621" y2="236.776" gradientUnits="userSpaceOnUse">
<stop stop-color="white"/>
<stop offset="0.0001" stop-color="#D3FEF0"/>
<stop offset="0.0002" stop-color="#50FFC4"/>
<stop offset="1" stop-color="#F3F3F3"/>
</linearGradient>
<linearGradient id="paint8_linear_1153_302" x1="460" y1="264.925" x2="621" y2="264.925" gradientUnits="userSpaceOnUse">
<stop stop-color="white"/>
<stop offset="0.0001" stop-color="#D3FEF0"/>
<stop offset="0.0002" stop-color="#50FFC4"/>
<stop offset="1" stop-color="#F3F3F3"/>
</linearGradient>
<linearGradient id="paint9_linear_1153_302" x1="147" y1="265.925" x2="308" y2="265.925" gradientUnits="userSpaceOnUse">
<stop stop-color="white"/>
<stop offset="0.0001" stop-color="#D3FEF0"/>
<stop offset="0.0002" stop-color="#50FFC4"/>
<stop offset="1" stop-color="#F3F3F3"/>
</linearGradient>
<linearGradient id="paint10_linear_1153_302" x1="147" y1="224.348" x2="308" y2="224.348" gradientUnits="userSpaceOnUse">
<stop stop-color="white"/>
<stop offset="0.0001" stop-color="#D3FEF0"/>
<stop offset="0.0002" stop-color="#50FFC4"/>
<stop offset="1" stop-color="#F3F3F3"/>
</linearGradient>
</defs>
</svg>
