<svg width="126" height="41" viewBox="0 0 126 41" fill="none" xmlns="http://www.w3.org/2000/svg">
<mask id="mask0_2_7798" style="mask-type:luminance" maskUnits="userSpaceOnUse" x="0" y="0" width="40" height="41">
<path d="M40 0.865234H0V40.8652H40V0.865234Z" fill="white"/>
</mask>
<g mask="url(#mask0_2_7798)">
<path d="M20 40.8652C31.0457 40.8652 40 31.911 40 20.8652C40 9.81954 31.0457 0.865234 20 0.865234C8.95431 0.865234 0 9.81954 0 20.8652C0 31.911 8.95431 40.8652 20 40.8652Z" fill="#2470FF"/>
<path opacity="0.8" d="M11.6587 24.5051V30.4617C11.6587 30.8285 11.969 30.9807 12.0656 31.0152C12.1621 31.0568 12.4863 31.1467 12.7759 30.8769L17.2821 26.5464C17.6659 26.1776 18.0363 25.79 18.3147 25.3365C18.4456 25.1233 18.4999 25.0032 18.4999 25.0032C18.7759 24.4428 18.7759 23.9032 18.5068 23.3635C18.1069 22.5609 17.0861 21.7445 15.5483 20.9697L12.9207 22.4364C12.1415 22.8792 11.6587 23.6611 11.6587 24.5051Z" fill="white"/>
<path d="M9.06836 11.2564V17.5037C9.06836 18.2855 9.59249 18.9773 10.3373 19.1987C12.8752 19.932 17.2957 21.5095 18.3648 23.8271C18.5025 24.1315 18.5853 24.4291 18.613 24.7403C19.3234 23.4465 19.6474 21.9591 19.4958 20.4509C19.2888 18.3131 18.1577 16.3691 16.3924 15.1307L10.0959 10.7237C9.98557 10.6406 9.85455 10.5991 9.72352 10.5991C9.61317 10.5991 9.51663 10.6199 9.41319 10.6752C9.20628 10.7928 9.06836 11.0073 9.06836 11.2564Z" fill="white"/>
<path opacity="0.8" d="M28.4196 24.5051V30.4617C28.4196 30.8285 28.1093 30.9807 28.0127 31.0152C27.9163 31.0568 27.5919 31.1467 27.3024 30.8769L22.6912 26.4457C22.3773 26.144 22.0776 25.8249 21.8412 25.4593C21.6539 25.1699 21.5784 25.0032 21.5784 25.0032C21.3025 24.4428 21.3025 23.9032 21.5713 23.3635C21.9715 22.5609 22.9921 21.7445 24.5299 20.9697L27.1575 22.4364C27.9437 22.8792 28.4196 23.6611 28.4196 24.5051Z" fill="white"/>
<path d="M31.0132 11.2559V17.5032C31.0132 18.285 30.4889 18.9768 29.7441 19.1982C27.2062 19.9316 22.7858 21.509 21.7168 23.8266C21.5788 24.131 21.496 24.4285 21.4685 24.7398C20.7581 23.4461 20.4341 21.9586 20.5857 20.4505C20.7925 18.3126 21.9236 16.3686 23.6892 15.1302L29.9856 10.7232C30.096 10.6401 30.2269 10.5986 30.358 10.5986C30.4682 10.5986 30.5649 10.6194 30.6681 10.6747C30.8752 10.7924 31.0132 11.0068 31.0132 11.2559Z" fill="white"/>
</g>
<path d="M52.7119 13.3689H54.3463L59.9683 26.8677H60.1045L65.7264 13.3689H67.3608V28.8652H66.0291V16.3577H65.908L60.6795 28.8652H59.3932L54.1647 16.3577H54.0436V28.8652H52.7119V13.3689ZM75.4837 29.1074C74.4799 29.1074 73.592 28.8526 72.8203 28.3431C72.0535 27.8337 71.4532 27.13 71.0194 26.2321C70.5856 25.3291 70.3687 24.2875 70.3687 23.1071C70.3687 21.9166 70.5856 20.8699 71.0194 19.9669C71.4532 19.059 72.0535 18.3527 72.8203 17.8483C73.592 17.3388 74.4799 17.0841 75.4837 17.0841C76.4875 17.0841 77.3728 17.3388 78.1396 17.8483C78.9063 18.3578 79.5066 19.064 79.9404 19.9669C80.3793 20.8699 80.5987 21.9166 80.5987 23.1071C80.5987 24.2875 80.3818 25.3291 79.948 26.2321C79.5141 27.13 78.9113 27.8337 78.1396 28.3431C77.3728 28.8526 76.4875 29.1074 75.4837 29.1074ZM75.4837 27.874C76.2908 27.874 76.9743 27.6571 77.5342 27.2233C78.0942 26.7895 78.5179 26.2119 78.8054 25.4905C79.098 24.7692 79.2443 23.9747 79.2443 23.1071C79.2443 22.2394 79.098 21.4424 78.8054 20.716C78.5179 19.9896 78.0942 19.407 77.5342 18.9682C76.9743 18.5293 76.2908 18.3099 75.4837 18.3099C74.6816 18.3099 73.9981 18.5293 73.4331 18.9682C72.8732 19.407 72.447 19.9896 72.1544 20.716C71.8669 21.4424 71.7231 22.2394 71.7231 23.1071C71.7231 23.9747 71.8669 24.7692 72.1544 25.4905C72.447 26.2119 72.8732 26.7895 73.4331 27.2233C73.9931 27.6571 74.6766 27.874 75.4837 27.874ZM83.3209 28.8652V17.243H84.63V19.0287H84.7283C84.9604 18.4435 85.3639 17.9719 85.939 17.6137C86.5191 17.2506 87.1748 17.069 87.9063 17.069C88.0173 17.069 88.1408 17.0715 88.277 17.0765C88.4132 17.0816 88.5267 17.0866 88.6175 17.0917V18.4612C88.557 18.4511 88.4511 18.436 88.2997 18.4158C88.1484 18.3956 87.9845 18.3855 87.8079 18.3855C87.2026 18.3855 86.6628 18.5142 86.1887 18.7714C85.7195 19.0236 85.3488 19.3742 85.0764 19.8232C84.804 20.2721 84.6678 20.7841 84.6678 21.3592V28.8652H83.3209ZM90.6815 33.2236V17.243H91.9905V19.46H92.1494C92.3108 19.1119 92.5328 18.7563 92.8153 18.3931C93.0978 18.0249 93.471 17.7146 93.9351 17.4624C94.4043 17.2102 94.9945 17.0841 95.7057 17.0841C96.6641 17.0841 97.5015 17.3363 98.2178 17.8407C98.9392 18.3401 99.4991 19.0413 99.8976 19.9442C100.301 20.8421 100.503 21.8889 100.503 23.0844C100.503 24.2849 100.301 25.3367 99.8976 26.2396C99.4991 27.1426 98.9392 27.8463 98.2178 28.3507C97.5015 28.8551 96.6692 29.1074 95.7208 29.1074C95.0197 29.1074 94.432 28.9813 93.9578 28.729C93.4887 28.4768 93.1079 28.1666 92.8153 27.7983C92.5277 27.4251 92.3058 27.0619 92.1494 26.7088H92.0284V33.2236H90.6815ZM92.0132 23.0617C92.0132 23.9999 92.1519 24.8323 92.4294 25.5586C92.7119 26.28 93.1154 26.8475 93.64 27.2611C94.1697 27.6697 94.8103 27.874 95.5619 27.874C96.3337 27.874 96.9845 27.6621 97.5141 27.2384C98.0488 26.8096 98.4549 26.2321 98.7323 25.5057C99.0148 24.7793 99.1561 23.9646 99.1561 23.0617C99.1561 22.1688 99.0173 21.3642 98.7399 20.6479C98.4675 19.9316 98.064 19.3641 97.5293 18.9455C96.9945 18.5217 96.3388 18.3099 95.5619 18.3099C94.8053 18.3099 94.1621 18.5142 93.6325 18.9228C93.1028 19.3263 92.6993 19.8862 92.4218 20.6025C92.1494 21.3138 92.0132 22.1335 92.0132 23.0617ZM104.57 21.6013V28.8652H103.223V13.3689H104.57V19.0665H104.691C104.964 18.4662 105.385 17.987 105.955 17.6289C106.53 17.2707 107.256 17.0917 108.134 17.0917C108.921 17.0917 109.612 17.2531 110.207 17.5759C110.802 17.8988 111.267 18.3754 111.599 19.006C111.932 19.6365 112.099 20.4134 112.099 21.3365V28.8652H110.744V21.4197C110.744 20.4613 110.477 19.7072 109.942 19.1573C109.413 18.6024 108.696 18.325 107.793 18.325C107.173 18.325 106.621 18.4562 106.136 18.7185C105.652 18.9808 105.269 19.3591 104.986 19.8535C104.709 20.3428 104.57 20.9254 104.57 21.6013ZM119.929 29.1074C118.925 29.1074 118.037 28.8526 117.265 28.3431C116.498 27.8337 115.898 27.13 115.464 26.2321C115.03 25.3291 114.814 24.2875 114.814 23.1071C114.814 21.9166 115.03 20.8699 115.464 19.9669C115.898 19.059 116.498 18.3527 117.265 17.8483C118.037 17.3388 118.925 17.0841 119.929 17.0841C120.932 17.0841 121.818 17.3388 122.584 17.8483C123.351 18.3578 123.951 19.064 124.385 19.9669C124.824 20.8699 125.044 21.9166 125.044 23.1071C125.044 24.2875 124.827 25.3291 124.393 26.2321C123.959 27.13 123.356 27.8337 122.584 28.3431C121.818 28.8526 120.932 29.1074 119.929 29.1074ZM119.929 27.874C120.736 27.874 121.419 27.6571 121.979 27.2233C122.539 26.7895 122.963 26.2119 123.25 25.4905C123.543 24.7692 123.689 23.9747 123.689 23.1071C123.689 22.2394 123.543 21.4424 123.25 20.716C122.963 19.9896 122.539 19.407 121.979 18.9682C121.419 18.5293 120.736 18.3099 119.929 18.3099C119.126 18.3099 118.443 18.5293 117.878 18.9682C117.318 19.407 116.892 19.9896 116.599 20.716C116.312 21.4424 116.168 22.2394 116.168 23.1071C116.168 23.9747 116.312 24.7692 116.599 25.4905C116.892 26.2119 117.318 26.7895 117.878 27.2233C118.438 27.6571 119.121 27.874 119.929 27.874Z" fill="white"/>
</svg>
