<svg width="326" height="36" viewBox="0 0 326 36" fill="none" xmlns="http://www.w3.org/2000/svg">
<path d="M0 10.5754H5.69497C10.5651 10.5754 13.9321 13.8135 13.9321 18.1619C13.9321 22.5104 10.5616 25.7914 5.69497 25.7914H0V10.5754ZM4.54526 23.0102H5.69854C8.87272 23.0102 10.8508 21.0109 10.8508 18.1619C10.8508 15.3165 8.87272 13.3601 5.69854 13.3601H3.04565V25.6414L4.54526 23.0102Z" fill="white"/>
<path d="M22.0983 10.5754H32.0529V13.3565H25.1404V19.183L26.6186 16.5947H31.728V19.333H25.1404V23.0067H32.16V25.7878H22.0947V10.5754H22.0983Z" fill="white"/>
<path d="M40.7541 10.5754H43.7962V25.6379L45.2958 23.0067H50.7087V25.7878H40.7541V10.5754Z" fill="white"/>
<path d="M55.019 10.5754H58.236L62.235 21.8785L66.084 10.5754H69.3011L65.3664 22.1177H62.2993L63.6025 25.7914H60.3855L55.019 10.5754Z" fill="white"/>
<path d="M77.8934 1V7.83685C83.6098 7.83685 88.2408 12.4673 88.2408 18.1832C88.2408 23.899 83.6098 28.5295 77.8934 28.5295V35.3663C87.3838 35.3663 95.0783 27.6726 95.0783 18.1832C95.0783 8.69369 87.3838 1 77.8934 1Z" fill="white"/>
<path fill-rule="evenodd" clip-rule="evenodd" d="M115.25 0V36H114.75V0H115.25Z" fill="url(#paint0_linear_4_11328)"/>
<path d="M144.54 22.8025L150.271 13.4633C150.537 13.0495 151 12.7988 151.495 12.7988C152.297 12.7988 152.947 13.4422 152.947 14.2366V30L158.145 27.8945C158.895 27.5895 159.384 26.8675 159.384 26.067V14.2789C159.384 13.1884 158.489 12.3034 157.388 12.3034H151.495C150.826 12.3034 150.204 12.6417 149.844 13.1975L144.113 22.5367C143.847 22.9505 143.383 23.2012 142.889 23.2012C142.086 23.2012 141.436 22.5578 141.436 21.7634L141.436 6L136.239 8.10545C135.488 8.41055 135 9.13251 135 9.933L135 21.7211C135 22.8116 135.894 23.6966 136.996 23.6966H142.889C143.557 23.6966 144.18 23.3583 144.54 22.8025Z" fill="white"/>
<path d="M287.623 23.7019V12.2788H298.307V14.3889H289.766V16.9274H296.631V19.0534H289.766V21.5918H298.307V23.7019H287.623Z" fill="white"/>
<path d="M270.285 12.2788L277.005 23.7019H278.907L285.627 12.2788H283.161L277.956 21.1634L272.767 12.2788H270.285Z" fill="white"/>
<path d="M266.147 23.7019V12.2788H268.258V23.7019H266.147Z" fill="white"/>
<path fill-rule="evenodd" clip-rule="evenodd" d="M258.191 19.791L261.52 23.7023H263.84V23.1152L260.976 19.7849L261.616 19.7835C262.025 19.7835 262.401 19.6883 262.744 19.4979C263.088 19.297 263.362 19.0273 263.566 18.6888C263.771 18.3503 263.873 17.9801 263.873 17.5782V14.5003C263.873 14.0984 263.771 13.7335 263.566 13.4056C263.362 13.0672 263.088 12.7975 262.744 12.5965C262.401 12.3955 262.025 12.295 261.616 12.295H252.27V23.7023H254.397V19.7994L258.191 19.791ZM261.52 17.6734H254.59C254.536 17.6734 254.488 17.6575 254.445 17.6258C254.413 17.5941 254.397 17.5518 254.397 17.4989V14.5797C254.397 14.5268 254.413 14.4845 254.445 14.4527C254.488 14.4104 254.536 14.3893 254.59 14.3893H261.52C261.573 14.3893 261.622 14.4104 261.665 14.4527C261.708 14.4845 261.729 14.5268 261.729 14.5797V17.4989C261.729 17.5518 261.708 17.5941 261.665 17.6258C261.622 17.6575 261.573 17.6734 261.52 17.6734Z" fill="white"/>
<path fill-rule="evenodd" clip-rule="evenodd" d="M238.054 23.7019V12.2788H247.401C247.809 12.2788 248.185 12.3793 248.529 12.5803C248.873 12.7812 249.147 13.0509 249.351 13.3894C249.555 13.7173 249.657 14.0822 249.657 14.4841V21.4966C249.657 21.8985 249.555 22.2687 249.351 22.6072C249.147 22.9351 248.873 23.1995 248.529 23.4005C248.185 23.6014 247.809 23.7019 247.401 23.7019H238.054ZM240.358 21.5918H247.304C247.358 21.5918 247.406 21.5759 247.449 21.5442C247.492 21.5019 247.514 21.4543 247.514 21.4014V14.5793C247.514 14.5264 247.492 14.4841 247.449 14.4524C247.406 14.4101 247.358 14.3889 247.304 14.3889H240.358C240.305 14.3889 240.256 14.4101 240.213 14.4524C240.181 14.4841 240.165 14.5264 240.165 14.5793V21.4014C240.165 21.4543 240.181 21.5019 240.213 21.5442C240.256 21.5759 240.305 21.5918 240.358 21.5918Z" fill="white"/>
<path fill-rule="evenodd" clip-rule="evenodd" d="M229.841 19.791L233.17 23.7023H235.49V23.1152L232.626 19.7849L233.266 19.7835C233.675 19.7835 234.051 19.6883 234.395 19.4979C234.738 19.297 235.012 19.0273 235.216 18.6888C235.421 18.3503 235.523 17.9801 235.523 17.5782V14.5003C235.523 14.0984 235.421 13.7335 235.216 13.4056C235.012 13.0672 234.738 12.7975 234.395 12.5965C234.051 12.3955 233.675 12.295 233.266 12.295H223.92V23.7023H226.047V19.7994L229.841 19.791ZM233.17 17.6734H226.24C226.186 17.6734 226.138 17.6575 226.095 17.6258C226.063 17.5941 226.047 17.5518 226.047 17.4989V14.5797C226.047 14.5268 226.063 14.4845 226.095 14.4527C226.138 14.4104 226.186 14.3893 226.24 14.3893H233.17C233.224 14.3893 233.272 14.4104 233.315 14.4527C233.358 14.4845 233.379 14.5268 233.379 14.5797V17.4989C233.379 17.5518 233.358 17.5941 233.315 17.6258C233.272 17.6575 233.224 17.6734 233.17 17.6734Z" fill="white"/>
<path d="M210.806 23.7019V12.2788H221.49V14.3889H212.949V16.9274H219.814V19.0534H212.949V21.5918H221.49V23.7019H210.806Z" fill="white"/>
<path fill-rule="evenodd" clip-rule="evenodd" d="M197.223 12.295V23.7023H199.35V19.7994L206.57 19.7835C206.978 19.7835 207.354 19.6883 207.698 19.4979C208.042 19.297 208.316 19.0273 208.52 18.6888C208.724 18.3503 208.826 17.9801 208.826 17.5782V14.5003C208.826 14.0984 208.724 13.7335 208.52 13.4056C208.316 13.0672 208.042 12.7975 207.698 12.5965C207.354 12.3955 206.978 12.295 206.57 12.295H197.223ZM206.473 17.6734H199.544C199.49 17.6734 199.442 17.6575 199.399 17.6258C199.366 17.5941 199.35 17.5518 199.35 17.4989V14.5797C199.35 14.5268 199.366 14.4845 199.399 14.4527C199.442 14.4104 199.49 14.3893 199.544 14.3893H206.473C206.527 14.3893 206.575 14.4104 206.618 14.4527C206.661 14.4845 206.683 14.5268 206.683 14.5797V17.4989C206.683 17.5518 206.661 17.5941 206.618 17.6258C206.575 17.6575 206.527 17.6734 206.473 17.6734Z" fill="white"/>
<path d="M187.941 23.7019V19.4183L182.591 12.2788H185.105L189.021 17.1178L192.888 12.2788H195.451L190.084 19.4341V23.7019H187.941Z" fill="white"/>
<path d="M168.933 12.2788V23.7019H171.061V19.0534H178.667V23.7019H180.794V12.2788H178.667V16.9274H171.061V12.2788H168.933Z" fill="white"/>
<path d="M301.695 23.4447V22.9607L302.014 22.6417H302.498L302.817 22.9607V23.4447L302.498 23.7637H302.014L301.695 23.4447Z" fill="white"/>
<path d="M305.703 22.7517V15.9097H306.517V19.3527L307.584 18.2857H309.509L310.521 19.2977V22.7517L309.509 23.7637H306.715L305.703 22.7517ZM309.157 23.0377L309.707 22.4987V19.5507L309.157 19.0117H307.815L306.517 20.3097V22.4987L307.067 23.0377H309.157Z" fill="white"/>
<path d="M313.603 22.7517V19.2977L314.615 18.2857H317.431L318.443 19.2977V22.7517L317.431 23.7637H314.615L313.603 22.7517ZM317.079 23.0377L317.629 22.4987V19.5507L317.079 19.0117H314.967L314.417 19.5507V22.4987L314.967 23.0377H317.079Z" fill="white"/>
<path d="M324.831 23.7637L323.28 21.6077L321.729 23.7637H320.816L322.829 20.9807L320.871 18.2857H321.784L323.28 20.3647L324.776 18.2857H325.689L323.742 21.0027L325.744 23.7637H324.831Z" fill="white"/>
<defs>
<linearGradient id="paint0_linear_4_11328" x1="115.5" y1="0" x2="115.5" y2="36" gradientUnits="userSpaceOnUse">
<stop stop-color="white" stop-opacity="0"/>
<stop offset="0.315967" stop-color="white"/>
<stop offset="0.756096" stop-color="white"/>
<stop offset="1" stop-color="white" stop-opacity="0"/>
</linearGradient>
</defs>
</svg>
