<svg width="96" height="24" viewBox="0 0 96 24" fill="none" xmlns="http://www.w3.org/2000/svg">
<path d="M95.7873 13.2775V17.0469C95.7851 17.1238 95.7535 17.1969 95.6991 17.2514C95.6447 17.3058 95.5715 17.3373 95.4946 17.3396C95.4559 17.3407 95.4173 17.3338 95.3813 17.3195C95.3453 17.3052 95.3126 17.2837 95.2852 17.2563C95.2578 17.2289 95.2363 17.1962 95.222 17.1602C95.2077 17.1242 95.2008 17.0856 95.2019 17.0469V13.2775C95.2019 12.0092 94.4835 10.7675 93.0733 10.7675C91.2995 10.7675 90.6254 12.6655 90.6254 14.1378V17.0469C90.6232 17.1238 90.5917 17.1969 90.5372 17.2514C90.4828 17.3058 90.4097 17.3373 90.3328 17.3396C90.294 17.3407 90.2555 17.3338 90.2195 17.3195C90.1835 17.3052 90.1508 17.2837 90.1234 17.2563C90.096 17.2289 90.0744 17.1962 90.0601 17.1602C90.0458 17.1242 90.039 17.0856 90.0401 17.0469V13.2775C90.0401 12.0092 89.3217 10.7675 87.9115 10.7675C86.1199 10.7675 85.3838 12.1777 85.4458 14.058C85.4458 14.1023 85.4636 14.1821 85.4458 14.2087V17.038C85.4457 17.1129 85.4188 17.1854 85.37 17.2423C85.3213 17.2992 85.2538 17.3368 85.1798 17.3484C85.1384 17.3539 85.0963 17.3504 85.0564 17.3382C85.0165 17.3259 84.9797 17.3052 84.9485 17.2774C84.9174 17.2496 84.8926 17.2154 84.8759 17.1771C84.8591 17.1389 84.8509 17.0975 84.8516 17.0557V10.6256C84.8518 10.5506 84.8786 10.4782 84.9274 10.4213C84.9762 10.3644 85.0436 10.3268 85.1177 10.3152C85.1591 10.3097 85.2012 10.3132 85.2411 10.3254C85.281 10.3377 85.3178 10.3584 85.3489 10.3862C85.3801 10.414 85.4049 10.4482 85.4216 10.4864C85.4383 10.5247 85.4466 10.5661 85.4458 10.6078V11.681C85.9514 10.7764 86.856 10.1821 87.9115 10.1821C89.1088 10.1821 90.0401 10.9449 90.4215 12.0535C90.9093 10.9537 91.8583 10.1821 93.0733 10.1821C94.8028 10.1821 95.7873 11.681 95.7873 13.2775Z" fill="white"/>
<path d="M80.8957 10.6521V17.0911C80.8934 17.168 80.8619 17.2412 80.8075 17.2956C80.7531 17.35 80.6799 17.3815 80.603 17.3838C80.5642 17.3849 80.5257 17.378 80.4897 17.3637C80.4537 17.3494 80.421 17.3279 80.3936 17.3005C80.3662 17.2731 80.3447 17.2404 80.3303 17.2044C80.316 17.1684 80.3092 17.1298 80.3103 17.0911V15.8671C79.8225 16.8339 78.9622 17.5345 77.8624 17.5345C76.1152 17.5345 75.1484 16.0179 75.1484 14.4126V10.6432C75.1491 10.5658 75.1802 10.4917 75.2349 10.437C75.2897 10.3823 75.3637 10.3512 75.4411 10.3505C75.518 10.3527 75.5912 10.3843 75.6456 10.4387C75.7 10.4931 75.7316 10.5663 75.7338 10.6432V14.4126C75.7338 15.6809 76.4522 16.9403 77.8624 16.9403C79.8402 16.9403 80.3103 15.0866 80.3103 13.0379V10.6343C80.311 10.5869 80.323 10.5403 80.3453 10.4984C80.3677 10.4566 80.3998 10.4207 80.4388 10.3937C80.4779 10.3668 80.5229 10.3497 80.5699 10.3437C80.617 10.3377 80.6648 10.3431 80.7094 10.3594C80.7652 10.3853 80.8123 10.4266 80.8453 10.4785C80.8783 10.5303 80.8958 10.5906 80.8957 10.6521Z" fill="white"/>
<path d="M71.3897 13.8098C71.3883 13.8932 71.3539 13.9727 71.2941 14.0309C71.2342 14.089 71.1538 14.1212 71.0704 14.1202H65.1901C65.3409 15.5748 66.4318 16.9051 67.975 16.9051C69.0305 16.9051 69.8109 16.506 70.3963 15.6634C70.4236 15.6192 70.4613 15.5823 70.5061 15.556C70.551 15.5297 70.6016 15.5148 70.6535 15.5127C70.6922 15.5116 70.7308 15.5184 70.7668 15.5327C70.8028 15.547 70.8355 15.5685 70.8629 15.5959C70.8903 15.6233 70.9118 15.656 70.9262 15.6921C70.9405 15.7281 70.9473 15.7666 70.9462 15.8053C70.9464 15.8589 70.931 15.9113 70.9019 15.9561C70.3076 16.9849 69.128 17.4905 67.975 17.4905C65.9972 17.4905 64.5781 15.7167 64.5781 13.8275C64.5781 11.9384 65.9883 10.1646 67.975 10.1646C69.9617 10.1646 71.3808 11.9206 71.3897 13.8098ZM70.7599 13.5348C70.6358 12.0803 69.5183 10.7499 67.975 10.7499C66.4318 10.7499 65.3409 12.0803 65.1901 13.5348H70.7599Z" fill="white"/>
<path d="M61.723 10.5811C61.7286 10.6598 61.7028 10.7376 61.6513 10.7974C61.5998 10.8573 61.5267 10.8943 61.448 10.9004C59.7185 11.1576 58.938 12.5678 58.938 14.2086V17.0201C58.9379 17.0951 58.911 17.1675 58.8622 17.2244C58.8135 17.2813 58.746 17.3189 58.672 17.3305C58.6306 17.336 58.5885 17.3325 58.5486 17.3203C58.5087 17.308 58.4719 17.2873 58.4407 17.2595C58.4096 17.2317 58.3848 17.1975 58.3681 17.1593C58.3513 17.121 58.343 17.0796 58.3438 17.0379V10.6254C58.3439 10.5505 58.3708 10.4781 58.4196 10.4212C58.4684 10.3643 58.5358 10.3266 58.6099 10.315C58.6513 10.3095 58.6933 10.313 58.7332 10.3253C58.7732 10.3376 58.8099 10.3583 58.8411 10.3861C58.8723 10.4139 58.897 10.4481 58.9138 10.4863C58.9305 10.5246 58.9388 10.566 58.938 10.6077V11.9115C59.4258 11.0866 60.3926 10.3062 61.4037 10.3062C61.5544 10.3062 61.723 10.4126 61.723 10.5811Z" fill="white"/>
<path d="M54.4912 13.8098C54.4898 13.8932 54.4554 13.9727 54.3956 14.0309C54.3358 14.089 54.2554 14.1212 54.1719 14.1202H48.2917C48.4424 15.5748 49.5334 16.9051 51.0766 16.9051C52.132 16.9051 52.9125 16.506 53.4979 15.6634C53.5251 15.6192 53.5628 15.5823 53.6077 15.556C53.6525 15.5297 53.7031 15.5148 53.7551 15.5127C53.7938 15.5116 53.8324 15.5184 53.8684 15.5327C53.9044 15.547 53.9371 15.5685 53.9645 15.5959C53.9919 15.6233 54.0134 15.656 54.0277 15.6921C54.042 15.7281 54.0489 15.7666 54.0478 15.8053C54.048 15.8589 54.0326 15.9113 54.0034 15.9561C53.4092 16.9849 52.2296 17.4905 51.0766 17.4905C49.0988 17.4905 47.6797 15.7167 47.6797 13.8275C47.6797 11.9384 49.0899 10.1646 51.0766 10.1646C53.0455 10.1646 54.4824 11.9206 54.4912 13.8098ZM53.8526 13.5348C53.7285 12.0803 52.611 10.7499 51.0677 10.7499C49.5245 10.7499 48.4336 12.0803 48.2828 13.5348H53.8526Z" fill="white"/>
<path d="M43.9301 13.3038V17.0554C43.9279 17.1323 43.8963 17.2055 43.8419 17.2599C43.7875 17.3143 43.7144 17.3459 43.6374 17.3481C43.5987 17.3492 43.5602 17.3424 43.5242 17.3281C43.4881 17.3137 43.4554 17.2922 43.428 17.2648C43.4006 17.2374 43.3791 17.2047 43.3648 17.1687C43.3505 17.1327 43.3437 17.0941 43.3448 17.0554V13.3038C43.3448 12.0355 42.6264 10.776 41.2162 10.776C39.4069 10.776 38.6264 12.3547 38.7328 13.9778C38.7328 14.0222 38.7505 14.2084 38.7505 14.235V17.0465C38.7504 17.1215 38.7235 17.1939 38.6747 17.2508C38.626 17.3077 38.5585 17.3454 38.4845 17.357C38.4431 17.3625 38.401 17.359 38.3611 17.3467C38.3212 17.3344 38.2844 17.3137 38.2532 17.2859C38.2221 17.2581 38.1973 17.2239 38.1805 17.1857C38.1638 17.1474 38.1555 17.106 38.1563 17.0643V4.72725C38.157 4.64984 38.1881 4.5758 38.2428 4.52106C38.2975 4.46632 38.3716 4.43526 38.449 4.43457C38.5259 4.4368 38.5991 4.46835 38.6535 4.52277C38.7079 4.57718 38.7394 4.65033 38.7417 4.72725V11.6984C39.2472 10.7938 40.1519 10.1818 41.2073 10.1818C42.9456 10.1818 43.9301 11.6984 43.9301 13.3038Z" fill="white"/>
<path d="M34.3094 10.306C34.3864 10.3083 34.4595 10.3398 34.5139 10.3942C34.5683 10.4486 34.5999 10.5218 34.6021 10.5987C34.6032 10.6374 34.5964 10.676 34.5821 10.712C34.5678 10.748 34.5463 10.7807 34.5189 10.8081C34.4915 10.8355 34.4588 10.857 34.4227 10.8714C34.3867 10.8857 34.3482 10.8925 34.3094 10.8914H32.7307V17.091C32.73 17.1684 32.699 17.2424 32.6442 17.2971C32.5895 17.3519 32.5155 17.3829 32.438 17.3836C32.3611 17.3814 32.288 17.3499 32.2336 17.2954C32.1791 17.241 32.1476 17.1679 32.1454 17.091V10.8914H30.6287C30.59 10.8925 30.5514 10.8857 30.5154 10.8714C30.4794 10.857 30.4467 10.8355 30.4193 10.8081C30.3919 10.7807 30.3704 10.748 30.3561 10.712C30.3418 10.676 30.3349 10.6374 30.3361 10.5987C30.3367 10.5213 30.3678 10.4473 30.4225 10.3925C30.4773 10.3378 30.5513 10.3067 30.6287 10.306H32.1454V8.04439C32.1455 7.96945 32.1724 7.89702 32.2212 7.84012C32.2699 7.78322 32.3374 7.74558 32.4114 7.73397C32.4528 7.72847 32.4949 7.73198 32.5348 7.74424C32.5747 7.7565 32.6115 7.77724 32.6427 7.80503C32.6738 7.83281 32.6986 7.867 32.7153 7.90525C32.7321 7.9435 32.7403 7.98491 32.7396 8.02665V10.306H34.3094Z" fill="white"/>
<path d="M27.1553 13.8098C27.1539 13.8932 27.1195 13.9727 27.0597 14.0309C26.9999 14.089 26.9194 14.1212 26.836 14.1202H20.9557C21.1065 15.5748 22.1974 16.9051 23.7406 16.9051C24.7961 16.9051 25.5766 16.506 26.1619 15.6634C26.1892 15.6192 26.2269 15.5823 26.2717 15.556C26.3166 15.5297 26.3672 15.5148 26.4191 15.5127C26.4579 15.5116 26.4964 15.5184 26.5324 15.5327C26.5684 15.547 26.6012 15.5685 26.6286 15.5959C26.656 15.6233 26.6775 15.656 26.6918 15.6921C26.7061 15.7281 26.7129 15.7666 26.7118 15.8053C26.712 15.8589 26.6966 15.9113 26.6675 15.9561C26.0732 16.9849 24.8936 17.4905 23.7406 17.4905C21.7628 17.4905 20.3438 15.7167 20.3438 13.8275C20.3438 11.9384 21.7539 10.1646 23.7406 10.1646C25.7273 10.1646 27.1464 11.9206 27.1553 13.8098ZM26.5256 13.5348C26.4014 12.0803 25.2839 10.7499 23.7406 10.7499C22.1974 10.7499 21.1065 12.0803 20.9557 13.5348H26.5256Z" fill="white"/>
<path d="M0 13.623L7.36142 24V17.9689L0 13.623Z" fill="#DCDCDC"/>
<path d="M0 12.2217L7.36142 16.5765V0L0 12.2217Z" fill="#DCDCDC"/>
<path d="M7.35938 0V16.5765L14.7297 12.2217L7.35938 0Z" fill="#A5A5A5"/>
<path d="M7.35938 17.9689V24L14.7297 13.623L7.35938 17.9689Z" fill="#A5A5A5"/>
<path opacity="0.6" d="M7.36142 8.87842L0 12.2221L7.36142 16.5769L14.7317 12.2221L7.36142 8.87842Z" fill="#787878"/>
</svg>
