<svg width="24" height="24" viewBox="0 0 24 24" fill="none" xmlns="http://www.w3.org/2000/svg">
<path fill-rule="evenodd" clip-rule="evenodd" d="M6.8 2C4.14903 2 2 4.14903 2 6.8V17.2C2 19.851 4.14903 22 6.8 22H17.2C19.851 22 22 19.851 22 17.2V6.8C22 4.14903 19.851 2 17.2 2H6.8ZM16.0524 6.4H7.79649V8.04617H5.6L6.09238 9.69275H6.50899V16.3538C6.29968 16.3538 6.13008 16.5211 6.13008 16.7277V17.1767H6.05429C5.84539 17.1767 5.67578 17.3443 5.67578 17.551V18H9.91719V17.551C9.91719 17.3443 9.74758 17.1767 9.53868 17.1767H9.4629V16.7277C9.4629 16.5424 9.2143 16.3884 9.01221 16.3586L9.02023 12.6864C9.15415 11.2179 10.4032 10.067 11.9244 10.067C13.4457 10.067 14.6947 11.2179 14.8286 12.6864L14.8366 16.3619C14.6658 16.398 14.5375 16.548 14.5375 16.7277V17.1767H14.4617C14.2524 17.1767 14.0828 17.3443 14.0828 17.551V18H18.3246V17.551C18.3246 17.3443 18.155 17.1767 17.9457 17.1767H17.8699V16.7277C17.8699 16.5211 17.7003 16.3538 17.4914 16.3538V9.69275H17.908L18.4 8.04617H16.0524V6.4Z" fill="#0F1117"/>
</svg>
