<svg width="24" height="24" viewBox="0 0 24 24" fill="none" xmlns="http://www.w3.org/2000/svg">
<path d="M5.3192 2.09988C6.1102 1.98688 7.2192 2.24488 8.6522 3.06588L8.9242 3.22688L9.0842 3.32688L9.4812 3.24388C10.995 2.95137 12.5481 2.9243 14.0712 3.16388L14.5272 3.24388L14.9232 3.32688L15.0842 3.22688C16.4692 2.38688 17.5712 2.05688 18.4062 2.07888L18.5702 2.08688L18.7172 2.10388L18.7932 2.11788L18.8432 2.12888L18.9872 2.17588C19.223 2.27334 19.4126 2.45721 19.5172 2.68988C19.9264 3.60158 20.0642 4.61188 19.9142 5.59988L19.8672 5.86688L19.8212 6.06288L19.9442 6.22588C20.5182 7.02088 20.8742 7.95388 20.9742 8.93288L20.9972 9.22788L21.0042 9.49988C21.0042 13.3549 19.3452 15.3829 16.3602 16.1799L16.1152 16.2409L15.9832 16.2699L15.9972 16.4309L16.0052 16.5879L16.0092 16.9529L16.0072 17.1659L16.0042 20.9999C16.0042 21.2448 15.9142 21.4812 15.7515 21.6643C15.5887 21.8473 15.3645 21.9642 15.1212 21.9929L15.0042 21.9999H9.0042C8.75927 21.9998 8.52286 21.9099 8.33983 21.7472C8.15679 21.5844 8.03986 21.3601 8.0112 21.1169L8.0042 20.9999V20.2659C6.1862 20.5259 4.9742 19.8419 3.8942 18.3879L3.3592 17.6219C3.0792 17.2259 2.9042 17.0429 2.7702 16.9779L2.7222 16.9589C2.47461 16.8784 2.26816 16.7046 2.14672 16.4743C2.02528 16.244 1.99843 15.9755 2.07187 15.7257C2.14531 15.476 2.31326 15.2647 2.54002 15.1368C2.76678 15.0089 3.03447 14.9745 3.2862 15.0409C3.9282 15.2289 4.3602 15.6089 4.8562 16.2799L5.3942 17.0489C6.1542 18.1279 6.7542 18.5079 8.0032 18.2399L8.0042 17.5619L7.9862 17.3939C7.95667 17.1202 7.94965 16.8447 7.9652 16.5699L7.9822 16.3849L8.0012 16.2649L7.8932 16.2409C4.9172 15.5309 3.1902 13.6679 3.0182 10.1019L3.0082 9.79188L3.0042 9.49988C3.00536 8.41646 3.32077 7.35663 3.9122 6.44888L4.0642 6.22688L4.1862 6.06388L4.1412 5.86788C3.96092 4.98944 4.01087 4.07931 4.2862 3.22588L4.3862 2.94388L4.4922 2.69088C4.5966 2.4584 4.78581 2.27455 5.0212 2.17688L5.1652 2.12988L5.3192 2.09988Z" fill="white"/>
</svg>
