<svg width="84" height="16" viewBox="0 0 84 16" fill="none" xmlns="http://www.w3.org/2000/svg">
<path d="M18.6112 7.9118V7.92959C18.6112 12.1249 22.05 15.5264 26.2925 15.5264H29.5384V13.5559H26.3449C23.1575 13.5559 20.581 10.9669 20.6497 7.79893C20.7161 4.7191 23.334 2.28862 26.4494 2.28862H29.5384V0.336666H26.2714C22.0407 0.336666 18.6112 3.72804 18.6112 7.9118ZM76.4603 0.336666H69.3015V15.5256H71.2758V7.40623C71.2758 4.57994 73.5924 2.28862 76.4502 2.28862C79.3079 2.28862 81.6252 4.57994 81.6252 7.40623V15.5264H83.5824V7.37994C83.5831 3.48994 80.3943 0.336666 76.4603 0.336666ZM40.7273 5.42799C40.7273 5.84776 40.5773 6.20182 40.2774 6.49093C39.9775 6.78083 39.6229 6.92462 39.2136 6.92462H34.6501C34.226 6.92462 33.8676 6.78006 33.5747 6.49093C33.2818 6.20182 33.1358 5.84776 33.1358 5.42799V0.336666H31.1613V15.5256H33.1358V10.3322C33.1358 9.91246 33.2818 9.5584 33.5747 9.26929C33.8669 8.98016 34.2253 8.8356 34.6501 8.8356H39.2136C39.6229 8.8356 39.9783 8.98016 40.2774 9.26929C40.5773 9.55917 40.7273 9.91323 40.7273 10.3322V15.5256H42.6798V0.336666H40.7273V5.42799ZM59.431 0.336666V15.5264H67.6793V0.336666H59.431ZM63.5548 7.54924C62.0834 7.54924 60.8899 6.36879 60.8899 4.91159C60.8899 3.45516 62.0825 2.27393 63.5548 2.27393C65.027 2.27393 66.2196 3.45439 66.2196 4.91159C66.2196 6.36879 65.027 7.54924 63.5548 7.54924ZM52.2027 1.1445C51.9419 0.572447 51.5732 0.285645 51.096 0.285645C50.6188 0.285645 50.2494 0.572447 49.9893 1.1445L43.4132 15.5256H58.7148L52.2027 1.1445ZM51.096 13.0317C49.6245 13.0317 48.4312 11.8513 48.4312 10.3941C48.4312 8.93764 49.6238 7.75642 51.096 7.75642C52.5675 7.75642 53.7609 8.93687 53.7609 10.3941C53.7609 11.8505 52.5675 13.0317 51.096 13.0317ZM2.83448 7.06376C2.83448 6.59762 2.98991 6.17243 3.25779 5.83539L6.09835 8.6462C5.75236 8.91213 5.3228 9.0652 4.85731 9.0652C3.735 9.06597 2.82823 8.16846 2.83448 7.06376ZM11.2843 9.05979C12.4004 9.06597 13.3071 8.16846 13.3071 7.05836C13.3071 6.59762 13.1517 6.17243 12.8838 5.82997L10.0433 8.64079C10.383 8.90594 10.8126 9.05979 11.2843 9.05979ZM13.4805 5.25173C13.8984 5.74803 14.1491 6.37343 14.1491 7.06994C14.1491 8.6346 12.8659 9.90396 11.2843 9.90396C10.5861 9.90396 9.94797 9.6558 9.44657 9.243L8.06806 10.6067L6.68957 9.243C6.18817 9.65659 5.55554 9.90396 4.85184 9.90396C3.27029 9.90396 1.98707 8.6346 1.98707 7.06994C1.98707 6.37884 2.23778 5.74726 2.65563 5.25173L2.01129 4.61396L1.39663 4.00557C0.679662 5.17443 0.268066 6.53886 0.268066 8.00302C0.268066 12.2664 3.75921 15.7142 8.06181 15.7142C12.3644 15.7142 15.8555 12.2602 15.8555 8.00302C15.8672 6.53267 15.4557 5.16902 14.7394 4.00557L13.4805 5.25173ZM13.707 2.67669C12.2926 1.20712 10.2877 0.285645 8.06728 0.285645C5.84764 0.285645 3.84824 1.20712 2.42835 2.67669C2.23778 2.87769 2.05268 3.09027 1.8793 3.30827L8.06181 9.42544L14.2443 3.30287C14.0889 3.09027 13.9038 2.8715 13.707 2.67669ZM8.06728 7.99685L3.27576 3.25572C4.55272 1.98636 6.24127 1.28907 8.06728 1.28907C9.8933 1.28907 11.5881 1.98559 12.8588 3.25493L8.06728 7.99685Z" fill="white"/>
</svg>
