<svg width="600" height="90" viewBox="0 0 600 90" fill="#fff" xmlns="http://www.w3.org/2000/svg">
<path d="M560.484 66.1314V23.4799H599.715V31.3586H568.354V40.8367H593.561V48.7746H568.354V58.2527H599.715V66.1314H560.484Z"/>
<path d="M521.494 66.1314L496.82 23.4799H505.932L524.986 56.6532L544.098 23.4799H553.151L528.477 66.1314H521.494Z"/>
<path d="M481.621 66.1314V23.4799H489.372V66.1314H481.621Z"/>
<path d="M378.475 66.1314V23.4799H412.794C414.293 23.4799 415.674 23.855 416.936 24.6054C418.199 25.3557 419.205 26.3628 419.954 27.6265C420.704 28.8508 421.078 30.2133 421.078 31.714V57.8973C421.078 59.398 420.704 60.7802 419.954 62.0439C419.205 63.2682 418.199 64.2555 416.936 65.0058C415.674 65.7562 414.293 66.1314 412.794 66.1314H378.475ZM386.936 58.2527H412.439C412.636 58.2527 412.814 58.1934 412.972 58.075C413.13 57.917 413.208 57.7393 413.208 57.5418V32.0694C413.208 31.8719 413.13 31.714 412.972 31.5955C412.814 31.4375 412.636 31.3586 412.439 31.3586H386.936C386.739 31.3586 386.562 31.4375 386.404 31.5955C386.285 31.714 386.226 31.8719 386.226 32.0694V57.5418C386.226 57.7393 386.285 57.917 386.404 58.075C386.562 58.1934 386.739 58.2527 386.936 58.2527Z"/>
<path d="M278.425 66.1314V23.4799H317.656V31.3586H286.295V40.8367H311.502V48.7746H286.295V58.2527H317.656V66.1314H278.425Z"/>
<path d="M228.544 66.1312V23.5389H262.863C264.362 23.5389 265.743 23.9141 267.005 24.6645C268.267 25.4148 269.273 26.4219 270.023 27.6856C270.772 28.9099 271.147 30.2723 271.147 31.773V43.2652C271.147 44.7659 270.772 46.1482 270.023 47.4119C269.273 48.6757 268.267 49.6827 267.005 50.4331C265.743 51.1439 264.362 51.4994 262.863 51.4994L236.354 51.5586V66.1312H228.544ZM237.064 43.6207H262.508C262.705 43.6207 262.883 43.5614 263.041 43.443C263.198 43.3245 263.277 43.1665 263.277 42.9691V32.0692C263.277 31.8718 263.198 31.7138 263.041 31.5953C262.883 31.4374 262.705 31.3584 262.508 31.3584H237.064C236.867 31.3584 236.69 31.4374 236.532 31.5953C236.413 31.7138 236.354 31.8718 236.354 32.0692V42.9691C236.354 43.1665 236.413 43.3245 236.532 43.443C236.69 43.5614 236.867 43.6207 237.064 43.6207Z"/>
<path d="M194.48 66.1314V50.1371L174.835 23.4799H184.066L198.444 41.5475L212.645 23.4799H222.054L202.35 50.1963V66.1314H194.48Z"/>
<path d="M124.682 66.1314V23.4799H132.493V40.8367H160.422V23.4799H168.233V66.1314H160.422V48.7746H132.493V66.1314H124.682Z"/>
<path d="M35.1035 62.775L56.1471 27.9044C57.122 26.3592 58.8252 25.4231 60.6404 25.4231C63.5874 25.4231 65.9741 27.8255 65.9741 30.7918V89.6491L85.0567 81.7877C87.8132 80.6485 89.6061 77.9529 89.6061 74.964V30.9497C89.6061 26.8781 86.323 23.5733 82.2778 23.5733H60.6404C58.1865 23.5733 55.9006 24.8366 54.5784 26.9119L33.5348 61.7825C32.5599 63.3277 30.8567 64.2638 29.0414 64.2638C26.0944 64.2638 23.7077 61.8614 23.7077 58.8951L23.7077 0.0378113L4.62512 7.89916C1.86861 9.03832 0.0757696 11.734 0.0757696 14.7229L0.0757446 58.7372C0.0757446 62.8088 3.35891 66.1135 7.40402 66.1135H29.0414C31.4954 66.1135 33.7813 64.8503 35.1035 62.775Z"/>
<path fill-rule="evenodd" clip-rule="evenodd" d="M473.147 63.9394V66.1312H464.626L452.405 51.5275L438.473 51.5586V66.1312H430.662V23.5389H464.981C466.48 23.5389 467.861 23.9141 469.124 24.6645C470.386 25.4148 471.392 26.4219 472.141 27.6856C472.891 28.9099 473.265 30.2723 473.265 31.773V43.2652C473.265 44.7659 472.891 46.1482 472.141 47.4119C471.392 48.6757 470.386 49.6827 469.124 50.4331C467.861 51.1439 466.48 51.4994 464.981 51.4994L462.629 51.5046L473.147 63.9394ZM464.626 43.6207H439.183C438.985 43.6207 438.808 43.5614 438.65 43.443C438.532 43.3245 438.473 43.1665 438.473 42.9691V32.0692C438.473 31.8718 438.532 31.7138 438.65 31.5953C438.808 31.4374 438.985 31.3584 439.183 31.3584H464.626C464.824 31.3584 465.001 31.4374 465.159 31.5953C465.317 31.7138 465.396 31.8718 465.396 32.0692V42.9691C465.396 43.1665 465.317 43.3245 465.159 43.443C465.001 43.5614 464.824 43.6207 464.626 43.6207Z"/>
<path fill-rule="evenodd" clip-rule="evenodd" d="M369.055 63.9394V66.1312H360.534L348.312 51.5275L334.38 51.5586V66.1312H326.57V23.5389H360.889C362.388 23.5389 363.769 23.9141 365.031 24.6645C366.293 25.4148 367.299 26.4219 368.049 27.6856C368.798 28.9099 369.173 30.2723 369.173 31.773V43.2652C369.173 44.7659 368.798 46.1482 368.049 47.4119C367.299 48.6757 366.293 49.6827 365.031 50.4331C363.769 51.1439 362.388 51.4994 360.889 51.4994L358.536 51.5046L369.055 63.9394ZM360.534 43.6207H335.09C334.893 43.6207 334.715 43.5614 334.558 43.443C334.439 43.3245 334.38 43.1665 334.38 42.9691V32.0692C334.38 31.8718 334.439 31.7138 334.558 31.5953C334.715 31.4374 334.893 31.3584 335.09 31.3584H360.534C360.731 31.3584 360.909 31.4374 361.067 31.5953C361.224 31.7138 361.303 31.8718 361.303 32.0692V42.9691C361.303 43.1665 361.224 43.3245 361.067 43.443C360.909 43.5614 360.731 43.6207 360.534 43.6207Z"/>
</svg>
