<svg width="61" height="18" viewBox="0 0 61 18" fill="none" xmlns="http://www.w3.org/2000/svg">
<path d="M60.4809 2.32768C60.4809 3.61314 59.4186 4.65528 58.1094 4.65528C56.8002 4.65528 55.739 3.61314 55.739 2.32768C55.739 1.04214 56.8002 0 58.1094 0C59.4186 0 60.4809 1.04214 60.4809 2.32768Z" fill="white"/>
<path d="M28.3502 6.08911C27.4719 5.13332 26.3372 4.65528 24.9496 4.65528C23.9122 4.65528 23.0054 4.95328 22.2327 5.5492C21.4576 6.14512 20.9021 6.96063 20.5674 7.99483V4.89119H18.0523V16.9057H20.5674V10.1101C20.5674 9.18527 20.8867 8.42057 21.5253 7.81731C22.1639 7.21389 22.9852 6.91226 23.9918 6.91226C24.8855 6.91226 25.6357 7.21389 26.2422 7.81731C26.8499 8.42057 27.1526 9.18527 27.1526 10.1101V16.9057H29.6677V9.73393C29.6677 8.26041 29.2274 7.04513 28.3502 6.08911Z" fill="white"/>
<path d="M13.3472 16.907H15.8624V4.89119H13.3472V16.907Z" fill="white"/>
<path fill-rule="evenodd" clip-rule="evenodd" d="M37.5087 4.65528C39.4719 4.65528 41.0684 5.34564 42.2981 6.72472C43.5265 8.10522 44.0298 9.77377 43.8055 11.7339H33.6761C33.8517 12.706 34.3063 13.4942 35.0411 14.0976C35.7758 14.7009 36.6612 15.0026 37.6986 15.0026C38.4974 15.0026 39.2108 14.8102 39.8423 14.4265C40.4725 14.043 40.9639 13.5215 41.3153 12.8624L43.4233 13.7798C42.8808 14.7989 42.1058 15.6133 41.1004 16.2253C40.0951 16.8374 38.9366 17.1429 37.6274 17.1429C35.7912 17.1429 34.2506 16.5469 33.0043 15.3564C31.7591 14.1659 31.136 12.6836 31.136 10.9121C31.136 9.14061 31.7461 7.65581 32.9675 6.45544C34.1888 5.25625 35.701 4.65662 37.5087 4.65528ZM37.5087 6.7955C36.5817 6.7955 35.7805 7.07361 35.1004 7.63096C34.4215 8.18727 33.9704 8.91219 33.7485 9.80596H41.269C41.0613 8.91219 40.6173 8.18727 39.9396 7.63096C39.2607 7.07487 38.45 6.7955 37.5087 6.7955Z" fill="white"/>
<path fill-rule="evenodd" clip-rule="evenodd" d="M54.3503 5.78385C53.4245 5.03147 52.2269 4.65528 50.7574 4.65528C49.3367 4.65662 48.139 4.99045 47.1657 5.65595C46.1912 6.32257 45.593 7.22013 45.3699 8.34862L47.8601 8.93704C48.0037 8.21575 48.3361 7.66694 48.8536 7.2909C49.3723 6.91471 50.0239 6.72606 50.7574 6.72606C51.4921 6.72606 52.0868 6.89854 52.5414 7.24364C52.9972 7.58749 53.2251 8.05062 53.2251 8.63037C53.2251 9.33549 52.7776 9.72785 51.8827 9.80596L49.5123 10.0419C48.2043 10.1833 47.1254 10.5484 46.2791 11.1355C45.4328 11.7227 45.0102 12.6053 45.0102 13.7811C45.0102 14.7841 45.3604 15.5948 46.0631 16.2141C46.7669 16.8337 47.6441 17.1429 48.6981 17.1429C50.9651 17.1429 52.4738 15.9983 53.2251 13.7091V16.907H55.739V9.02881C55.739 7.61864 55.275 6.53607 54.3503 5.78385ZM52.1462 14.1198C51.4281 14.8015 50.5509 15.1429 49.5123 15.1429C48.9046 15.1415 48.4215 15 48.0619 14.7182C47.7034 14.4365 47.5242 14.0604 47.5242 13.5898C47.5242 13.1194 47.7034 12.7468 48.0619 12.4725C48.4215 12.1982 48.9046 12.0231 49.5111 11.9437L51.834 11.6619C52.5687 11.5836 53.0328 11.3888 53.2239 11.0747V11.7327C53.2239 12.6427 52.8643 13.4384 52.1462 14.1198Z" fill="white"/>
<path d="M11.6155 16.907H0V4.89119H2.65758V14.5792H11.6155V16.907Z" fill="white"/>
</svg>
