<svg width="56" height="56" viewBox="0 0 56 56" fill="none" xmlns="http://www.w3.org/2000/svg">
<path fill-rule="evenodd" clip-rule="evenodd" d="M28.6102 3.33985C28.4793 3.12856 28.2485 3 28 3C27.7515 3 27.5207 3.12856 27.3898 3.33985L26.0745 5.46383C25.8799 5.48033 25.686 5.49932 25.4927 5.52074L23.7875 3.69649C23.6179 3.51507 23.3665 3.43421 23.123 3.48273C22.8794 3.53124 22.6782 3.70223 22.5911 3.93479L21.7156 6.27147C21.5285 6.3257 21.3424 6.3823 21.1574 6.44121L19.127 4.98182C18.9253 4.8368 18.6629 4.80645 18.4333 4.90158C18.2038 4.99671 18.0398 5.2038 17.9998 5.44902L17.5962 7.92248C17.4253 8.01147 17.2556 8.10258 17.0872 8.19577L14.8048 7.15554C14.5786 7.05241 14.315 7.07376 14.1083 7.21195C13.9016 7.35015 13.7811 7.5855 13.7899 7.83401L13.8789 10.3475C13.7319 10.4654 13.5865 10.585 13.4425 10.7064L10.9923 10.1292C10.7503 10.0722 10.4961 10.1445 10.3203 10.3203C10.1445 10.4961 10.0722 10.7503 10.1292 10.9923L10.7064 13.4427C10.5851 13.5866 10.4655 13.732 10.3477 13.8789L7.83401 13.7899C7.5855 13.7811 7.35015 13.9016 7.21196 14.1083C7.07376 14.315 7.05241 14.5786 7.15554 14.8048L8.19595 17.0876C8.10285 17.2558 8.01184 17.4254 7.92294 17.5961L5.44902 17.9998C5.2038 18.0398 4.99671 18.2038 4.90158 18.4333C4.80645 18.6629 4.8368 18.9253 4.98182 19.127L6.44153 21.1578C6.38269 21.3427 6.32616 21.5285 6.27199 21.7154L3.93479 22.5911C3.70223 22.6782 3.53124 22.8794 3.48273 23.123C3.43421 23.3665 3.51507 23.6179 3.6965 23.7875L5.52115 25.4931C5.49975 25.6861 5.48079 25.8798 5.4643 26.0742L3.33985 27.3898C3.12856 27.5207 3 27.7515 3 28C3 28.2485 3.12856 28.4793 3.33985 28.6102L5.46439 29.9258C5.48088 30.1202 5.49985 30.3138 5.52125 30.5068L3.6965 32.2125C3.51507 32.3821 3.43421 32.6335 3.48273 32.877C3.53124 33.1206 3.70223 33.3218 3.93479 33.4089L6.27256 34.2848C6.32668 34.4714 6.38315 34.657 6.44193 34.8416L4.98182 36.873C4.8368 37.0747 4.80645 37.3371 4.90158 37.5667C4.99671 37.7962 5.2038 37.9602 5.44902 38.0002L7.92421 38.4041C8.01289 38.5744 8.10367 38.7434 8.19652 38.9111L7.15554 41.1952C7.05241 41.4214 7.07376 41.685 7.21196 41.8917C7.35015 42.0984 7.5855 42.2189 7.83401 42.2101L10.3496 42.121C10.4669 42.2673 10.586 42.4122 10.7069 42.5555L10.1292 45.0077C10.0722 45.2497 10.1445 45.5039 10.3203 45.6797C10.4961 45.8555 10.7503 45.9278 10.9923 45.8708L13.4445 45.2931C13.5878 45.414 13.7327 45.5331 13.879 45.6504L13.7899 48.166C13.7811 48.4145 13.9016 48.6498 14.1083 48.788C14.315 48.9262 14.5786 48.9476 14.8048 48.8445L17.0889 47.8035C17.2566 47.8963 17.4256 47.9871 17.5959 48.0758L17.9998 50.551C18.0398 50.7962 18.2038 51.0033 18.4333 51.0984C18.6629 51.1936 18.9253 51.1632 19.127 51.0182L21.1584 49.5581C21.343 49.6168 21.5286 49.6733 21.7152 49.7274L22.5911 52.0652C22.6782 52.2978 22.8794 52.4688 23.123 52.5173C23.3665 52.5658 23.6179 52.4849 23.7875 52.3035L25.4932 50.4787C25.6862 50.5001 25.8798 50.5191 26.0742 50.5356L27.3898 52.6602C27.5207 52.8714 27.7515 53 28 53C28.2485 53 28.4793 52.8714 28.6102 52.6602L29.9258 50.5356C30.1202 50.5191 30.3139 50.5002 30.5068 50.4788L32.2125 52.3035C32.3821 52.4849 32.6335 52.5658 32.877 52.5173C33.1206 52.4688 33.3218 52.2978 33.4089 52.0652L34.2848 49.7276C34.4714 49.6734 34.6571 49.617 34.8418 49.5582L36.873 51.0182C37.0747 51.1632 37.3371 51.1936 37.5667 51.0984C37.7962 51.0033 37.9602 50.7962 38.0002 50.551L38.404 48.076C38.5744 47.9873 38.7435 47.8965 38.9114 47.8036L41.1952 48.8445C41.4214 48.9476 41.685 48.9262 41.8917 48.788C42.0984 48.6498 42.2189 48.4145 42.2101 48.166L42.121 45.6508C42.2675 45.5334 42.4124 45.4142 42.5559 45.2932L45.0077 45.8708C45.2497 45.9278 45.5039 45.8555 45.6797 45.6797C45.8555 45.5039 45.9278 45.2497 45.8708 45.0077L45.2932 42.5559C45.4142 42.4125 45.5334 42.2675 45.6509 42.121L48.166 42.2101C48.4145 42.2189 48.6498 42.0984 48.788 41.8917C48.9262 41.685 48.9476 41.4214 48.8445 41.1952L47.8037 38.9116C47.8966 38.7437 47.9875 38.5745 48.0763 38.404L50.551 38.0002C50.7962 37.9602 51.0033 37.7962 51.0984 37.5667C51.1936 37.3371 51.1632 37.0747 51.0182 36.873L49.5584 34.8421C49.6172 34.6573 49.6738 34.4714 49.7279 34.2846L52.0652 33.4089C52.2978 33.3218 52.4688 33.1206 52.5173 32.877C52.5658 32.6335 52.4849 32.3821 52.3035 32.2125L50.4792 30.5072C50.5006 30.314 50.5196 30.1201 50.5361 29.9255L52.6602 28.6102C52.8714 28.4793 53 28.2485 53 28C53 27.7515 52.8714 27.5207 52.6602 27.3898L50.5361 26.0745C50.5196 25.8799 50.5006 25.686 50.4792 25.4928L52.3035 23.7875C52.4849 23.6179 52.5658 23.3665 52.5173 23.123C52.4688 22.8794 52.2978 22.6782 52.0652 22.5911L49.7281 21.7154C49.6739 21.5285 49.6174 21.3427 49.5585 21.1578L51.0182 19.127C51.1632 18.9253 51.1936 18.6629 51.0984 18.4333C51.0033 18.2038 50.7962 18.0398 50.551 17.9998L48.0766 17.5961C47.9877 17.4255 47.8968 17.2562 47.8038 17.0881L48.8445 14.8048C48.9476 14.5786 48.9262 14.315 48.788 14.1083C48.6498 13.9016 48.4145 13.7811 48.166 13.7899L45.6512 13.879C45.5337 13.7324 45.4144 13.5873 45.2933 13.4437L45.8708 10.9923C45.9278 10.7503 45.8555 10.4961 45.6797 10.3203C45.5039 10.1445 45.2497 10.0722 45.0077 10.1292L42.5563 10.7067C42.4127 10.5856 42.2676 10.4663 42.121 10.3488L42.2101 7.83401C42.2189 7.5855 42.0984 7.35015 41.8917 7.21195C41.685 7.07376 41.4214 7.05241 41.1952 7.15554L38.9119 8.19619L38.4039 7.92343L38.0002 5.44902C37.9602 5.2038 37.7962 4.99671 37.5667 4.90158C37.3371 4.80645 37.0747 4.8368 36.873 4.98182L34.8422 6.44151C34.6574 6.38263 34.4715 6.32608 34.2846 6.27188L33.4089 3.93479C33.3218 3.70223 33.1206 3.53124 32.877 3.48273C32.6335 3.43421 32.3821 3.51507 32.2125 3.69649L30.5072 5.52078C30.314 5.49935 30.1201 5.48036 29.9255 5.46385L28.6102 3.33985ZM28.9909 7.84129C28.721 7.5633 28.3534 7.40212 27.9667 7.3921C27.7677 7.38634 27.5696 7.42057 27.3841 7.49277C27.1985 7.56497 27.0293 7.67366 26.8866 7.81242C26.7438 7.95117 26.6303 8.11716 26.5529 8.30057C26.4754 8.48397 26.4355 8.68105 26.4356 8.88014C26.4356 9.27479 26.5924 9.65328 26.8715 9.93234C27.1505 10.2114 27.529 10.3682 27.9237 10.3682C28.3183 10.3682 28.6968 10.2114 28.9759 9.93234C29.2549 9.65328 29.4117 9.27479 29.4117 8.88014C29.4118 8.49205 29.2608 8.11927 28.9909 7.84129ZM38.6249 12.925C36.4601 11.3832 33.9857 10.3311 31.3734 9.84186L28.8088 12.2868C28.2682 12.8084 27.4117 12.7844 26.895 12.2438L24.6031 9.84186C20.6457 10.5895 17.0452 12.621 14.3591 15.6218H33.7849C34.273 15.6218 36.0816 15.8371 37.7179 16.9136C38.8806 17.684 40.5887 19.2533 40.5887 21.7462C40.5887 24.0524 38.6749 25.7797 36.8328 26.9471L36.9363 27.0289C38.3598 28.1524 39.2671 28.8685 39.8184 31.9663C39.9524 32.55 41.0098 33.062 41.9667 32.9519C42.9715 32.8419 44.1151 32.3969 44.1151 30.3682V29.5069C44.1151 29.3251 44.1916 29.2007 44.3782 29.2007H46.2586C46.3379 28.1426 46.3251 27.0796 46.2203 26.0237L42.8423 24.5261C42.1629 24.2199 41.8519 23.416 42.1533 22.7318L43.9093 18.7701C42.5929 16.4613 40.7897 14.4668 38.6249 12.925ZM11.2496 21.307C10.9798 21.0291 10.6122 20.8674 10.2251 20.8562C10.0261 20.8505 9.82796 20.8847 9.64242 20.9569C9.45689 21.0291 9.28772 21.1378 9.14495 21.2765C9.00218 21.4153 8.88871 21.5813 8.81125 21.7647C8.73379 21.9481 8.69392 22.1452 8.694 22.3443C8.694 22.7389 8.85078 23.1174 9.12984 23.3965C9.4089 23.6755 9.78739 23.8323 10.182 23.8323C10.5767 23.8323 10.9552 23.6755 11.2342 23.3965C11.5133 23.1174 11.6701 22.7389 11.6701 22.3443C11.6702 21.957 11.5194 21.5848 11.2496 21.307ZM46.728 21.374C46.4582 21.0961 46.0907 20.9344 45.7036 20.9232C45.5046 20.9174 45.3064 20.9517 45.1209 21.0239C44.9354 21.0961 44.7662 21.2048 44.6234 21.3435C44.4807 21.4823 44.3672 21.6483 44.2897 21.8317C44.2123 22.0151 44.1724 22.2122 44.1725 22.4112C44.1725 22.8059 44.3292 23.1844 44.6083 23.4634C44.8874 23.7425 45.2659 23.8993 45.6605 23.8993C46.0552 23.8993 46.4337 23.7425 46.7127 23.4634C46.9918 23.1844 47.1485 22.8059 47.1485 22.4112C47.1487 22.0239 46.9979 21.6518 46.728 21.374ZM15.6222 21.1624H13.0289L13.6892 22.6505C13.9954 23.3347 13.6844 24.1337 13.0002 24.4399L9.79448 25.8658C9.53985 28.2124 9.74132 30.5861 10.3878 32.8562H15.6222V21.1624ZM30.0289 21.2868H23.8519L23.8471 24.7366H29.5792C30.7993 24.7366 32.2825 24.306 32.2825 23.105C32.2825 21.6553 30.3495 21.2868 30.0289 21.2868ZM28.584 29.6888H23.8519L23.8471 33.0428H28.2251C28.3926 33.0428 28.5074 33.0763 28.5074 33.2294V38.5213C28.5074 38.6792 28.3926 38.7079 28.2251 38.7079H13.2634C13.7503 39.368 14.281 39.9946 14.8519 40.5835L17.9285 39.9232C18.6605 39.7653 19.3782 40.2342 19.5361 40.9663L20.2825 44.4495C22.6724 45.5593 25.2737 46.1403 27.9087 46.1526C30.5436 46.165 33.1502 45.6086 35.5505 44.5213L36.2969 41.038C36.4548 40.306 37.1773 39.8371 37.9093 39.995L41.0529 40.6696C41.6631 40.0565 42.2291 39.401 42.7466 38.7079H35.0241C33.8041 38.7079 32.6605 36.9854 32.3782 36.1242C32.1956 35.6258 31.9569 34.4445 31.7605 33.473C31.6534 32.9428 31.5589 32.4752 31.493 32.2151C30.895 29.8132 29.0146 29.6888 28.584 29.6888ZM17.9721 42.2591C17.7023 41.9813 17.3347 41.8196 16.9476 41.8084C16.7486 41.8026 16.5504 41.8368 16.3649 41.909C16.1794 41.9812 16.0102 42.0899 15.8674 42.2287C15.7247 42.3674 15.6112 42.5334 15.5337 42.7168C15.4563 42.9002 15.4164 43.0973 15.4165 43.2964C15.4165 43.6911 15.5733 44.0695 15.8523 44.3486C16.1314 44.6277 16.5099 44.7844 16.9045 44.7844C17.2992 44.7844 17.6777 44.6277 17.9567 44.3486C18.2358 44.0695 18.3926 43.6911 18.3926 43.2964C18.3927 42.9091 18.2419 42.537 17.9721 42.2591ZM40.0056 42.3261C39.7357 42.0483 39.3682 41.8866 38.9811 41.8754C38.7821 41.8696 38.5839 41.9038 38.3984 41.976C38.2129 42.0482 38.0437 42.1569 37.9009 42.2957C37.7582 42.4344 37.6447 42.6004 37.5672 42.7838C37.4898 42.9672 37.4499 43.1643 37.45 43.3634C37.45 43.758 37.6068 44.1365 37.8858 44.4156C38.1649 44.6947 38.5434 44.8514 38.938 44.8514C39.3327 44.8514 39.7112 44.6947 39.9902 44.4156C40.2693 44.1365 40.4261 43.758 40.4261 43.3634C40.4262 42.9761 40.2754 42.604 40.0056 42.3261Z" fill="white"/>
</svg>
