<svg width="138" height="28" viewBox="0 0 138 28" fill="none" xmlns="http://www.w3.org/2000/svg">
<g clip-path="url(#clip0_918_432)">
<mask id="mask0_918_432" style="mask-type:luminance" maskUnits="userSpaceOnUse" x="0" y="0" width="138" height="28">
<path d="M137.816 0.238525H0V27.2393H137.816V0.238525Z" fill="white"/>
</mask>
<g mask="url(#mask0_918_432)">
<path d="M12.7756 27.2393V25.518C12.7756 23.8932 13.597 22.3787 14.9558 21.4932L16.7226 20.3401L10.6119 8.63557L4.50108 20.3401L6.27064 21.4932C7.62951 22.3787 8.44814 23.8904 8.4509 25.5124V27.2365L0 21.7056L10.6146 0.238525L21.2292 21.7056L12.7783 27.2393H12.7756Z" fill="#25F2D0"/>
<path d="M38.0012 9.60429C37.9295 9.73119 37.8523 9.82221 37.7724 9.87739C37.6925 9.93533 37.5905 9.96294 37.472 9.96294C37.3534 9.96294 37.2101 9.91603 37.064 9.82502C36.9179 9.73395 36.7415 9.62915 36.5376 9.51603C36.3336 9.40291 36.0966 9.29812 35.8237 9.20705C35.5508 9.11604 35.2283 9.06637 34.859 9.06637C34.5227 9.06637 34.2305 9.10777 33.9797 9.18776C33.7289 9.26774 33.5166 9.38086 33.3457 9.5243C33.1749 9.66774 33.0481 9.84156 32.9626 10.0402C32.8799 10.2416 32.8358 10.4622 32.8358 10.7022C32.8358 11.0084 32.9213 11.2622 33.0922 11.4664C33.2631 11.6705 33.4891 11.8442 33.7702 11.9877C34.0514 12.1311 34.3711 12.2608 34.7322 12.3739C35.0905 12.487 35.4598 12.6084 35.8375 12.738C36.2151 12.8677 36.5844 13.0166 36.9427 13.1877C37.3011 13.3587 37.6236 13.5738 37.9047 13.8359C38.1859 14.098 38.4119 14.4152 38.5828 14.7931C38.7537 15.1711 38.8391 15.629 38.8391 16.1697C38.8391 16.7572 38.7399 17.3062 38.5387 17.8193C38.3375 18.3324 38.0453 18.7793 37.6594 19.1599C37.2735 19.5406 36.8022 19.8413 36.2454 20.0593C35.6886 20.2772 35.0492 20.3875 34.3325 20.3875C33.9191 20.3875 33.5111 20.3461 33.1115 20.2661C32.709 20.1861 32.3259 20.0703 31.9566 19.9185C31.5872 19.7696 31.2427 19.5903 30.9174 19.3779C30.5949 19.1683 30.3055 18.9337 30.0547 18.6772L30.7658 17.5186C30.8265 17.4358 30.9036 17.3641 31.0001 17.3062C31.0966 17.2482 31.1986 17.2207 31.3061 17.2207C31.4549 17.2207 31.6175 17.2814 31.7912 17.4055C31.9648 17.5296 32.1715 17.6648 32.4113 17.8138C32.6511 17.9627 32.9323 18.1007 33.252 18.2221C33.5718 18.3461 33.9576 18.4068 34.4069 18.4068C35.096 18.4068 35.628 18.2441 36.0056 17.9158C36.3832 17.5903 36.5706 17.1213 36.5706 16.509C36.5706 16.1669 36.4852 15.8883 36.3143 15.6731C36.1434 15.458 35.9174 15.2759 35.6363 15.1297C35.3551 14.9835 35.0354 14.8593 34.6743 14.7573C34.316 14.6552 33.9494 14.5449 33.5773 14.4235C33.2052 14.3049 32.8413 14.1587 32.4803 13.9932C32.1219 13.8249 31.7994 13.607 31.5183 13.3366C31.2372 13.0663 31.0111 12.7297 30.8402 12.3242C30.6694 11.9187 30.5839 11.4194 30.5839 10.8263C30.5839 10.3519 30.6776 9.89117 30.8678 9.44156C31.058 8.99189 31.3309 8.59189 31.6892 8.24432C32.0475 7.89675 32.4913 7.61814 33.0205 7.40849C33.547 7.19884 34.1533 7.09399 34.8342 7.09399C35.6004 7.09399 36.3088 7.21263 36.9538 7.45265C37.6015 7.69261 38.1528 8.02916 38.6076 8.45948L38.0067 9.60153L38.0012 9.60429Z" fill="white"/>
<path d="M48.7539 7.23706C49.6222 7.23706 50.3747 7.33915 51.0086 7.54329C51.6426 7.74742 52.169 8.03154 52.5797 8.39841C52.9932 8.76533 53.2991 9.20116 53.5003 9.71147C53.7016 10.2218 53.8008 10.7791 53.8008 11.3832C53.8008 11.9873 53.696 12.5887 53.4866 13.1155C53.2771 13.6424 52.9629 14.0921 52.5439 14.47C52.1249 14.8479 51.5985 15.1403 50.9673 15.35C50.3361 15.5596 49.5974 15.6645 48.7539 15.6645H46.9486V20.2409H44.5312V7.23706H48.7539ZM48.7539 13.7748C49.1977 13.7748 49.5837 13.7197 49.9117 13.6094C50.2424 13.499 50.5152 13.339 50.733 13.1321C50.9508 12.9252 51.1134 12.6742 51.2236 12.3762C51.3311 12.0783 51.3862 11.7473 51.3862 11.3832C51.3862 11.0191 51.3311 10.7211 51.2236 10.4397C51.1161 10.1584 50.9535 9.91836 50.7386 9.71979C50.5236 9.52117 50.2507 9.36941 49.9199 9.26462C49.5892 9.15976 49.2005 9.10739 48.7512 9.10739H46.9458V13.7748H48.7512H48.7539Z" fill="white"/>
<path d="M61.6756 9.16252V12.768H66.2208V14.63H61.6756V18.3071H67.4446V20.2409H59.25V7.23706H67.4446V9.16252H61.6756Z" fill="white"/>
<path d="M84.3086 20.2415H82.4398C82.2303 20.2415 82.06 20.1892 81.9277 20.0843C81.7954 19.9795 81.6956 19.8498 81.6322 19.6926L80.6625 17.0388H75.2794L74.3087 19.6926C74.2618 19.8305 74.1686 19.9574 74.0308 20.0705C73.893 20.1836 73.7216 20.2415 73.5176 20.2415H71.6328L76.7458 7.24048H79.2072L84.3086 20.2415ZM80.0424 15.3313L78.4602 11.0059C78.3831 10.8128 78.3004 10.5866 78.2177 10.3218C78.135 10.0569 78.0495 9.77283 77.9668 9.4666C77.8897 9.77283 77.8097 10.0597 77.7243 10.3245C77.6416 10.5921 77.5589 10.8238 77.4817 11.0224L75.9106 15.3285H80.0424V15.3313Z" fill="white"/>
<path d="M99.3933 20.2409H97.2103C96.7968 20.2409 96.4964 20.0781 96.3117 19.7554L93.5802 15.5928C93.4782 15.4355 93.3652 15.3252 93.2439 15.259C93.1226 15.1928 92.9407 15.1596 92.7009 15.1596H91.6673V20.2409H89.25V7.23706H93.2136C94.0929 7.23706 94.8509 7.32807 95.4821 7.51016C96.1133 7.69224 96.6314 7.9488 97.0366 8.27978C97.4418 8.61081 97.7395 9.00254 97.9297 9.46324C98.1199 9.92112 98.2163 10.426 98.2163 10.9777C98.2163 11.4163 98.1529 11.83 98.0234 12.219C97.8938 12.608 97.7092 12.9611 97.4666 13.2811C97.2241 13.5983 96.9236 13.8769 96.568 14.1169C96.2125 14.3569 95.8045 14.5445 95.3497 14.6824C95.5069 14.7735 95.6502 14.8783 95.7825 15.0024C95.9148 15.1266 96.0333 15.27 96.1408 15.4382L99.3933 20.2409ZM93.175 13.4245C93.6298 13.4245 94.0267 13.3666 94.3657 13.2535C94.7048 13.1404 94.9832 12.9831 95.2009 12.7817C95.4187 12.5804 95.584 12.3432 95.6915 12.0673C95.799 11.7914 95.8542 11.488 95.8542 11.1598C95.8542 10.5004 95.6364 9.99289 95.2037 9.63975C94.7682 9.28667 94.1066 9.11015 93.2136 9.11015H91.6673V13.4273H93.1778L93.175 13.4245Z" fill="white"/>
<path d="M108.87 7.23706C109.721 7.23706 110.449 7.31705 111.053 7.47984C111.656 7.64257 112.152 7.87151 112.538 8.17223C112.924 8.47289 113.208 8.8343 113.387 9.2591C113.566 9.68391 113.657 10.1639 113.657 10.6991C113.657 11.0052 113.613 11.2977 113.522 11.5763C113.431 11.8549 113.294 12.117 113.103 12.3597C112.913 12.6025 112.676 12.8231 112.384 13.0218C112.092 13.2204 111.747 13.3886 111.345 13.5266C113.128 13.9293 114.021 14.892 114.021 16.4231C114.021 16.9748 113.916 17.4851 113.707 17.9513C113.498 18.4175 113.192 18.823 112.792 19.1596C112.389 19.4989 111.896 19.7637 111.309 19.954C110.722 20.1471 110.052 20.2409 109.297 20.2409H104.391V7.23706H108.864H108.87ZM106.811 9.10739V12.8673H108.735C109.561 12.8673 110.184 12.7183 110.609 12.4176C111.031 12.117 111.243 11.6425 111.243 10.9887C111.243 10.335 111.05 9.8301 110.667 9.54047C110.284 9.25359 109.686 9.11015 108.87 9.11015H106.811V9.10739ZM109.256 18.3513C109.705 18.3513 110.082 18.2961 110.388 18.1886C110.694 18.0809 110.937 17.9375 111.122 17.7582C111.306 17.5789 111.436 17.3693 111.518 17.1292C111.598 16.8893 111.64 16.6355 111.64 16.3651C111.64 16.0948 111.596 15.83 111.505 15.6065C111.414 15.3804 111.273 15.19 111.083 15.03C110.89 14.87 110.645 14.7486 110.342 14.6659C110.038 14.5831 109.675 14.539 109.25 14.539H106.816V18.3513H109.261H109.256Z" fill="white"/>
<path d="M122.254 20.2409H119.828V7.23706H122.254V20.2382V20.2409Z" fill="white"/>
<path d="M137.813 9.22663H133.897V20.2415H131.479V9.22663H127.562V7.24048H137.813V9.22663Z" fill="white"/>
</g>
</g>
<defs>
<clipPath id="clip0_918_432">
<rect width="137.816" height="27.012" fill="white" transform="translate(0 0.238525)"/>
</clipPath>
</defs>
</svg>
