<svg width="181" height="23" viewBox="0 0 181 23" fill="none" xmlns="http://www.w3.org/2000/svg">
<path d="M0.164062 22.7196L12.1317 0.280273H22.6033L34.571 22.7196H27.0912L17.3675 4.48764L7.64382 22.7196H0.164062Z" fill="white"/>
<path d="M123.074 4.76813H121.901V19.7216H123.074V4.76813Z" fill="white"/>
<path d="M149.121 4.76813H150.294V11.7004L152.702 9.29196H155.823L157.645 11.1139V19.7216H156.472V11.47L155.32 10.3391H153.058L150.294 13.1036V19.7216H149.121V4.76813Z" fill="white"/>
<path fill-rule="evenodd" clip-rule="evenodd" d="M160.671 17.8995V11.1139L162.493 9.29178H167.687L169.51 11.1139V17.8995L167.687 19.7216H162.493L160.671 17.8995ZM167.185 18.6535L168.337 17.5224V11.47L167.185 10.3389H162.996L161.844 11.47V17.5224L162.996 18.6535H167.185Z" fill="white"/>
<path d="M172.415 9.29178H171.18L174.949 19.7216H176.437L180.164 9.29178H178.949L175.724 18.5905H175.64L172.415 9.29178Z" fill="white"/>
<path d="M137.887 17.8995V11.1139L139.709 9.29178H144.568L146.39 11.1139V12.182H145.217V11.47L144.065 10.3389H140.212L139.06 11.4908V17.5224L140.212 18.6535H144.065L145.217 17.5224V16.8314H146.39V17.8995L144.568 19.7216H139.709L137.887 17.8995Z" fill="white"/>
<path fill-rule="evenodd" clip-rule="evenodd" d="M126.311 17.8995V11.1139L128.133 9.29178H133.223L135.066 11.1139V14.8209H127.484V17.5016L128.657 18.6535H132.699L133.872 17.5224V16.601H135.044V17.8785L133.202 19.7216H128.133L126.311 17.8995ZM133.893 13.7946V11.4908L132.741 10.3389H128.636L127.484 11.4908V13.7946H133.893Z" fill="white"/>
<path d="M109.992 9.29178V17.8995L111.814 19.7216H114.872L117.302 17.2922V19.7216H118.453V9.29178H117.281V15.889L114.516 18.6535H112.317L111.165 17.5224V9.29178H109.992Z" fill="white"/>
<path d="M99.1043 5.06122H97.8896V19.7216H99.1043V12.936H102.853L106.895 19.7216H108.214L103.859 12.3704L107.9 5.06122H106.602L102.853 11.8469H99.1043V5.06122Z" fill="white"/>
<path d="M87.781 6.04568V6.8415L88.3047 7.36523H89.0585L89.5823 6.8415V6.04568L89.0585 5.52213H88.3047L87.781 6.04568Z" fill="white"/>
<path d="M88.0951 9.29196H89.2682V19.7216H88.0951V9.29196Z" fill="white"/>
<path d="M76.1669 9.29178H77.3188V11.7212L79.7483 9.29178H82.8271L84.6488 11.1139V19.7216H83.4765V11.4908L82.3246 10.3599H80.104L77.34 13.1034V19.7216H76.1669V9.29178Z" fill="white"/>
<path fill-rule="evenodd" clip-rule="evenodd" d="M64.4812 18.109V15.3654L66.0941 13.7946H71.7484V11.47L70.5965 10.3181H66.9107L65.7376 11.47V12.4124H64.5652V11.1139L66.387 9.29178H71.0991L72.9215 11.1139V19.7216H71.7696V17.6901L69.6754 19.7216H66.0941L64.4812 18.109ZM69.403 18.6743L71.7484 16.3707V14.8417H66.5754L65.6543 15.7213V17.7739L66.5754 18.6743H69.403Z" fill="white"/>
<path d="M57.7407 17.8995V10.3181H55.8561V9.29178H57.7831V5.89904H58.9138V9.29178H62.1811V10.3391H58.9138V17.5226L60.0657 18.6745H62.1811V19.7216H59.5631L57.7407 17.8995Z" fill="white"/>
<path d="M44.1128 17.8995V16.7894H45.3063V17.4806L46.4378 18.6325H51.6108L52.7627 17.4388V13.8784L51.6108 12.7265H45.9769L44.1544 10.9254V6.88332L45.9769 5.06122H51.9665L53.7882 6.88332V8.01423H52.5947V7.28123L51.4428 6.15032H46.5006L45.3487 7.28123V10.5065L46.5006 11.6374H52.1338L53.9563 13.4595V17.8575L52.0922 19.7216H45.9345L44.1128 17.8995Z" fill="white"/>
</svg>
