<svg width="624" height="577" viewBox="0 0 624 577" fill="none" xmlns="http://www.w3.org/2000/svg">
<rect x="130.5" y="20.5" width="160" height="83" stroke="url(#paint0_linear_166_12)"/>
<path d="M188.308 66L187.024 57.6H188.044L188.896 64.08L190.084 57.6H191.116L192.304 64.08L193.156 57.6H194.176L192.892 66H191.74L190.6 59.544L189.46 66H188.308ZM195.827 66V57.6H201.071V58.512H196.835V61.308H200.711V62.22H196.835V65.088H201.071V66H195.827ZM203.383 66V57.6H206.179C207.051 57.6 207.707 57.8 208.147 58.2C208.587 58.6 208.807 59.112 208.807 59.736C208.807 60.224 208.675 60.628 208.411 60.948C208.147 61.26 207.851 61.48 207.523 61.608V61.692C207.915 61.82 208.259 62.052 208.555 62.388C208.851 62.724 208.999 63.156 208.999 63.684C208.999 64.116 208.891 64.508 208.675 64.86C208.467 65.204 208.159 65.48 207.751 65.688C207.351 65.896 206.859 66 206.275 66H203.383ZM204.391 61.224H206.107C206.643 61.224 207.051 61.108 207.331 60.876C207.619 60.636 207.763 60.292 207.763 59.844C207.763 59.42 207.623 59.092 207.343 58.86C207.063 58.628 206.639 58.512 206.071 58.512H204.391V61.224ZM204.391 65.076H206.167C206.743 65.076 207.187 64.948 207.499 64.692C207.811 64.428 207.967 64.06 207.967 63.588C207.967 63.116 207.803 62.752 207.475 62.496C207.147 62.232 206.703 62.1 206.143 62.1H204.391V65.076ZM221.769 66.144C221.209 66.144 220.709 66.028 220.269 65.796C219.837 65.564 219.493 65.212 219.237 64.74C218.989 64.26 218.865 63.66 218.865 62.94V57.6H219.873V62.976C219.873 63.696 220.049 64.252 220.401 64.644C220.753 65.036 221.217 65.232 221.793 65.232C222.369 65.232 222.829 65.036 223.173 64.644C223.517 64.252 223.689 63.696 223.689 62.976V57.6H224.697V62.94C224.697 63.66 224.569 64.26 224.313 64.74C224.057 65.212 223.709 65.564 223.269 65.796C222.829 66.028 222.329 66.144 221.769 66.144ZM227.165 66V65.124H229.073V58.476H227.165V57.6H231.989V58.476H230.081V65.124H231.989V66H227.165Z" fill="#DAD3D3"/>
<path d="M23.6 33.144C22.92 33.144 22.336 32.964 21.848 32.604C21.36 32.244 20.984 31.74 20.72 31.092C20.464 30.436 20.336 29.672 20.336 28.8C20.336 27.928 20.464 27.168 20.72 26.52C20.984 25.864 21.36 25.356 21.848 24.996C22.336 24.636 22.92 24.456 23.6 24.456C24.28 24.456 24.864 24.636 25.352 24.996C25.84 25.356 26.212 25.864 26.468 26.52C26.732 27.168 26.864 27.928 26.864 28.8C26.864 29.672 26.732 30.436 26.468 31.092C26.212 31.74 25.84 32.244 25.352 32.604C24.864 32.964 24.28 33.144 23.6 33.144ZM23.6 32.196C24.264 32.196 24.8 31.9 25.208 31.308C25.624 30.716 25.832 29.88 25.832 28.8C25.832 27.72 25.624 26.884 25.208 26.292C24.8 25.7 24.264 25.404 23.6 25.404C22.928 25.404 22.388 25.7 21.98 26.292C21.572 26.884 21.368 27.72 21.368 28.8C21.368 29.88 21.572 30.716 21.98 31.308C22.388 31.9 22.928 32.196 23.6 32.196ZM28.8873 33V24.6H34.1313V25.536H29.8953V28.464H33.5193V29.364H29.8953V33H28.8873ZM36.6826 33V24.6H41.9266V25.536H37.6906V28.464H41.3146V29.364H37.6906V33H36.6826ZM45.0059 29.232V28.368H48.9659V29.232H45.0059ZM54.8412 33.144C54.1612 33.144 53.5732 32.964 53.0772 32.604C52.5892 32.244 52.2132 31.74 51.9492 31.092C51.6932 30.444 51.5652 29.68 51.5652 28.8C51.5652 27.928 51.6932 27.168 51.9492 26.52C52.2132 25.864 52.5892 25.356 53.0772 24.996C53.5732 24.636 54.1612 24.456 54.8412 24.456C55.7052 24.456 56.4012 24.696 56.9293 25.176C57.4572 25.648 57.7652 26.28 57.8533 27.072H56.7372C56.6572 26.6 56.4572 26.204 56.1372 25.884C55.8172 25.564 55.3852 25.404 54.8412 25.404C54.1452 25.404 53.5972 25.708 53.1972 26.316C52.7972 26.916 52.5972 27.744 52.5972 28.8C52.5972 29.864 52.7972 30.696 53.1972 31.296C53.5972 31.896 54.1452 32.196 54.8412 32.196C55.4092 32.196 55.8452 32.044 56.1493 31.74C56.4612 31.436 56.6572 31.044 56.7372 30.564H57.8533C57.7253 31.364 57.4052 31.996 56.8932 32.46C56.3892 32.916 55.7052 33.144 54.8412 33.144ZM59.5406 33V24.6H60.5486V28.224H64.6166V24.6H65.6246V33H64.6166V29.136H60.5486V33H59.5406ZM67.1679 33L69.7959 24.6H70.9599L73.5759 33H72.4719L71.8599 30.912H68.8839L68.2719 33H67.1679ZM70.3479 26.016L69.1359 30.072H71.6079L70.3959 26.016H70.3479ZM75.7552 33V32.124H77.6632V25.476H75.7552V24.6H80.5792V25.476H78.6712V32.124H80.5792V33H75.7552ZM83.0465 33V24.6H84.0785L87.8945 31.236V24.6H88.8905V33H87.8465L84.0305 26.364V33H83.0465ZM23.588 51.144C23.028 51.144 22.528 51.028 22.088 50.796C21.656 50.564 21.312 50.212 21.056 49.74C20.808 49.26 20.684 48.66 20.684 47.94V42.6H21.692V47.976C21.692 48.696 21.868 49.252 22.22 49.644C22.572 50.036 23.036 50.232 23.612 50.232C24.188 50.232 24.648 50.036 24.992 49.644C25.336 49.252 25.508 48.696 25.508 47.976V42.6H26.516V47.94C26.516 48.66 26.388 49.26 26.132 49.74C25.876 50.212 25.528 50.564 25.088 50.796C24.648 51.028 24.148 51.144 23.588 51.144ZM30.8913 51V43.512H28.6353V42.6H34.1553V43.512H31.8993V51H30.8913ZM36.7786 51V50.124H38.6866V43.476H36.7786V42.6H41.6026V43.476H39.6946V50.124H41.6026V51H36.7786ZM44.4299 51V42.6H45.4379V50.088H49.6979V51H44.4299ZM52.3692 51V50.124H54.2772V43.476H52.3692V42.6H57.1933V43.476H55.2852V50.124H57.1933V51H52.3692ZM62.0726 51V43.512H59.8166V42.6H65.3366V43.512H63.0806V51H62.0726ZM67.9599 51V50.124H69.8679V43.476H67.9599V42.6H72.7839V43.476H70.8759V50.124H72.7839V51H67.9599ZM75.5992 51V42.6H80.8432V43.512H76.6072V46.308H80.4832V47.22H76.6072V50.088H80.8432V51H75.5992ZM86.0465 51.144C85.4545 51.144 84.9385 51.032 84.4985 50.808C84.0665 50.584 83.7305 50.272 83.4905 49.872C83.2585 49.472 83.1385 49.004 83.1305 48.468H84.1865C84.1945 48.948 84.3545 49.364 84.6665 49.716C84.9865 50.06 85.4465 50.232 86.0465 50.232C86.5985 50.232 87.0225 50.1 87.3185 49.836C87.6225 49.564 87.7745 49.24 87.7745 48.864C87.7745 48.552 87.7025 48.292 87.5585 48.084C87.4145 47.868 87.1785 47.68 86.8505 47.52C86.5305 47.352 86.0985 47.18 85.5545 47.004C84.7865 46.772 84.2265 46.456 83.8745 46.056C83.5225 45.656 83.3465 45.16 83.3465 44.568C83.3465 44.168 83.4505 43.808 83.6585 43.488C83.8665 43.168 84.1665 42.916 84.5585 42.732C84.9505 42.548 85.4265 42.456 85.9865 42.456C86.5145 42.456 86.9745 42.556 87.3665 42.756C87.7665 42.948 88.0745 43.22 88.2905 43.572C88.5145 43.924 88.6265 44.328 88.6265 44.784H87.5705C87.5705 44.56 87.5105 44.34 87.3905 44.124C87.2705 43.908 87.0905 43.728 86.8505 43.584C86.6105 43.44 86.3065 43.368 85.9385 43.368C85.4985 43.368 85.1305 43.476 84.8345 43.692C84.5385 43.9 84.3905 44.188 84.3905 44.556C84.3905 44.836 84.4545 45.072 84.5825 45.264C84.7185 45.456 84.9385 45.632 85.2425 45.792C85.5465 45.944 85.9585 46.108 86.4785 46.284C86.9665 46.444 87.3825 46.632 87.7265 46.848C88.0785 47.056 88.3465 47.316 88.5305 47.628C88.7225 47.94 88.8185 48.328 88.8185 48.792C88.8185 49.248 88.7025 49.652 88.4705 50.004C88.2385 50.356 87.9145 50.636 87.4985 50.844C87.0825 51.044 86.5985 51.144 86.0465 51.144Z" fill="white"/>
<path d="M23.6 302.144C22.92 302.144 22.336 301.964 21.848 301.604C21.36 301.244 20.984 300.74 20.72 300.092C20.464 299.436 20.336 298.672 20.336 297.8C20.336 296.928 20.464 296.168 20.72 295.52C20.984 294.864 21.36 294.356 21.848 293.996C22.336 293.636 22.92 293.456 23.6 293.456C24.28 293.456 24.864 293.636 25.352 293.996C25.84 294.356 26.212 294.864 26.468 295.52C26.732 296.168 26.864 296.928 26.864 297.8C26.864 298.672 26.732 299.436 26.468 300.092C26.212 300.74 25.84 301.244 25.352 301.604C24.864 301.964 24.28 302.144 23.6 302.144ZM23.6 301.196C24.264 301.196 24.8 300.9 25.208 300.308C25.624 299.716 25.832 298.88 25.832 297.8C25.832 296.72 25.624 295.884 25.208 295.292C24.8 294.7 24.264 294.404 23.6 294.404C22.928 294.404 22.388 294.7 21.98 295.292C21.572 295.884 21.368 296.72 21.368 297.8C21.368 298.88 21.572 299.716 21.98 300.308C22.388 300.9 22.928 301.196 23.6 301.196ZM28.4793 302V293.6H29.5113L33.3273 300.236V293.6H34.3233V302H33.2793L29.4633 295.364V302H28.4793ZM37.2106 298.232V297.368H41.1706V298.232H37.2106ZM47.0459 302.144C46.3659 302.144 45.7779 301.964 45.2819 301.604C44.7939 301.244 44.4179 300.74 44.1539 300.092C43.8979 299.444 43.7699 298.68 43.7699 297.8C43.7699 296.928 43.8979 296.168 44.1539 295.52C44.4179 294.864 44.7939 294.356 45.2819 293.996C45.7779 293.636 46.3659 293.456 47.0459 293.456C47.9099 293.456 48.6059 293.696 49.1339 294.176C49.6619 294.648 49.9699 295.28 50.0579 296.072H48.9419C48.8619 295.6 48.6619 295.204 48.3419 294.884C48.0219 294.564 47.5899 294.404 47.0459 294.404C46.3499 294.404 45.8019 294.708 45.4019 295.316C45.0019 295.916 44.8019 296.744 44.8019 297.8C44.8019 298.864 45.0019 299.696 45.4019 300.296C45.8019 300.896 46.3499 301.196 47.0459 301.196C47.6139 301.196 48.0499 301.044 48.3539 300.74C48.6659 300.436 48.8619 300.044 48.9419 299.564H50.0579C49.9299 300.364 49.6099 300.996 49.0979 301.46C48.5939 301.916 47.9099 302.144 47.0459 302.144ZM51.7452 302V293.6H52.7532V297.224H56.8212V293.6H57.8292V302H56.8212V298.136H52.7532V302H51.7452ZM59.3726 302L62.0006 293.6H63.1646L65.7806 302H64.6766L64.0646 299.912H61.0886L60.4766 302H59.3726ZM62.5526 295.016L61.3406 299.072H63.8126L62.6006 295.016H62.5526ZM67.9599 302V301.124H69.8679V294.476H67.9599V293.6H72.7839V294.476H70.8759V301.124H72.7839V302H67.9599ZM75.2512 302V293.6H76.2832L80.0992 300.236V293.6H81.0952V302H80.0512L76.2352 295.364V302H75.2512ZM23.66 320.144C22.98 320.144 22.392 319.964 21.896 319.604C21.408 319.244 21.032 318.74 20.768 318.092C20.512 317.444 20.384 316.68 20.384 315.8C20.384 314.928 20.512 314.168 20.768 313.52C21.032 312.864 21.408 312.356 21.896 311.996C22.392 311.636 22.98 311.456 23.66 311.456C24.524 311.456 25.22 311.696 25.748 312.176C26.276 312.648 26.584 313.28 26.672 314.072H25.556C25.476 313.6 25.276 313.204 24.956 312.884C24.636 312.564 24.204 312.404 23.66 312.404C22.964 312.404 22.416 312.708 22.016 313.316C21.616 313.916 21.416 314.744 21.416 315.8C21.416 316.864 21.616 317.696 22.016 318.296C22.416 318.896 22.964 319.196 23.66 319.196C24.228 319.196 24.664 319.044 24.968 318.74C25.28 318.436 25.476 318.044 25.556 317.564H26.672C26.544 318.364 26.224 318.996 25.712 319.46C25.208 319.916 24.524 320.144 23.66 320.144ZM31.3953 320.144C30.7153 320.144 30.1313 319.964 29.6433 319.604C29.1553 319.244 28.7793 318.74 28.5153 318.092C28.2593 317.436 28.1313 316.672 28.1313 315.8C28.1313 314.928 28.2593 314.168 28.5153 313.52C28.7793 312.864 29.1553 312.356 29.6433 311.996C30.1313 311.636 30.7153 311.456 31.3953 311.456C32.0753 311.456 32.6593 311.636 33.1473 311.996C33.6353 312.356 34.0073 312.864 34.2633 313.52C34.5273 314.168 34.6593 314.928 34.6593 315.8C34.6593 316.672 34.5273 317.436 34.2633 318.092C34.0073 318.74 33.6353 319.244 33.1473 319.604C32.6593 319.964 32.0753 320.144 31.3953 320.144ZM31.3953 319.196C32.0593 319.196 32.5953 318.9 33.0033 318.308C33.4193 317.716 33.6273 316.88 33.6273 315.8C33.6273 314.72 33.4193 313.884 33.0033 313.292C32.5953 312.7 32.0593 312.404 31.3953 312.404C30.7233 312.404 30.1833 312.7 29.7753 313.292C29.3673 313.884 29.1633 314.72 29.1633 315.8C29.1633 316.88 29.3673 317.716 29.7753 318.308C30.1833 318.9 30.7233 319.196 31.3953 319.196ZM36.2746 320V311.6H37.3066L41.1226 318.236V311.6H42.1186V320H41.0746L37.2586 313.364V320H36.2746ZM46.4819 320V312.512H44.2259V311.6H49.7459V312.512H47.4899V320H46.4819ZM52.1652 320V311.6H54.7452C55.3932 311.6 55.9252 311.708 56.3412 311.924C56.7652 312.14 57.0812 312.436 57.2892 312.812C57.4972 313.18 57.6012 313.6 57.6012 314.072C57.6012 314.624 57.4572 315.112 57.1692 315.536C56.8892 315.952 56.4572 316.244 55.8733 316.412L57.6973 320H56.4972L54.8052 316.556H54.7452H53.1732V320H52.1652ZM53.1732 315.632H54.7092C55.3492 315.632 55.8172 315.488 56.1132 315.2C56.4172 314.904 56.5692 314.528 56.5692 314.072C56.5692 313.592 56.4212 313.212 56.1252 312.932C55.8372 312.652 55.3612 312.512 54.6972 312.512H53.1732V315.632ZM59.3726 320L62.0006 311.6H63.1646L65.7806 320H64.6766L64.0646 317.912H61.0886L60.4766 320H59.3726ZM62.5526 313.016L61.3406 317.072H63.8126L62.6006 313.016H62.5526ZM70.4319 320.144C69.7519 320.144 69.1639 319.964 68.6679 319.604C68.1799 319.244 67.8039 318.74 67.5399 318.092C67.2839 317.444 67.1559 316.68 67.1559 315.8C67.1559 314.928 67.2839 314.168 67.5399 313.52C67.8039 312.864 68.1799 312.356 68.6679 311.996C69.1639 311.636 69.7519 311.456 70.4319 311.456C71.2959 311.456 71.9919 311.696 72.5199 312.176C73.0479 312.648 73.3559 313.28 73.4439 314.072H72.3279C72.2479 313.6 72.0479 313.204 71.7279 312.884C71.4079 312.564 70.9759 312.404 70.4319 312.404C69.7359 312.404 69.1879 312.708 68.7879 313.316C68.3879 313.916 68.1879 314.744 68.1879 315.8C68.1879 316.864 68.3879 317.696 68.7879 318.296C69.1879 318.896 69.7359 319.196 70.4319 319.196C70.9999 319.196 71.4359 319.044 71.7399 318.74C72.0519 318.436 72.2479 318.044 72.3279 317.564H73.4439C73.3159 318.364 72.9959 318.996 72.4839 319.46C71.9799 319.916 71.2959 320.144 70.4319 320.144ZM77.6632 320V312.512H75.4072V311.6H80.9272V312.512H78.6712V320H77.6632ZM86.0465 320.144C85.4545 320.144 84.9385 320.032 84.4985 319.808C84.0665 319.584 83.7305 319.272 83.4905 318.872C83.2585 318.472 83.1385 318.004 83.1305 317.468H84.1865C84.1945 317.948 84.3545 318.364 84.6665 318.716C84.9865 319.06 85.4465 319.232 86.0465 319.232C86.5985 319.232 87.0225 319.1 87.3185 318.836C87.6225 318.564 87.7745 318.24 87.7745 317.864C87.7745 317.552 87.7025 317.292 87.5585 317.084C87.4145 316.868 87.1785 316.68 86.8505 316.52C86.5305 316.352 86.0985 316.18 85.5545 316.004C84.7865 315.772 84.2265 315.456 83.8745 315.056C83.5225 314.656 83.3465 314.16 83.3465 313.568C83.3465 313.168 83.4505 312.808 83.6585 312.488C83.8665 312.168 84.1665 311.916 84.5585 311.732C84.9505 311.548 85.4265 311.456 85.9865 311.456C86.5145 311.456 86.9745 311.556 87.3665 311.756C87.7665 311.948 88.0745 312.22 88.2905 312.572C88.5145 312.924 88.6265 313.328 88.6265 313.784H87.5705C87.5705 313.56 87.5105 313.34 87.3905 313.124C87.2705 312.908 87.0905 312.728 86.8505 312.584C86.6105 312.44 86.3065 312.368 85.9385 312.368C85.4985 312.368 85.1305 312.476 84.8345 312.692C84.5385 312.9 84.3905 313.188 84.3905 313.556C84.3905 313.836 84.4545 314.072 84.5825 314.264C84.7185 314.456 84.9385 314.632 85.2425 314.792C85.5465 314.944 85.9585 315.108 86.4785 315.284C86.9665 315.444 87.3825 315.632 87.7265 315.848C88.0785 316.056 88.3465 316.316 88.5305 316.628C88.7225 316.94 88.8185 317.328 88.8185 317.792C88.8185 318.248 88.7025 318.652 88.4705 319.004C88.2385 319.356 87.9145 319.636 87.4985 319.844C87.0825 320.044 86.5985 320.144 86.0465 320.144Z" fill="white"/>
<path d="M20 265H585.5" stroke="#565E6F" stroke-dasharray="4 8"/>
<rect x="161.5" y="320.5" width="98" height="63" stroke="url(#paint1_linear_166_12)"/>
<path d="M172.387 347V338.6H173.395V342.224H177.463V338.6H178.471V347H177.463V343.136H173.395V347H172.387ZM182.715 347V343.7L179.991 338.6H181.131L183.219 342.68L185.307 338.6H186.447L183.723 343.7V347H182.715ZM188.302 347V338.6H191.098C191.738 338.6 192.262 338.716 192.67 338.948C193.078 339.18 193.378 339.488 193.57 339.872C193.762 340.256 193.858 340.68 193.858 341.144C193.858 341.608 193.762 342.032 193.57 342.416C193.378 342.8 193.078 343.108 192.67 343.34C192.262 343.572 191.738 343.688 191.098 343.688H189.31V347H188.302ZM189.31 342.764H191.074C191.666 342.764 192.106 342.616 192.394 342.32C192.682 342.016 192.826 341.624 192.826 341.144C192.826 340.664 192.682 340.272 192.394 339.968C192.106 339.664 191.666 339.512 191.074 339.512H189.31V342.764ZM196.241 347V338.6H201.485V339.512H197.249V342.308H201.125V343.22H197.249V346.088H201.485V347H196.241ZM203.989 347V338.6H206.569C207.217 338.6 207.749 338.708 208.165 338.924C208.589 339.14 208.905 339.436 209.113 339.812C209.321 340.18 209.425 340.6 209.425 341.072C209.425 341.624 209.281 342.112 208.993 342.536C208.713 342.952 208.281 343.244 207.697 343.412L209.521 347H208.321L206.629 343.556H206.569H204.997V347H203.989ZM204.997 342.632H206.533C207.173 342.632 207.641 342.488 207.937 342.2C208.241 341.904 208.393 341.528 208.393 341.072C208.393 340.592 208.245 340.212 207.949 339.932C207.661 339.652 207.185 339.512 206.521 339.512H204.997V342.632ZM211.592 347V338.6H213.356C214.732 338.6 215.748 338.976 216.404 339.728C217.068 340.48 217.4 341.504 217.4 342.8C217.4 344.096 217.068 345.12 216.404 345.872C215.748 346.624 214.732 347 213.356 347H211.592ZM212.6 346.076H213.332C214.068 346.076 214.656 345.94 215.096 345.668C215.544 345.396 215.868 345.016 216.068 344.528C216.268 344.04 216.368 343.464 216.368 342.8C216.368 342.136 216.268 341.56 216.068 341.072C215.868 340.584 215.544 340.204 215.096 339.932C214.656 339.66 214.068 339.524 213.332 339.524H212.6V346.076ZM219.579 347V338.6H222.159C222.807 338.6 223.339 338.708 223.755 338.924C224.179 339.14 224.495 339.436 224.703 339.812C224.911 340.18 225.015 340.6 225.015 341.072C225.015 341.624 224.871 342.112 224.583 342.536C224.303 342.952 223.871 343.244 223.287 343.412L225.111 347H223.911L222.219 343.556H222.159H220.587V347H219.579ZM220.587 342.632H222.123C222.763 342.632 223.231 342.488 223.527 342.2C223.831 341.904 223.983 341.528 223.983 341.072C223.983 340.592 223.835 340.212 223.539 339.932C223.251 339.652 222.775 339.512 222.111 339.512H220.587V342.632ZM227.579 347V346.124H229.487V339.476H227.579V338.6H232.403V339.476H230.495V346.124H232.403V347H227.579ZM237.186 347L234.51 338.6H235.59L237.786 345.692L239.982 338.6H241.074L238.386 347H237.186ZM243.013 347V338.6H248.257V339.512H244.021V342.308H247.897V343.22H244.021V346.088H248.257V347H243.013ZM199.503 365L202.131 356.6H203.295L205.911 365H204.807L204.195 362.912H201.219L200.607 365H199.503ZM202.683 358.016L201.471 362.072H203.943L202.731 358.016H202.683ZM207.502 365V356.6H208.582L210.502 360.596L212.422 356.6H213.502V365H212.518V358.544L210.886 361.94H210.118L208.486 358.556V365H207.502ZM215.298 365V356.6H216.378L218.298 360.596L220.218 356.6H221.298V365H220.314V358.544L218.682 361.94H217.914L216.282 358.556V365H215.298Z" fill="#DAD3D3"/>
<rect x="473.5" y="320.5" width="98" height="63" stroke="url(#paint2_linear_166_12)"/>
<path d="M484.387 347V338.6H485.395V342.224H489.463V338.6H490.471V347H489.463V343.136H485.395V347H484.387ZM494.715 347V343.7L491.991 338.6H493.131L495.219 342.68L497.307 338.6H498.447L495.723 343.7V347H494.715ZM500.302 347V338.6H503.098C503.738 338.6 504.262 338.716 504.67 338.948C505.078 339.18 505.378 339.488 505.57 339.872C505.762 340.256 505.858 340.68 505.858 341.144C505.858 341.608 505.762 342.032 505.57 342.416C505.378 342.8 505.078 343.108 504.67 343.34C504.262 343.572 503.738 343.688 503.098 343.688H501.31V347H500.302ZM501.31 342.764H503.074C503.666 342.764 504.106 342.616 504.394 342.32C504.682 342.016 504.826 341.624 504.826 341.144C504.826 340.664 504.682 340.272 504.394 339.968C504.106 339.664 503.666 339.512 503.074 339.512H501.31V342.764ZM508.241 347V338.6H513.485V339.512H509.249V342.308H513.125V343.22H509.249V346.088H513.485V347H508.241ZM515.989 347V338.6H518.569C519.217 338.6 519.749 338.708 520.165 338.924C520.589 339.14 520.905 339.436 521.113 339.812C521.321 340.18 521.425 340.6 521.425 341.072C521.425 341.624 521.281 342.112 520.993 342.536C520.713 342.952 520.281 343.244 519.697 343.412L521.521 347H520.321L518.629 343.556H518.569H516.997V347H515.989ZM516.997 342.632H518.533C519.173 342.632 519.641 342.488 519.937 342.2C520.241 341.904 520.393 341.528 520.393 341.072C520.393 340.592 520.245 340.212 519.949 339.932C519.661 339.652 519.185 339.512 518.521 339.512H516.997V342.632ZM523.592 347V338.6H525.356C526.732 338.6 527.748 338.976 528.404 339.728C529.068 340.48 529.4 341.504 529.4 342.8C529.4 344.096 529.068 345.12 528.404 345.872C527.748 346.624 526.732 347 525.356 347H523.592ZM524.6 346.076H525.332C526.068 346.076 526.656 345.94 527.096 345.668C527.544 345.396 527.868 345.016 528.068 344.528C528.268 344.04 528.368 343.464 528.368 342.8C528.368 342.136 528.268 341.56 528.068 341.072C527.868 340.584 527.544 340.204 527.096 339.932C526.656 339.66 526.068 339.524 525.332 339.524H524.6V346.076ZM531.579 347V338.6H534.159C534.807 338.6 535.339 338.708 535.755 338.924C536.179 339.14 536.495 339.436 536.703 339.812C536.911 340.18 537.015 340.6 537.015 341.072C537.015 341.624 536.871 342.112 536.583 342.536C536.303 342.952 535.871 343.244 535.287 343.412L537.111 347H535.911L534.219 343.556H534.159H532.587V347H531.579ZM532.587 342.632H534.123C534.763 342.632 535.231 342.488 535.527 342.2C535.831 341.904 535.983 341.528 535.983 341.072C535.983 340.592 535.835 340.212 535.539 339.932C535.251 339.652 534.775 339.512 534.111 339.512H532.587V342.632ZM539.579 347V346.124H541.487V339.476H539.579V338.6H544.403V339.476H542.495V346.124H544.403V347H539.579ZM549.186 347L546.51 338.6H547.59L549.786 345.692L551.982 338.6H553.074L550.386 347H549.186ZM555.013 347V338.6H560.257V339.512H556.021V342.308H559.897V343.22H556.021V346.088H560.257V347H555.013ZM511.503 365L514.131 356.6H515.295L517.911 365H516.807L516.195 362.912H513.219L512.607 365H511.503ZM514.683 358.016L513.471 362.072H515.943L514.731 358.016H514.683ZM519.502 365V356.6H520.582L522.502 360.596L524.422 356.6H525.502V365H524.518V358.544L522.886 361.94H522.118L520.486 358.556V365H519.502ZM527.298 365V356.6H528.378L530.298 360.596L532.218 356.6H533.298V365H532.314V358.544L530.682 361.94H529.914L528.282 358.556V365H527.298Z" fill="#DAD3D3"/>
<rect x="321.5" y="320.5" width="98" height="63" stroke="url(#paint3_linear_166_12)"/>
<path d="M332.387 347V338.6H333.395V342.224H337.463V338.6H338.471V347H337.463V343.136H333.395V347H332.387ZM342.715 347V343.7L339.991 338.6H341.131L343.219 342.68L345.307 338.6H346.447L343.723 343.7V347H342.715ZM348.302 347V338.6H351.098C351.738 338.6 352.262 338.716 352.67 338.948C353.078 339.18 353.378 339.488 353.57 339.872C353.762 340.256 353.858 340.68 353.858 341.144C353.858 341.608 353.762 342.032 353.57 342.416C353.378 342.8 353.078 343.108 352.67 343.34C352.262 343.572 351.738 343.688 351.098 343.688H349.31V347H348.302ZM349.31 342.764H351.074C351.666 342.764 352.106 342.616 352.394 342.32C352.682 342.016 352.826 341.624 352.826 341.144C352.826 340.664 352.682 340.272 352.394 339.968C352.106 339.664 351.666 339.512 351.074 339.512H349.31V342.764ZM356.241 347V338.6H361.485V339.512H357.249V342.308H361.125V343.22H357.249V346.088H361.485V347H356.241ZM363.989 347V338.6H366.569C367.217 338.6 367.749 338.708 368.165 338.924C368.589 339.14 368.905 339.436 369.113 339.812C369.321 340.18 369.425 340.6 369.425 341.072C369.425 341.624 369.281 342.112 368.993 342.536C368.713 342.952 368.281 343.244 367.697 343.412L369.521 347H368.321L366.629 343.556H366.569H364.997V347H363.989ZM364.997 342.632H366.533C367.173 342.632 367.641 342.488 367.937 342.2C368.241 341.904 368.393 341.528 368.393 341.072C368.393 340.592 368.245 340.212 367.949 339.932C367.661 339.652 367.185 339.512 366.521 339.512H364.997V342.632ZM371.592 347V338.6H373.356C374.732 338.6 375.748 338.976 376.404 339.728C377.068 340.48 377.4 341.504 377.4 342.8C377.4 344.096 377.068 345.12 376.404 345.872C375.748 346.624 374.732 347 373.356 347H371.592ZM372.6 346.076H373.332C374.068 346.076 374.656 345.94 375.096 345.668C375.544 345.396 375.868 345.016 376.068 344.528C376.268 344.04 376.368 343.464 376.368 342.8C376.368 342.136 376.268 341.56 376.068 341.072C375.868 340.584 375.544 340.204 375.096 339.932C374.656 339.66 374.068 339.524 373.332 339.524H372.6V346.076ZM379.579 347V338.6H382.159C382.807 338.6 383.339 338.708 383.755 338.924C384.179 339.14 384.495 339.436 384.703 339.812C384.911 340.18 385.015 340.6 385.015 341.072C385.015 341.624 384.871 342.112 384.583 342.536C384.303 342.952 383.871 343.244 383.287 343.412L385.111 347H383.911L382.219 343.556H382.159H380.587V347H379.579ZM380.587 342.632H382.123C382.763 342.632 383.231 342.488 383.527 342.2C383.831 341.904 383.983 341.528 383.983 341.072C383.983 340.592 383.835 340.212 383.539 339.932C383.251 339.652 382.775 339.512 382.111 339.512H380.587V342.632ZM387.579 347V346.124H389.487V339.476H387.579V338.6H392.403V339.476H390.495V346.124H392.403V347H387.579ZM397.186 347L394.51 338.6H395.59L397.786 345.692L399.982 338.6H401.074L398.386 347H397.186ZM403.013 347V338.6H408.257V339.512H404.021V342.308H407.897V343.22H404.021V346.088H408.257V347H403.013ZM359.503 365L362.131 356.6H363.295L365.911 365H364.807L364.195 362.912H361.219L360.607 365H359.503ZM362.683 358.016L361.471 362.072H363.943L362.731 358.016H362.683ZM367.502 365V356.6H368.582L370.502 360.596L372.422 356.6H373.502V365H372.518V358.544L370.886 361.94H370.118L368.486 358.556V365H367.502ZM375.298 365V356.6H376.378L378.298 360.596L380.218 356.6H381.298V365H380.314V358.544L378.682 361.94H377.914L376.282 358.556V365H375.298Z" fill="#DAD3D3"/>
<rect x="148.5" y="435.5" width="125" height="51" stroke="url(#paint4_linear_166_12)"/>
<path d="M155.532 456V447.6H160.776V448.512H156.54V451.308H160.416V452.22H156.54V455.088H160.776V456H155.532ZM163.279 456V447.6H165.859C166.507 447.6 167.039 447.708 167.455 447.924C167.879 448.14 168.195 448.436 168.403 448.812C168.611 449.18 168.715 449.6 168.715 450.072C168.715 450.624 168.571 451.112 168.283 451.536C168.003 451.952 167.571 452.244 166.987 452.412L168.811 456H167.611L165.919 452.556H165.859H164.287V456H163.279ZM164.287 451.632H165.823C166.463 451.632 166.931 451.488 167.227 451.2C167.531 450.904 167.683 450.528 167.683 450.072C167.683 449.592 167.535 449.212 167.239 448.932C166.951 448.652 166.475 448.512 165.811 448.512H164.287V451.632ZM173.751 456.144C173.071 456.144 172.483 455.964 171.987 455.604C171.499 455.244 171.123 454.74 170.859 454.092C170.603 453.444 170.475 452.68 170.475 451.8C170.475 450.928 170.603 450.168 170.859 449.52C171.123 448.864 171.499 448.356 171.987 447.996C172.483 447.636 173.071 447.456 173.751 447.456C174.615 447.456 175.311 447.696 175.839 448.176C176.367 448.648 176.675 449.28 176.763 450.072H175.647C175.567 449.6 175.367 449.204 175.047 448.884C174.727 448.564 174.295 448.404 173.751 448.404C173.055 448.404 172.507 448.708 172.107 449.316C171.707 449.916 171.507 450.744 171.507 451.8C171.507 452.864 171.707 453.696 172.107 454.296C172.507 454.896 173.055 455.196 173.751 455.196C174.319 455.196 174.755 455.044 175.059 454.74C175.371 454.436 175.567 454.044 175.647 453.564H176.763C176.635 454.364 176.315 454.996 175.803 455.46C175.299 455.916 174.615 456.144 173.751 456.144ZM182.518 456V454.056H178.498V453.276L182.326 447.6H183.526V453.144H184.726V454.056H183.526V456H182.518ZM179.626 453.144H182.566V448.776L179.626 453.144ZM189.449 456.144C188.713 456.144 188.113 455.968 187.649 455.616C187.193 455.256 186.853 454.776 186.629 454.176C186.413 453.568 186.305 452.884 186.305 452.124C186.305 451.204 186.433 450.396 186.689 449.7C186.945 448.996 187.313 448.448 187.793 448.056C188.281 447.656 188.865 447.456 189.545 447.456C190.081 447.456 190.537 447.56 190.913 447.768C191.297 447.968 191.597 448.244 191.813 448.596C192.037 448.94 192.169 449.328 192.209 449.76H191.261C191.181 449.336 190.989 449 190.685 448.752C190.381 448.496 190.001 448.368 189.545 448.368C189.145 448.368 188.777 448.496 188.441 448.752C188.113 449 187.841 449.388 187.625 449.916C187.417 450.436 187.297 451.1 187.265 451.908H187.325C187.509 451.564 187.793 451.264 188.177 451.008C188.561 450.752 189.025 450.624 189.569 450.624C190.073 450.624 190.525 450.74 190.925 450.972C191.325 451.204 191.641 451.524 191.873 451.932C192.113 452.34 192.233 452.804 192.233 453.324C192.233 453.836 192.117 454.308 191.885 454.74C191.661 455.164 191.337 455.504 190.913 455.76C190.497 456.016 190.009 456.144 189.449 456.144ZM189.377 455.232C189.929 455.232 190.373 455.056 190.709 454.704C191.045 454.352 191.213 453.912 191.213 453.384C191.213 452.848 191.045 452.408 190.709 452.064C190.373 451.712 189.929 451.536 189.377 451.536C189.009 451.536 188.685 451.616 188.405 451.776C188.133 451.936 187.917 452.156 187.757 452.436C187.605 452.716 187.529 453.032 187.529 453.384C187.529 453.736 187.605 454.052 187.757 454.332C187.917 454.612 188.133 454.832 188.405 454.992C188.685 455.152 189.009 455.232 189.377 455.232ZM194.365 456V455.208C195.229 454.52 195.981 453.888 196.621 453.312C197.269 452.736 197.769 452.18 198.121 451.644C198.473 451.108 198.649 450.56 198.649 450C198.649 449.496 198.505 449.1 198.217 448.812C197.937 448.516 197.557 448.368 197.077 448.368C196.709 448.368 196.397 448.448 196.141 448.608C195.885 448.768 195.693 448.98 195.565 449.244C195.437 449.508 195.373 449.792 195.373 450.096H194.377C194.385 449.544 194.505 449.072 194.737 448.68C194.977 448.28 195.297 447.976 195.697 447.768C196.105 447.56 196.565 447.456 197.077 447.456C197.901 447.456 198.541 447.684 198.997 448.14C199.453 448.596 199.681 449.208 199.681 449.976C199.681 450.48 199.573 450.964 199.357 451.428C199.141 451.884 198.853 452.324 198.493 452.748C198.133 453.172 197.729 453.58 197.281 453.972C196.833 454.364 196.381 454.74 195.925 455.1H199.909V456H194.365ZM205.04 456.144C204.304 456.144 203.704 455.968 203.24 455.616C202.784 455.256 202.444 454.776 202.22 454.176C202.004 453.568 201.896 452.884 201.896 452.124C201.896 451.204 202.024 450.396 202.28 449.7C202.536 448.996 202.904 448.448 203.384 448.056C203.872 447.656 204.456 447.456 205.136 447.456C205.672 447.456 206.128 447.56 206.504 447.768C206.888 447.968 207.188 448.244 207.404 448.596C207.628 448.94 207.76 449.328 207.8 449.76H206.852C206.772 449.336 206.58 449 206.276 448.752C205.972 448.496 205.592 448.368 205.136 448.368C204.736 448.368 204.368 448.496 204.032 448.752C203.704 449 203.432 449.388 203.216 449.916C203.008 450.436 202.888 451.1 202.856 451.908H202.916C203.1 451.564 203.384 451.264 203.768 451.008C204.152 450.752 204.616 450.624 205.16 450.624C205.664 450.624 206.116 450.74 206.516 450.972C206.916 451.204 207.232 451.524 207.464 451.932C207.704 452.34 207.824 452.804 207.824 453.324C207.824 453.836 207.708 454.308 207.476 454.74C207.252 455.164 206.928 455.504 206.504 455.76C206.088 456.016 205.6 456.144 205.04 456.144ZM204.968 455.232C205.52 455.232 205.964 455.056 206.3 454.704C206.636 454.352 206.804 453.912 206.804 453.384C206.804 452.848 206.636 452.408 206.3 452.064C205.964 451.712 205.52 451.536 204.968 451.536C204.6 451.536 204.276 451.616 203.996 451.776C203.724 451.936 203.508 452.156 203.348 452.436C203.196 452.716 203.12 453.032 203.12 453.384C203.12 453.736 203.196 454.052 203.348 454.332C203.508 454.612 203.724 454.832 203.996 454.992C204.276 455.152 204.6 455.232 204.968 455.232ZM157.5 474L154.824 465.6H155.904L158.1 472.692L160.296 465.6H161.388L158.7 474H157.5ZM162.691 474L165.319 465.6H166.483L169.099 474H167.995L167.383 471.912H164.407L163.795 474H162.691ZM165.871 467.016L164.659 471.072H167.131L165.919 467.016H165.871ZM173.679 474.144C173.119 474.144 172.619 474.028 172.179 473.796C171.747 473.564 171.403 473.212 171.147 472.74C170.899 472.26 170.775 471.66 170.775 470.94V465.6H171.783V470.976C171.783 471.696 171.959 472.252 172.311 472.644C172.663 473.036 173.127 473.232 173.703 473.232C174.279 473.232 174.739 473.036 175.083 472.644C175.427 472.252 175.599 471.696 175.599 470.976V465.6H176.607V470.94C176.607 471.66 176.479 472.26 176.223 472.74C175.967 473.212 175.619 473.564 175.179 473.796C174.739 474.028 174.239 474.144 173.679 474.144ZM178.93 474V465.6H179.938V473.088H184.198V474H178.93ZM188.777 474V466.512H186.521V465.6H192.041V466.512H189.785V474H188.777ZM202.58 474L201.296 465.6H202.316L203.168 472.08L204.356 465.6H205.388L206.576 472.08L207.428 465.6H208.448L207.164 474H206.012L204.872 467.544L203.732 474H202.58ZM210.051 474V465.6H212.631C213.279 465.6 213.811 465.708 214.227 465.924C214.651 466.14 214.967 466.436 215.175 466.812C215.383 467.18 215.487 467.6 215.487 468.072C215.487 468.624 215.343 469.112 215.055 469.536C214.775 469.952 214.343 470.244 213.759 470.412L215.583 474H214.383L212.691 470.556H212.631H211.059V474H210.051ZM211.059 469.632H212.595C213.235 469.632 213.703 469.488 213.999 469.2C214.303 468.904 214.455 468.528 214.455 468.072C214.455 467.592 214.307 467.212 214.011 466.932C213.723 466.652 213.247 466.512 212.583 466.512H211.059V469.632ZM217.258 474L219.886 465.6H221.05L223.666 474H222.562L221.95 471.912H218.974L218.362 474H217.258ZM220.438 467.016L219.226 471.072H221.698L220.486 467.016H220.438ZM225.546 474V465.6H228.342C228.982 465.6 229.506 465.716 229.914 465.948C230.322 466.18 230.622 466.488 230.814 466.872C231.006 467.256 231.102 467.68 231.102 468.144C231.102 468.608 231.006 469.032 230.814 469.416C230.622 469.8 230.322 470.108 229.914 470.34C229.506 470.572 228.982 470.688 228.342 470.688H226.554V474H225.546ZM226.554 469.764H228.318C228.91 469.764 229.35 469.616 229.638 469.32C229.926 469.016 230.07 468.624 230.07 468.144C230.07 467.664 229.926 467.272 229.638 466.968C229.35 466.664 228.91 466.512 228.318 466.512H226.554V469.764ZM233.341 474V465.6H236.137C236.777 465.6 237.301 465.716 237.709 465.948C238.117 466.18 238.417 466.488 238.609 466.872C238.801 467.256 238.897 467.68 238.897 468.144C238.897 468.608 238.801 469.032 238.609 469.416C238.417 469.8 238.117 470.108 237.709 470.34C237.301 470.572 236.777 470.688 236.137 470.688H234.349V474H233.341ZM234.349 469.764H236.113C236.705 469.764 237.145 469.616 237.433 469.32C237.721 469.016 237.865 468.624 237.865 468.144C237.865 467.664 237.721 467.272 237.433 466.968C237.145 466.664 236.705 466.512 236.113 466.512H234.349V469.764ZM241.28 474V465.6H246.524V466.512H242.288V469.308H246.164V470.22H242.288V473.088H246.524V474H241.28ZM249.028 474V465.6H251.608C252.256 465.6 252.788 465.708 253.204 465.924C253.628 466.14 253.944 466.436 254.152 466.812C254.36 467.18 254.464 467.6 254.464 468.072C254.464 468.624 254.32 469.112 254.032 469.536C253.752 469.952 253.32 470.244 252.736 470.412L254.56 474H253.36L251.668 470.556H251.608H250.036V474H249.028ZM250.036 469.632H251.572C252.212 469.632 252.68 469.488 252.976 469.2C253.28 468.904 253.432 468.528 253.432 468.072C253.432 467.592 253.284 467.212 252.988 466.932C252.7 466.652 252.224 466.512 251.56 466.512H250.036V469.632Z" fill="#DAD3D3"/>
<rect x="147.5" y="523.5" width="128" height="33" stroke="url(#paint5_linear_166_12)"/>
<path d="M158.096 544V540.7L155.372 535.6H156.512L158.6 539.68L160.688 535.6H161.828L159.104 540.7V544H158.096ZM163.983 544V543.124H165.891V536.476H163.983V535.6H168.807V536.476H166.899V543.124H168.807V544H163.983ZM171.623 544V535.6H176.867V536.512H172.631V539.308H176.507V540.22H172.631V543.088H176.867V544H171.623ZM179.43 544V535.6H180.438V543.088H184.698V544H179.43ZM186.973 544V535.6H188.737C190.113 535.6 191.129 535.976 191.785 536.728C192.449 537.48 192.781 538.504 192.781 539.8C192.781 541.096 192.449 542.12 191.785 542.872C191.129 543.624 190.113 544 188.737 544H186.973ZM187.981 543.076H188.713C189.449 543.076 190.037 542.94 190.477 542.668C190.925 542.396 191.249 542.016 191.449 541.528C191.649 541.04 191.749 540.464 191.749 539.8C191.749 539.136 191.649 538.56 191.449 538.072C191.249 537.584 190.925 537.204 190.477 536.932C190.037 536.66 189.449 536.524 188.713 536.524H187.981V543.076ZM205.456 544.144C204.864 544.144 204.348 544.032 203.908 543.808C203.476 543.584 203.14 543.272 202.9 542.872C202.668 542.472 202.548 542.004 202.54 541.468H203.596C203.604 541.948 203.764 542.364 204.076 542.716C204.396 543.06 204.856 543.232 205.456 543.232C206.008 543.232 206.432 543.1 206.728 542.836C207.032 542.564 207.184 542.24 207.184 541.864C207.184 541.552 207.112 541.292 206.968 541.084C206.824 540.868 206.588 540.68 206.26 540.52C205.94 540.352 205.508 540.18 204.964 540.004C204.196 539.772 203.636 539.456 203.284 539.056C202.932 538.656 202.756 538.16 202.756 537.568C202.756 537.168 202.86 536.808 203.068 536.488C203.276 536.168 203.576 535.916 203.968 535.732C204.36 535.548 204.836 535.456 205.396 535.456C205.924 535.456 206.384 535.556 206.776 535.756C207.176 535.948 207.484 536.22 207.7 536.572C207.924 536.924 208.036 537.328 208.036 537.784H206.98C206.98 537.56 206.92 537.34 206.8 537.124C206.68 536.908 206.5 536.728 206.26 536.584C206.02 536.44 205.716 536.368 205.348 536.368C204.908 536.368 204.54 536.476 204.244 536.692C203.948 536.9 203.8 537.188 203.8 537.556C203.8 537.836 203.864 538.072 203.992 538.264C204.128 538.456 204.348 538.632 204.652 538.792C204.956 538.944 205.368 539.108 205.888 539.284C206.376 539.444 206.792 539.632 207.136 539.848C207.488 540.056 207.756 540.316 207.94 540.628C208.132 540.94 208.228 541.328 208.228 541.792C208.228 542.248 208.112 542.652 207.88 543.004C207.648 543.356 207.324 543.636 206.908 543.844C206.492 544.044 206.008 544.144 205.456 544.144ZM213.167 544.144C212.487 544.144 211.903 543.964 211.415 543.604C210.927 543.244 210.551 542.74 210.287 542.092C210.031 541.436 209.903 540.672 209.903 539.8C209.903 538.928 210.031 538.168 210.287 537.52C210.551 536.864 210.927 536.356 211.415 535.996C211.903 535.636 212.487 535.456 213.167 535.456C213.847 535.456 214.431 535.636 214.919 535.996C215.407 536.356 215.779 536.864 216.035 537.52C216.299 538.168 216.431 538.928 216.431 539.8C216.431 540.672 216.299 541.436 216.035 542.092C215.779 542.74 215.407 543.244 214.919 543.604C214.431 543.964 213.847 544.144 213.167 544.144ZM213.167 543.196C213.831 543.196 214.367 542.9 214.775 542.308C215.191 541.716 215.399 540.88 215.399 539.8C215.399 538.72 215.191 537.884 214.775 537.292C214.367 536.7 213.831 536.404 213.167 536.404C212.495 536.404 211.955 536.7 211.547 537.292C211.139 537.884 210.935 538.72 210.935 539.8C210.935 540.88 211.139 541.716 211.547 542.308C211.955 542.9 212.495 543.196 213.167 543.196ZM220.95 544.144C220.39 544.144 219.89 544.028 219.45 543.796C219.018 543.564 218.674 543.212 218.418 542.74C218.17 542.26 218.046 541.66 218.046 540.94V535.6H219.054V540.976C219.054 541.696 219.23 542.252 219.582 542.644C219.934 543.036 220.398 543.232 220.974 543.232C221.55 543.232 222.01 543.036 222.354 542.644C222.698 542.252 222.87 541.696 222.87 540.976V535.6H223.878V540.94C223.878 541.66 223.75 542.26 223.494 542.74C223.238 543.212 222.89 543.564 222.45 543.796C222.01 544.028 221.51 544.144 220.95 544.144ZM226.142 544V535.6H228.722C229.37 535.6 229.902 535.708 230.318 535.924C230.742 536.14 231.058 536.436 231.266 536.812C231.474 537.18 231.578 537.6 231.578 538.072C231.578 538.624 231.434 539.112 231.146 539.536C230.866 539.952 230.434 540.244 229.85 540.412L231.674 544H230.474L228.782 540.556H228.722H227.15V544H226.142ZM227.15 539.632H228.686C229.326 539.632 229.794 539.488 230.09 539.2C230.394 538.904 230.546 538.528 230.546 538.072C230.546 537.592 230.398 537.212 230.102 536.932C229.814 536.652 229.338 536.512 228.674 536.512H227.15V539.632ZM236.613 544.144C235.933 544.144 235.345 543.964 234.849 543.604C234.361 543.244 233.985 542.74 233.721 542.092C233.465 541.444 233.337 540.68 233.337 539.8C233.337 538.928 233.465 538.168 233.721 537.52C233.985 536.864 234.361 536.356 234.849 535.996C235.345 535.636 235.933 535.456 236.613 535.456C237.477 535.456 238.173 535.696 238.701 536.176C239.229 536.648 239.537 537.28 239.625 538.072H238.509C238.429 537.6 238.229 537.204 237.909 536.884C237.589 536.564 237.157 536.404 236.613 536.404C235.917 536.404 235.369 536.708 234.969 537.316C234.569 537.916 234.369 538.744 234.369 539.8C234.369 540.864 234.569 541.696 234.969 542.296C235.369 542.896 235.917 543.196 236.613 543.196C237.181 543.196 237.617 543.044 237.921 542.74C238.233 542.436 238.429 542.044 238.509 541.564H239.625C239.497 542.364 239.177 542.996 238.665 543.46C238.161 543.916 237.477 544.144 236.613 544.144ZM241.78 544V535.6H247.024V536.512H242.788V539.308H246.664V540.22H242.788V543.088H247.024V544H241.78ZM257.179 544V543.088H259.351V536.788L257.299 537.184V536.416L259.687 535.6H260.359V543.088H262.651V544H257.179Z" fill="#DAD3D3"/>
<rect x="307.5" y="435.5" width="126" height="51" stroke="url(#paint6_linear_166_12)"/>
<path d="M315.032 456V447.6H320.276V448.512H316.04V451.308H319.916V452.22H316.04V455.088H320.276V456H315.032ZM322.779 456V447.6H325.359C326.007 447.6 326.539 447.708 326.955 447.924C327.379 448.14 327.695 448.436 327.903 448.812C328.111 449.18 328.215 449.6 328.215 450.072C328.215 450.624 328.071 451.112 327.783 451.536C327.503 451.952 327.071 452.244 326.487 452.412L328.311 456H327.111L325.419 452.556H325.359H323.787V456H322.779ZM323.787 451.632H325.323C325.963 451.632 326.431 451.488 326.727 451.2C327.031 450.904 327.183 450.528 327.183 450.072C327.183 449.592 327.035 449.212 326.739 448.932C326.451 448.652 325.975 448.512 325.311 448.512H323.787V451.632ZM333.251 456.144C332.571 456.144 331.983 455.964 331.487 455.604C330.999 455.244 330.623 454.74 330.359 454.092C330.103 453.444 329.975 452.68 329.975 451.8C329.975 450.928 330.103 450.168 330.359 449.52C330.623 448.864 330.999 448.356 331.487 447.996C331.983 447.636 332.571 447.456 333.251 447.456C334.115 447.456 334.811 447.696 335.339 448.176C335.867 448.648 336.175 449.28 336.263 450.072H335.147C335.067 449.6 334.867 449.204 334.547 448.884C334.227 448.564 333.795 448.404 333.251 448.404C332.555 448.404 332.007 448.708 331.607 449.316C331.207 449.916 331.007 450.744 331.007 451.8C331.007 452.864 331.207 453.696 331.607 454.296C332.007 454.896 332.555 455.196 333.251 455.196C333.819 455.196 334.255 455.044 334.559 454.74C334.871 454.436 335.067 454.044 335.147 453.564H336.263C336.135 454.364 335.815 454.996 335.303 455.46C334.799 455.916 334.115 456.144 333.251 456.144ZM342.018 456V454.056H337.998V453.276L341.826 447.6H343.026V453.144H344.226V454.056H343.026V456H342.018ZM339.126 453.144H342.066V448.776L339.126 453.144ZM348.949 456.144C348.213 456.144 347.613 455.968 347.149 455.616C346.693 455.256 346.353 454.776 346.129 454.176C345.913 453.568 345.805 452.884 345.805 452.124C345.805 451.204 345.933 450.396 346.189 449.7C346.445 448.996 346.813 448.448 347.293 448.056C347.781 447.656 348.365 447.456 349.045 447.456C349.581 447.456 350.037 447.56 350.413 447.768C350.797 447.968 351.097 448.244 351.313 448.596C351.537 448.94 351.669 449.328 351.709 449.76H350.761C350.681 449.336 350.489 449 350.185 448.752C349.881 448.496 349.501 448.368 349.045 448.368C348.645 448.368 348.277 448.496 347.941 448.752C347.613 449 347.341 449.388 347.125 449.916C346.917 450.436 346.797 451.1 346.765 451.908H346.825C347.009 451.564 347.293 451.264 347.677 451.008C348.061 450.752 348.525 450.624 349.069 450.624C349.573 450.624 350.025 450.74 350.425 450.972C350.825 451.204 351.141 451.524 351.373 451.932C351.613 452.34 351.733 452.804 351.733 453.324C351.733 453.836 351.617 454.308 351.385 454.74C351.161 455.164 350.837 455.504 350.413 455.76C349.997 456.016 349.509 456.144 348.949 456.144ZM348.877 455.232C349.429 455.232 349.873 455.056 350.209 454.704C350.545 454.352 350.713 453.912 350.713 453.384C350.713 452.848 350.545 452.408 350.209 452.064C349.873 451.712 349.429 451.536 348.877 451.536C348.509 451.536 348.185 451.616 347.905 451.776C347.633 451.936 347.417 452.156 347.257 452.436C347.105 452.716 347.029 453.032 347.029 453.384C347.029 453.736 347.105 454.052 347.257 454.332C347.417 454.612 347.633 454.832 347.905 454.992C348.185 455.152 348.509 455.232 348.877 455.232ZM353.865 456V455.208C354.729 454.52 355.481 453.888 356.121 453.312C356.769 452.736 357.269 452.18 357.621 451.644C357.973 451.108 358.149 450.56 358.149 450C358.149 449.496 358.005 449.1 357.717 448.812C357.437 448.516 357.057 448.368 356.577 448.368C356.209 448.368 355.897 448.448 355.641 448.608C355.385 448.768 355.193 448.98 355.065 449.244C354.937 449.508 354.873 449.792 354.873 450.096H353.877C353.885 449.544 354.005 449.072 354.237 448.68C354.477 448.28 354.797 447.976 355.197 447.768C355.605 447.56 356.065 447.456 356.577 447.456C357.401 447.456 358.041 447.684 358.497 448.14C358.953 448.596 359.181 449.208 359.181 449.976C359.181 450.48 359.073 450.964 358.857 451.428C358.641 451.884 358.353 452.324 357.993 452.748C357.633 453.172 357.229 453.58 356.781 453.972C356.333 454.364 355.881 454.74 355.425 455.1H359.409V456H353.865ZM364.54 456.144C363.804 456.144 363.204 455.968 362.74 455.616C362.284 455.256 361.944 454.776 361.72 454.176C361.504 453.568 361.396 452.884 361.396 452.124C361.396 451.204 361.524 450.396 361.78 449.7C362.036 448.996 362.404 448.448 362.884 448.056C363.372 447.656 363.956 447.456 364.636 447.456C365.172 447.456 365.628 447.56 366.004 447.768C366.388 447.968 366.688 448.244 366.904 448.596C367.128 448.94 367.26 449.328 367.3 449.76H366.352C366.272 449.336 366.08 449 365.776 448.752C365.472 448.496 365.092 448.368 364.636 448.368C364.236 448.368 363.868 448.496 363.532 448.752C363.204 449 362.932 449.388 362.716 449.916C362.508 450.436 362.388 451.1 362.356 451.908H362.416C362.6 451.564 362.884 451.264 363.268 451.008C363.652 450.752 364.116 450.624 364.66 450.624C365.164 450.624 365.616 450.74 366.016 450.972C366.416 451.204 366.732 451.524 366.964 451.932C367.204 452.34 367.324 452.804 367.324 453.324C367.324 453.836 367.208 454.308 366.976 454.74C366.752 455.164 366.428 455.504 366.004 455.76C365.588 456.016 365.1 456.144 364.54 456.144ZM364.468 455.232C365.02 455.232 365.464 455.056 365.8 454.704C366.136 454.352 366.304 453.912 366.304 453.384C366.304 452.848 366.136 452.408 365.8 452.064C365.464 451.712 365.02 451.536 364.468 451.536C364.1 451.536 363.776 451.616 363.496 451.776C363.224 451.936 363.008 452.156 362.848 452.436C362.696 452.716 362.62 453.032 362.62 453.384C362.62 453.736 362.696 454.052 362.848 454.332C363.008 454.612 363.224 454.832 363.496 454.992C363.776 455.152 364.1 455.232 364.468 455.232ZM317 474L314.324 465.6H315.404L317.6 472.692L319.796 465.6H320.888L318.2 474H317ZM322.191 474L324.819 465.6H325.983L328.599 474H327.495L326.883 471.912H323.907L323.295 474H322.191ZM325.371 467.016L324.159 471.072H326.631L325.419 467.016H325.371ZM333.179 474.144C332.619 474.144 332.119 474.028 331.679 473.796C331.247 473.564 330.903 473.212 330.647 472.74C330.399 472.26 330.275 471.66 330.275 470.94V465.6H331.283V470.976C331.283 471.696 331.459 472.252 331.811 472.644C332.163 473.036 332.627 473.232 333.203 473.232C333.779 473.232 334.239 473.036 334.583 472.644C334.927 472.252 335.099 471.696 335.099 470.976V465.6H336.107V470.94C336.107 471.66 335.979 472.26 335.723 472.74C335.467 473.212 335.119 473.564 334.679 473.796C334.239 474.028 333.739 474.144 333.179 474.144ZM338.43 474V465.6H339.438V473.088H343.698V474H338.43ZM348.277 474V466.512H346.021V465.6H351.541V466.512H349.285V474H348.277ZM362.08 474L360.796 465.6H361.816L362.668 472.08L363.856 465.6H364.888L366.076 472.08L366.928 465.6H367.948L366.664 474H365.512L364.372 467.544L363.232 474H362.08ZM369.551 474V465.6H372.131C372.779 465.6 373.311 465.708 373.727 465.924C374.151 466.14 374.467 466.436 374.675 466.812C374.883 467.18 374.987 467.6 374.987 468.072C374.987 468.624 374.843 469.112 374.555 469.536C374.275 469.952 373.843 470.244 373.259 470.412L375.083 474H373.883L372.191 470.556H372.131H370.559V474H369.551ZM370.559 469.632H372.095C372.735 469.632 373.203 469.488 373.499 469.2C373.803 468.904 373.955 468.528 373.955 468.072C373.955 467.592 373.807 467.212 373.511 466.932C373.223 466.652 372.747 466.512 372.083 466.512H370.559V469.632ZM376.758 474L379.386 465.6H380.55L383.166 474H382.062L381.45 471.912H378.474L377.862 474H376.758ZM379.938 467.016L378.726 471.072H381.198L379.986 467.016H379.938ZM385.046 474V465.6H387.842C388.482 465.6 389.006 465.716 389.414 465.948C389.822 466.18 390.122 466.488 390.314 466.872C390.506 467.256 390.602 467.68 390.602 468.144C390.602 468.608 390.506 469.032 390.314 469.416C390.122 469.8 389.822 470.108 389.414 470.34C389.006 470.572 388.482 470.688 387.842 470.688H386.054V474H385.046ZM386.054 469.764H387.818C388.41 469.764 388.85 469.616 389.138 469.32C389.426 469.016 389.57 468.624 389.57 468.144C389.57 467.664 389.426 467.272 389.138 466.968C388.85 466.664 388.41 466.512 387.818 466.512H386.054V469.764ZM392.841 474V465.6H395.637C396.277 465.6 396.801 465.716 397.209 465.948C397.617 466.18 397.917 466.488 398.109 466.872C398.301 467.256 398.397 467.68 398.397 468.144C398.397 468.608 398.301 469.032 398.109 469.416C397.917 469.8 397.617 470.108 397.209 470.34C396.801 470.572 396.277 470.688 395.637 470.688H393.849V474H392.841ZM393.849 469.764H395.613C396.205 469.764 396.645 469.616 396.933 469.32C397.221 469.016 397.365 468.624 397.365 468.144C397.365 467.664 397.221 467.272 396.933 466.968C396.645 466.664 396.205 466.512 395.613 466.512H393.849V469.764ZM400.78 474V465.6H406.024V466.512H401.788V469.308H405.664V470.22H401.788V473.088H406.024V474H400.78ZM408.528 474V465.6H411.108C411.756 465.6 412.288 465.708 412.704 465.924C413.128 466.14 413.444 466.436 413.652 466.812C413.86 467.18 413.964 467.6 413.964 468.072C413.964 468.624 413.82 469.112 413.532 469.536C413.252 469.952 412.82 470.244 412.236 470.412L414.06 474H412.86L411.168 470.556H411.108H409.536V474H408.528ZM409.536 469.632H411.072C411.712 469.632 412.18 469.488 412.476 469.2C412.78 468.904 412.932 468.528 412.932 468.072C412.932 467.592 412.784 467.212 412.488 466.932C412.2 466.652 411.724 466.512 411.06 466.512H409.536V469.632Z" fill="#DAD3D3"/>
<rect x="306.5" y="523.5" width="128" height="33" stroke="url(#paint7_linear_166_12)"/>
<path d="M317.096 544V540.7L314.372 535.6H315.512L317.6 539.68L319.688 535.6H320.828L318.104 540.7V544H317.096ZM322.983 544V543.124H324.891V536.476H322.983V535.6H327.807V536.476H325.899V543.124H327.807V544H322.983ZM330.623 544V535.6H335.867V536.512H331.631V539.308H335.507V540.22H331.631V543.088H335.867V544H330.623ZM338.43 544V535.6H339.438V543.088H343.698V544H338.43ZM345.973 544V535.6H347.737C349.113 535.6 350.129 535.976 350.785 536.728C351.449 537.48 351.781 538.504 351.781 539.8C351.781 541.096 351.449 542.12 350.785 542.872C350.129 543.624 349.113 544 347.737 544H345.973ZM346.981 543.076H347.713C348.449 543.076 349.037 542.94 349.477 542.668C349.925 542.396 350.249 542.016 350.449 541.528C350.649 541.04 350.749 540.464 350.749 539.8C350.749 539.136 350.649 538.56 350.449 538.072C350.249 537.584 349.925 537.204 349.477 536.932C349.037 536.66 348.449 536.524 347.713 536.524H346.981V543.076ZM364.456 544.144C363.864 544.144 363.348 544.032 362.908 543.808C362.476 543.584 362.14 543.272 361.9 542.872C361.668 542.472 361.548 542.004 361.54 541.468H362.596C362.604 541.948 362.764 542.364 363.076 542.716C363.396 543.06 363.856 543.232 364.456 543.232C365.008 543.232 365.432 543.1 365.728 542.836C366.032 542.564 366.184 542.24 366.184 541.864C366.184 541.552 366.112 541.292 365.968 541.084C365.824 540.868 365.588 540.68 365.26 540.52C364.94 540.352 364.508 540.18 363.964 540.004C363.196 539.772 362.636 539.456 362.284 539.056C361.932 538.656 361.756 538.16 361.756 537.568C361.756 537.168 361.86 536.808 362.068 536.488C362.276 536.168 362.576 535.916 362.968 535.732C363.36 535.548 363.836 535.456 364.396 535.456C364.924 535.456 365.384 535.556 365.776 535.756C366.176 535.948 366.484 536.22 366.7 536.572C366.924 536.924 367.036 537.328 367.036 537.784H365.98C365.98 537.56 365.92 537.34 365.8 537.124C365.68 536.908 365.5 536.728 365.26 536.584C365.02 536.44 364.716 536.368 364.348 536.368C363.908 536.368 363.54 536.476 363.244 536.692C362.948 536.9 362.8 537.188 362.8 537.556C362.8 537.836 362.864 538.072 362.992 538.264C363.128 538.456 363.348 538.632 363.652 538.792C363.956 538.944 364.368 539.108 364.888 539.284C365.376 539.444 365.792 539.632 366.136 539.848C366.488 540.056 366.756 540.316 366.94 540.628C367.132 540.94 367.228 541.328 367.228 541.792C367.228 542.248 367.112 542.652 366.88 543.004C366.648 543.356 366.324 543.636 365.908 543.844C365.492 544.044 365.008 544.144 364.456 544.144ZM372.167 544.144C371.487 544.144 370.903 543.964 370.415 543.604C369.927 543.244 369.551 542.74 369.287 542.092C369.031 541.436 368.903 540.672 368.903 539.8C368.903 538.928 369.031 538.168 369.287 537.52C369.551 536.864 369.927 536.356 370.415 535.996C370.903 535.636 371.487 535.456 372.167 535.456C372.847 535.456 373.431 535.636 373.919 535.996C374.407 536.356 374.779 536.864 375.035 537.52C375.299 538.168 375.431 538.928 375.431 539.8C375.431 540.672 375.299 541.436 375.035 542.092C374.779 542.74 374.407 543.244 373.919 543.604C373.431 543.964 372.847 544.144 372.167 544.144ZM372.167 543.196C372.831 543.196 373.367 542.9 373.775 542.308C374.191 541.716 374.399 540.88 374.399 539.8C374.399 538.72 374.191 537.884 373.775 537.292C373.367 536.7 372.831 536.404 372.167 536.404C371.495 536.404 370.955 536.7 370.547 537.292C370.139 537.884 369.935 538.72 369.935 539.8C369.935 540.88 370.139 541.716 370.547 542.308C370.955 542.9 371.495 543.196 372.167 543.196ZM379.95 544.144C379.39 544.144 378.89 544.028 378.45 543.796C378.018 543.564 377.674 543.212 377.418 542.74C377.17 542.26 377.046 541.66 377.046 540.94V535.6H378.054V540.976C378.054 541.696 378.23 542.252 378.582 542.644C378.934 543.036 379.398 543.232 379.974 543.232C380.55 543.232 381.01 543.036 381.354 542.644C381.698 542.252 381.87 541.696 381.87 540.976V535.6H382.878V540.94C382.878 541.66 382.75 542.26 382.494 542.74C382.238 543.212 381.89 543.564 381.45 543.796C381.01 544.028 380.51 544.144 379.95 544.144ZM385.142 544V535.6H387.722C388.37 535.6 388.902 535.708 389.318 535.924C389.742 536.14 390.058 536.436 390.266 536.812C390.474 537.18 390.578 537.6 390.578 538.072C390.578 538.624 390.434 539.112 390.146 539.536C389.866 539.952 389.434 540.244 388.85 540.412L390.674 544H389.474L387.782 540.556H387.722H386.15V544H385.142ZM386.15 539.632H387.686C388.326 539.632 388.794 539.488 389.09 539.2C389.394 538.904 389.546 538.528 389.546 538.072C389.546 537.592 389.398 537.212 389.102 536.932C388.814 536.652 388.338 536.512 387.674 536.512H386.15V539.632ZM395.613 544.144C394.933 544.144 394.345 543.964 393.849 543.604C393.361 543.244 392.985 542.74 392.721 542.092C392.465 541.444 392.337 540.68 392.337 539.8C392.337 538.928 392.465 538.168 392.721 537.52C392.985 536.864 393.361 536.356 393.849 535.996C394.345 535.636 394.933 535.456 395.613 535.456C396.477 535.456 397.173 535.696 397.701 536.176C398.229 536.648 398.537 537.28 398.625 538.072H397.509C397.429 537.6 397.229 537.204 396.909 536.884C396.589 536.564 396.157 536.404 395.613 536.404C394.917 536.404 394.369 536.708 393.969 537.316C393.569 537.916 393.369 538.744 393.369 539.8C393.369 540.864 393.569 541.696 393.969 542.296C394.369 542.896 394.917 543.196 395.613 543.196C396.181 543.196 396.617 543.044 396.921 542.74C397.233 542.436 397.429 542.044 397.509 541.564H398.625C398.497 542.364 398.177 542.996 397.665 543.46C397.161 543.916 396.477 544.144 395.613 544.144ZM400.78 544V535.6H406.024V536.512H401.788V539.308H405.664V540.22H401.788V543.088H406.024V544H400.78ZM416.227 544V543.208C417.091 542.52 417.843 541.888 418.483 541.312C419.131 540.736 419.631 540.18 419.983 539.644C420.335 539.108 420.511 538.56 420.511 538C420.511 537.496 420.367 537.1 420.079 536.812C419.799 536.516 419.419 536.368 418.939 536.368C418.571 536.368 418.259 536.448 418.003 536.608C417.747 536.768 417.555 536.98 417.427 537.244C417.299 537.508 417.235 537.792 417.235 538.096H416.239C416.247 537.544 416.367 537.072 416.599 536.68C416.839 536.28 417.159 535.976 417.559 535.768C417.967 535.56 418.427 535.456 418.939 535.456C419.763 535.456 420.403 535.684 420.859 536.14C421.315 536.596 421.543 537.208 421.543 537.976C421.543 538.48 421.435 538.964 421.219 539.428C421.003 539.884 420.715 540.324 420.355 540.748C419.995 541.172 419.591 541.58 419.143 541.972C418.695 542.364 418.243 542.74 417.787 543.1H421.771V544H416.227Z" fill="#DAD3D3"/>
<rect x="460.5" y="435.5" width="125" height="51" stroke="url(#paint8_linear_166_12)"/>
<path d="M467.532 456V447.6H472.776V448.512H468.54V451.308H472.416V452.22H468.54V455.088H472.776V456H467.532ZM475.279 456V447.6H477.859C478.507 447.6 479.039 447.708 479.455 447.924C479.879 448.14 480.195 448.436 480.403 448.812C480.611 449.18 480.715 449.6 480.715 450.072C480.715 450.624 480.571 451.112 480.283 451.536C480.003 451.952 479.571 452.244 478.987 452.412L480.811 456H479.611L477.919 452.556H477.859H476.287V456H475.279ZM476.287 451.632H477.823C478.463 451.632 478.931 451.488 479.227 451.2C479.531 450.904 479.683 450.528 479.683 450.072C479.683 449.592 479.535 449.212 479.239 448.932C478.951 448.652 478.475 448.512 477.811 448.512H476.287V451.632ZM485.751 456.144C485.071 456.144 484.483 455.964 483.987 455.604C483.499 455.244 483.123 454.74 482.859 454.092C482.603 453.444 482.475 452.68 482.475 451.8C482.475 450.928 482.603 450.168 482.859 449.52C483.123 448.864 483.499 448.356 483.987 447.996C484.483 447.636 485.071 447.456 485.751 447.456C486.615 447.456 487.311 447.696 487.839 448.176C488.367 448.648 488.675 449.28 488.763 450.072H487.647C487.567 449.6 487.367 449.204 487.047 448.884C486.727 448.564 486.295 448.404 485.751 448.404C485.055 448.404 484.507 448.708 484.107 449.316C483.707 449.916 483.507 450.744 483.507 451.8C483.507 452.864 483.707 453.696 484.107 454.296C484.507 454.896 485.055 455.196 485.751 455.196C486.319 455.196 486.755 455.044 487.059 454.74C487.371 454.436 487.567 454.044 487.647 453.564H488.763C488.635 454.364 488.315 454.996 487.803 455.46C487.299 455.916 486.615 456.144 485.751 456.144ZM494.518 456V454.056H490.498V453.276L494.326 447.6H495.526V453.144H496.726V454.056H495.526V456H494.518ZM491.626 453.144H494.566V448.776L491.626 453.144ZM501.449 456.144C500.713 456.144 500.113 455.968 499.649 455.616C499.193 455.256 498.853 454.776 498.629 454.176C498.413 453.568 498.305 452.884 498.305 452.124C498.305 451.204 498.433 450.396 498.689 449.7C498.945 448.996 499.313 448.448 499.793 448.056C500.281 447.656 500.865 447.456 501.545 447.456C502.081 447.456 502.537 447.56 502.913 447.768C503.297 447.968 503.597 448.244 503.813 448.596C504.037 448.94 504.169 449.328 504.209 449.76H503.261C503.181 449.336 502.989 449 502.685 448.752C502.381 448.496 502.001 448.368 501.545 448.368C501.145 448.368 500.777 448.496 500.441 448.752C500.113 449 499.841 449.388 499.625 449.916C499.417 450.436 499.297 451.1 499.265 451.908H499.325C499.509 451.564 499.793 451.264 500.177 451.008C500.561 450.752 501.025 450.624 501.569 450.624C502.073 450.624 502.525 450.74 502.925 450.972C503.325 451.204 503.641 451.524 503.873 451.932C504.113 452.34 504.233 452.804 504.233 453.324C504.233 453.836 504.117 454.308 503.885 454.74C503.661 455.164 503.337 455.504 502.913 455.76C502.497 456.016 502.009 456.144 501.449 456.144ZM501.377 455.232C501.929 455.232 502.373 455.056 502.709 454.704C503.045 454.352 503.213 453.912 503.213 453.384C503.213 452.848 503.045 452.408 502.709 452.064C502.373 451.712 501.929 451.536 501.377 451.536C501.009 451.536 500.685 451.616 500.405 451.776C500.133 451.936 499.917 452.156 499.757 452.436C499.605 452.716 499.529 453.032 499.529 453.384C499.529 453.736 499.605 454.052 499.757 454.332C499.917 454.612 500.133 454.832 500.405 454.992C500.685 455.152 501.009 455.232 501.377 455.232ZM506.365 456V455.208C507.229 454.52 507.981 453.888 508.621 453.312C509.269 452.736 509.769 452.18 510.121 451.644C510.473 451.108 510.649 450.56 510.649 450C510.649 449.496 510.505 449.1 510.217 448.812C509.937 448.516 509.557 448.368 509.077 448.368C508.709 448.368 508.397 448.448 508.141 448.608C507.885 448.768 507.693 448.98 507.565 449.244C507.437 449.508 507.373 449.792 507.373 450.096H506.377C506.385 449.544 506.505 449.072 506.737 448.68C506.977 448.28 507.297 447.976 507.697 447.768C508.105 447.56 508.565 447.456 509.077 447.456C509.901 447.456 510.541 447.684 510.997 448.14C511.453 448.596 511.681 449.208 511.681 449.976C511.681 450.48 511.573 450.964 511.357 451.428C511.141 451.884 510.853 452.324 510.493 452.748C510.133 453.172 509.729 453.58 509.281 453.972C508.833 454.364 508.381 454.74 507.925 455.1H511.909V456H506.365ZM517.04 456.144C516.304 456.144 515.704 455.968 515.24 455.616C514.784 455.256 514.444 454.776 514.22 454.176C514.004 453.568 513.896 452.884 513.896 452.124C513.896 451.204 514.024 450.396 514.28 449.7C514.536 448.996 514.904 448.448 515.384 448.056C515.872 447.656 516.456 447.456 517.136 447.456C517.672 447.456 518.128 447.56 518.504 447.768C518.888 447.968 519.188 448.244 519.404 448.596C519.628 448.94 519.76 449.328 519.8 449.76H518.852C518.772 449.336 518.58 449 518.276 448.752C517.972 448.496 517.592 448.368 517.136 448.368C516.736 448.368 516.368 448.496 516.032 448.752C515.704 449 515.432 449.388 515.216 449.916C515.008 450.436 514.888 451.1 514.856 451.908H514.916C515.1 451.564 515.384 451.264 515.768 451.008C516.152 450.752 516.616 450.624 517.16 450.624C517.664 450.624 518.116 450.74 518.516 450.972C518.916 451.204 519.232 451.524 519.464 451.932C519.704 452.34 519.824 452.804 519.824 453.324C519.824 453.836 519.708 454.308 519.476 454.74C519.252 455.164 518.928 455.504 518.504 455.76C518.088 456.016 517.6 456.144 517.04 456.144ZM516.968 455.232C517.52 455.232 517.964 455.056 518.3 454.704C518.636 454.352 518.804 453.912 518.804 453.384C518.804 452.848 518.636 452.408 518.3 452.064C517.964 451.712 517.52 451.536 516.968 451.536C516.6 451.536 516.276 451.616 515.996 451.776C515.724 451.936 515.508 452.156 515.348 452.436C515.196 452.716 515.12 453.032 515.12 453.384C515.12 453.736 515.196 454.052 515.348 454.332C515.508 454.612 515.724 454.832 515.996 454.992C516.276 455.152 516.6 455.232 516.968 455.232ZM469.5 474L466.824 465.6H467.904L470.1 472.692L472.296 465.6H473.388L470.7 474H469.5ZM474.691 474L477.319 465.6H478.483L481.099 474H479.995L479.383 471.912H476.407L475.795 474H474.691ZM477.871 467.016L476.659 471.072H479.131L477.919 467.016H477.871ZM485.679 474.144C485.119 474.144 484.619 474.028 484.179 473.796C483.747 473.564 483.403 473.212 483.147 472.74C482.899 472.26 482.775 471.66 482.775 470.94V465.6H483.783V470.976C483.783 471.696 483.959 472.252 484.311 472.644C484.663 473.036 485.127 473.232 485.703 473.232C486.279 473.232 486.739 473.036 487.083 472.644C487.427 472.252 487.599 471.696 487.599 470.976V465.6H488.607V470.94C488.607 471.66 488.479 472.26 488.223 472.74C487.967 473.212 487.619 473.564 487.179 473.796C486.739 474.028 486.239 474.144 485.679 474.144ZM490.93 474V465.6H491.938V473.088H496.198V474H490.93ZM500.777 474V466.512H498.521V465.6H504.041V466.512H501.785V474H500.777ZM514.58 474L513.296 465.6H514.316L515.168 472.08L516.356 465.6H517.388L518.576 472.08L519.428 465.6H520.448L519.164 474H518.012L516.872 467.544L515.732 474H514.58ZM522.051 474V465.6H524.631C525.279 465.6 525.811 465.708 526.227 465.924C526.651 466.14 526.967 466.436 527.175 466.812C527.383 467.18 527.487 467.6 527.487 468.072C527.487 468.624 527.343 469.112 527.055 469.536C526.775 469.952 526.343 470.244 525.759 470.412L527.583 474H526.383L524.691 470.556H524.631H523.059V474H522.051ZM523.059 469.632H524.595C525.235 469.632 525.703 469.488 525.999 469.2C526.303 468.904 526.455 468.528 526.455 468.072C526.455 467.592 526.307 467.212 526.011 466.932C525.723 466.652 525.247 466.512 524.583 466.512H523.059V469.632ZM529.258 474L531.886 465.6H533.05L535.666 474H534.562L533.95 471.912H530.974L530.362 474H529.258ZM532.438 467.016L531.226 471.072H533.698L532.486 467.016H532.438ZM537.546 474V465.6H540.342C540.982 465.6 541.506 465.716 541.914 465.948C542.322 466.18 542.622 466.488 542.814 466.872C543.006 467.256 543.102 467.68 543.102 468.144C543.102 468.608 543.006 469.032 542.814 469.416C542.622 469.8 542.322 470.108 541.914 470.34C541.506 470.572 540.982 470.688 540.342 470.688H538.554V474H537.546ZM538.554 469.764H540.318C540.91 469.764 541.35 469.616 541.638 469.32C541.926 469.016 542.07 468.624 542.07 468.144C542.07 467.664 541.926 467.272 541.638 466.968C541.35 466.664 540.91 466.512 540.318 466.512H538.554V469.764ZM545.341 474V465.6H548.137C548.777 465.6 549.301 465.716 549.709 465.948C550.117 466.18 550.417 466.488 550.609 466.872C550.801 467.256 550.897 467.68 550.897 468.144C550.897 468.608 550.801 469.032 550.609 469.416C550.417 469.8 550.117 470.108 549.709 470.34C549.301 470.572 548.777 470.688 548.137 470.688H546.349V474H545.341ZM546.349 469.764H548.113C548.705 469.764 549.145 469.616 549.433 469.32C549.721 469.016 549.865 468.624 549.865 468.144C549.865 467.664 549.721 467.272 549.433 466.968C549.145 466.664 548.705 466.512 548.113 466.512H546.349V469.764ZM553.28 474V465.6H558.524V466.512H554.288V469.308H558.164V470.22H554.288V473.088H558.524V474H553.28ZM561.028 474V465.6H563.608C564.256 465.6 564.788 465.708 565.204 465.924C565.628 466.14 565.944 466.436 566.152 466.812C566.36 467.18 566.464 467.6 566.464 468.072C566.464 468.624 566.32 469.112 566.032 469.536C565.752 469.952 565.32 470.244 564.736 470.412L566.56 474H565.36L563.668 470.556H563.608H562.036V474H561.028ZM562.036 469.632H563.572C564.212 469.632 564.68 469.488 564.976 469.2C565.28 468.904 565.432 468.528 565.432 468.072C565.432 467.592 565.284 467.212 564.988 466.932C564.7 466.652 564.224 466.512 563.56 466.512H562.036V469.632Z" fill="#DAD3D3"/>
<rect x="458.5" y="523.5" width="128" height="33" stroke="url(#paint9_linear_166_12)"/>
<path d="M469.096 544V540.7L466.372 535.6H467.512L469.6 539.68L471.688 535.6H472.828L470.104 540.7V544H469.096ZM474.983 544V543.124H476.891V536.476H474.983V535.6H479.807V536.476H477.899V543.124H479.807V544H474.983ZM482.623 544V535.6H487.867V536.512H483.631V539.308H487.507V540.22H483.631V543.088H487.867V544H482.623ZM490.43 544V535.6H491.438V543.088H495.698V544H490.43ZM497.973 544V535.6H499.737C501.113 535.6 502.129 535.976 502.785 536.728C503.449 537.48 503.781 538.504 503.781 539.8C503.781 541.096 503.449 542.12 502.785 542.872C502.129 543.624 501.113 544 499.737 544H497.973ZM498.981 543.076H499.713C500.449 543.076 501.037 542.94 501.477 542.668C501.925 542.396 502.249 542.016 502.449 541.528C502.649 541.04 502.749 540.464 502.749 539.8C502.749 539.136 502.649 538.56 502.449 538.072C502.249 537.584 501.925 537.204 501.477 536.932C501.037 536.66 500.449 536.524 499.713 536.524H498.981V543.076ZM516.456 544.144C515.864 544.144 515.348 544.032 514.908 543.808C514.476 543.584 514.14 543.272 513.9 542.872C513.668 542.472 513.548 542.004 513.54 541.468H514.596C514.604 541.948 514.764 542.364 515.076 542.716C515.396 543.06 515.856 543.232 516.456 543.232C517.008 543.232 517.432 543.1 517.728 542.836C518.032 542.564 518.184 542.24 518.184 541.864C518.184 541.552 518.112 541.292 517.968 541.084C517.824 540.868 517.588 540.68 517.26 540.52C516.94 540.352 516.508 540.18 515.964 540.004C515.196 539.772 514.636 539.456 514.284 539.056C513.932 538.656 513.756 538.16 513.756 537.568C513.756 537.168 513.86 536.808 514.068 536.488C514.276 536.168 514.576 535.916 514.968 535.732C515.36 535.548 515.836 535.456 516.396 535.456C516.924 535.456 517.384 535.556 517.776 535.756C518.176 535.948 518.484 536.22 518.7 536.572C518.924 536.924 519.036 537.328 519.036 537.784H517.98C517.98 537.56 517.92 537.34 517.8 537.124C517.68 536.908 517.5 536.728 517.26 536.584C517.02 536.44 516.716 536.368 516.348 536.368C515.908 536.368 515.54 536.476 515.244 536.692C514.948 536.9 514.8 537.188 514.8 537.556C514.8 537.836 514.864 538.072 514.992 538.264C515.128 538.456 515.348 538.632 515.652 538.792C515.956 538.944 516.368 539.108 516.888 539.284C517.376 539.444 517.792 539.632 518.136 539.848C518.488 540.056 518.756 540.316 518.94 540.628C519.132 540.94 519.228 541.328 519.228 541.792C519.228 542.248 519.112 542.652 518.88 543.004C518.648 543.356 518.324 543.636 517.908 543.844C517.492 544.044 517.008 544.144 516.456 544.144ZM524.167 544.144C523.487 544.144 522.903 543.964 522.415 543.604C521.927 543.244 521.551 542.74 521.287 542.092C521.031 541.436 520.903 540.672 520.903 539.8C520.903 538.928 521.031 538.168 521.287 537.52C521.551 536.864 521.927 536.356 522.415 535.996C522.903 535.636 523.487 535.456 524.167 535.456C524.847 535.456 525.431 535.636 525.919 535.996C526.407 536.356 526.779 536.864 527.035 537.52C527.299 538.168 527.431 538.928 527.431 539.8C527.431 540.672 527.299 541.436 527.035 542.092C526.779 542.74 526.407 543.244 525.919 543.604C525.431 543.964 524.847 544.144 524.167 544.144ZM524.167 543.196C524.831 543.196 525.367 542.9 525.775 542.308C526.191 541.716 526.399 540.88 526.399 539.8C526.399 538.72 526.191 537.884 525.775 537.292C525.367 536.7 524.831 536.404 524.167 536.404C523.495 536.404 522.955 536.7 522.547 537.292C522.139 537.884 521.935 538.72 521.935 539.8C521.935 540.88 522.139 541.716 522.547 542.308C522.955 542.9 523.495 543.196 524.167 543.196ZM531.95 544.144C531.39 544.144 530.89 544.028 530.45 543.796C530.018 543.564 529.674 543.212 529.418 542.74C529.17 542.26 529.046 541.66 529.046 540.94V535.6H530.054V540.976C530.054 541.696 530.23 542.252 530.582 542.644C530.934 543.036 531.398 543.232 531.974 543.232C532.55 543.232 533.01 543.036 533.354 542.644C533.698 542.252 533.87 541.696 533.87 540.976V535.6H534.878V540.94C534.878 541.66 534.75 542.26 534.494 542.74C534.238 543.212 533.89 543.564 533.45 543.796C533.01 544.028 532.51 544.144 531.95 544.144ZM537.142 544V535.6H539.722C540.37 535.6 540.902 535.708 541.318 535.924C541.742 536.14 542.058 536.436 542.266 536.812C542.474 537.18 542.578 537.6 542.578 538.072C542.578 538.624 542.434 539.112 542.146 539.536C541.866 539.952 541.434 540.244 540.85 540.412L542.674 544H541.474L539.782 540.556H539.722H538.15V544H537.142ZM538.15 539.632H539.686C540.326 539.632 540.794 539.488 541.09 539.2C541.394 538.904 541.546 538.528 541.546 538.072C541.546 537.592 541.398 537.212 541.102 536.932C540.814 536.652 540.338 536.512 539.674 536.512H538.15V539.632ZM547.613 544.144C546.933 544.144 546.345 543.964 545.849 543.604C545.361 543.244 544.985 542.74 544.721 542.092C544.465 541.444 544.337 540.68 544.337 539.8C544.337 538.928 544.465 538.168 544.721 537.52C544.985 536.864 545.361 536.356 545.849 535.996C546.345 535.636 546.933 535.456 547.613 535.456C548.477 535.456 549.173 535.696 549.701 536.176C550.229 536.648 550.537 537.28 550.625 538.072H549.509C549.429 537.6 549.229 537.204 548.909 536.884C548.589 536.564 548.157 536.404 547.613 536.404C546.917 536.404 546.369 536.708 545.969 537.316C545.569 537.916 545.369 538.744 545.369 539.8C545.369 540.864 545.569 541.696 545.969 542.296C546.369 542.896 546.917 543.196 547.613 543.196C548.181 543.196 548.617 543.044 548.921 542.74C549.233 542.436 549.429 542.044 549.509 541.564H550.625C550.497 542.364 550.177 542.996 549.665 543.46C549.161 543.916 548.477 544.144 547.613 544.144ZM552.78 544V535.6H558.024V536.512H553.788V539.308H557.664V540.22H553.788V543.088H558.024V544H552.78ZM571.047 544.144C570.495 544.144 569.999 544.044 569.559 543.844C569.127 543.636 568.779 543.336 568.515 542.944C568.251 542.552 568.107 542.072 568.083 541.504H569.115C569.131 541.984 569.307 542.392 569.643 542.728C569.979 543.056 570.447 543.22 571.047 543.22C571.631 543.22 572.083 543.072 572.403 542.776C572.723 542.472 572.883 542.06 572.883 541.54C572.883 541.18 572.791 540.884 572.607 540.652C572.423 540.412 572.175 540.236 571.863 540.124C571.559 540.004 571.219 539.944 570.843 539.944H570.111V539.032H570.747C571.291 539.032 571.723 538.916 572.043 538.684C572.371 538.452 572.535 538.112 572.535 537.664C572.535 537.288 572.403 536.98 572.139 536.74C571.883 536.5 571.515 536.38 571.035 536.38C570.571 536.38 570.195 536.512 569.907 536.776C569.619 537.032 569.455 537.368 569.415 537.784H568.407C568.423 537.328 568.543 536.928 568.767 536.584C568.991 536.232 569.295 535.956 569.679 535.756C570.071 535.556 570.523 535.456 571.035 535.456C571.587 535.456 572.047 535.552 572.415 535.744C572.791 535.936 573.075 536.196 573.267 536.524C573.459 536.844 573.555 537.2 573.555 537.592C573.555 538.008 573.427 538.376 573.171 538.696C572.915 539.008 572.611 539.228 572.259 539.356V539.428C572.731 539.572 573.123 539.816 573.435 540.16C573.747 540.504 573.903 540.964 573.903 541.54C573.903 542.028 573.787 542.468 573.555 542.86C573.331 543.252 573.003 543.564 572.571 543.796C572.147 544.028 571.639 544.144 571.047 544.144Z" fill="#DAD3D3"/>
<path d="M212 104L212 151" stroke="#565E6F"/>
<path d="M443.354 220.354C443.549 220.158 443.549 219.842 443.354 219.646L440.172 216.464C439.976 216.269 439.66 216.269 439.464 216.464C439.269 216.66 439.269 216.976 439.464 217.172L442.293 220L439.464 222.828C439.269 223.024 439.269 223.34 439.464 223.536C439.66 223.731 439.976 223.731 440.172 223.536L443.354 220.354ZM297.646 219.646C297.451 219.842 297.451 220.158 297.646 220.354L300.828 223.536C301.024 223.731 301.34 223.731 301.536 223.536C301.731 223.34 301.731 223.024 301.536 222.828L298.707 220L301.536 217.172C301.731 216.976 301.731 216.66 301.536 216.464C301.34 216.269 301.024 216.269 300.828 216.464L297.646 219.646ZM443 219.5L298 219.5L298 220.5L443 220.5L443 219.5Z" fill="#565E6F"/>
<path d="M523 289H212" stroke="#565E6F"/>
<path d="M522.646 315.354C522.842 315.549 523.158 315.549 523.354 315.354L526.536 312.172C526.731 311.976 526.731 311.66 526.536 311.464C526.34 311.269 526.024 311.269 525.828 311.464L523 314.293L520.172 311.464C519.976 311.269 519.66 311.269 519.464 311.464C519.269 311.66 519.269 311.976 519.464 312.172L522.646 315.354ZM522.5 235L522.5 315L523.5 315L523.5 235L522.5 235Z" fill="#565E6F"/>
<path d="M370.646 315.354C370.842 315.549 371.158 315.549 371.354 315.354L374.536 312.172C374.731 311.976 374.731 311.66 374.536 311.464C374.34 311.269 374.024 311.269 373.828 311.464L371 314.293L368.172 311.464C367.976 311.269 367.66 311.269 367.464 311.464C367.269 311.66 367.269 311.976 367.464 312.172L370.646 315.354ZM370.5 289L370.5 315L371.5 315L371.5 289L370.5 289Z" fill="#565E6F"/>
<path d="M371 384L371 435" stroke="#565E6F"/>
<path d="M523 384L523 435" stroke="#565E6F"/>
<path d="M211 384L211 435" stroke="#565E6F"/>
<path d="M210.646 315.354C210.842 315.549 211.158 315.549 211.354 315.354L214.536 312.172C214.731 311.976 214.731 311.66 214.536 311.464C214.34 311.269 214.024 311.269 213.828 311.464L211 314.293L208.172 311.464C207.976 311.269 207.66 311.269 207.464 311.464C207.269 311.66 207.269 311.976 207.464 312.172L210.646 315.354ZM210.5 235L210.5 315L211.5 315L211.5 235L210.5 235Z" fill="#565E6F"/>
<path d="M211.354 486.646C211.158 486.451 210.842 486.451 210.646 486.646L207.464 489.828C207.269 490.024 207.269 490.34 207.464 490.536C207.66 490.731 207.976 490.731 208.172 490.536L211 487.707L213.828 490.536C214.024 490.731 214.34 490.731 214.536 490.536C214.731 490.34 214.731 490.024 214.536 489.828L211.354 486.646ZM210.5 487L210.5 523L211.5 523L211.5 487L210.5 487Z" fill="#565E6F"/>
<path d="M371.354 486.646C371.158 486.451 370.842 486.451 370.646 486.646L367.464 489.828C367.269 490.024 367.269 490.34 367.464 490.536C367.66 490.731 367.976 490.731 368.172 490.536L371 487.707L373.828 490.536C374.024 490.731 374.34 490.731 374.536 490.536C374.731 490.34 374.731 490.024 374.536 489.828L371.354 486.646ZM370.5 487L370.5 523L371.5 523L371.5 487L370.5 487Z" fill="#565E6F"/>
<path d="M524.354 486.646C524.158 486.451 523.842 486.451 523.646 486.646L520.464 489.828C520.269 490.024 520.269 490.34 520.464 490.536C520.66 490.731 520.976 490.731 521.172 490.536L524 487.707L526.828 490.536C527.024 490.731 527.34 490.731 527.536 490.536C527.731 490.34 527.731 490.024 527.536 489.828L524.354 486.646ZM523.5 487L523.5 523L524.5 523L524.5 487L523.5 487Z" fill="#565E6F"/>
<rect x="443.5" y="151.5" width="160" height="83" stroke="url(#paint10_linear_166_12)"/>
<path d="M481.022 188L483.65 179.6H484.814L487.43 188H486.326L485.714 185.912H482.738L482.126 188H481.022ZM484.202 181.016L482.99 185.072H485.462L484.25 181.016H484.202ZM491.937 188.144C491.345 188.144 490.817 187.972 490.353 187.628C489.889 187.276 489.525 186.776 489.261 186.128C489.005 185.48 488.877 184.704 488.877 183.8C488.877 182.904 489.009 182.132 489.273 181.484C489.537 180.836 489.909 180.336 490.389 179.984C490.877 179.632 491.453 179.456 492.117 179.456C492.909 179.456 493.553 179.688 494.049 180.152C494.553 180.616 494.853 181.24 494.949 182.024H493.833C493.753 181.544 493.565 181.156 493.269 180.86C492.981 180.556 492.597 180.404 492.117 180.404C491.429 180.404 490.889 180.704 490.497 181.304C490.105 181.904 489.909 182.736 489.909 183.8C489.909 184.88 490.105 185.716 490.497 186.308C490.889 186.9 491.397 187.196 492.021 187.196C492.469 187.196 492.837 187.064 493.125 186.8C493.413 186.528 493.629 186.184 493.773 185.768C493.925 185.344 494.009 184.908 494.025 184.46H492.153V183.596H495.057V188H494.133L494.049 186.728H494.001C493.833 187.16 493.585 187.504 493.257 187.76C492.937 188.016 492.497 188.144 491.937 188.144ZM497.248 188V179.6H502.492V180.512H498.256V183.308H502.132V184.22H498.256V187.088H502.492V188H497.248ZM504.696 188V179.6H505.728L509.544 186.236V179.6H510.54V188H509.496L505.68 181.364V188H504.696ZM514.903 188V180.512H512.647V179.6H518.167V180.512H515.911V188H514.903ZM523.202 188.144C522.57 188.144 522.01 187.968 521.522 187.616C521.042 187.264 520.666 186.764 520.394 186.116C520.13 185.468 519.998 184.696 519.998 183.8C519.998 182.904 520.13 182.132 520.394 181.484C520.666 180.836 521.042 180.336 521.522 179.984C522.01 179.632 522.57 179.456 523.202 179.456C523.842 179.456 524.402 179.632 524.882 179.984C525.362 180.336 525.734 180.836 525.998 181.484C526.27 182.132 526.406 182.904 526.406 183.8C526.406 184.696 526.27 185.468 525.998 186.116C525.734 186.764 525.362 187.264 524.882 187.616C524.402 187.968 523.842 188.144 523.202 188.144ZM521.03 183.8C521.03 184.344 521.086 184.836 521.198 185.276C521.318 185.708 521.482 186.072 521.69 186.368L524.018 180.596C523.77 180.46 523.498 180.392 523.202 180.392C522.778 180.392 522.402 180.532 522.074 180.812C521.746 181.084 521.49 181.476 521.306 181.988C521.122 182.492 521.03 183.096 521.03 183.8ZM523.202 187.22C523.626 187.22 524.002 187.084 524.33 186.812C524.658 186.532 524.914 186.136 525.098 185.624C525.282 185.112 525.374 184.504 525.374 183.8C525.374 183.256 525.314 182.768 525.194 182.336C525.082 181.896 524.922 181.528 524.714 181.232L522.374 187.016C522.63 187.152 522.906 187.22 523.202 187.22ZM535.985 188V179.6H538.781C539.653 179.6 540.309 179.8 540.749 180.2C541.189 180.6 541.409 181.112 541.409 181.736C541.409 182.224 541.277 182.628 541.013 182.948C540.749 183.26 540.453 183.48 540.125 183.608V183.692C540.517 183.82 540.861 184.052 541.157 184.388C541.453 184.724 541.601 185.156 541.601 185.684C541.601 186.116 541.493 186.508 541.277 186.86C541.069 187.204 540.761 187.48 540.353 187.688C539.953 187.896 539.461 188 538.877 188H535.985ZM536.993 183.224H538.709C539.245 183.224 539.653 183.108 539.933 182.876C540.221 182.636 540.365 182.292 540.365 181.844C540.365 181.42 540.225 181.092 539.945 180.86C539.665 180.628 539.241 180.512 538.673 180.512H536.993V183.224ZM536.993 187.076H538.769C539.345 187.076 539.789 186.948 540.101 186.692C540.413 186.428 540.569 186.06 540.569 185.588C540.569 185.116 540.405 184.752 540.077 184.496C539.749 184.232 539.305 184.1 538.745 184.1H536.993V187.076ZM546.588 188.144C545.908 188.144 545.324 187.964 544.836 187.604C544.348 187.244 543.972 186.74 543.708 186.092C543.452 185.436 543.324 184.672 543.324 183.8C543.324 182.928 543.452 182.168 543.708 181.52C543.972 180.864 544.348 180.356 544.836 179.996C545.324 179.636 545.908 179.456 546.588 179.456C547.268 179.456 547.852 179.636 548.34 179.996C548.828 180.356 549.2 180.864 549.456 181.52C549.72 182.168 549.852 182.928 549.852 183.8C549.852 184.672 549.72 185.436 549.456 186.092C549.2 186.74 548.828 187.244 548.34 187.604C547.852 187.964 547.268 188.144 546.588 188.144ZM546.588 187.196C547.252 187.196 547.788 186.9 548.196 186.308C548.612 185.716 548.82 184.88 548.82 183.8C548.82 182.72 548.612 181.884 548.196 181.292C547.788 180.7 547.252 180.404 546.588 180.404C545.916 180.404 545.376 180.7 544.968 181.292C544.56 181.884 544.356 182.72 544.356 183.8C544.356 184.88 544.56 185.716 544.968 186.308C545.376 186.9 545.916 187.196 546.588 187.196ZM553.88 188V180.512H551.624V179.6H557.144V180.512H554.888V188H553.88ZM562.263 188.144C561.671 188.144 561.155 188.032 560.715 187.808C560.283 187.584 559.947 187.272 559.707 186.872C559.475 186.472 559.355 186.004 559.347 185.468H560.403C560.411 185.948 560.571 186.364 560.883 186.716C561.203 187.06 561.663 187.232 562.263 187.232C562.815 187.232 563.239 187.1 563.535 186.836C563.839 186.564 563.991 186.24 563.991 185.864C563.991 185.552 563.919 185.292 563.775 185.084C563.631 184.868 563.395 184.68 563.067 184.52C562.747 184.352 562.315 184.18 561.771 184.004C561.003 183.772 560.443 183.456 560.091 183.056C559.739 182.656 559.563 182.16 559.563 181.568C559.563 181.168 559.667 180.808 559.875 180.488C560.083 180.168 560.383 179.916 560.775 179.732C561.167 179.548 561.643 179.456 562.203 179.456C562.731 179.456 563.191 179.556 563.583 179.756C563.983 179.948 564.291 180.22 564.507 180.572C564.731 180.924 564.843 181.328 564.843 181.784H563.787C563.787 181.56 563.727 181.34 563.607 181.124C563.487 180.908 563.307 180.728 563.067 180.584C562.827 180.44 562.523 180.368 562.155 180.368C561.715 180.368 561.347 180.476 561.051 180.692C560.755 180.9 560.607 181.188 560.607 181.556C560.607 181.836 560.671 182.072 560.799 182.264C560.935 182.456 561.155 182.632 561.459 182.792C561.763 182.944 562.175 183.108 562.695 183.284C563.183 183.444 563.599 183.632 563.943 183.848C564.295 184.056 564.563 184.316 564.747 184.628C564.939 184.94 565.035 185.328 565.035 185.792C565.035 186.248 564.919 186.652 564.687 187.004C564.455 187.356 564.131 187.636 563.715 187.844C563.299 188.044 562.815 188.144 562.263 188.144ZM489.813 206V197.6H495.057V198.536H490.821V201.464H494.445V202.364H490.821V206H489.813ZM497.5 206V197.6H500.08C500.728 197.6 501.26 197.708 501.676 197.924C502.1 198.14 502.416 198.436 502.624 198.812C502.832 199.18 502.936 199.6 502.936 200.072C502.936 200.624 502.792 201.112 502.504 201.536C502.224 201.952 501.792 202.244 501.208 202.412L503.032 206H501.832L500.14 202.556H500.08H498.508V206H497.5ZM498.508 201.632H500.044C500.684 201.632 501.152 201.488 501.448 201.2C501.752 200.904 501.904 200.528 501.904 200.072C501.904 199.592 501.756 199.212 501.46 198.932C501.172 198.652 500.696 198.512 500.032 198.512H498.508V201.632ZM504.708 206L507.336 197.6H508.5L511.116 206H510.012L509.4 203.912H506.424L505.812 206H504.708ZM507.888 199.016L506.676 203.072H509.148L507.936 199.016H507.888ZM512.707 206V197.6H513.787L515.707 201.596L517.627 197.6H518.707V206H517.723V199.544L516.091 202.94H515.323L513.691 199.556V206H512.707ZM520.934 206V197.6H526.178V198.512H521.942V201.308H525.818V202.22H521.942V205.088H526.178V206H520.934ZM529.006 206L527.722 197.6H528.742L529.594 204.08L530.782 197.6H531.814L533.002 204.08L533.854 197.6H534.874L533.59 206H532.438L531.298 199.544L530.158 206H529.006ZM539.093 206.144C538.413 206.144 537.829 205.964 537.341 205.604C536.853 205.244 536.477 204.74 536.213 204.092C535.957 203.436 535.829 202.672 535.829 201.8C535.829 200.928 535.957 200.168 536.213 199.52C536.477 198.864 536.853 198.356 537.341 197.996C537.829 197.636 538.413 197.456 539.093 197.456C539.773 197.456 540.357 197.636 540.845 197.996C541.333 198.356 541.705 198.864 541.961 199.52C542.225 200.168 542.357 200.928 542.357 201.8C542.357 202.672 542.225 203.436 541.961 204.092C541.705 204.74 541.333 205.244 540.845 205.604C540.357 205.964 539.773 206.144 539.093 206.144ZM539.093 205.196C539.757 205.196 540.293 204.9 540.701 204.308C541.117 203.716 541.325 202.88 541.325 201.8C541.325 200.72 541.117 199.884 540.701 199.292C540.293 198.7 539.757 198.404 539.093 198.404C538.421 198.404 537.881 198.7 537.473 199.292C537.065 199.884 536.861 200.72 536.861 201.8C536.861 202.88 537.065 203.716 537.473 204.308C537.881 204.9 538.421 205.196 539.093 205.196ZM544.272 206V197.6H546.852C547.5 197.6 548.032 197.708 548.448 197.924C548.872 198.14 549.188 198.436 549.396 198.812C549.604 199.18 549.708 199.6 549.708 200.072C549.708 200.624 549.564 201.112 549.276 201.536C548.996 201.952 548.564 202.244 547.98 202.412L549.804 206H548.604L546.912 202.556H546.852H545.28V206H544.272ZM545.28 201.632H546.816C547.456 201.632 547.924 201.488 548.22 201.2C548.524 200.904 548.676 200.528 548.676 200.072C548.676 199.592 548.528 199.212 548.232 198.932C547.944 198.652 547.468 198.512 546.804 198.512H545.28V201.632ZM552.068 206V197.6H553.076V201.512L556.364 197.6H557.648L554.108 201.776V201.824L557.696 206H556.388L553.076 202.148V206H552.068Z" fill="#DAD3D3"/>
<rect x="131.5" y="208.5" width="160" height="27" stroke="url(#paint11_linear_166_12)"/>
<path d="M155.984 226V217.6H158.564C159.212 217.6 159.744 217.708 160.16 217.924C160.584 218.14 160.9 218.436 161.108 218.812C161.316 219.18 161.42 219.6 161.42 220.072C161.42 220.624 161.276 221.112 160.988 221.536C160.708 221.952 160.276 222.244 159.692 222.412L161.516 226H160.316L158.624 222.556H158.564H156.992V226H155.984ZM156.992 221.632H158.528C159.168 221.632 159.636 221.488 159.932 221.2C160.236 220.904 160.388 220.528 160.388 220.072C160.388 219.592 160.24 219.212 159.944 218.932C159.656 218.652 159.18 218.512 158.516 218.512H156.992V221.632ZM166.383 226.144C165.823 226.144 165.323 226.028 164.883 225.796C164.451 225.564 164.107 225.212 163.851 224.74C163.603 224.26 163.479 223.66 163.479 222.94V217.6H164.487V222.976C164.487 223.696 164.663 224.252 165.015 224.644C165.367 225.036 165.831 225.232 166.407 225.232C166.983 225.232 167.443 225.036 167.787 224.644C168.131 224.252 168.303 223.696 168.303 222.976V217.6H169.311V222.94C169.311 223.66 169.183 224.26 168.927 224.74C168.671 225.212 168.323 225.564 167.883 225.796C167.443 226.028 166.943 226.144 166.383 226.144ZM174.275 226.144C173.683 226.144 173.167 226.032 172.727 225.808C172.295 225.584 171.959 225.272 171.719 224.872C171.487 224.472 171.367 224.004 171.359 223.468H172.415C172.423 223.948 172.583 224.364 172.895 224.716C173.215 225.06 173.675 225.232 174.275 225.232C174.827 225.232 175.251 225.1 175.547 224.836C175.851 224.564 176.003 224.24 176.003 223.864C176.003 223.552 175.931 223.292 175.787 223.084C175.643 222.868 175.407 222.68 175.079 222.52C174.759 222.352 174.327 222.18 173.783 222.004C173.015 221.772 172.455 221.456 172.103 221.056C171.751 220.656 171.575 220.16 171.575 219.568C171.575 219.168 171.679 218.808 171.887 218.488C172.095 218.168 172.395 217.916 172.787 217.732C173.179 217.548 173.655 217.456 174.215 217.456C174.743 217.456 175.203 217.556 175.595 217.756C175.995 217.948 176.303 218.22 176.519 218.572C176.743 218.924 176.855 219.328 176.855 219.784H175.799C175.799 219.56 175.739 219.34 175.619 219.124C175.499 218.908 175.319 218.728 175.079 218.584C174.839 218.44 174.535 218.368 174.167 218.368C173.727 218.368 173.359 218.476 173.063 218.692C172.767 218.9 172.619 219.188 172.619 219.556C172.619 219.836 172.683 220.072 172.811 220.264C172.947 220.456 173.167 220.632 173.471 220.792C173.775 220.944 174.187 221.108 174.707 221.284C175.195 221.444 175.611 221.632 175.955 221.848C176.307 222.056 176.575 222.316 176.759 222.628C176.951 222.94 177.047 223.328 177.047 223.792C177.047 224.248 176.931 224.652 176.699 225.004C176.467 225.356 176.143 225.636 175.727 225.844C175.311 226.044 174.827 226.144 174.275 226.144ZM181.482 226V218.512H179.226V217.6H184.746V218.512H182.49V226H181.482ZM197.661 226.144C197.069 226.144 196.553 226.032 196.113 225.808C195.681 225.584 195.345 225.272 195.105 224.872C194.873 224.472 194.753 224.004 194.745 223.468H195.801C195.809 223.948 195.969 224.364 196.281 224.716C196.601 225.06 197.061 225.232 197.661 225.232C198.213 225.232 198.637 225.1 198.933 224.836C199.237 224.564 199.389 224.24 199.389 223.864C199.389 223.552 199.317 223.292 199.173 223.084C199.029 222.868 198.793 222.68 198.465 222.52C198.145 222.352 197.713 222.18 197.169 222.004C196.401 221.772 195.841 221.456 195.489 221.056C195.137 220.656 194.961 220.16 194.961 219.568C194.961 219.168 195.065 218.808 195.273 218.488C195.481 218.168 195.781 217.916 196.173 217.732C196.565 217.548 197.041 217.456 197.601 217.456C198.129 217.456 198.589 217.556 198.981 217.756C199.381 217.948 199.689 218.22 199.905 218.572C200.129 218.924 200.241 219.328 200.241 219.784H199.185C199.185 219.56 199.125 219.34 199.005 219.124C198.885 218.908 198.705 218.728 198.465 218.584C198.225 218.44 197.921 218.368 197.553 218.368C197.113 218.368 196.745 218.476 196.449 218.692C196.153 218.9 196.005 219.188 196.005 219.556C196.005 219.836 196.069 220.072 196.197 220.264C196.333 220.456 196.553 220.632 196.857 220.792C197.161 220.944 197.573 221.108 198.093 221.284C198.581 221.444 198.997 221.632 199.341 221.848C199.693 222.056 199.961 222.316 200.145 222.628C200.337 222.94 200.433 223.328 200.433 223.792C200.433 224.248 200.317 224.652 200.085 225.004C199.853 225.356 199.529 225.636 199.113 225.844C198.697 226.044 198.213 226.144 197.661 226.144ZM202.564 226V217.6H204.328C205.704 217.6 206.72 217.976 207.376 218.728C208.04 219.48 208.372 220.504 208.372 221.8C208.372 223.096 208.04 224.12 207.376 224.872C206.72 225.624 205.704 226 204.328 226H202.564ZM203.572 225.076H204.304C205.04 225.076 205.628 224.94 206.068 224.668C206.516 224.396 206.84 224.016 207.04 223.528C207.24 223.04 207.34 222.464 207.34 221.8C207.34 221.136 207.24 220.56 207.04 220.072C206.84 219.584 206.516 219.204 206.068 218.932C205.628 218.66 205.04 218.524 204.304 218.524H203.572V225.076ZM210.551 226V217.6H211.559V221.512L214.847 217.6H216.131L212.591 221.776V221.824L216.179 226H214.871L211.559 222.148V226H210.551Z" fill="#DAD3D3"/>
<rect x="131.5" y="152.5" width="160" height="56" stroke="url(#paint12_linear_166_12)"/>
<path d="M158.096 184.5V177.012H155.84V176.1H161.36V177.012H159.104V184.5H158.096ZM165.891 184.5V181.2L163.167 176.1H164.307L166.395 180.18L168.483 176.1H169.623L166.899 181.2V184.5H165.891ZM171.479 184.5V176.1H174.275C174.915 176.1 175.439 176.216 175.847 176.448C176.255 176.68 176.555 176.988 176.747 177.372C176.939 177.756 177.035 178.18 177.035 178.644C177.035 179.108 176.939 179.532 176.747 179.916C176.555 180.3 176.255 180.608 175.847 180.84C175.439 181.072 174.915 181.188 174.275 181.188H172.487V184.5H171.479ZM172.487 180.264H174.251C174.843 180.264 175.283 180.116 175.571 179.82C175.859 179.516 176.003 179.124 176.003 178.644C176.003 178.164 175.859 177.772 175.571 177.468C175.283 177.164 174.843 177.012 174.251 177.012H172.487V180.264ZM179.418 184.5V176.1H184.662V177.012H180.426V179.808H184.302V180.72H180.426V183.588H184.662V184.5H179.418ZM189.865 184.644C189.273 184.644 188.757 184.532 188.317 184.308C187.885 184.084 187.549 183.772 187.309 183.372C187.077 182.972 186.957 182.504 186.949 181.968H188.005C188.013 182.448 188.173 182.864 188.485 183.216C188.805 183.56 189.265 183.732 189.865 183.732C190.417 183.732 190.841 183.6 191.137 183.336C191.441 183.064 191.593 182.74 191.593 182.364C191.593 182.052 191.521 181.792 191.377 181.584C191.233 181.368 190.997 181.18 190.669 181.02C190.349 180.852 189.917 180.68 189.373 180.504C188.605 180.272 188.045 179.956 187.693 179.556C187.341 179.156 187.165 178.66 187.165 178.068C187.165 177.668 187.269 177.308 187.477 176.988C187.685 176.668 187.985 176.416 188.377 176.232C188.769 176.048 189.245 175.956 189.805 175.956C190.333 175.956 190.793 176.056 191.185 176.256C191.585 176.448 191.893 176.72 192.109 177.072C192.333 177.424 192.445 177.828 192.445 178.284H191.389C191.389 178.06 191.329 177.84 191.209 177.624C191.089 177.408 190.909 177.228 190.669 177.084C190.429 176.94 190.125 176.868 189.757 176.868C189.317 176.868 188.949 176.976 188.653 177.192C188.357 177.4 188.209 177.688 188.209 178.056C188.209 178.336 188.273 178.572 188.401 178.764C188.537 178.956 188.757 179.132 189.061 179.292C189.365 179.444 189.777 179.608 190.297 179.784C190.785 179.944 191.201 180.132 191.545 180.348C191.897 180.556 192.165 180.816 192.349 181.128C192.541 181.44 192.637 181.828 192.637 182.292C192.637 182.748 192.521 183.152 192.289 183.504C192.057 183.856 191.733 184.136 191.317 184.344C190.901 184.544 190.417 184.644 189.865 184.644ZM197.637 184.644C196.957 184.644 196.369 184.464 195.873 184.104C195.385 183.744 195.009 183.24 194.745 182.592C194.489 181.944 194.361 181.18 194.361 180.3C194.361 179.428 194.489 178.668 194.745 178.02C195.009 177.364 195.385 176.856 195.873 176.496C196.369 176.136 196.957 175.956 197.637 175.956C198.501 175.956 199.197 176.196 199.725 176.676C200.253 177.148 200.561 177.78 200.649 178.572H199.533C199.453 178.1 199.253 177.704 198.933 177.384C198.613 177.064 198.181 176.904 197.637 176.904C196.941 176.904 196.393 177.208 195.993 177.816C195.593 178.416 195.393 179.244 195.393 180.3C195.393 181.364 195.593 182.196 195.993 182.796C196.393 183.396 196.941 183.696 197.637 183.696C198.205 183.696 198.641 183.544 198.945 183.24C199.257 182.936 199.453 182.544 199.533 182.064H200.649C200.521 182.864 200.201 183.496 199.689 183.96C199.185 184.416 198.501 184.644 197.637 184.644ZM202.756 184.5V176.1H205.336C205.984 176.1 206.516 176.208 206.932 176.424C207.356 176.64 207.672 176.936 207.88 177.312C208.088 177.68 208.192 178.1 208.192 178.572C208.192 179.124 208.048 179.612 207.76 180.036C207.48 180.452 207.048 180.744 206.464 180.912L208.288 184.5H207.088L205.396 181.056H205.336H203.764V184.5H202.756ZM203.764 180.132H205.3C205.94 180.132 206.408 179.988 206.704 179.7C207.008 179.404 207.16 179.028 207.16 178.572C207.16 178.092 207.012 177.712 206.716 177.432C206.428 177.152 205.952 177.012 205.288 177.012H203.764V180.132ZM210.755 184.5V183.624H212.663V176.976H210.755V176.1H215.579V176.976H213.671V183.624H215.579V184.5H210.755ZM218.25 184.5V176.1H221.046C221.686 176.1 222.21 176.216 222.618 176.448C223.026 176.68 223.326 176.988 223.518 177.372C223.71 177.756 223.806 178.18 223.806 178.644C223.806 179.108 223.71 179.532 223.518 179.916C223.326 180.3 223.026 180.608 222.618 180.84C222.21 181.072 221.686 181.188 221.046 181.188H219.258V184.5H218.25ZM219.258 180.264H221.022C221.614 180.264 222.054 180.116 222.342 179.82C222.63 179.516 222.774 179.124 222.774 178.644C222.774 178.164 222.63 177.772 222.342 177.468C222.054 177.164 221.614 177.012 221.022 177.012H219.258V180.264ZM228.254 184.5V177.012H225.998V176.1H231.518V177.012H229.262V184.5H228.254ZM244.432 184.644C243.84 184.644 243.324 184.532 242.884 184.308C242.452 184.084 242.116 183.772 241.876 183.372C241.644 182.972 241.524 182.504 241.516 181.968H242.572C242.58 182.448 242.74 182.864 243.052 183.216C243.372 183.56 243.832 183.732 244.432 183.732C244.984 183.732 245.408 183.6 245.704 183.336C246.008 183.064 246.16 182.74 246.16 182.364C246.16 182.052 246.088 181.792 245.944 181.584C245.8 181.368 245.564 181.18 245.236 181.02C244.916 180.852 244.484 180.68 243.94 180.504C243.172 180.272 242.612 179.956 242.26 179.556C241.908 179.156 241.732 178.66 241.732 178.068C241.732 177.668 241.836 177.308 242.044 176.988C242.252 176.668 242.552 176.416 242.944 176.232C243.336 176.048 243.812 175.956 244.372 175.956C244.9 175.956 245.36 176.056 245.752 176.256C246.152 176.448 246.46 176.72 246.676 177.072C246.9 177.424 247.012 177.828 247.012 178.284H245.956C245.956 178.06 245.896 177.84 245.776 177.624C245.656 177.408 245.476 177.228 245.236 177.084C244.996 176.94 244.692 176.868 244.324 176.868C243.884 176.868 243.516 176.976 243.22 177.192C242.924 177.4 242.776 177.688 242.776 178.056C242.776 178.336 242.84 178.572 242.968 178.764C243.104 178.956 243.324 179.132 243.628 179.292C243.932 179.444 244.344 179.608 244.864 179.784C245.352 179.944 245.768 180.132 246.112 180.348C246.464 180.556 246.732 180.816 246.916 181.128C247.108 181.44 247.204 181.828 247.204 182.292C247.204 182.748 247.088 183.152 246.856 183.504C246.624 183.856 246.3 184.136 245.884 184.344C245.468 184.544 244.984 184.644 244.432 184.644ZM249.336 184.5V176.1H251.1C252.476 176.1 253.492 176.476 254.148 177.228C254.812 177.98 255.144 179.004 255.144 180.3C255.144 181.596 254.812 182.62 254.148 183.372C253.492 184.124 252.476 184.5 251.1 184.5H249.336ZM250.344 183.576H251.076C251.812 183.576 252.4 183.44 252.84 183.168C253.288 182.896 253.612 182.516 253.812 182.028C254.012 181.54 254.112 180.964 254.112 180.3C254.112 179.636 254.012 179.06 253.812 178.572C253.612 178.084 253.288 177.704 252.84 177.432C252.4 177.16 251.812 177.024 251.076 177.024H250.344V183.576ZM257.323 184.5V176.1H258.331V180.012L261.619 176.1H262.903L259.363 180.276V180.324L262.951 184.5H261.643L258.331 180.648V184.5H257.323Z" fill="#DAD3D3"/>
<defs>
<linearGradient id="paint0_linear_166_12" x1="130" y1="61.7758" x2="291" y2="61.7758" gradientUnits="userSpaceOnUse">
<stop stop-color="white"/>
<stop offset="0.0001" stop-color="#D3FEF0"/>
<stop offset="0.0002" stop-color="#50FFC4"/>
<stop offset="1" stop-color="#F3F3F3"/>
</linearGradient>
<linearGradient id="paint1_linear_166_12" x1="161" y1="351.829" x2="260" y2="351.829" gradientUnits="userSpaceOnUse">
<stop stop-color="white"/>
<stop offset="0.0001" stop-color="#D3FEF0"/>
<stop offset="0.0002" stop-color="#50FFC4"/>
<stop offset="1" stop-color="#F3F3F3"/>
</linearGradient>
<linearGradient id="paint2_linear_166_12" x1="473" y1="351.829" x2="572" y2="351.829" gradientUnits="userSpaceOnUse">
<stop stop-color="white"/>
<stop offset="0.0001" stop-color="#D3FEF0"/>
<stop offset="0.0002" stop-color="#50FFC4"/>
<stop offset="1" stop-color="#F3F3F3"/>
</linearGradient>
<linearGradient id="paint3_linear_166_12" x1="321" y1="351.829" x2="420" y2="351.829" gradientUnits="userSpaceOnUse">
<stop stop-color="white"/>
<stop offset="0.0001" stop-color="#D3FEF0"/>
<stop offset="0.0002" stop-color="#50FFC4"/>
<stop offset="1" stop-color="#F3F3F3"/>
</linearGradient>
<linearGradient id="paint4_linear_166_12" x1="148" y1="460.861" x2="274" y2="460.861" gradientUnits="userSpaceOnUse">
<stop stop-color="white"/>
<stop offset="0.0001" stop-color="#D3FEF0"/>
<stop offset="0.0002" stop-color="#50FFC4"/>
<stop offset="1" stop-color="#F3F3F3"/>
</linearGradient>
<linearGradient id="paint5_linear_166_12" x1="147" y1="539.909" x2="276" y2="539.909" gradientUnits="userSpaceOnUse">
<stop stop-color="white"/>
<stop offset="0.0001" stop-color="#D3FEF0"/>
<stop offset="0.0002" stop-color="#50FFC4"/>
<stop offset="1" stop-color="#F3F3F3"/>
</linearGradient>
<linearGradient id="paint6_linear_166_12" x1="307" y1="460.861" x2="434" y2="460.861" gradientUnits="userSpaceOnUse">
<stop stop-color="white"/>
<stop offset="0.0001" stop-color="#D3FEF0"/>
<stop offset="0.0002" stop-color="#50FFC4"/>
<stop offset="1" stop-color="#F3F3F3"/>
</linearGradient>
<linearGradient id="paint7_linear_166_12" x1="306" y1="539.909" x2="435" y2="539.909" gradientUnits="userSpaceOnUse">
<stop stop-color="white"/>
<stop offset="0.0001" stop-color="#D3FEF0"/>
<stop offset="0.0002" stop-color="#50FFC4"/>
<stop offset="1" stop-color="#F3F3F3"/>
</linearGradient>
<linearGradient id="paint8_linear_166_12" x1="460" y1="460.861" x2="586" y2="460.861" gradientUnits="userSpaceOnUse">
<stop stop-color="white"/>
<stop offset="0.0001" stop-color="#D3FEF0"/>
<stop offset="0.0002" stop-color="#50FFC4"/>
<stop offset="1" stop-color="#F3F3F3"/>
</linearGradient>
<linearGradient id="paint9_linear_166_12" x1="458" y1="539.909" x2="587" y2="539.909" gradientUnits="userSpaceOnUse">
<stop stop-color="white"/>
<stop offset="0.0001" stop-color="#D3FEF0"/>
<stop offset="0.0002" stop-color="#50FFC4"/>
<stop offset="1" stop-color="#F3F3F3"/>
</linearGradient>
<linearGradient id="paint10_linear_166_12" x1="443" y1="192.776" x2="604" y2="192.776" gradientUnits="userSpaceOnUse">
<stop stop-color="white"/>
<stop offset="0.0001" stop-color="#D3FEF0"/>
<stop offset="0.0002" stop-color="#50FFC4"/>
<stop offset="1" stop-color="#F3F3F3"/>
</linearGradient>
<linearGradient id="paint11_linear_166_12" x1="131" y1="221.925" x2="292" y2="221.925" gradientUnits="userSpaceOnUse">
<stop stop-color="white"/>
<stop offset="0.0001" stop-color="#D3FEF0"/>
<stop offset="0.0002" stop-color="#50FFC4"/>
<stop offset="1" stop-color="#F3F3F3"/>
</linearGradient>
<linearGradient id="paint12_linear_166_12" x1="131" y1="180.348" x2="292" y2="180.348" gradientUnits="userSpaceOnUse">
<stop stop-color="white"/>
<stop offset="0.0001" stop-color="#D3FEF0"/>
<stop offset="0.0002" stop-color="#50FFC4"/>
<stop offset="1" stop-color="#F3F3F3"/>
</linearGradient>
</defs>
</svg>
