<svg width="645" height="665" viewBox="0 0 645 665" fill="none" xmlns="http://www.w3.org/2000/svg">
<rect x="201.5" y="64.5" width="160" height="83" stroke="url(#paint0_linear_112_831)"/>
<path d="M259.308 110L258.024 101.6H259.044L259.896 108.08L261.084 101.6H262.116L263.304 108.08L264.156 101.6H265.176L263.892 110H262.74L261.6 103.544L260.46 110H259.308ZM266.827 110V101.6H272.071V102.512H267.835V105.308H271.711V106.22H267.835V109.088H272.071V110H266.827ZM274.383 110V101.6H277.179C278.051 101.6 278.707 101.8 279.147 102.2C279.587 102.6 279.807 103.112 279.807 103.736C279.807 104.224 279.675 104.628 279.411 104.948C279.147 105.26 278.851 105.48 278.523 105.608V105.692C278.915 105.82 279.259 106.052 279.555 106.388C279.851 106.724 279.999 107.156 279.999 107.684C279.999 108.116 279.891 108.508 279.675 108.86C279.467 109.204 279.159 109.48 278.751 109.688C278.351 109.896 277.859 110 277.275 110H274.383ZM275.391 105.224H277.107C277.643 105.224 278.051 105.108 278.331 104.876C278.619 104.636 278.763 104.292 278.763 103.844C278.763 103.42 278.623 103.092 278.343 102.86C278.063 102.628 277.639 102.512 277.071 102.512H275.391V105.224ZM275.391 109.076H277.167C277.743 109.076 278.187 108.948 278.499 108.692C278.811 108.428 278.967 108.06 278.967 107.588C278.967 107.116 278.803 106.752 278.475 106.496C278.147 106.232 277.703 106.1 277.143 106.1H275.391V109.076ZM292.769 110.144C292.209 110.144 291.709 110.028 291.269 109.796C290.837 109.564 290.493 109.212 290.237 108.74C289.989 108.26 289.865 107.66 289.865 106.94V101.6H290.873V106.976C290.873 107.696 291.049 108.252 291.401 108.644C291.753 109.036 292.217 109.232 292.793 109.232C293.369 109.232 293.829 109.036 294.173 108.644C294.517 108.252 294.689 107.696 294.689 106.976V101.6H295.697V106.94C295.697 107.66 295.569 108.26 295.313 108.74C295.057 109.212 294.709 109.564 294.269 109.796C293.829 110.028 293.329 110.144 292.769 110.144ZM298.165 110V109.124H300.073V102.476H298.165V101.6H302.989V102.476H301.081V109.124H302.989V110H298.165Z" fill="#DAD3D3"/>
<path d="M39.6 77.144C38.92 77.144 38.336 76.964 37.848 76.604C37.36 76.244 36.984 75.74 36.72 75.092C36.464 74.436 36.336 73.672 36.336 72.8C36.336 71.928 36.464 71.168 36.72 70.52C36.984 69.864 37.36 69.356 37.848 68.996C38.336 68.636 38.92 68.456 39.6 68.456C40.28 68.456 40.864 68.636 41.352 68.996C41.84 69.356 42.212 69.864 42.468 70.52C42.732 71.168 42.864 71.928 42.864 72.8C42.864 73.672 42.732 74.436 42.468 75.092C42.212 75.74 41.84 76.244 41.352 76.604C40.864 76.964 40.28 77.144 39.6 77.144ZM39.6 76.196C40.264 76.196 40.8 75.9 41.208 75.308C41.624 74.716 41.832 73.88 41.832 72.8C41.832 71.72 41.624 70.884 41.208 70.292C40.8 69.7 40.264 69.404 39.6 69.404C38.928 69.404 38.388 69.7 37.98 70.292C37.572 70.884 37.368 71.72 37.368 72.8C37.368 73.88 37.572 74.716 37.98 75.308C38.388 75.9 38.928 76.196 39.6 76.196ZM44.8873 77V68.6H50.1313V69.536H45.8953V72.464H49.5193V73.364H45.8953V77H44.8873ZM52.6826 77V68.6H57.9266V69.536H53.6906V72.464H57.3146V73.364H53.6906V77H52.6826ZM61.0059 73.232V72.368H64.9659V73.232H61.0059ZM70.8412 77.144C70.1612 77.144 69.5732 76.964 69.0772 76.604C68.5892 76.244 68.2132 75.74 67.9492 75.092C67.6932 74.444 67.5652 73.68 67.5652 72.8C67.5652 71.928 67.6932 71.168 67.9492 70.52C68.2132 69.864 68.5892 69.356 69.0772 68.996C69.5732 68.636 70.1612 68.456 70.8412 68.456C71.7052 68.456 72.4012 68.696 72.9293 69.176C73.4572 69.648 73.7652 70.28 73.8533 71.072H72.7372C72.6572 70.6 72.4572 70.204 72.1372 69.884C71.8172 69.564 71.3852 69.404 70.8412 69.404C70.1452 69.404 69.5972 69.708 69.1972 70.316C68.7972 70.916 68.5972 71.744 68.5972 72.8C68.5972 73.864 68.7972 74.696 69.1972 75.296C69.5972 75.896 70.1452 76.196 70.8412 76.196C71.4092 76.196 71.8452 76.044 72.1493 75.74C72.4612 75.436 72.6572 75.044 72.7372 74.564H73.8533C73.7253 75.364 73.4052 75.996 72.8932 76.46C72.3892 76.916 71.7052 77.144 70.8412 77.144ZM75.5406 77V68.6H76.5486V72.224H80.6166V68.6H81.6246V77H80.6166V73.136H76.5486V77H75.5406ZM83.1679 77L85.7959 68.6H86.9599L89.5759 77H88.4719L87.8599 74.912H84.8839L84.2719 77H83.1679ZM86.3479 70.016L85.1359 74.072H87.6079L86.3959 70.016H86.3479ZM91.7552 77V76.124H93.6632V69.476H91.7552V68.6H96.5792V69.476H94.6712V76.124H96.5792V77H91.7552ZM99.0465 77V68.6H100.078L103.894 75.236V68.6H104.89V77H103.846L100.03 70.364V77H99.0465ZM39.588 95.144C39.028 95.144 38.528 95.028 38.088 94.796C37.656 94.564 37.312 94.212 37.056 93.74C36.808 93.26 36.684 92.66 36.684 91.94V86.6H37.692V91.976C37.692 92.696 37.868 93.252 38.22 93.644C38.572 94.036 39.036 94.232 39.612 94.232C40.188 94.232 40.648 94.036 40.992 93.644C41.336 93.252 41.508 92.696 41.508 91.976V86.6H42.516V91.94C42.516 92.66 42.388 93.26 42.132 93.74C41.876 94.212 41.528 94.564 41.088 94.796C40.648 95.028 40.148 95.144 39.588 95.144ZM46.8913 95V87.512H44.6353V86.6H50.1553V87.512H47.8993V95H46.8913ZM52.7786 95V94.124H54.6866V87.476H52.7786V86.6H57.6026V87.476H55.6946V94.124H57.6026V95H52.7786ZM60.4299 95V86.6H61.4379V94.088H65.6979V95H60.4299ZM68.3692 95V94.124H70.2772V87.476H68.3692V86.6H73.1933V87.476H71.2852V94.124H73.1933V95H68.3692ZM78.0726 95V87.512H75.8166V86.6H81.3366V87.512H79.0806V95H78.0726ZM83.9599 95V94.124H85.8679V87.476H83.9599V86.6H88.7839V87.476H86.8759V94.124H88.7839V95H83.9599ZM91.5992 95V86.6H96.8432V87.512H92.6072V90.308H96.4832V91.22H92.6072V94.088H96.8432V95H91.5992ZM102.046 95.144C101.454 95.144 100.938 95.032 100.498 94.808C100.066 94.584 99.7305 94.272 99.4905 93.872C99.2585 93.472 99.1385 93.004 99.1305 92.468H100.186C100.194 92.948 100.354 93.364 100.666 93.716C100.986 94.06 101.446 94.232 102.046 94.232C102.598 94.232 103.022 94.1 103.318 93.836C103.622 93.564 103.774 93.24 103.774 92.864C103.774 92.552 103.702 92.292 103.558 92.084C103.414 91.868 103.178 91.68 102.85 91.52C102.53 91.352 102.098 91.18 101.554 91.004C100.786 90.772 100.226 90.456 99.8745 90.056C99.5225 89.656 99.3465 89.16 99.3465 88.568C99.3465 88.168 99.4505 87.808 99.6585 87.488C99.8665 87.168 100.166 86.916 100.558 86.732C100.95 86.548 101.426 86.456 101.986 86.456C102.514 86.456 102.974 86.556 103.366 86.756C103.766 86.948 104.074 87.22 104.29 87.572C104.514 87.924 104.626 88.328 104.626 88.784H103.57C103.57 88.56 103.51 88.34 103.39 88.124C103.27 87.908 103.09 87.728 102.85 87.584C102.61 87.44 102.306 87.368 101.938 87.368C101.498 87.368 101.13 87.476 100.834 87.692C100.538 87.9 100.39 88.188 100.39 88.556C100.39 88.836 100.454 89.072 100.582 89.264C100.718 89.456 100.938 89.632 101.242 89.792C101.546 89.944 101.958 90.108 102.478 90.284C102.966 90.444 103.382 90.632 103.726 90.848C104.078 91.056 104.346 91.316 104.53 91.628C104.722 91.94 104.818 92.328 104.818 92.792C104.818 93.248 104.702 93.652 104.47 94.004C104.238 94.356 103.914 94.636 103.498 94.844C103.082 95.044 102.598 95.144 102.046 95.144Z" fill="white"/>
<path d="M39.6 346.144C38.92 346.144 38.336 345.964 37.848 345.604C37.36 345.244 36.984 344.74 36.72 344.092C36.464 343.436 36.336 342.672 36.336 341.8C36.336 340.928 36.464 340.168 36.72 339.52C36.984 338.864 37.36 338.356 37.848 337.996C38.336 337.636 38.92 337.456 39.6 337.456C40.28 337.456 40.864 337.636 41.352 337.996C41.84 338.356 42.212 338.864 42.468 339.52C42.732 340.168 42.864 340.928 42.864 341.8C42.864 342.672 42.732 343.436 42.468 344.092C42.212 344.74 41.84 345.244 41.352 345.604C40.864 345.964 40.28 346.144 39.6 346.144ZM39.6 345.196C40.264 345.196 40.8 344.9 41.208 344.308C41.624 343.716 41.832 342.88 41.832 341.8C41.832 340.72 41.624 339.884 41.208 339.292C40.8 338.7 40.264 338.404 39.6 338.404C38.928 338.404 38.388 338.7 37.98 339.292C37.572 339.884 37.368 340.72 37.368 341.8C37.368 342.88 37.572 343.716 37.98 344.308C38.388 344.9 38.928 345.196 39.6 345.196ZM44.4793 346V337.6H45.5113L49.3273 344.236V337.6H50.3233V346H49.2793L45.4633 339.364V346H44.4793ZM53.2106 342.232V341.368H57.1706V342.232H53.2106ZM63.0459 346.144C62.3659 346.144 61.7779 345.964 61.2819 345.604C60.7939 345.244 60.4179 344.74 60.1539 344.092C59.8979 343.444 59.7699 342.68 59.7699 341.8C59.7699 340.928 59.8979 340.168 60.1539 339.52C60.4179 338.864 60.7939 338.356 61.2819 337.996C61.7779 337.636 62.3659 337.456 63.0459 337.456C63.9099 337.456 64.6059 337.696 65.1339 338.176C65.6619 338.648 65.9699 339.28 66.0579 340.072H64.9419C64.8619 339.6 64.6619 339.204 64.3419 338.884C64.0219 338.564 63.5899 338.404 63.0459 338.404C62.3499 338.404 61.8019 338.708 61.4019 339.316C61.0019 339.916 60.8019 340.744 60.8019 341.8C60.8019 342.864 61.0019 343.696 61.4019 344.296C61.8019 344.896 62.3499 345.196 63.0459 345.196C63.6139 345.196 64.0499 345.044 64.3539 344.74C64.6659 344.436 64.8619 344.044 64.9419 343.564H66.0579C65.9299 344.364 65.6099 344.996 65.0979 345.46C64.5939 345.916 63.9099 346.144 63.0459 346.144ZM67.7452 346V337.6H68.7532V341.224H72.8212V337.6H73.8292V346H72.8212V342.136H68.7532V346H67.7452ZM75.3726 346L78.0006 337.6H79.1646L81.7806 346H80.6766L80.0646 343.912H77.0886L76.4766 346H75.3726ZM78.5526 339.016L77.3406 343.072H79.8126L78.6006 339.016H78.5526ZM83.9599 346V345.124H85.8679V338.476H83.9599V337.6H88.7839V338.476H86.8759V345.124H88.7839V346H83.9599ZM91.2512 346V337.6H92.2832L96.0992 344.236V337.6H97.0952V346H96.0512L92.2352 339.364V346H91.2512ZM39.66 364.144C38.98 364.144 38.392 363.964 37.896 363.604C37.408 363.244 37.032 362.74 36.768 362.092C36.512 361.444 36.384 360.68 36.384 359.8C36.384 358.928 36.512 358.168 36.768 357.52C37.032 356.864 37.408 356.356 37.896 355.996C38.392 355.636 38.98 355.456 39.66 355.456C40.524 355.456 41.22 355.696 41.748 356.176C42.276 356.648 42.584 357.28 42.672 358.072H41.556C41.476 357.6 41.276 357.204 40.956 356.884C40.636 356.564 40.204 356.404 39.66 356.404C38.964 356.404 38.416 356.708 38.016 357.316C37.616 357.916 37.416 358.744 37.416 359.8C37.416 360.864 37.616 361.696 38.016 362.296C38.416 362.896 38.964 363.196 39.66 363.196C40.228 363.196 40.664 363.044 40.968 362.74C41.28 362.436 41.476 362.044 41.556 361.564H42.672C42.544 362.364 42.224 362.996 41.712 363.46C41.208 363.916 40.524 364.144 39.66 364.144ZM47.3953 364.144C46.7153 364.144 46.1313 363.964 45.6433 363.604C45.1553 363.244 44.7793 362.74 44.5153 362.092C44.2593 361.436 44.1313 360.672 44.1313 359.8C44.1313 358.928 44.2593 358.168 44.5153 357.52C44.7793 356.864 45.1553 356.356 45.6433 355.996C46.1313 355.636 46.7153 355.456 47.3953 355.456C48.0753 355.456 48.6593 355.636 49.1473 355.996C49.6353 356.356 50.0073 356.864 50.2633 357.52C50.5273 358.168 50.6593 358.928 50.6593 359.8C50.6593 360.672 50.5273 361.436 50.2633 362.092C50.0073 362.74 49.6353 363.244 49.1473 363.604C48.6593 363.964 48.0753 364.144 47.3953 364.144ZM47.3953 363.196C48.0593 363.196 48.5953 362.9 49.0033 362.308C49.4193 361.716 49.6273 360.88 49.6273 359.8C49.6273 358.72 49.4193 357.884 49.0033 357.292C48.5953 356.7 48.0593 356.404 47.3953 356.404C46.7233 356.404 46.1833 356.7 45.7753 357.292C45.3673 357.884 45.1633 358.72 45.1633 359.8C45.1633 360.88 45.3673 361.716 45.7753 362.308C46.1833 362.9 46.7233 363.196 47.3953 363.196ZM52.2746 364V355.6H53.3066L57.1226 362.236V355.6H58.1186V364H57.0746L53.2586 357.364V364H52.2746ZM62.4819 364V356.512H60.2259V355.6H65.7459V356.512H63.4899V364H62.4819ZM68.1652 364V355.6H70.7452C71.3932 355.6 71.9252 355.708 72.3412 355.924C72.7652 356.14 73.0812 356.436 73.2892 356.812C73.4972 357.18 73.6012 357.6 73.6012 358.072C73.6012 358.624 73.4572 359.112 73.1692 359.536C72.8892 359.952 72.4572 360.244 71.8733 360.412L73.6973 364H72.4972L70.8052 360.556H70.7452H69.1732V364H68.1652ZM69.1732 359.632H70.7092C71.3492 359.632 71.8172 359.488 72.1132 359.2C72.4172 358.904 72.5692 358.528 72.5692 358.072C72.5692 357.592 72.4212 357.212 72.1252 356.932C71.8372 356.652 71.3612 356.512 70.6972 356.512H69.1732V359.632ZM75.3726 364L78.0006 355.6H79.1646L81.7806 364H80.6766L80.0646 361.912H77.0886L76.4766 364H75.3726ZM78.5526 357.016L77.3406 361.072H79.8126L78.6006 357.016H78.5526ZM86.4319 364.144C85.7519 364.144 85.1639 363.964 84.6679 363.604C84.1799 363.244 83.8039 362.74 83.5399 362.092C83.2839 361.444 83.1559 360.68 83.1559 359.8C83.1559 358.928 83.2839 358.168 83.5399 357.52C83.8039 356.864 84.1799 356.356 84.6679 355.996C85.1639 355.636 85.7519 355.456 86.4319 355.456C87.2959 355.456 87.9919 355.696 88.5199 356.176C89.0479 356.648 89.3559 357.28 89.4439 358.072H88.3279C88.2479 357.6 88.0479 357.204 87.7279 356.884C87.4079 356.564 86.9759 356.404 86.4319 356.404C85.7359 356.404 85.1879 356.708 84.7879 357.316C84.3879 357.916 84.1879 358.744 84.1879 359.8C84.1879 360.864 84.3879 361.696 84.7879 362.296C85.1879 362.896 85.7359 363.196 86.4319 363.196C86.9999 363.196 87.4359 363.044 87.7399 362.74C88.0519 362.436 88.2479 362.044 88.3279 361.564H89.4439C89.3159 362.364 88.9959 362.996 88.4839 363.46C87.9799 363.916 87.2959 364.144 86.4319 364.144ZM93.6632 364V356.512H91.4072V355.6H96.9272V356.512H94.6712V364H93.6632ZM102.046 364.144C101.454 364.144 100.938 364.032 100.498 363.808C100.066 363.584 99.7305 363.272 99.4905 362.872C99.2585 362.472 99.1385 362.004 99.1305 361.468H100.186C100.194 361.948 100.354 362.364 100.666 362.716C100.986 363.06 101.446 363.232 102.046 363.232C102.598 363.232 103.022 363.1 103.318 362.836C103.622 362.564 103.774 362.24 103.774 361.864C103.774 361.552 103.702 361.292 103.558 361.084C103.414 360.868 103.178 360.68 102.85 360.52C102.53 360.352 102.098 360.18 101.554 360.004C100.786 359.772 100.226 359.456 99.8745 359.056C99.5225 358.656 99.3465 358.16 99.3465 357.568C99.3465 357.168 99.4505 356.808 99.6585 356.488C99.8665 356.168 100.166 355.916 100.558 355.732C100.95 355.548 101.426 355.456 101.986 355.456C102.514 355.456 102.974 355.556 103.366 355.756C103.766 355.948 104.074 356.22 104.29 356.572C104.514 356.924 104.626 357.328 104.626 357.784H103.57C103.57 357.56 103.51 357.34 103.39 357.124C103.27 356.908 103.09 356.728 102.85 356.584C102.61 356.44 102.306 356.368 101.938 356.368C101.498 356.368 101.13 356.476 100.834 356.692C100.538 356.9 100.39 357.188 100.39 357.556C100.39 357.836 100.454 358.072 100.582 358.264C100.718 358.456 100.938 358.632 101.242 358.792C101.546 358.944 101.958 359.108 102.478 359.284C102.966 359.444 103.382 359.632 103.726 359.848C104.078 360.056 104.346 360.316 104.53 360.628C104.722 360.94 104.818 361.328 104.818 361.792C104.818 362.248 104.702 362.652 104.47 363.004C104.238 363.356 103.914 363.636 103.498 363.844C103.082 364.044 102.598 364.144 102.046 364.144Z" fill="white"/>
<path d="M36 309H601.5" stroke="#565E6F" stroke-dasharray="4 8"/>
<rect x="201.5" y="195.5" width="160" height="83" stroke="url(#paint1_linear_112_831)"/>
<path d="M225.564 232V223.6H226.572V227.224H230.64V223.6H231.648V232H230.64V228.136H226.572V232H225.564ZM235.891 232V228.7L233.167 223.6H234.307L236.395 227.68L238.483 223.6H239.623L236.899 228.7V232H235.891ZM241.479 232V223.6H244.275C244.915 223.6 245.439 223.716 245.847 223.948C246.255 224.18 246.555 224.488 246.747 224.872C246.939 225.256 247.035 225.68 247.035 226.144C247.035 226.608 246.939 227.032 246.747 227.416C246.555 227.8 246.255 228.108 245.847 228.34C245.439 228.572 244.915 228.688 244.275 228.688H242.487V232H241.479ZM242.487 227.764H244.251C244.843 227.764 245.283 227.616 245.571 227.32C245.859 227.016 246.003 226.624 246.003 226.144C246.003 225.664 245.859 225.272 245.571 224.968C245.283 224.664 244.843 224.512 244.251 224.512H242.487V227.764ZM249.418 232V223.6H254.662V224.512H250.426V227.308H254.302V228.22H250.426V231.088H254.662V232H249.418ZM257.165 232V223.6H259.745C260.393 223.6 260.925 223.708 261.341 223.924C261.765 224.14 262.081 224.436 262.289 224.812C262.497 225.18 262.601 225.6 262.601 226.072C262.601 226.624 262.457 227.112 262.169 227.536C261.889 227.952 261.457 228.244 260.873 228.412L262.697 232H261.497L259.805 228.556H259.745H258.173V232H257.165ZM258.173 227.632H259.709C260.349 227.632 260.817 227.488 261.113 227.2C261.417 226.904 261.569 226.528 261.569 226.072C261.569 225.592 261.421 225.212 261.125 224.932C260.837 224.652 260.361 224.512 259.697 224.512H258.173V227.632ZM264.769 232V223.6H266.533C267.909 223.6 268.925 223.976 269.581 224.728C270.245 225.48 270.577 226.504 270.577 227.8C270.577 229.096 270.245 230.12 269.581 230.872C268.925 231.624 267.909 232 266.533 232H264.769ZM265.777 231.076H266.509C267.245 231.076 267.833 230.94 268.273 230.668C268.721 230.396 269.045 230.016 269.245 229.528C269.445 229.04 269.545 228.464 269.545 227.8C269.545 227.136 269.445 226.56 269.245 226.072C269.045 225.584 268.721 225.204 268.273 224.932C267.833 224.66 267.245 224.524 266.509 224.524H265.777V231.076ZM272.756 232V223.6H275.336C275.984 223.6 276.516 223.708 276.932 223.924C277.356 224.14 277.672 224.436 277.88 224.812C278.088 225.18 278.192 225.6 278.192 226.072C278.192 226.624 278.048 227.112 277.76 227.536C277.48 227.952 277.048 228.244 276.464 228.412L278.288 232H277.088L275.396 228.556H275.336H273.764V232H272.756ZM273.764 227.632H275.3C275.94 227.632 276.408 227.488 276.704 227.2C277.008 226.904 277.16 226.528 277.16 226.072C277.16 225.592 277.012 225.212 276.716 224.932C276.428 224.652 275.952 224.512 275.288 224.512H273.764V227.632ZM280.755 232V231.124H282.663V224.476H280.755V223.6H285.579V224.476H283.671V231.124H285.579V232H280.755ZM290.362 232L287.686 223.6H288.766L290.962 230.692L293.158 223.6H294.25L291.562 232H290.362ZM296.19 232V223.6H301.434V224.512H297.198V227.308H301.074V228.22H297.198V231.088H301.434V232H296.19ZM314.432 232.144C313.84 232.144 313.324 232.032 312.884 231.808C312.452 231.584 312.116 231.272 311.876 230.872C311.644 230.472 311.524 230.004 311.516 229.468H312.572C312.58 229.948 312.74 230.364 313.052 230.716C313.372 231.06 313.832 231.232 314.432 231.232C314.984 231.232 315.408 231.1 315.704 230.836C316.008 230.564 316.16 230.24 316.16 229.864C316.16 229.552 316.088 229.292 315.944 229.084C315.8 228.868 315.564 228.68 315.236 228.52C314.916 228.352 314.484 228.18 313.94 228.004C313.172 227.772 312.612 227.456 312.26 227.056C311.908 226.656 311.732 226.16 311.732 225.568C311.732 225.168 311.836 224.808 312.044 224.488C312.252 224.168 312.552 223.916 312.944 223.732C313.336 223.548 313.812 223.456 314.372 223.456C314.9 223.456 315.36 223.556 315.752 223.756C316.152 223.948 316.46 224.22 316.676 224.572C316.9 224.924 317.012 225.328 317.012 225.784H315.956C315.956 225.56 315.896 225.34 315.776 225.124C315.656 224.908 315.476 224.728 315.236 224.584C314.996 224.44 314.692 224.368 314.324 224.368C313.884 224.368 313.516 224.476 313.22 224.692C312.924 224.9 312.776 225.188 312.776 225.556C312.776 225.836 312.84 226.072 312.968 226.264C313.104 226.456 313.324 226.632 313.628 226.792C313.932 226.944 314.344 227.108 314.864 227.284C315.352 227.444 315.768 227.632 316.112 227.848C316.464 228.056 316.732 228.316 316.916 228.628C317.108 228.94 317.204 229.328 317.204 229.792C317.204 230.248 317.088 230.652 316.856 231.004C316.624 231.356 316.3 231.636 315.884 231.844C315.468 232.044 314.984 232.144 314.432 232.144ZM319.336 232V223.6H321.1C322.476 223.6 323.492 223.976 324.148 224.728C324.812 225.48 325.144 226.504 325.144 227.8C325.144 229.096 324.812 230.12 324.148 230.872C323.492 231.624 322.476 232 321.1 232H319.336ZM320.344 231.076H321.076C321.812 231.076 322.4 230.94 322.84 230.668C323.288 230.396 323.612 230.016 323.812 229.528C324.012 229.04 324.112 228.464 324.112 227.8C324.112 227.136 324.012 226.56 323.812 226.072C323.612 225.584 323.288 225.204 322.84 224.932C322.4 224.66 321.812 224.524 321.076 224.524H320.344V231.076ZM327.323 232V223.6H328.331V227.512L331.619 223.6H332.903L329.363 227.776V227.824L332.951 232H331.643L328.331 228.148V232H327.323ZM229.176 252.22C228.76 251.756 228.372 251.236 228.012 250.66C227.66 250.092 227.376 249.448 227.16 248.728C226.944 248 226.836 247.172 226.836 246.244C226.836 245.316 226.944 244.492 227.16 243.772C227.376 243.044 227.66 242.396 228.012 241.828C228.372 241.252 228.76 240.732 229.176 240.268H230.244V240.376C229.764 240.896 229.344 241.452 228.984 242.044C228.624 242.628 228.344 243.264 228.144 243.952C227.944 244.64 227.844 245.404 227.844 246.244C227.844 247.084 227.944 247.848 228.144 248.536C228.344 249.224 228.624 249.86 228.984 250.444C229.344 251.036 229.764 251.592 230.244 252.112V252.22H229.176ZM235.891 250V242.512H233.635V241.6H239.155V242.512H236.899V250H235.891ZM243.687 250V246.7L240.963 241.6H242.103L244.191 245.68L246.279 241.6H247.419L244.695 246.7V250H243.687ZM249.274 250V241.6H252.07C252.71 241.6 253.234 241.716 253.642 241.948C254.05 242.18 254.35 242.488 254.542 242.872C254.734 243.256 254.83 243.68 254.83 244.144C254.83 244.608 254.734 245.032 254.542 245.416C254.35 245.8 254.05 246.108 253.642 246.34C253.234 246.572 252.71 246.688 252.07 246.688H250.282V250H249.274ZM250.282 245.764H252.046C252.638 245.764 253.078 245.616 253.366 245.32C253.654 245.016 253.798 244.624 253.798 244.144C253.798 243.664 253.654 243.272 253.366 242.968C253.078 242.664 252.638 242.512 252.046 242.512H250.282V245.764ZM257.213 250V241.6H262.457V242.512H258.221V245.308H262.097V246.22H258.221V249.088H262.457V250H257.213ZM267.661 250.144C267.069 250.144 266.553 250.032 266.113 249.808C265.681 249.584 265.345 249.272 265.105 248.872C264.873 248.472 264.753 248.004 264.745 247.468H265.801C265.809 247.948 265.969 248.364 266.281 248.716C266.601 249.06 267.061 249.232 267.661 249.232C268.213 249.232 268.637 249.1 268.933 248.836C269.237 248.564 269.389 248.24 269.389 247.864C269.389 247.552 269.317 247.292 269.173 247.084C269.029 246.868 268.793 246.68 268.465 246.52C268.145 246.352 267.713 246.18 267.169 246.004C266.401 245.772 265.841 245.456 265.489 245.056C265.137 244.656 264.961 244.16 264.961 243.568C264.961 243.168 265.065 242.808 265.273 242.488C265.481 242.168 265.781 241.916 266.173 241.732C266.565 241.548 267.041 241.456 267.601 241.456C268.129 241.456 268.589 241.556 268.981 241.756C269.381 241.948 269.689 242.22 269.905 242.572C270.129 242.924 270.241 243.328 270.241 243.784H269.185C269.185 243.56 269.125 243.34 269.005 243.124C268.885 242.908 268.705 242.728 268.465 242.584C268.225 242.44 267.921 242.368 267.553 242.368C267.113 242.368 266.745 242.476 266.449 242.692C266.153 242.9 266.005 243.188 266.005 243.556C266.005 243.836 266.069 244.072 266.197 244.264C266.333 244.456 266.553 244.632 266.857 244.792C267.161 244.944 267.573 245.108 268.093 245.284C268.581 245.444 268.997 245.632 269.341 245.848C269.693 246.056 269.961 246.316 270.145 246.628C270.337 246.94 270.433 247.328 270.433 247.792C270.433 248.248 270.317 248.652 270.085 249.004C269.853 249.356 269.529 249.636 269.113 249.844C268.697 250.044 268.213 250.144 267.661 250.144ZM275.432 250.144C274.752 250.144 274.164 249.964 273.668 249.604C273.18 249.244 272.804 248.74 272.54 248.092C272.284 247.444 272.156 246.68 272.156 245.8C272.156 244.928 272.284 244.168 272.54 243.52C272.804 242.864 273.18 242.356 273.668 241.996C274.164 241.636 274.752 241.456 275.432 241.456C276.296 241.456 276.992 241.696 277.52 242.176C278.048 242.648 278.356 243.28 278.444 244.072H277.328C277.248 243.6 277.048 243.204 276.728 242.884C276.408 242.564 275.976 242.404 275.432 242.404C274.736 242.404 274.188 242.708 273.788 243.316C273.388 243.916 273.188 244.744 273.188 245.8C273.188 246.864 273.388 247.696 273.788 248.296C274.188 248.896 274.736 249.196 275.432 249.196C276 249.196 276.436 249.044 276.74 248.74C277.052 248.436 277.248 248.044 277.328 247.564H278.444C278.316 248.364 277.996 248.996 277.484 249.46C276.98 249.916 276.296 250.144 275.432 250.144ZM280.551 250V241.6H283.131C283.779 241.6 284.311 241.708 284.727 241.924C285.151 242.14 285.467 242.436 285.675 242.812C285.883 243.18 285.987 243.6 285.987 244.072C285.987 244.624 285.843 245.112 285.555 245.536C285.275 245.952 284.843 246.244 284.259 246.412L286.083 250H284.883L283.191 246.556H283.131H281.559V250H280.551ZM281.559 245.632H283.095C283.735 245.632 284.203 245.488 284.499 245.2C284.803 244.904 284.955 244.528 284.955 244.072C284.955 243.592 284.807 243.212 284.511 242.932C284.223 242.652 283.747 242.512 283.083 242.512H281.559V245.632ZM288.55 250V249.124H290.458V242.476H288.55V241.6H293.374V242.476H291.466V249.124H293.374V250H288.55ZM296.046 250V241.6H298.842C299.482 241.6 300.006 241.716 300.414 241.948C300.822 242.18 301.122 242.488 301.314 242.872C301.506 243.256 301.602 243.68 301.602 244.144C301.602 244.608 301.506 245.032 301.314 245.416C301.122 245.8 300.822 246.108 300.414 246.34C300.006 246.572 299.482 246.688 298.842 246.688H297.054V250H296.046ZM297.054 245.764H298.818C299.41 245.764 299.85 245.616 300.138 245.32C300.426 245.016 300.57 244.624 300.57 244.144C300.57 243.664 300.426 243.272 300.138 242.968C299.85 242.664 299.41 242.512 298.818 242.512H297.054V245.764ZM306.049 250V242.512H303.793V241.6H309.313V242.512H307.057V250H306.049ZM312.704 252.22V252.112C313.184 251.592 313.604 251.036 313.964 250.444C314.324 249.86 314.604 249.224 314.804 248.536C315.004 247.848 315.104 247.084 315.104 246.244C315.104 245.404 315.004 244.64 314.804 243.952C314.604 243.264 314.324 242.628 313.964 242.044C313.604 241.452 313.184 240.896 312.704 240.376V240.268H313.772C314.188 240.732 314.572 241.252 314.924 241.828C315.284 242.396 315.572 243.044 315.788 243.772C316.004 244.492 316.112 245.316 316.112 246.244C316.112 247.172 316.004 248 315.788 248.728C315.572 249.448 315.284 250.092 314.924 250.66C314.572 251.236 314.188 251.756 313.772 252.22H312.704Z" fill="#DAD3D3"/>
<rect x="258.5" y="353.5" width="288" height="91" stroke="url(#paint2_linear_112_831)"/>
<path d="M346.564 403V394.6H347.572V398.224H351.64V394.6H352.648V403H351.64V399.136H347.572V403H346.564ZM356.891 403V399.7L354.167 394.6H355.307L357.395 398.68L359.483 394.6H360.623L357.899 399.7V403H356.891ZM362.479 403V394.6H365.275C365.915 394.6 366.439 394.716 366.847 394.948C367.255 395.18 367.555 395.488 367.747 395.872C367.939 396.256 368.035 396.68 368.035 397.144C368.035 397.608 367.939 398.032 367.747 398.416C367.555 398.8 367.255 399.108 366.847 399.34C366.439 399.572 365.915 399.688 365.275 399.688H363.487V403H362.479ZM363.487 398.764H365.251C365.843 398.764 366.283 398.616 366.571 398.32C366.859 398.016 367.003 397.624 367.003 397.144C367.003 396.664 366.859 396.272 366.571 395.968C366.283 395.664 365.843 395.512 365.251 395.512H363.487V398.764ZM370.418 403V394.6H375.662V395.512H371.426V398.308H375.302V399.22H371.426V402.088H375.662V403H370.418ZM378.165 403V394.6H380.745C381.393 394.6 381.925 394.708 382.341 394.924C382.765 395.14 383.081 395.436 383.289 395.812C383.497 396.18 383.601 396.6 383.601 397.072C383.601 397.624 383.457 398.112 383.169 398.536C382.889 398.952 382.457 399.244 381.873 399.412L383.697 403H382.497L380.805 399.556H380.745H379.173V403H378.165ZM379.173 398.632H380.709C381.349 398.632 381.817 398.488 382.113 398.2C382.417 397.904 382.569 397.528 382.569 397.072C382.569 396.592 382.421 396.212 382.125 395.932C381.837 395.652 381.361 395.512 380.697 395.512H379.173V398.632ZM385.769 403V394.6H387.533C388.909 394.6 389.925 394.976 390.581 395.728C391.245 396.48 391.577 397.504 391.577 398.8C391.577 400.096 391.245 401.12 390.581 401.872C389.925 402.624 388.909 403 387.533 403H385.769ZM386.777 402.076H387.509C388.245 402.076 388.833 401.94 389.273 401.668C389.721 401.396 390.045 401.016 390.245 400.528C390.445 400.04 390.545 399.464 390.545 398.8C390.545 398.136 390.445 397.56 390.245 397.072C390.045 396.584 389.721 396.204 389.273 395.932C388.833 395.66 388.245 395.524 387.509 395.524H386.777V402.076ZM393.756 403V394.6H396.336C396.984 394.6 397.516 394.708 397.932 394.924C398.356 395.14 398.672 395.436 398.88 395.812C399.088 396.18 399.192 396.6 399.192 397.072C399.192 397.624 399.048 398.112 398.76 398.536C398.48 398.952 398.048 399.244 397.464 399.412L399.288 403H398.088L396.396 399.556H396.336H394.764V403H393.756ZM394.764 398.632H396.3C396.94 398.632 397.408 398.488 397.704 398.2C398.008 397.904 398.16 397.528 398.16 397.072C398.16 396.592 398.012 396.212 397.716 395.932C397.428 395.652 396.952 395.512 396.288 395.512H394.764V398.632ZM401.755 403V402.124H403.663V395.476H401.755V394.6H406.579V395.476H404.671V402.124H406.579V403H401.755ZM411.362 403L408.686 394.6H409.766L411.962 401.692L414.158 394.6H415.25L412.562 403H411.362ZM417.19 403V394.6H422.434V395.512H418.198V398.308H422.074V399.22H418.198V402.088H422.434V403H417.19ZM432.144 403L434.772 394.6H435.936L438.552 403H437.448L436.836 400.912H433.86L433.248 403H432.144ZM435.324 396.016L434.112 400.072H436.584L435.372 396.016H435.324ZM440.144 403V394.6H441.224L443.144 398.596L445.064 394.6H446.144V403H445.16V396.544L443.528 399.94H442.76L441.128 396.556V403H440.144ZM447.939 403V394.6H449.019L450.939 398.596L452.859 394.6H453.939V403H452.955V396.544L451.323 399.94H450.555L448.923 396.556V403H447.939Z" fill="#DAD3D3"/>
<rect x="201.5" y="479.5" width="128" height="51" stroke="url(#paint3_linear_112_831)"/>
<path d="M210.032 500V491.6H215.276V492.512H211.04V495.308H214.916V496.22H211.04V499.088H215.276V500H210.032ZM217.779 500V491.6H220.359C221.007 491.6 221.539 491.708 221.955 491.924C222.379 492.14 222.695 492.436 222.903 492.812C223.111 493.18 223.215 493.6 223.215 494.072C223.215 494.624 223.071 495.112 222.783 495.536C222.503 495.952 222.071 496.244 221.487 496.412L223.311 500H222.111L220.419 496.556H220.359H218.787V500H217.779ZM218.787 495.632H220.323C220.963 495.632 221.431 495.488 221.727 495.2C222.031 494.904 222.183 494.528 222.183 494.072C222.183 493.592 222.035 493.212 221.739 492.932C221.451 492.652 220.975 492.512 220.311 492.512H218.787V495.632ZM228.251 500.144C227.571 500.144 226.983 499.964 226.487 499.604C225.999 499.244 225.623 498.74 225.359 498.092C225.103 497.444 224.975 496.68 224.975 495.8C224.975 494.928 225.103 494.168 225.359 493.52C225.623 492.864 225.999 492.356 226.487 491.996C226.983 491.636 227.571 491.456 228.251 491.456C229.115 491.456 229.811 491.696 230.339 492.176C230.867 492.648 231.175 493.28 231.263 494.072H230.147C230.067 493.6 229.867 493.204 229.547 492.884C229.227 492.564 228.795 492.404 228.251 492.404C227.555 492.404 227.007 492.708 226.607 493.316C226.207 493.916 226.007 494.744 226.007 495.8C226.007 496.864 226.207 497.696 226.607 498.296C227.007 498.896 227.555 499.196 228.251 499.196C228.819 499.196 229.255 499.044 229.559 498.74C229.871 498.436 230.067 498.044 230.147 497.564H231.263C231.135 498.364 230.815 498.996 230.303 499.46C229.799 499.916 229.115 500.144 228.251 500.144ZM237.018 500V498.056H232.998V497.276L236.826 491.6H238.026V497.144H239.226V498.056H238.026V500H237.018ZM234.126 497.144H237.066V492.776L234.126 497.144ZM243.949 500.144C243.213 500.144 242.613 499.968 242.149 499.616C241.693 499.256 241.353 498.776 241.129 498.176C240.913 497.568 240.805 496.884 240.805 496.124C240.805 495.204 240.933 494.396 241.189 493.7C241.445 492.996 241.813 492.448 242.293 492.056C242.781 491.656 243.365 491.456 244.045 491.456C244.581 491.456 245.037 491.56 245.413 491.768C245.797 491.968 246.097 492.244 246.313 492.596C246.537 492.94 246.669 493.328 246.709 493.76H245.761C245.681 493.336 245.489 493 245.185 492.752C244.881 492.496 244.501 492.368 244.045 492.368C243.645 492.368 243.277 492.496 242.941 492.752C242.613 493 242.341 493.388 242.125 493.916C241.917 494.436 241.797 495.1 241.765 495.908H241.825C242.009 495.564 242.293 495.264 242.677 495.008C243.061 494.752 243.525 494.624 244.069 494.624C244.573 494.624 245.025 494.74 245.425 494.972C245.825 495.204 246.141 495.524 246.373 495.932C246.613 496.34 246.733 496.804 246.733 497.324C246.733 497.836 246.617 498.308 246.385 498.74C246.161 499.164 245.837 499.504 245.413 499.76C244.997 500.016 244.509 500.144 243.949 500.144ZM243.877 499.232C244.429 499.232 244.873 499.056 245.209 498.704C245.545 498.352 245.713 497.912 245.713 497.384C245.713 496.848 245.545 496.408 245.209 496.064C244.873 495.712 244.429 495.536 243.877 495.536C243.509 495.536 243.185 495.616 242.905 495.776C242.633 495.936 242.417 496.156 242.257 496.436C242.105 496.716 242.029 497.032 242.029 497.384C242.029 497.736 242.105 498.052 242.257 498.332C242.417 498.612 242.633 498.832 242.905 498.992C243.185 499.152 243.509 499.232 243.877 499.232ZM248.865 500V499.208C249.729 498.52 250.481 497.888 251.121 497.312C251.769 496.736 252.269 496.18 252.621 495.644C252.973 495.108 253.149 494.56 253.149 494C253.149 493.496 253.005 493.1 252.717 492.812C252.437 492.516 252.057 492.368 251.577 492.368C251.209 492.368 250.897 492.448 250.641 492.608C250.385 492.768 250.193 492.98 250.065 493.244C249.937 493.508 249.873 493.792 249.873 494.096H248.877C248.885 493.544 249.005 493.072 249.237 492.68C249.477 492.28 249.797 491.976 250.197 491.768C250.605 491.56 251.065 491.456 251.577 491.456C252.401 491.456 253.041 491.684 253.497 492.14C253.953 492.596 254.181 493.208 254.181 493.976C254.181 494.48 254.073 494.964 253.857 495.428C253.641 495.884 253.353 496.324 252.993 496.748C252.633 497.172 252.229 497.58 251.781 497.972C251.333 498.364 250.881 498.74 250.425 499.1H254.409V500H248.865ZM259.54 500.144C258.804 500.144 258.204 499.968 257.74 499.616C257.284 499.256 256.944 498.776 256.72 498.176C256.504 497.568 256.396 496.884 256.396 496.124C256.396 495.204 256.524 494.396 256.78 493.7C257.036 492.996 257.404 492.448 257.884 492.056C258.372 491.656 258.956 491.456 259.636 491.456C260.172 491.456 260.628 491.56 261.004 491.768C261.388 491.968 261.688 492.244 261.904 492.596C262.128 492.94 262.26 493.328 262.3 493.76H261.352C261.272 493.336 261.08 493 260.776 492.752C260.472 492.496 260.092 492.368 259.636 492.368C259.236 492.368 258.868 492.496 258.532 492.752C258.204 493 257.932 493.388 257.716 493.916C257.508 494.436 257.388 495.1 257.356 495.908H257.416C257.6 495.564 257.884 495.264 258.268 495.008C258.652 494.752 259.116 494.624 259.66 494.624C260.164 494.624 260.616 494.74 261.016 494.972C261.416 495.204 261.732 495.524 261.964 495.932C262.204 496.34 262.324 496.804 262.324 497.324C262.324 497.836 262.208 498.308 261.976 498.74C261.752 499.164 261.428 499.504 261.004 499.76C260.588 500.016 260.1 500.144 259.54 500.144ZM259.468 499.232C260.02 499.232 260.464 499.056 260.8 498.704C261.136 498.352 261.304 497.912 261.304 497.384C261.304 496.848 261.136 496.408 260.8 496.064C260.464 495.712 260.02 495.536 259.468 495.536C259.1 495.536 258.776 495.616 258.496 495.776C258.224 495.936 258.008 496.156 257.848 496.436C257.696 496.716 257.62 497.032 257.62 497.384C257.62 497.736 257.696 498.052 257.848 498.332C258.008 498.612 258.224 498.832 258.496 498.992C258.776 499.152 259.1 499.232 259.468 499.232ZM212 518L209.324 509.6H210.404L212.6 516.692L214.796 509.6H215.888L213.2 518H212ZM217.191 518L219.819 509.6H220.983L223.599 518H222.495L221.883 515.912H218.907L218.295 518H217.191ZM220.371 511.016L219.159 515.072H221.631L220.419 511.016H220.371ZM228.179 518.144C227.619 518.144 227.119 518.028 226.679 517.796C226.247 517.564 225.903 517.212 225.647 516.74C225.399 516.26 225.275 515.66 225.275 514.94V509.6H226.283V514.976C226.283 515.696 226.459 516.252 226.811 516.644C227.163 517.036 227.627 517.232 228.203 517.232C228.779 517.232 229.239 517.036 229.583 516.644C229.927 516.252 230.099 515.696 230.099 514.976V509.6H231.107V514.94C231.107 515.66 230.979 516.26 230.723 516.74C230.467 517.212 230.119 517.564 229.679 517.796C229.239 518.028 228.739 518.144 228.179 518.144ZM233.43 518V509.6H234.438V517.088H238.698V518H233.43ZM243.277 518V510.512H241.021V509.6H246.541V510.512H244.285V518H243.277ZM257.08 518L255.796 509.6H256.816L257.668 516.08L258.856 509.6H259.888L261.076 516.08L261.928 509.6H262.948L261.664 518H260.512L259.372 511.544L258.232 518H257.08ZM264.551 518V509.6H267.131C267.779 509.6 268.311 509.708 268.727 509.924C269.151 510.14 269.467 510.436 269.675 510.812C269.883 511.18 269.987 511.6 269.987 512.072C269.987 512.624 269.843 513.112 269.555 513.536C269.275 513.952 268.843 514.244 268.259 514.412L270.083 518H268.883L267.191 514.556H267.131H265.559V518H264.551ZM265.559 513.632H267.095C267.735 513.632 268.203 513.488 268.499 513.2C268.803 512.904 268.955 512.528 268.955 512.072C268.955 511.592 268.807 511.212 268.511 510.932C268.223 510.652 267.747 510.512 267.083 510.512H265.559V513.632ZM271.758 518L274.386 509.6H275.55L278.166 518H277.062L276.45 515.912H273.474L272.862 518H271.758ZM274.938 511.016L273.726 515.072H276.198L274.986 511.016H274.938ZM280.046 518V509.6H282.842C283.482 509.6 284.006 509.716 284.414 509.948C284.822 510.18 285.122 510.488 285.314 510.872C285.506 511.256 285.602 511.68 285.602 512.144C285.602 512.608 285.506 513.032 285.314 513.416C285.122 513.8 284.822 514.108 284.414 514.34C284.006 514.572 283.482 514.688 282.842 514.688H281.054V518H280.046ZM281.054 513.764H282.818C283.41 513.764 283.85 513.616 284.138 513.32C284.426 513.016 284.57 512.624 284.57 512.144C284.57 511.664 284.426 511.272 284.138 510.968C283.85 510.664 283.41 510.512 282.818 510.512H281.054V513.764ZM287.841 518V509.6H290.637C291.277 509.6 291.801 509.716 292.209 509.948C292.617 510.18 292.917 510.488 293.109 510.872C293.301 511.256 293.397 511.68 293.397 512.144C293.397 512.608 293.301 513.032 293.109 513.416C292.917 513.8 292.617 514.108 292.209 514.34C291.801 514.572 291.277 514.688 290.637 514.688H288.849V518H287.841ZM288.849 513.764H290.613C291.205 513.764 291.645 513.616 291.933 513.32C292.221 513.016 292.365 512.624 292.365 512.144C292.365 511.664 292.221 511.272 291.933 510.968C291.645 510.664 291.205 510.512 290.613 510.512H288.849V513.764ZM295.78 518V509.6H301.024V510.512H296.788V513.308H300.664V514.22H296.788V517.088H301.024V518H295.78ZM303.528 518V509.6H306.108C306.756 509.6 307.288 509.708 307.704 509.924C308.128 510.14 308.444 510.436 308.652 510.812C308.86 511.18 308.964 511.6 308.964 512.072C308.964 512.624 308.82 513.112 308.532 513.536C308.252 513.952 307.82 514.244 307.236 514.412L309.06 518H307.86L306.168 514.556H306.108H304.536V518H303.528ZM304.536 513.632H306.072C306.712 513.632 307.18 513.488 307.476 513.2C307.78 512.904 307.932 512.528 307.932 512.072C307.932 511.592 307.784 511.212 307.488 510.932C307.2 510.652 306.724 510.512 306.06 510.512H304.536V513.632Z" fill="#DAD3D3"/>
<rect x="201.5" y="567.5" width="128" height="33" stroke="url(#paint4_linear_112_831)"/>
<path d="M212.096 588V584.7L209.372 579.6H210.512L212.6 583.68L214.688 579.6H215.828L213.104 584.7V588H212.096ZM217.983 588V587.124H219.891V580.476H217.983V579.6H222.807V580.476H220.899V587.124H222.807V588H217.983ZM225.623 588V579.6H230.867V580.512H226.631V583.308H230.507V584.22H226.631V587.088H230.867V588H225.623ZM233.43 588V579.6H234.438V587.088H238.698V588H233.43ZM240.973 588V579.6H242.737C244.113 579.6 245.129 579.976 245.785 580.728C246.449 581.48 246.781 582.504 246.781 583.8C246.781 585.096 246.449 586.12 245.785 586.872C245.129 587.624 244.113 588 242.737 588H240.973ZM241.981 587.076H242.713C243.449 587.076 244.037 586.94 244.477 586.668C244.925 586.396 245.249 586.016 245.449 585.528C245.649 585.04 245.749 584.464 245.749 583.8C245.749 583.136 245.649 582.56 245.449 582.072C245.249 581.584 244.925 581.204 244.477 580.932C244.037 580.66 243.449 580.524 242.713 580.524H241.981V587.076ZM259.456 588.144C258.864 588.144 258.348 588.032 257.908 587.808C257.476 587.584 257.14 587.272 256.9 586.872C256.668 586.472 256.548 586.004 256.54 585.468H257.596C257.604 585.948 257.764 586.364 258.076 586.716C258.396 587.06 258.856 587.232 259.456 587.232C260.008 587.232 260.432 587.1 260.728 586.836C261.032 586.564 261.184 586.24 261.184 585.864C261.184 585.552 261.112 585.292 260.968 585.084C260.824 584.868 260.588 584.68 260.26 584.52C259.94 584.352 259.508 584.18 258.964 584.004C258.196 583.772 257.636 583.456 257.284 583.056C256.932 582.656 256.756 582.16 256.756 581.568C256.756 581.168 256.86 580.808 257.068 580.488C257.276 580.168 257.576 579.916 257.968 579.732C258.36 579.548 258.836 579.456 259.396 579.456C259.924 579.456 260.384 579.556 260.776 579.756C261.176 579.948 261.484 580.22 261.7 580.572C261.924 580.924 262.036 581.328 262.036 581.784H260.98C260.98 581.56 260.92 581.34 260.8 581.124C260.68 580.908 260.5 580.728 260.26 580.584C260.02 580.44 259.716 580.368 259.348 580.368C258.908 580.368 258.54 580.476 258.244 580.692C257.948 580.9 257.8 581.188 257.8 581.556C257.8 581.836 257.864 582.072 257.992 582.264C258.128 582.456 258.348 582.632 258.652 582.792C258.956 582.944 259.368 583.108 259.888 583.284C260.376 583.444 260.792 583.632 261.136 583.848C261.488 584.056 261.756 584.316 261.94 584.628C262.132 584.94 262.228 585.328 262.228 585.792C262.228 586.248 262.112 586.652 261.88 587.004C261.648 587.356 261.324 587.636 260.908 587.844C260.492 588.044 260.008 588.144 259.456 588.144ZM267.167 588.144C266.487 588.144 265.903 587.964 265.415 587.604C264.927 587.244 264.551 586.74 264.287 586.092C264.031 585.436 263.903 584.672 263.903 583.8C263.903 582.928 264.031 582.168 264.287 581.52C264.551 580.864 264.927 580.356 265.415 579.996C265.903 579.636 266.487 579.456 267.167 579.456C267.847 579.456 268.431 579.636 268.919 579.996C269.407 580.356 269.779 580.864 270.035 581.52C270.299 582.168 270.431 582.928 270.431 583.8C270.431 584.672 270.299 585.436 270.035 586.092C269.779 586.74 269.407 587.244 268.919 587.604C268.431 587.964 267.847 588.144 267.167 588.144ZM267.167 587.196C267.831 587.196 268.367 586.9 268.775 586.308C269.191 585.716 269.399 584.88 269.399 583.8C269.399 582.72 269.191 581.884 268.775 581.292C268.367 580.7 267.831 580.404 267.167 580.404C266.495 580.404 265.955 580.7 265.547 581.292C265.139 581.884 264.935 582.72 264.935 583.8C264.935 584.88 265.139 585.716 265.547 586.308C265.955 586.9 266.495 587.196 267.167 587.196ZM274.95 588.144C274.39 588.144 273.89 588.028 273.45 587.796C273.018 587.564 272.674 587.212 272.418 586.74C272.17 586.26 272.046 585.66 272.046 584.94V579.6H273.054V584.976C273.054 585.696 273.23 586.252 273.582 586.644C273.934 587.036 274.398 587.232 274.974 587.232C275.55 587.232 276.01 587.036 276.354 586.644C276.698 586.252 276.87 585.696 276.87 584.976V579.6H277.878V584.94C277.878 585.66 277.75 586.26 277.494 586.74C277.238 587.212 276.89 587.564 276.45 587.796C276.01 588.028 275.51 588.144 274.95 588.144ZM280.142 588V579.6H282.722C283.37 579.6 283.902 579.708 284.318 579.924C284.742 580.14 285.058 580.436 285.266 580.812C285.474 581.18 285.578 581.6 285.578 582.072C285.578 582.624 285.434 583.112 285.146 583.536C284.866 583.952 284.434 584.244 283.85 584.412L285.674 588H284.474L282.782 584.556H282.722H281.15V588H280.142ZM281.15 583.632H282.686C283.326 583.632 283.794 583.488 284.09 583.2C284.394 582.904 284.546 582.528 284.546 582.072C284.546 581.592 284.398 581.212 284.102 580.932C283.814 580.652 283.338 580.512 282.674 580.512H281.15V583.632ZM290.613 588.144C289.933 588.144 289.345 587.964 288.849 587.604C288.361 587.244 287.985 586.74 287.721 586.092C287.465 585.444 287.337 584.68 287.337 583.8C287.337 582.928 287.465 582.168 287.721 581.52C287.985 580.864 288.361 580.356 288.849 579.996C289.345 579.636 289.933 579.456 290.613 579.456C291.477 579.456 292.173 579.696 292.701 580.176C293.229 580.648 293.537 581.28 293.625 582.072H292.509C292.429 581.6 292.229 581.204 291.909 580.884C291.589 580.564 291.157 580.404 290.613 580.404C289.917 580.404 289.369 580.708 288.969 581.316C288.569 581.916 288.369 582.744 288.369 583.8C288.369 584.864 288.569 585.696 288.969 586.296C289.369 586.896 289.917 587.196 290.613 587.196C291.181 587.196 291.617 587.044 291.921 586.74C292.233 586.436 292.429 586.044 292.509 585.564H293.625C293.497 586.364 293.177 586.996 292.665 587.46C292.161 587.916 291.477 588.144 290.613 588.144ZM295.78 588V579.6H301.024V580.512H296.788V583.308H300.664V584.22H296.788V587.088H301.024V588H295.78ZM311.179 588V587.088H313.351V580.788L311.299 581.184V580.416L313.687 579.6H314.359V587.088H316.651V588H311.179Z" fill="#DAD3D3"/>
<rect x="338.5" y="479.5" width="128" height="51" stroke="url(#paint5_linear_112_831)"/>
<path d="M347.032 500V491.6H352.276V492.512H348.04V495.308H351.916V496.22H348.04V499.088H352.276V500H347.032ZM354.779 500V491.6H357.359C358.007 491.6 358.539 491.708 358.955 491.924C359.379 492.14 359.695 492.436 359.903 492.812C360.111 493.18 360.215 493.6 360.215 494.072C360.215 494.624 360.071 495.112 359.783 495.536C359.503 495.952 359.071 496.244 358.487 496.412L360.311 500H359.111L357.419 496.556H357.359H355.787V500H354.779ZM355.787 495.632H357.323C357.963 495.632 358.431 495.488 358.727 495.2C359.031 494.904 359.183 494.528 359.183 494.072C359.183 493.592 359.035 493.212 358.739 492.932C358.451 492.652 357.975 492.512 357.311 492.512H355.787V495.632ZM365.251 500.144C364.571 500.144 363.983 499.964 363.487 499.604C362.999 499.244 362.623 498.74 362.359 498.092C362.103 497.444 361.975 496.68 361.975 495.8C361.975 494.928 362.103 494.168 362.359 493.52C362.623 492.864 362.999 492.356 363.487 491.996C363.983 491.636 364.571 491.456 365.251 491.456C366.115 491.456 366.811 491.696 367.339 492.176C367.867 492.648 368.175 493.28 368.263 494.072H367.147C367.067 493.6 366.867 493.204 366.547 492.884C366.227 492.564 365.795 492.404 365.251 492.404C364.555 492.404 364.007 492.708 363.607 493.316C363.207 493.916 363.007 494.744 363.007 495.8C363.007 496.864 363.207 497.696 363.607 498.296C364.007 498.896 364.555 499.196 365.251 499.196C365.819 499.196 366.255 499.044 366.559 498.74C366.871 498.436 367.067 498.044 367.147 497.564H368.263C368.135 498.364 367.815 498.996 367.303 499.46C366.799 499.916 366.115 500.144 365.251 500.144ZM374.018 500V498.056H369.998V497.276L373.826 491.6H375.026V497.144H376.226V498.056H375.026V500H374.018ZM371.126 497.144H374.066V492.776L371.126 497.144ZM380.949 500.144C380.213 500.144 379.613 499.968 379.149 499.616C378.693 499.256 378.353 498.776 378.129 498.176C377.913 497.568 377.805 496.884 377.805 496.124C377.805 495.204 377.933 494.396 378.189 493.7C378.445 492.996 378.813 492.448 379.293 492.056C379.781 491.656 380.365 491.456 381.045 491.456C381.581 491.456 382.037 491.56 382.413 491.768C382.797 491.968 383.097 492.244 383.313 492.596C383.537 492.94 383.669 493.328 383.709 493.76H382.761C382.681 493.336 382.489 493 382.185 492.752C381.881 492.496 381.501 492.368 381.045 492.368C380.645 492.368 380.277 492.496 379.941 492.752C379.613 493 379.341 493.388 379.125 493.916C378.917 494.436 378.797 495.1 378.765 495.908H378.825C379.009 495.564 379.293 495.264 379.677 495.008C380.061 494.752 380.525 494.624 381.069 494.624C381.573 494.624 382.025 494.74 382.425 494.972C382.825 495.204 383.141 495.524 383.373 495.932C383.613 496.34 383.733 496.804 383.733 497.324C383.733 497.836 383.617 498.308 383.385 498.74C383.161 499.164 382.837 499.504 382.413 499.76C381.997 500.016 381.509 500.144 380.949 500.144ZM380.877 499.232C381.429 499.232 381.873 499.056 382.209 498.704C382.545 498.352 382.713 497.912 382.713 497.384C382.713 496.848 382.545 496.408 382.209 496.064C381.873 495.712 381.429 495.536 380.877 495.536C380.509 495.536 380.185 495.616 379.905 495.776C379.633 495.936 379.417 496.156 379.257 496.436C379.105 496.716 379.029 497.032 379.029 497.384C379.029 497.736 379.105 498.052 379.257 498.332C379.417 498.612 379.633 498.832 379.905 498.992C380.185 499.152 380.509 499.232 380.877 499.232ZM385.865 500V499.208C386.729 498.52 387.481 497.888 388.121 497.312C388.769 496.736 389.269 496.18 389.621 495.644C389.973 495.108 390.149 494.56 390.149 494C390.149 493.496 390.005 493.1 389.717 492.812C389.437 492.516 389.057 492.368 388.577 492.368C388.209 492.368 387.897 492.448 387.641 492.608C387.385 492.768 387.193 492.98 387.065 493.244C386.937 493.508 386.873 493.792 386.873 494.096H385.877C385.885 493.544 386.005 493.072 386.237 492.68C386.477 492.28 386.797 491.976 387.197 491.768C387.605 491.56 388.065 491.456 388.577 491.456C389.401 491.456 390.041 491.684 390.497 492.14C390.953 492.596 391.181 493.208 391.181 493.976C391.181 494.48 391.073 494.964 390.857 495.428C390.641 495.884 390.353 496.324 389.993 496.748C389.633 497.172 389.229 497.58 388.781 497.972C388.333 498.364 387.881 498.74 387.425 499.1H391.409V500H385.865ZM396.54 500.144C395.804 500.144 395.204 499.968 394.74 499.616C394.284 499.256 393.944 498.776 393.72 498.176C393.504 497.568 393.396 496.884 393.396 496.124C393.396 495.204 393.524 494.396 393.78 493.7C394.036 492.996 394.404 492.448 394.884 492.056C395.372 491.656 395.956 491.456 396.636 491.456C397.172 491.456 397.628 491.56 398.004 491.768C398.388 491.968 398.688 492.244 398.904 492.596C399.128 492.94 399.26 493.328 399.3 493.76H398.352C398.272 493.336 398.08 493 397.776 492.752C397.472 492.496 397.092 492.368 396.636 492.368C396.236 492.368 395.868 492.496 395.532 492.752C395.204 493 394.932 493.388 394.716 493.916C394.508 494.436 394.388 495.1 394.356 495.908H394.416C394.6 495.564 394.884 495.264 395.268 495.008C395.652 494.752 396.116 494.624 396.66 494.624C397.164 494.624 397.616 494.74 398.016 494.972C398.416 495.204 398.732 495.524 398.964 495.932C399.204 496.34 399.324 496.804 399.324 497.324C399.324 497.836 399.208 498.308 398.976 498.74C398.752 499.164 398.428 499.504 398.004 499.76C397.588 500.016 397.1 500.144 396.54 500.144ZM396.468 499.232C397.02 499.232 397.464 499.056 397.8 498.704C398.136 498.352 398.304 497.912 398.304 497.384C398.304 496.848 398.136 496.408 397.8 496.064C397.464 495.712 397.02 495.536 396.468 495.536C396.1 495.536 395.776 495.616 395.496 495.776C395.224 495.936 395.008 496.156 394.848 496.436C394.696 496.716 394.62 497.032 394.62 497.384C394.62 497.736 394.696 498.052 394.848 498.332C395.008 498.612 395.224 498.832 395.496 498.992C395.776 499.152 396.1 499.232 396.468 499.232ZM349 518L346.324 509.6H347.404L349.6 516.692L351.796 509.6H352.888L350.2 518H349ZM354.191 518L356.819 509.6H357.983L360.599 518H359.495L358.883 515.912H355.907L355.295 518H354.191ZM357.371 511.016L356.159 515.072H358.631L357.419 511.016H357.371ZM365.179 518.144C364.619 518.144 364.119 518.028 363.679 517.796C363.247 517.564 362.903 517.212 362.647 516.74C362.399 516.26 362.275 515.66 362.275 514.94V509.6H363.283V514.976C363.283 515.696 363.459 516.252 363.811 516.644C364.163 517.036 364.627 517.232 365.203 517.232C365.779 517.232 366.239 517.036 366.583 516.644C366.927 516.252 367.099 515.696 367.099 514.976V509.6H368.107V514.94C368.107 515.66 367.979 516.26 367.723 516.74C367.467 517.212 367.119 517.564 366.679 517.796C366.239 518.028 365.739 518.144 365.179 518.144ZM370.43 518V509.6H371.438V517.088H375.698V518H370.43ZM380.277 518V510.512H378.021V509.6H383.541V510.512H381.285V518H380.277ZM394.08 518L392.796 509.6H393.816L394.668 516.08L395.856 509.6H396.888L398.076 516.08L398.928 509.6H399.948L398.664 518H397.512L396.372 511.544L395.232 518H394.08ZM401.551 518V509.6H404.131C404.779 509.6 405.311 509.708 405.727 509.924C406.151 510.14 406.467 510.436 406.675 510.812C406.883 511.18 406.987 511.6 406.987 512.072C406.987 512.624 406.843 513.112 406.555 513.536C406.275 513.952 405.843 514.244 405.259 514.412L407.083 518H405.883L404.191 514.556H404.131H402.559V518H401.551ZM402.559 513.632H404.095C404.735 513.632 405.203 513.488 405.499 513.2C405.803 512.904 405.955 512.528 405.955 512.072C405.955 511.592 405.807 511.212 405.511 510.932C405.223 510.652 404.747 510.512 404.083 510.512H402.559V513.632ZM408.758 518L411.386 509.6H412.55L415.166 518H414.062L413.45 515.912H410.474L409.862 518H408.758ZM411.938 511.016L410.726 515.072H413.198L411.986 511.016H411.938ZM417.046 518V509.6H419.842C420.482 509.6 421.006 509.716 421.414 509.948C421.822 510.18 422.122 510.488 422.314 510.872C422.506 511.256 422.602 511.68 422.602 512.144C422.602 512.608 422.506 513.032 422.314 513.416C422.122 513.8 421.822 514.108 421.414 514.34C421.006 514.572 420.482 514.688 419.842 514.688H418.054V518H417.046ZM418.054 513.764H419.818C420.41 513.764 420.85 513.616 421.138 513.32C421.426 513.016 421.57 512.624 421.57 512.144C421.57 511.664 421.426 511.272 421.138 510.968C420.85 510.664 420.41 510.512 419.818 510.512H418.054V513.764ZM424.841 518V509.6H427.637C428.277 509.6 428.801 509.716 429.209 509.948C429.617 510.18 429.917 510.488 430.109 510.872C430.301 511.256 430.397 511.68 430.397 512.144C430.397 512.608 430.301 513.032 430.109 513.416C429.917 513.8 429.617 514.108 429.209 514.34C428.801 514.572 428.277 514.688 427.637 514.688H425.849V518H424.841ZM425.849 513.764H427.613C428.205 513.764 428.645 513.616 428.933 513.32C429.221 513.016 429.365 512.624 429.365 512.144C429.365 511.664 429.221 511.272 428.933 510.968C428.645 510.664 428.205 510.512 427.613 510.512H425.849V513.764ZM432.78 518V509.6H438.024V510.512H433.788V513.308H437.664V514.22H433.788V517.088H438.024V518H432.78ZM440.528 518V509.6H443.108C443.756 509.6 444.288 509.708 444.704 509.924C445.128 510.14 445.444 510.436 445.652 510.812C445.86 511.18 445.964 511.6 445.964 512.072C445.964 512.624 445.82 513.112 445.532 513.536C445.252 513.952 444.82 514.244 444.236 514.412L446.06 518H444.86L443.168 514.556H443.108H441.536V518H440.528ZM441.536 513.632H443.072C443.712 513.632 444.18 513.488 444.476 513.2C444.78 512.904 444.932 512.528 444.932 512.072C444.932 511.592 444.784 511.212 444.488 510.932C444.2 510.652 443.724 510.512 443.06 510.512H441.536V513.632Z" fill="#DAD3D3"/>
<rect x="475.5" y="479.5" width="128" height="51" stroke="url(#paint6_linear_112_831)"/>
<path d="M484.032 500V491.6H489.276V492.512H485.04V495.308H488.916V496.22H485.04V499.088H489.276V500H484.032ZM491.779 500V491.6H494.359C495.007 491.6 495.539 491.708 495.955 491.924C496.379 492.14 496.695 492.436 496.903 492.812C497.111 493.18 497.215 493.6 497.215 494.072C497.215 494.624 497.071 495.112 496.783 495.536C496.503 495.952 496.071 496.244 495.487 496.412L497.311 500H496.111L494.419 496.556H494.359H492.787V500H491.779ZM492.787 495.632H494.323C494.963 495.632 495.431 495.488 495.727 495.2C496.031 494.904 496.183 494.528 496.183 494.072C496.183 493.592 496.035 493.212 495.739 492.932C495.451 492.652 494.975 492.512 494.311 492.512H492.787V495.632ZM502.251 500.144C501.571 500.144 500.983 499.964 500.487 499.604C499.999 499.244 499.623 498.74 499.359 498.092C499.103 497.444 498.975 496.68 498.975 495.8C498.975 494.928 499.103 494.168 499.359 493.52C499.623 492.864 499.999 492.356 500.487 491.996C500.983 491.636 501.571 491.456 502.251 491.456C503.115 491.456 503.811 491.696 504.339 492.176C504.867 492.648 505.175 493.28 505.263 494.072H504.147C504.067 493.6 503.867 493.204 503.547 492.884C503.227 492.564 502.795 492.404 502.251 492.404C501.555 492.404 501.007 492.708 500.607 493.316C500.207 493.916 500.007 494.744 500.007 495.8C500.007 496.864 500.207 497.696 500.607 498.296C501.007 498.896 501.555 499.196 502.251 499.196C502.819 499.196 503.255 499.044 503.559 498.74C503.871 498.436 504.067 498.044 504.147 497.564H505.263C505.135 498.364 504.815 498.996 504.303 499.46C503.799 499.916 503.115 500.144 502.251 500.144ZM511.018 500V498.056H506.998V497.276L510.826 491.6H512.026V497.144H513.226V498.056H512.026V500H511.018ZM508.126 497.144H511.066V492.776L508.126 497.144ZM517.949 500.144C517.213 500.144 516.613 499.968 516.149 499.616C515.693 499.256 515.353 498.776 515.129 498.176C514.913 497.568 514.805 496.884 514.805 496.124C514.805 495.204 514.933 494.396 515.189 493.7C515.445 492.996 515.813 492.448 516.293 492.056C516.781 491.656 517.365 491.456 518.045 491.456C518.581 491.456 519.037 491.56 519.413 491.768C519.797 491.968 520.097 492.244 520.313 492.596C520.537 492.94 520.669 493.328 520.709 493.76H519.761C519.681 493.336 519.489 493 519.185 492.752C518.881 492.496 518.501 492.368 518.045 492.368C517.645 492.368 517.277 492.496 516.941 492.752C516.613 493 516.341 493.388 516.125 493.916C515.917 494.436 515.797 495.1 515.765 495.908H515.825C516.009 495.564 516.293 495.264 516.677 495.008C517.061 494.752 517.525 494.624 518.069 494.624C518.573 494.624 519.025 494.74 519.425 494.972C519.825 495.204 520.141 495.524 520.373 495.932C520.613 496.34 520.733 496.804 520.733 497.324C520.733 497.836 520.617 498.308 520.385 498.74C520.161 499.164 519.837 499.504 519.413 499.76C518.997 500.016 518.509 500.144 517.949 500.144ZM517.877 499.232C518.429 499.232 518.873 499.056 519.209 498.704C519.545 498.352 519.713 497.912 519.713 497.384C519.713 496.848 519.545 496.408 519.209 496.064C518.873 495.712 518.429 495.536 517.877 495.536C517.509 495.536 517.185 495.616 516.905 495.776C516.633 495.936 516.417 496.156 516.257 496.436C516.105 496.716 516.029 497.032 516.029 497.384C516.029 497.736 516.105 498.052 516.257 498.332C516.417 498.612 516.633 498.832 516.905 498.992C517.185 499.152 517.509 499.232 517.877 499.232ZM522.865 500V499.208C523.729 498.52 524.481 497.888 525.121 497.312C525.769 496.736 526.269 496.18 526.621 495.644C526.973 495.108 527.149 494.56 527.149 494C527.149 493.496 527.005 493.1 526.717 492.812C526.437 492.516 526.057 492.368 525.577 492.368C525.209 492.368 524.897 492.448 524.641 492.608C524.385 492.768 524.193 492.98 524.065 493.244C523.937 493.508 523.873 493.792 523.873 494.096H522.877C522.885 493.544 523.005 493.072 523.237 492.68C523.477 492.28 523.797 491.976 524.197 491.768C524.605 491.56 525.065 491.456 525.577 491.456C526.401 491.456 527.041 491.684 527.497 492.14C527.953 492.596 528.181 493.208 528.181 493.976C528.181 494.48 528.073 494.964 527.857 495.428C527.641 495.884 527.353 496.324 526.993 496.748C526.633 497.172 526.229 497.58 525.781 497.972C525.333 498.364 524.881 498.74 524.425 499.1H528.409V500H522.865ZM533.54 500.144C532.804 500.144 532.204 499.968 531.74 499.616C531.284 499.256 530.944 498.776 530.72 498.176C530.504 497.568 530.396 496.884 530.396 496.124C530.396 495.204 530.524 494.396 530.78 493.7C531.036 492.996 531.404 492.448 531.884 492.056C532.372 491.656 532.956 491.456 533.636 491.456C534.172 491.456 534.628 491.56 535.004 491.768C535.388 491.968 535.688 492.244 535.904 492.596C536.128 492.94 536.26 493.328 536.3 493.76H535.352C535.272 493.336 535.08 493 534.776 492.752C534.472 492.496 534.092 492.368 533.636 492.368C533.236 492.368 532.868 492.496 532.532 492.752C532.204 493 531.932 493.388 531.716 493.916C531.508 494.436 531.388 495.1 531.356 495.908H531.416C531.6 495.564 531.884 495.264 532.268 495.008C532.652 494.752 533.116 494.624 533.66 494.624C534.164 494.624 534.616 494.74 535.016 494.972C535.416 495.204 535.732 495.524 535.964 495.932C536.204 496.34 536.324 496.804 536.324 497.324C536.324 497.836 536.208 498.308 535.976 498.74C535.752 499.164 535.428 499.504 535.004 499.76C534.588 500.016 534.1 500.144 533.54 500.144ZM533.468 499.232C534.02 499.232 534.464 499.056 534.8 498.704C535.136 498.352 535.304 497.912 535.304 497.384C535.304 496.848 535.136 496.408 534.8 496.064C534.464 495.712 534.02 495.536 533.468 495.536C533.1 495.536 532.776 495.616 532.496 495.776C532.224 495.936 532.008 496.156 531.848 496.436C531.696 496.716 531.62 497.032 531.62 497.384C531.62 497.736 531.696 498.052 531.848 498.332C532.008 498.612 532.224 498.832 532.496 498.992C532.776 499.152 533.1 499.232 533.468 499.232ZM486 518L483.324 509.6H484.404L486.6 516.692L488.796 509.6H489.888L487.2 518H486ZM491.191 518L493.819 509.6H494.983L497.599 518H496.495L495.883 515.912H492.907L492.295 518H491.191ZM494.371 511.016L493.159 515.072H495.631L494.419 511.016H494.371ZM502.179 518.144C501.619 518.144 501.119 518.028 500.679 517.796C500.247 517.564 499.903 517.212 499.647 516.74C499.399 516.26 499.275 515.66 499.275 514.94V509.6H500.283V514.976C500.283 515.696 500.459 516.252 500.811 516.644C501.163 517.036 501.627 517.232 502.203 517.232C502.779 517.232 503.239 517.036 503.583 516.644C503.927 516.252 504.099 515.696 504.099 514.976V509.6H505.107V514.94C505.107 515.66 504.979 516.26 504.723 516.74C504.467 517.212 504.119 517.564 503.679 517.796C503.239 518.028 502.739 518.144 502.179 518.144ZM507.43 518V509.6H508.438V517.088H512.698V518H507.43ZM517.277 518V510.512H515.021V509.6H520.541V510.512H518.285V518H517.277ZM531.08 518L529.796 509.6H530.816L531.668 516.08L532.856 509.6H533.888L535.076 516.08L535.928 509.6H536.948L535.664 518H534.512L533.372 511.544L532.232 518H531.08ZM538.551 518V509.6H541.131C541.779 509.6 542.311 509.708 542.727 509.924C543.151 510.14 543.467 510.436 543.675 510.812C543.883 511.18 543.987 511.6 543.987 512.072C543.987 512.624 543.843 513.112 543.555 513.536C543.275 513.952 542.843 514.244 542.259 514.412L544.083 518H542.883L541.191 514.556H541.131H539.559V518H538.551ZM539.559 513.632H541.095C541.735 513.632 542.203 513.488 542.499 513.2C542.803 512.904 542.955 512.528 542.955 512.072C542.955 511.592 542.807 511.212 542.511 510.932C542.223 510.652 541.747 510.512 541.083 510.512H539.559V513.632ZM545.758 518L548.386 509.6H549.55L552.166 518H551.062L550.45 515.912H547.474L546.862 518H545.758ZM548.938 511.016L547.726 515.072H550.198L548.986 511.016H548.938ZM554.046 518V509.6H556.842C557.482 509.6 558.006 509.716 558.414 509.948C558.822 510.18 559.122 510.488 559.314 510.872C559.506 511.256 559.602 511.68 559.602 512.144C559.602 512.608 559.506 513.032 559.314 513.416C559.122 513.8 558.822 514.108 558.414 514.34C558.006 514.572 557.482 514.688 556.842 514.688H555.054V518H554.046ZM555.054 513.764H556.818C557.41 513.764 557.85 513.616 558.138 513.32C558.426 513.016 558.57 512.624 558.57 512.144C558.57 511.664 558.426 511.272 558.138 510.968C557.85 510.664 557.41 510.512 556.818 510.512H555.054V513.764ZM561.841 518V509.6H564.637C565.277 509.6 565.801 509.716 566.209 509.948C566.617 510.18 566.917 510.488 567.109 510.872C567.301 511.256 567.397 511.68 567.397 512.144C567.397 512.608 567.301 513.032 567.109 513.416C566.917 513.8 566.617 514.108 566.209 514.34C565.801 514.572 565.277 514.688 564.637 514.688H562.849V518H561.841ZM562.849 513.764H564.613C565.205 513.764 565.645 513.616 565.933 513.32C566.221 513.016 566.365 512.624 566.365 512.144C566.365 511.664 566.221 511.272 565.933 510.968C565.645 510.664 565.205 510.512 564.613 510.512H562.849V513.764ZM569.78 518V509.6H575.024V510.512H570.788V513.308H574.664V514.22H570.788V517.088H575.024V518H569.78ZM577.528 518V509.6H580.108C580.756 509.6 581.288 509.708 581.704 509.924C582.128 510.14 582.444 510.436 582.652 510.812C582.86 511.18 582.964 511.6 582.964 512.072C582.964 512.624 582.82 513.112 582.532 513.536C582.252 513.952 581.82 514.244 581.236 514.412L583.06 518H581.86L580.168 514.556H580.108H578.536V518H577.528ZM578.536 513.632H580.072C580.712 513.632 581.18 513.488 581.476 513.2C581.78 512.904 581.932 512.528 581.932 512.072C581.932 511.592 581.784 511.212 581.488 510.932C581.2 510.652 580.724 510.512 580.06 510.512H578.536V513.632Z" fill="#DAD3D3"/>
<rect x="338.5" y="567.5" width="128" height="33" stroke="url(#paint7_linear_112_831)"/>
<path d="M349.096 588V584.7L346.372 579.6H347.512L349.6 583.68L351.688 579.6H352.828L350.104 584.7V588H349.096ZM354.983 588V587.124H356.891V580.476H354.983V579.6H359.807V580.476H357.899V587.124H359.807V588H354.983ZM362.623 588V579.6H367.867V580.512H363.631V583.308H367.507V584.22H363.631V587.088H367.867V588H362.623ZM370.43 588V579.6H371.438V587.088H375.698V588H370.43ZM377.973 588V579.6H379.737C381.113 579.6 382.129 579.976 382.785 580.728C383.449 581.48 383.781 582.504 383.781 583.8C383.781 585.096 383.449 586.12 382.785 586.872C382.129 587.624 381.113 588 379.737 588H377.973ZM378.981 587.076H379.713C380.449 587.076 381.037 586.94 381.477 586.668C381.925 586.396 382.249 586.016 382.449 585.528C382.649 585.04 382.749 584.464 382.749 583.8C382.749 583.136 382.649 582.56 382.449 582.072C382.249 581.584 381.925 581.204 381.477 580.932C381.037 580.66 380.449 580.524 379.713 580.524H378.981V587.076ZM396.456 588.144C395.864 588.144 395.348 588.032 394.908 587.808C394.476 587.584 394.14 587.272 393.9 586.872C393.668 586.472 393.548 586.004 393.54 585.468H394.596C394.604 585.948 394.764 586.364 395.076 586.716C395.396 587.06 395.856 587.232 396.456 587.232C397.008 587.232 397.432 587.1 397.728 586.836C398.032 586.564 398.184 586.24 398.184 585.864C398.184 585.552 398.112 585.292 397.968 585.084C397.824 584.868 397.588 584.68 397.26 584.52C396.94 584.352 396.508 584.18 395.964 584.004C395.196 583.772 394.636 583.456 394.284 583.056C393.932 582.656 393.756 582.16 393.756 581.568C393.756 581.168 393.86 580.808 394.068 580.488C394.276 580.168 394.576 579.916 394.968 579.732C395.36 579.548 395.836 579.456 396.396 579.456C396.924 579.456 397.384 579.556 397.776 579.756C398.176 579.948 398.484 580.22 398.7 580.572C398.924 580.924 399.036 581.328 399.036 581.784H397.98C397.98 581.56 397.92 581.34 397.8 581.124C397.68 580.908 397.5 580.728 397.26 580.584C397.02 580.44 396.716 580.368 396.348 580.368C395.908 580.368 395.54 580.476 395.244 580.692C394.948 580.9 394.8 581.188 394.8 581.556C394.8 581.836 394.864 582.072 394.992 582.264C395.128 582.456 395.348 582.632 395.652 582.792C395.956 582.944 396.368 583.108 396.888 583.284C397.376 583.444 397.792 583.632 398.136 583.848C398.488 584.056 398.756 584.316 398.94 584.628C399.132 584.94 399.228 585.328 399.228 585.792C399.228 586.248 399.112 586.652 398.88 587.004C398.648 587.356 398.324 587.636 397.908 587.844C397.492 588.044 397.008 588.144 396.456 588.144ZM404.167 588.144C403.487 588.144 402.903 587.964 402.415 587.604C401.927 587.244 401.551 586.74 401.287 586.092C401.031 585.436 400.903 584.672 400.903 583.8C400.903 582.928 401.031 582.168 401.287 581.52C401.551 580.864 401.927 580.356 402.415 579.996C402.903 579.636 403.487 579.456 404.167 579.456C404.847 579.456 405.431 579.636 405.919 579.996C406.407 580.356 406.779 580.864 407.035 581.52C407.299 582.168 407.431 582.928 407.431 583.8C407.431 584.672 407.299 585.436 407.035 586.092C406.779 586.74 406.407 587.244 405.919 587.604C405.431 587.964 404.847 588.144 404.167 588.144ZM404.167 587.196C404.831 587.196 405.367 586.9 405.775 586.308C406.191 585.716 406.399 584.88 406.399 583.8C406.399 582.72 406.191 581.884 405.775 581.292C405.367 580.7 404.831 580.404 404.167 580.404C403.495 580.404 402.955 580.7 402.547 581.292C402.139 581.884 401.935 582.72 401.935 583.8C401.935 584.88 402.139 585.716 402.547 586.308C402.955 586.9 403.495 587.196 404.167 587.196ZM411.95 588.144C411.39 588.144 410.89 588.028 410.45 587.796C410.018 587.564 409.674 587.212 409.418 586.74C409.17 586.26 409.046 585.66 409.046 584.94V579.6H410.054V584.976C410.054 585.696 410.23 586.252 410.582 586.644C410.934 587.036 411.398 587.232 411.974 587.232C412.55 587.232 413.01 587.036 413.354 586.644C413.698 586.252 413.87 585.696 413.87 584.976V579.6H414.878V584.94C414.878 585.66 414.75 586.26 414.494 586.74C414.238 587.212 413.89 587.564 413.45 587.796C413.01 588.028 412.51 588.144 411.95 588.144ZM417.142 588V579.6H419.722C420.37 579.6 420.902 579.708 421.318 579.924C421.742 580.14 422.058 580.436 422.266 580.812C422.474 581.18 422.578 581.6 422.578 582.072C422.578 582.624 422.434 583.112 422.146 583.536C421.866 583.952 421.434 584.244 420.85 584.412L422.674 588H421.474L419.782 584.556H419.722H418.15V588H417.142ZM418.15 583.632H419.686C420.326 583.632 420.794 583.488 421.09 583.2C421.394 582.904 421.546 582.528 421.546 582.072C421.546 581.592 421.398 581.212 421.102 580.932C420.814 580.652 420.338 580.512 419.674 580.512H418.15V583.632ZM427.613 588.144C426.933 588.144 426.345 587.964 425.849 587.604C425.361 587.244 424.985 586.74 424.721 586.092C424.465 585.444 424.337 584.68 424.337 583.8C424.337 582.928 424.465 582.168 424.721 581.52C424.985 580.864 425.361 580.356 425.849 579.996C426.345 579.636 426.933 579.456 427.613 579.456C428.477 579.456 429.173 579.696 429.701 580.176C430.229 580.648 430.537 581.28 430.625 582.072H429.509C429.429 581.6 429.229 581.204 428.909 580.884C428.589 580.564 428.157 580.404 427.613 580.404C426.917 580.404 426.369 580.708 425.969 581.316C425.569 581.916 425.369 582.744 425.369 583.8C425.369 584.864 425.569 585.696 425.969 586.296C426.369 586.896 426.917 587.196 427.613 587.196C428.181 587.196 428.617 587.044 428.921 586.74C429.233 586.436 429.429 586.044 429.509 585.564H430.625C430.497 586.364 430.177 586.996 429.665 587.46C429.161 587.916 428.477 588.144 427.613 588.144ZM432.78 588V579.6H438.024V580.512H433.788V583.308H437.664V584.22H433.788V587.088H438.024V588H432.78ZM448.227 588V587.208C449.091 586.52 449.843 585.888 450.483 585.312C451.131 584.736 451.631 584.18 451.983 583.644C452.335 583.108 452.511 582.56 452.511 582C452.511 581.496 452.367 581.1 452.079 580.812C451.799 580.516 451.419 580.368 450.939 580.368C450.571 580.368 450.259 580.448 450.003 580.608C449.747 580.768 449.555 580.98 449.427 581.244C449.299 581.508 449.235 581.792 449.235 582.096H448.239C448.247 581.544 448.367 581.072 448.599 580.68C448.839 580.28 449.159 579.976 449.559 579.768C449.967 579.56 450.427 579.456 450.939 579.456C451.763 579.456 452.403 579.684 452.859 580.14C453.315 580.596 453.543 581.208 453.543 581.976C453.543 582.48 453.435 582.964 453.219 583.428C453.003 583.884 452.715 584.324 452.355 584.748C451.995 585.172 451.591 585.58 451.143 585.972C450.695 586.364 450.243 586.74 449.787 587.1H453.771V588H448.227Z" fill="#DAD3D3"/>
<rect x="475.5" y="567.5" width="128" height="33" stroke="url(#paint8_linear_112_831)"/>
<path d="M486.096 588V584.7L483.372 579.6H484.512L486.6 583.68L488.688 579.6H489.828L487.104 584.7V588H486.096ZM491.983 588V587.124H493.891V580.476H491.983V579.6H496.807V580.476H494.899V587.124H496.807V588H491.983ZM499.623 588V579.6H504.867V580.512H500.631V583.308H504.507V584.22H500.631V587.088H504.867V588H499.623ZM507.43 588V579.6H508.438V587.088H512.698V588H507.43ZM514.973 588V579.6H516.737C518.113 579.6 519.129 579.976 519.785 580.728C520.449 581.48 520.781 582.504 520.781 583.8C520.781 585.096 520.449 586.12 519.785 586.872C519.129 587.624 518.113 588 516.737 588H514.973ZM515.981 587.076H516.713C517.449 587.076 518.037 586.94 518.477 586.668C518.925 586.396 519.249 586.016 519.449 585.528C519.649 585.04 519.749 584.464 519.749 583.8C519.749 583.136 519.649 582.56 519.449 582.072C519.249 581.584 518.925 581.204 518.477 580.932C518.037 580.66 517.449 580.524 516.713 580.524H515.981V587.076ZM533.456 588.144C532.864 588.144 532.348 588.032 531.908 587.808C531.476 587.584 531.14 587.272 530.9 586.872C530.668 586.472 530.548 586.004 530.54 585.468H531.596C531.604 585.948 531.764 586.364 532.076 586.716C532.396 587.06 532.856 587.232 533.456 587.232C534.008 587.232 534.432 587.1 534.728 586.836C535.032 586.564 535.184 586.24 535.184 585.864C535.184 585.552 535.112 585.292 534.968 585.084C534.824 584.868 534.588 584.68 534.26 584.52C533.94 584.352 533.508 584.18 532.964 584.004C532.196 583.772 531.636 583.456 531.284 583.056C530.932 582.656 530.756 582.16 530.756 581.568C530.756 581.168 530.86 580.808 531.068 580.488C531.276 580.168 531.576 579.916 531.968 579.732C532.36 579.548 532.836 579.456 533.396 579.456C533.924 579.456 534.384 579.556 534.776 579.756C535.176 579.948 535.484 580.22 535.7 580.572C535.924 580.924 536.036 581.328 536.036 581.784H534.98C534.98 581.56 534.92 581.34 534.8 581.124C534.68 580.908 534.5 580.728 534.26 580.584C534.02 580.44 533.716 580.368 533.348 580.368C532.908 580.368 532.54 580.476 532.244 580.692C531.948 580.9 531.8 581.188 531.8 581.556C531.8 581.836 531.864 582.072 531.992 582.264C532.128 582.456 532.348 582.632 532.652 582.792C532.956 582.944 533.368 583.108 533.888 583.284C534.376 583.444 534.792 583.632 535.136 583.848C535.488 584.056 535.756 584.316 535.94 584.628C536.132 584.94 536.228 585.328 536.228 585.792C536.228 586.248 536.112 586.652 535.88 587.004C535.648 587.356 535.324 587.636 534.908 587.844C534.492 588.044 534.008 588.144 533.456 588.144ZM541.167 588.144C540.487 588.144 539.903 587.964 539.415 587.604C538.927 587.244 538.551 586.74 538.287 586.092C538.031 585.436 537.903 584.672 537.903 583.8C537.903 582.928 538.031 582.168 538.287 581.52C538.551 580.864 538.927 580.356 539.415 579.996C539.903 579.636 540.487 579.456 541.167 579.456C541.847 579.456 542.431 579.636 542.919 579.996C543.407 580.356 543.779 580.864 544.035 581.52C544.299 582.168 544.431 582.928 544.431 583.8C544.431 584.672 544.299 585.436 544.035 586.092C543.779 586.74 543.407 587.244 542.919 587.604C542.431 587.964 541.847 588.144 541.167 588.144ZM541.167 587.196C541.831 587.196 542.367 586.9 542.775 586.308C543.191 585.716 543.399 584.88 543.399 583.8C543.399 582.72 543.191 581.884 542.775 581.292C542.367 580.7 541.831 580.404 541.167 580.404C540.495 580.404 539.955 580.7 539.547 581.292C539.139 581.884 538.935 582.72 538.935 583.8C538.935 584.88 539.139 585.716 539.547 586.308C539.955 586.9 540.495 587.196 541.167 587.196ZM548.95 588.144C548.39 588.144 547.89 588.028 547.45 587.796C547.018 587.564 546.674 587.212 546.418 586.74C546.17 586.26 546.046 585.66 546.046 584.94V579.6H547.054V584.976C547.054 585.696 547.23 586.252 547.582 586.644C547.934 587.036 548.398 587.232 548.974 587.232C549.55 587.232 550.01 587.036 550.354 586.644C550.698 586.252 550.87 585.696 550.87 584.976V579.6H551.878V584.94C551.878 585.66 551.75 586.26 551.494 586.74C551.238 587.212 550.89 587.564 550.45 587.796C550.01 588.028 549.51 588.144 548.95 588.144ZM554.142 588V579.6H556.722C557.37 579.6 557.902 579.708 558.318 579.924C558.742 580.14 559.058 580.436 559.266 580.812C559.474 581.18 559.578 581.6 559.578 582.072C559.578 582.624 559.434 583.112 559.146 583.536C558.866 583.952 558.434 584.244 557.85 584.412L559.674 588H558.474L556.782 584.556H556.722H555.15V588H554.142ZM555.15 583.632H556.686C557.326 583.632 557.794 583.488 558.09 583.2C558.394 582.904 558.546 582.528 558.546 582.072C558.546 581.592 558.398 581.212 558.102 580.932C557.814 580.652 557.338 580.512 556.674 580.512H555.15V583.632ZM564.613 588.144C563.933 588.144 563.345 587.964 562.849 587.604C562.361 587.244 561.985 586.74 561.721 586.092C561.465 585.444 561.337 584.68 561.337 583.8C561.337 582.928 561.465 582.168 561.721 581.52C561.985 580.864 562.361 580.356 562.849 579.996C563.345 579.636 563.933 579.456 564.613 579.456C565.477 579.456 566.173 579.696 566.701 580.176C567.229 580.648 567.537 581.28 567.625 582.072H566.509C566.429 581.6 566.229 581.204 565.909 580.884C565.589 580.564 565.157 580.404 564.613 580.404C563.917 580.404 563.369 580.708 562.969 581.316C562.569 581.916 562.369 582.744 562.369 583.8C562.369 584.864 562.569 585.696 562.969 586.296C563.369 586.896 563.917 587.196 564.613 587.196C565.181 587.196 565.617 587.044 565.921 586.74C566.233 586.436 566.429 586.044 566.509 585.564H567.625C567.497 586.364 567.177 586.996 566.665 587.46C566.161 587.916 565.477 588.144 564.613 588.144ZM569.78 588V579.6H575.024V580.512H570.788V583.308H574.664V584.22H570.788V587.088H575.024V588H569.78ZM588.047 588.144C587.495 588.144 586.999 588.044 586.559 587.844C586.127 587.636 585.779 587.336 585.515 586.944C585.251 586.552 585.107 586.072 585.083 585.504H586.115C586.131 585.984 586.307 586.392 586.643 586.728C586.979 587.056 587.447 587.22 588.047 587.22C588.631 587.22 589.083 587.072 589.403 586.776C589.723 586.472 589.883 586.06 589.883 585.54C589.883 585.18 589.791 584.884 589.607 584.652C589.423 584.412 589.175 584.236 588.863 584.124C588.559 584.004 588.219 583.944 587.843 583.944H587.111V583.032H587.747C588.291 583.032 588.723 582.916 589.043 582.684C589.371 582.452 589.535 582.112 589.535 581.664C589.535 581.288 589.403 580.98 589.139 580.74C588.883 580.5 588.515 580.38 588.035 580.38C587.571 580.38 587.195 580.512 586.907 580.776C586.619 581.032 586.455 581.368 586.415 581.784H585.407C585.423 581.328 585.543 580.928 585.767 580.584C585.991 580.232 586.295 579.956 586.679 579.756C587.071 579.556 587.523 579.456 588.035 579.456C588.587 579.456 589.047 579.552 589.415 579.744C589.791 579.936 590.075 580.196 590.267 580.524C590.459 580.844 590.555 581.2 590.555 581.592C590.555 582.008 590.427 582.376 590.171 582.696C589.915 583.008 589.611 583.228 589.259 583.356V583.428C589.731 583.572 590.123 583.816 590.435 584.16C590.747 584.504 590.903 584.964 590.903 585.54C590.903 586.028 590.787 586.468 590.555 586.86C590.331 587.252 590.003 587.564 589.571 587.796C589.147 588.028 588.639 588.144 588.047 588.144Z" fill="#DAD3D3"/>
<rect x="421.5" y="64.5" width="160" height="83" stroke="url(#paint9_linear_112_831)"/>
<path d="M445.564 101V92.6H446.572V96.224H450.64V92.6H451.648V101H450.64V97.136H446.572V101H445.564ZM455.891 101V97.7L453.167 92.6H454.307L456.395 96.68L458.483 92.6H459.623L456.899 97.7V101H455.891ZM461.479 101V92.6H464.275C464.915 92.6 465.439 92.716 465.847 92.948C466.255 93.18 466.555 93.488 466.747 93.872C466.939 94.256 467.035 94.68 467.035 95.144C467.035 95.608 466.939 96.032 466.747 96.416C466.555 96.8 466.255 97.108 465.847 97.34C465.439 97.572 464.915 97.688 464.275 97.688H462.487V101H461.479ZM462.487 96.764H464.251C464.843 96.764 465.283 96.616 465.571 96.32C465.859 96.016 466.003 95.624 466.003 95.144C466.003 94.664 465.859 94.272 465.571 93.968C465.283 93.664 464.843 93.512 464.251 93.512H462.487V96.764ZM469.418 101V92.6H474.662V93.512H470.426V96.308H474.302V97.22H470.426V100.088H474.662V101H469.418ZM477.165 101V92.6H479.745C480.393 92.6 480.925 92.708 481.341 92.924C481.765 93.14 482.081 93.436 482.289 93.812C482.497 94.18 482.601 94.6 482.601 95.072C482.601 95.624 482.457 96.112 482.169 96.536C481.889 96.952 481.457 97.244 480.873 97.412L482.697 101H481.497L479.805 97.556H479.745H478.173V101H477.165ZM478.173 96.632H479.709C480.349 96.632 480.817 96.488 481.113 96.2C481.417 95.904 481.569 95.528 481.569 95.072C481.569 94.592 481.421 94.212 481.125 93.932C480.837 93.652 480.361 93.512 479.697 93.512H478.173V96.632ZM484.769 101V92.6H486.533C487.909 92.6 488.925 92.976 489.581 93.728C490.245 94.48 490.577 95.504 490.577 96.8C490.577 98.096 490.245 99.12 489.581 99.872C488.925 100.624 487.909 101 486.533 101H484.769ZM485.777 100.076H486.509C487.245 100.076 487.833 99.94 488.273 99.668C488.721 99.396 489.045 99.016 489.245 98.528C489.445 98.04 489.545 97.464 489.545 96.8C489.545 96.136 489.445 95.56 489.245 95.072C489.045 94.584 488.721 94.204 488.273 93.932C487.833 93.66 487.245 93.524 486.509 93.524H485.777V100.076ZM492.756 101V92.6H495.336C495.984 92.6 496.516 92.708 496.932 92.924C497.356 93.14 497.672 93.436 497.88 93.812C498.088 94.18 498.192 94.6 498.192 95.072C498.192 95.624 498.048 96.112 497.76 96.536C497.48 96.952 497.048 97.244 496.464 97.412L498.288 101H497.088L495.396 97.556H495.336H493.764V101H492.756ZM493.764 96.632H495.3C495.94 96.632 496.408 96.488 496.704 96.2C497.008 95.904 497.16 95.528 497.16 95.072C497.16 94.592 497.012 94.212 496.716 93.932C496.428 93.652 495.952 93.512 495.288 93.512H493.764V96.632ZM500.755 101V100.124H502.663V93.476H500.755V92.6H505.579V93.476H503.671V100.124H505.579V101H500.755ZM510.362 101L507.686 92.6H508.766L510.962 99.692L513.158 92.6H514.25L511.562 101H510.362ZM516.19 101V92.6H521.434V93.512H517.198V96.308H521.074V97.22H517.198V100.088H521.434V101H516.19ZM534.432 101.144C533.84 101.144 533.324 101.032 532.884 100.808C532.452 100.584 532.116 100.272 531.876 99.872C531.644 99.472 531.524 99.004 531.516 98.468H532.572C532.58 98.948 532.74 99.364 533.052 99.716C533.372 100.06 533.832 100.232 534.432 100.232C534.984 100.232 535.408 100.1 535.704 99.836C536.008 99.564 536.16 99.24 536.16 98.864C536.16 98.552 536.088 98.292 535.944 98.084C535.8 97.868 535.564 97.68 535.236 97.52C534.916 97.352 534.484 97.18 533.94 97.004C533.172 96.772 532.612 96.456 532.26 96.056C531.908 95.656 531.732 95.16 531.732 94.568C531.732 94.168 531.836 93.808 532.044 93.488C532.252 93.168 532.552 92.916 532.944 92.732C533.336 92.548 533.812 92.456 534.372 92.456C534.9 92.456 535.36 92.556 535.752 92.756C536.152 92.948 536.46 93.22 536.676 93.572C536.9 93.924 537.012 94.328 537.012 94.784H535.956C535.956 94.56 535.896 94.34 535.776 94.124C535.656 93.908 535.476 93.728 535.236 93.584C534.996 93.44 534.692 93.368 534.324 93.368C533.884 93.368 533.516 93.476 533.22 93.692C532.924 93.9 532.776 94.188 532.776 94.556C532.776 94.836 532.84 95.072 532.968 95.264C533.104 95.456 533.324 95.632 533.628 95.792C533.932 95.944 534.344 96.108 534.864 96.284C535.352 96.444 535.768 96.632 536.112 96.848C536.464 97.056 536.732 97.316 536.916 97.628C537.108 97.94 537.204 98.328 537.204 98.792C537.204 99.248 537.088 99.652 536.856 100.004C536.624 100.356 536.3 100.636 535.884 100.844C535.468 101.044 534.984 101.144 534.432 101.144ZM539.336 101V92.6H541.1C542.476 92.6 543.492 92.976 544.148 93.728C544.812 94.48 545.144 95.504 545.144 96.8C545.144 98.096 544.812 99.12 544.148 99.872C543.492 100.624 542.476 101 541.1 101H539.336ZM540.344 100.076H541.076C541.812 100.076 542.4 99.94 542.84 99.668C543.288 99.396 543.612 99.016 543.812 98.528C544.012 98.04 544.112 97.464 544.112 96.8C544.112 96.136 544.012 95.56 543.812 95.072C543.612 94.584 543.288 94.204 542.84 93.932C542.4 93.66 541.812 93.524 541.076 93.524H540.344V100.076ZM547.323 101V92.6H548.331V96.512L551.619 92.6H552.903L549.363 96.776V96.824L552.951 101H551.643L548.331 97.148V101H547.323ZM449.176 121.22C448.76 120.756 448.372 120.236 448.012 119.66C447.66 119.092 447.376 118.448 447.16 117.728C446.944 117 446.836 116.172 446.836 115.244C446.836 114.316 446.944 113.492 447.16 112.772C447.376 112.044 447.66 111.396 448.012 110.828C448.372 110.252 448.76 109.732 449.176 109.268H450.244V109.376C449.764 109.896 449.344 110.452 448.984 111.044C448.624 111.628 448.344 112.264 448.144 112.952C447.944 113.64 447.844 114.404 447.844 115.244C447.844 116.084 447.944 116.848 448.144 117.536C448.344 118.224 448.624 118.86 448.984 119.444C449.344 120.036 449.764 120.592 450.244 121.112V121.22H449.176ZM453.779 119V110.6H456.359C457.007 110.6 457.539 110.708 457.955 110.924C458.379 111.14 458.695 111.436 458.903 111.812C459.111 112.18 459.215 112.6 459.215 113.072C459.215 113.624 459.071 114.112 458.783 114.536C458.503 114.952 458.071 115.244 457.487 115.412L459.311 119H458.111L456.419 115.556H456.359H454.787V119H453.779ZM454.787 114.632H456.323C456.963 114.632 457.431 114.488 457.727 114.2C458.031 113.904 458.183 113.528 458.183 113.072C458.183 112.592 458.035 112.212 457.739 111.932C457.451 111.652 456.975 111.512 456.311 111.512H454.787V114.632ZM464.179 119.144C463.619 119.144 463.119 119.028 462.679 118.796C462.247 118.564 461.903 118.212 461.647 117.74C461.399 117.26 461.275 116.66 461.275 115.94V110.6H462.283V115.976C462.283 116.696 462.459 117.252 462.811 117.644C463.163 118.036 463.627 118.232 464.203 118.232C464.779 118.232 465.239 118.036 465.583 117.644C465.927 117.252 466.099 116.696 466.099 115.976V110.6H467.107V115.94C467.107 116.66 466.979 117.26 466.723 117.74C466.467 118.212 466.119 118.564 465.679 118.796C465.239 119.028 464.739 119.144 464.179 119.144ZM472.07 119.144C471.478 119.144 470.962 119.032 470.522 118.808C470.09 118.584 469.754 118.272 469.514 117.872C469.282 117.472 469.162 117.004 469.154 116.468H470.21C470.218 116.948 470.378 117.364 470.69 117.716C471.01 118.06 471.47 118.232 472.07 118.232C472.622 118.232 473.046 118.1 473.342 117.836C473.646 117.564 473.798 117.24 473.798 116.864C473.798 116.552 473.726 116.292 473.582 116.084C473.438 115.868 473.202 115.68 472.874 115.52C472.554 115.352 472.122 115.18 471.578 115.004C470.81 114.772 470.25 114.456 469.898 114.056C469.546 113.656 469.37 113.16 469.37 112.568C469.37 112.168 469.474 111.808 469.682 111.488C469.89 111.168 470.19 110.916 470.582 110.732C470.974 110.548 471.45 110.456 472.01 110.456C472.538 110.456 472.998 110.556 473.39 110.756C473.79 110.948 474.098 111.22 474.314 111.572C474.538 111.924 474.65 112.328 474.65 112.784H473.594C473.594 112.56 473.534 112.34 473.414 112.124C473.294 111.908 473.114 111.728 472.874 111.584C472.634 111.44 472.33 111.368 471.962 111.368C471.522 111.368 471.154 111.476 470.858 111.692C470.562 111.9 470.414 112.188 470.414 112.556C470.414 112.836 470.478 113.072 470.606 113.264C470.742 113.456 470.962 113.632 471.266 113.792C471.57 113.944 471.982 114.108 472.502 114.284C472.99 114.444 473.406 114.632 473.75 114.848C474.102 115.056 474.37 115.316 474.554 115.628C474.746 115.94 474.842 116.328 474.842 116.792C474.842 117.248 474.726 117.652 474.494 118.004C474.262 118.356 473.938 118.636 473.522 118.844C473.106 119.044 472.622 119.144 472.07 119.144ZM479.277 119V111.512H477.021V110.6H482.541V111.512H480.285V119H479.277ZM485.933 121.22V121.112C486.413 120.592 486.833 120.036 487.193 119.444C487.553 118.86 487.833 118.224 488.033 117.536C488.233 116.848 488.333 116.084 488.333 115.244C488.333 114.404 488.233 113.64 488.033 112.952C487.833 112.264 487.553 111.628 487.193 111.044C486.833 110.452 486.413 109.896 485.933 109.376V109.268H487.001C487.417 109.732 487.801 110.252 488.153 110.828C488.513 111.396 488.801 112.044 489.017 112.772C489.233 113.492 489.341 114.316 489.341 115.244C489.341 116.172 489.233 117 489.017 117.728C488.801 118.448 488.513 119.092 488.153 119.66C487.801 120.236 487.417 120.756 487.001 121.22H485.933Z" fill="#DAD3D3"/>
<rect x="421.5" y="195.5" width="160" height="83" stroke="url(#paint10_linear_112_831)"/>
<path d="M445.396 232L448.024 223.6H449.188L451.804 232H450.7L450.088 229.912H447.112L446.5 232H445.396ZM448.576 225.016L447.364 229.072H449.836L448.624 225.016H448.576ZM456.311 232.144C455.719 232.144 455.191 231.972 454.727 231.628C454.263 231.276 453.899 230.776 453.635 230.128C453.379 229.48 453.251 228.704 453.251 227.8C453.251 226.904 453.383 226.132 453.647 225.484C453.911 224.836 454.283 224.336 454.763 223.984C455.251 223.632 455.827 223.456 456.491 223.456C457.283 223.456 457.927 223.688 458.423 224.152C458.927 224.616 459.227 225.24 459.323 226.024H458.207C458.127 225.544 457.939 225.156 457.643 224.86C457.355 224.556 456.971 224.404 456.491 224.404C455.803 224.404 455.263 224.704 454.871 225.304C454.479 225.904 454.283 226.736 454.283 227.8C454.283 228.88 454.479 229.716 454.871 230.308C455.263 230.9 455.771 231.196 456.395 231.196C456.843 231.196 457.211 231.064 457.499 230.8C457.787 230.528 458.003 230.184 458.147 229.768C458.299 229.344 458.383 228.908 458.399 228.46H456.527V227.596H459.431V232H458.507L458.423 230.728H458.375C458.207 231.16 457.959 231.504 457.631 231.76C457.311 232.016 456.871 232.144 456.311 232.144ZM461.623 232V223.6H466.867V224.512H462.631V227.308H466.507V228.22H462.631V231.088H466.867V232H461.623ZM469.07 232V223.6H470.102L473.918 230.236V223.6H474.914V232H473.87L470.054 225.364V232H469.07ZM479.277 232V224.512H477.021V223.6H482.541V224.512H480.285V232H479.277ZM487.577 232.144C486.945 232.144 486.385 231.968 485.897 231.616C485.417 231.264 485.041 230.764 484.769 230.116C484.505 229.468 484.373 228.696 484.373 227.8C484.373 226.904 484.505 226.132 484.769 225.484C485.041 224.836 485.417 224.336 485.897 223.984C486.385 223.632 486.945 223.456 487.577 223.456C488.217 223.456 488.777 223.632 489.257 223.984C489.737 224.336 490.109 224.836 490.373 225.484C490.645 226.132 490.781 226.904 490.781 227.8C490.781 228.696 490.645 229.468 490.373 230.116C490.109 230.764 489.737 231.264 489.257 231.616C488.777 231.968 488.217 232.144 487.577 232.144ZM485.405 227.8C485.405 228.344 485.461 228.836 485.573 229.276C485.693 229.708 485.857 230.072 486.065 230.368L488.393 224.596C488.145 224.46 487.873 224.392 487.577 224.392C487.153 224.392 486.777 224.532 486.449 224.812C486.121 225.084 485.865 225.476 485.681 225.988C485.497 226.492 485.405 227.096 485.405 227.8ZM487.577 231.22C488.001 231.22 488.377 231.084 488.705 230.812C489.033 230.532 489.289 230.136 489.473 229.624C489.657 229.112 489.749 228.504 489.749 227.8C489.749 227.256 489.689 226.768 489.569 226.336C489.457 225.896 489.297 225.528 489.089 225.232L486.749 231.016C487.005 231.152 487.281 231.22 487.577 231.22ZM500.359 232V223.6H503.155C504.027 223.6 504.683 223.8 505.123 224.2C505.563 224.6 505.783 225.112 505.783 225.736C505.783 226.224 505.651 226.628 505.387 226.948C505.123 227.26 504.827 227.48 504.499 227.608V227.692C504.891 227.82 505.235 228.052 505.531 228.388C505.827 228.724 505.975 229.156 505.975 229.684C505.975 230.116 505.867 230.508 505.651 230.86C505.443 231.204 505.135 231.48 504.727 231.688C504.327 231.896 503.835 232 503.251 232H500.359ZM501.367 227.224H503.083C503.619 227.224 504.027 227.108 504.307 226.876C504.595 226.636 504.739 226.292 504.739 225.844C504.739 225.42 504.599 225.092 504.319 224.86C504.039 224.628 503.615 224.512 503.047 224.512H501.367V227.224ZM501.367 231.076H503.143C503.719 231.076 504.163 230.948 504.475 230.692C504.787 230.428 504.943 230.06 504.943 229.588C504.943 229.116 504.779 228.752 504.451 228.496C504.123 228.232 503.679 228.1 503.119 228.1H501.367V231.076ZM510.962 232.144C510.282 232.144 509.698 231.964 509.21 231.604C508.722 231.244 508.346 230.74 508.082 230.092C507.826 229.436 507.698 228.672 507.698 227.8C507.698 226.928 507.826 226.168 508.082 225.52C508.346 224.864 508.722 224.356 509.21 223.996C509.698 223.636 510.282 223.456 510.962 223.456C511.642 223.456 512.226 223.636 512.714 223.996C513.202 224.356 513.574 224.864 513.83 225.52C514.094 226.168 514.226 226.928 514.226 227.8C514.226 228.672 514.094 229.436 513.83 230.092C513.574 230.74 513.202 231.244 512.714 231.604C512.226 231.964 511.642 232.144 510.962 232.144ZM510.962 231.196C511.626 231.196 512.162 230.9 512.57 230.308C512.986 229.716 513.194 228.88 513.194 227.8C513.194 226.72 512.986 225.884 512.57 225.292C512.162 224.7 511.626 224.404 510.962 224.404C510.29 224.404 509.75 224.7 509.342 225.292C508.934 225.884 508.73 226.72 508.73 227.8C508.73 228.88 508.934 229.716 509.342 230.308C509.75 230.9 510.29 231.196 510.962 231.196ZM518.254 232V224.512H515.998V223.6H521.518V224.512H519.262V232H518.254ZM526.637 232.144C526.045 232.144 525.529 232.032 525.089 231.808C524.657 231.584 524.321 231.272 524.081 230.872C523.849 230.472 523.729 230.004 523.721 229.468H524.777C524.785 229.948 524.945 230.364 525.257 230.716C525.577 231.06 526.037 231.232 526.637 231.232C527.189 231.232 527.613 231.1 527.909 230.836C528.213 230.564 528.365 230.24 528.365 229.864C528.365 229.552 528.293 229.292 528.149 229.084C528.005 228.868 527.769 228.68 527.441 228.52C527.121 228.352 526.689 228.18 526.145 228.004C525.377 227.772 524.817 227.456 524.465 227.056C524.113 226.656 523.937 226.16 523.937 225.568C523.937 225.168 524.041 224.808 524.249 224.488C524.457 224.168 524.757 223.916 525.149 223.732C525.541 223.548 526.017 223.456 526.577 223.456C527.105 223.456 527.565 223.556 527.957 223.756C528.357 223.948 528.665 224.22 528.881 224.572C529.105 224.924 529.217 225.328 529.217 225.784H528.161C528.161 225.56 528.101 225.34 527.981 225.124C527.861 224.908 527.681 224.728 527.441 224.584C527.201 224.44 526.897 224.368 526.529 224.368C526.089 224.368 525.721 224.476 525.425 224.692C525.129 224.9 524.981 225.188 524.981 225.556C524.981 225.836 525.045 226.072 525.173 226.264C525.309 226.456 525.529 226.632 525.833 226.792C526.137 226.944 526.549 227.108 527.069 227.284C527.557 227.444 527.973 227.632 528.317 227.848C528.669 228.056 528.937 228.316 529.121 228.628C529.313 228.94 529.409 229.328 529.409 229.792C529.409 230.248 529.293 230.652 529.061 231.004C528.829 231.356 528.505 231.636 528.089 231.844C527.673 232.044 527.189 232.144 526.637 232.144ZM446.092 250V241.6H451.336V242.536H447.1V245.464H450.724V246.364H447.1V250H446.092ZM453.779 250V241.6H456.359C457.007 241.6 457.539 241.708 457.955 241.924C458.379 242.14 458.695 242.436 458.903 242.812C459.111 243.18 459.215 243.6 459.215 244.072C459.215 244.624 459.071 245.112 458.783 245.536C458.503 245.952 458.071 246.244 457.487 246.412L459.311 250H458.111L456.419 246.556H456.359H454.787V250H453.779ZM454.787 245.632H456.323C456.963 245.632 457.431 245.488 457.727 245.2C458.031 244.904 458.183 244.528 458.183 244.072C458.183 243.592 458.035 243.212 457.739 242.932C457.451 242.652 456.975 242.512 456.311 242.512H454.787V245.632ZM460.987 250L463.615 241.6H464.779L467.395 250H466.291L465.679 247.912H462.703L462.091 250H460.987ZM464.167 243.016L462.955 247.072H465.427L464.215 243.016H464.167ZM468.986 250V241.6H470.066L471.986 245.596L473.906 241.6H474.986V250H474.002V243.544L472.37 246.94H471.602L469.97 243.556V250H468.986ZM477.213 250V241.6H482.457V242.512H478.221V245.308H482.097V246.22H478.221V249.088H482.457V250H477.213ZM485.285 250L484.001 241.6H485.021L485.873 248.08L487.061 241.6H488.093L489.281 248.08L490.133 241.6H491.153L489.869 250H488.717L487.577 243.544L486.437 250H485.285ZM495.372 250.144C494.692 250.144 494.108 249.964 493.62 249.604C493.132 249.244 492.756 248.74 492.492 248.092C492.236 247.436 492.108 246.672 492.108 245.8C492.108 244.928 492.236 244.168 492.492 243.52C492.756 242.864 493.132 242.356 493.62 241.996C494.108 241.636 494.692 241.456 495.372 241.456C496.052 241.456 496.636 241.636 497.124 241.996C497.612 242.356 497.984 242.864 498.24 243.52C498.504 244.168 498.636 244.928 498.636 245.8C498.636 246.672 498.504 247.436 498.24 248.092C497.984 248.74 497.612 249.244 497.124 249.604C496.636 249.964 496.052 250.144 495.372 250.144ZM495.372 249.196C496.036 249.196 496.572 248.9 496.98 248.308C497.396 247.716 497.604 246.88 497.604 245.8C497.604 244.72 497.396 243.884 496.98 243.292C496.572 242.7 496.036 242.404 495.372 242.404C494.7 242.404 494.16 242.7 493.752 243.292C493.344 243.884 493.14 244.72 493.14 245.8C493.14 246.88 493.344 247.716 493.752 248.308C494.16 248.9 494.7 249.196 495.372 249.196ZM500.551 250V241.6H503.131C503.779 241.6 504.311 241.708 504.727 241.924C505.151 242.14 505.467 242.436 505.675 242.812C505.883 243.18 505.987 243.6 505.987 244.072C505.987 244.624 505.843 245.112 505.555 245.536C505.275 245.952 504.843 246.244 504.259 246.412L506.083 250H504.883L503.191 246.556H503.131H501.559V250H500.551ZM501.559 245.632H503.095C503.735 245.632 504.203 245.488 504.499 245.2C504.803 244.904 504.955 244.528 504.955 244.072C504.955 243.592 504.807 243.212 504.511 242.932C504.223 242.652 503.747 242.512 503.083 242.512H501.559V245.632ZM508.346 250V241.6H509.354V245.512L512.642 241.6H513.926L510.386 245.776V245.824L513.974 250H512.666L509.354 246.148V250H508.346Z" fill="#DAD3D3"/>
<path d="M362 239H390.351V105H421" stroke="#565E6F"/>
<path d="M282 148L282 195" stroke="#565E6F"/>
<path d="M502 148L502 195" stroke="#565E6F"/>
<path d="M501.646 353.354C501.842 353.549 502.158 353.549 502.354 353.354L505.536 350.172C505.731 349.976 505.731 349.66 505.536 349.464C505.34 349.269 505.024 349.269 504.828 349.464L502 352.293L499.172 349.464C498.976 349.269 498.66 349.269 498.464 349.464C498.269 349.66 498.269 349.976 498.464 350.172L501.646 353.354ZM501.5 279L501.5 353L502.5 353L502.5 279L501.5 279Z" fill="#565E6F"/>
<path d="M401 445L401 479" stroke="#565E6F"/>
<path d="M263 479V462H539V479" stroke="#565E6F"/>
<path d="M281.646 353.354C281.842 353.549 282.158 353.549 282.354 353.354L285.536 350.172C285.731 349.976 285.731 349.66 285.536 349.464C285.34 349.269 285.024 349.269 284.828 349.464L282 352.293L279.172 349.464C278.976 349.269 278.66 349.269 278.464 349.464C278.269 349.66 278.269 349.976 278.464 350.172L281.646 353.354ZM281.5 279L281.5 353L282.5 353L282.5 279L281.5 279Z" fill="#565E6F"/>
<path d="M266.354 530.646C266.158 530.451 265.842 530.451 265.646 530.646L262.464 533.828C262.269 534.024 262.269 534.34 262.464 534.536C262.66 534.731 262.976 534.731 263.172 534.536L266 531.707L268.828 534.536C269.024 534.731 269.34 534.731 269.536 534.536C269.731 534.34 269.731 534.024 269.536 533.828L266.354 530.646ZM265.5 531L265.5 567L266.5 567L266.5 531L265.5 531Z" fill="#565E6F"/>
<path d="M401.354 530.646C401.158 530.451 400.842 530.451 400.646 530.646L397.464 533.828C397.269 534.024 397.269 534.34 397.464 534.536C397.66 534.731 397.976 534.731 398.172 534.536L401 531.707L403.828 534.536C404.024 534.731 404.34 534.731 404.536 534.536C404.731 534.34 404.731 534.024 404.536 533.828L401.354 530.646ZM400.5 531L400.5 567L401.5 567L401.5 531L400.5 531Z" fill="#565E6F"/>
<path d="M540.354 530.646C540.158 530.451 539.842 530.451 539.646 530.646L536.464 533.828C536.269 534.024 536.269 534.34 536.464 534.536C536.66 534.731 536.976 534.731 537.172 534.536L540 531.707L542.828 534.536C543.024 534.731 543.34 534.731 543.536 534.536C543.731 534.34 543.731 534.024 543.536 533.828L540.354 530.646ZM539.5 531L539.5 567L540.5 567L540.5 531L539.5 531Z" fill="#565E6F"/>
<defs>
<linearGradient id="paint0_linear_112_831" x1="201" y1="105.776" x2="362" y2="105.776" gradientUnits="userSpaceOnUse">
<stop stop-color="white"/>
<stop offset="0.0001" stop-color="#D3FEF0"/>
<stop offset="0.0002" stop-color="#50FFC4"/>
<stop offset="1" stop-color="#F3F3F3"/>
</linearGradient>
<linearGradient id="paint1_linear_112_831" x1="201" y1="236.776" x2="362" y2="236.776" gradientUnits="userSpaceOnUse">
<stop stop-color="white"/>
<stop offset="0.0001" stop-color="#D3FEF0"/>
<stop offset="0.0002" stop-color="#50FFC4"/>
<stop offset="1" stop-color="#F3F3F3"/>
</linearGradient>
<linearGradient id="paint2_linear_112_831" x1="258" y1="398.754" x2="547" y2="398.754" gradientUnits="userSpaceOnUse">
<stop stop-color="white"/>
<stop offset="0.0001" stop-color="#D3FEF0"/>
<stop offset="0.0002" stop-color="#50FFC4"/>
<stop offset="1" stop-color="#F3F3F3"/>
</linearGradient>
<linearGradient id="paint3_linear_112_831" x1="201" y1="504.861" x2="330" y2="504.861" gradientUnits="userSpaceOnUse">
<stop stop-color="white"/>
<stop offset="0.0001" stop-color="#D3FEF0"/>
<stop offset="0.0002" stop-color="#50FFC4"/>
<stop offset="1" stop-color="#F3F3F3"/>
</linearGradient>
<linearGradient id="paint4_linear_112_831" x1="201" y1="583.909" x2="330" y2="583.909" gradientUnits="userSpaceOnUse">
<stop stop-color="white"/>
<stop offset="0.0001" stop-color="#D3FEF0"/>
<stop offset="0.0002" stop-color="#50FFC4"/>
<stop offset="1" stop-color="#F3F3F3"/>
</linearGradient>
<linearGradient id="paint5_linear_112_831" x1="338" y1="504.861" x2="467" y2="504.861" gradientUnits="userSpaceOnUse">
<stop stop-color="white"/>
<stop offset="0.0001" stop-color="#D3FEF0"/>
<stop offset="0.0002" stop-color="#50FFC4"/>
<stop offset="1" stop-color="#F3F3F3"/>
</linearGradient>
<linearGradient id="paint6_linear_112_831" x1="475" y1="504.861" x2="604" y2="504.861" gradientUnits="userSpaceOnUse">
<stop stop-color="white"/>
<stop offset="0.0001" stop-color="#D3FEF0"/>
<stop offset="0.0002" stop-color="#50FFC4"/>
<stop offset="1" stop-color="#F3F3F3"/>
</linearGradient>
<linearGradient id="paint7_linear_112_831" x1="338" y1="583.909" x2="467" y2="583.909" gradientUnits="userSpaceOnUse">
<stop stop-color="white"/>
<stop offset="0.0001" stop-color="#D3FEF0"/>
<stop offset="0.0002" stop-color="#50FFC4"/>
<stop offset="1" stop-color="#F3F3F3"/>
</linearGradient>
<linearGradient id="paint8_linear_112_831" x1="475" y1="583.909" x2="604" y2="583.909" gradientUnits="userSpaceOnUse">
<stop stop-color="white"/>
<stop offset="0.0001" stop-color="#D3FEF0"/>
<stop offset="0.0002" stop-color="#50FFC4"/>
<stop offset="1" stop-color="#F3F3F3"/>
</linearGradient>
<linearGradient id="paint9_linear_112_831" x1="421" y1="105.776" x2="582" y2="105.776" gradientUnits="userSpaceOnUse">
<stop stop-color="white"/>
<stop offset="0.0001" stop-color="#D3FEF0"/>
<stop offset="0.0002" stop-color="#50FFC4"/>
<stop offset="1" stop-color="#F3F3F3"/>
</linearGradient>
<linearGradient id="paint10_linear_112_831" x1="421" y1="236.776" x2="582" y2="236.776" gradientUnits="userSpaceOnUse">
<stop stop-color="white"/>
<stop offset="0.0001" stop-color="#D3FEF0"/>
<stop offset="0.0002" stop-color="#50FFC4"/>
<stop offset="1" stop-color="#F3F3F3"/>
</linearGradient>
</defs>
</svg>
