<svg width="32" height="32" viewBox="0 0 32 32" fill="none" xmlns="http://www.w3.org/2000/svg">
<path d="M17.3333 23.3337V29.3337L20 27.3337L22.6667 29.3337V23.3337M13.3333 25.3337H6.66667C5.95942 25.3337 5.28115 25.0527 4.78105 24.5526C4.28095 24.0525 4 23.3742 4 22.667V9.33366C4 7.86699 5.2 6.66699 6.66667 6.66699H25.3333C26.0406 6.66699 26.7189 6.94794 27.219 7.44804C27.719 7.94814 28 8.62641 28 9.33366V22.667C27.9995 23.1346 27.8761 23.5939 27.6421 23.9988C27.408 24.4036 27.0717 24.7398 26.6667 24.9737M8 12.0003H24M8 16.0003H12M8 20.0003H10.6667M16 20.0003C16 21.0612 16.4214 22.0786 17.1716 22.8288C17.9217 23.5789 18.9391 24.0003 20 24.0003C21.0609 24.0003 22.0783 23.5789 22.8284 22.8288C23.5786 22.0786 24 21.0612 24 20.0003C24 18.9395 23.5786 17.922 22.8284 17.1719C22.0783 16.4218 21.0609 16.0003 20 16.0003C18.9391 16.0003 17.9217 16.4218 17.1716 17.1719C16.4214 17.922 16 18.9395 16 20.0003Z" stroke="black" stroke-width="2" stroke-linecap="round" stroke-linejoin="round"/>
</svg>
