<svg width="32" height="32" viewBox="0 0 32 32" fill="none" xmlns="http://www.w3.org/2000/svg">
<path d="M5.33594 10.6663V7.99967C5.33594 7.29243 5.61689 6.61415 6.11699 6.11406C6.61708 5.61396 7.29536 5.33301 8.0026 5.33301H10.6693M5.33594 21.333V23.9997C5.33594 24.7069 5.61689 25.3852 6.11699 25.8853C6.61708 26.3854 7.29536 26.6663 8.0026 26.6663H10.6693M21.3359 5.33301H24.0026C24.7098 5.33301 25.3881 5.61396 25.8882 6.11406C26.3883 6.61415 26.6693 7.29243 26.6693 7.99967V10.6663M21.3359 26.6663H24.0026C24.7098 26.6663 25.3881 26.3854 25.8882 25.8853C26.3883 25.3852 26.6693 24.7069 26.6693 23.9997V21.333M10.6693 21.333C10.6693 20.6258 10.9502 19.9475 11.4503 19.4474C11.9504 18.9473 12.6287 18.6663 13.3359 18.6663H18.6693C19.3765 18.6663 20.0548 18.9473 20.5549 19.4474C21.055 19.9475 21.3359 20.6258 21.3359 21.333M13.3359 11.9997C13.3359 12.7069 13.6169 13.3852 14.117 13.8853C14.6171 14.3854 15.2954 14.6663 16.0026 14.6663C16.7098 14.6663 17.3881 14.3854 17.8882 13.8853C18.3883 13.3852 18.6693 12.7069 18.6693 11.9997C18.6693 11.2924 18.3883 10.6142 17.8882 10.1141C17.3881 9.61396 16.7098 9.33301 16.0026 9.33301C15.2954 9.33301 14.6171 9.61396 14.117 10.1141C13.6169 10.6142 13.3359 11.2924 13.3359 11.9997Z" stroke="black" stroke-width="2" stroke-linecap="round" stroke-linejoin="round"/>
</svg>
