<svg width="32" height="32" viewBox="0 0 32 32" fill="none" xmlns="http://www.w3.org/2000/svg">
<path d="M18.6641 4V9.33333C18.6641 9.68696 18.8045 10.0261 19.0546 10.2761C19.3046 10.5262 19.6438 10.6667 19.9974 10.6667H25.3307M18.6641 4H9.33073C8.62349 4 7.94521 4.28095 7.44511 4.78105C6.94501 5.28115 6.66406 5.95942 6.66406 6.66667V25.3333C6.66406 26.0406 6.94501 26.7189 7.44511 27.219C7.94521 27.719 8.62349 28 9.33073 28H22.6641C23.3713 28 24.0496 27.719 24.5497 27.219C25.0498 26.7189 25.3307 26.0406 25.3307 25.3333V10.6667M18.6641 4L25.3307 10.6667M11.9974 20L14.6641 22.6667L19.9974 17.3333" stroke="black" stroke-width="2" stroke-linecap="round" stroke-linejoin="round"/>
</svg>
