<svg width="64" height="64" viewBox="0 0 64 64" fill="none" xmlns="http://www.w3.org/2000/svg">
<path d="M37.3281 8V18.6667C37.3281 19.3739 37.6091 20.0522 38.1092 20.5523C38.6093 21.0524 39.2875 21.3333 39.9948 21.3333H50.6615M37.3281 8H18.6615C17.247 8 15.8904 8.5619 14.8902 9.5621C13.89 10.5623 13.3281 11.9188 13.3281 13.3333V50.6667C13.3281 52.0812 13.89 53.4377 14.8902 54.4379C15.8904 55.4381 17.247 56 18.6615 56H45.3281C46.7426 56 48.0992 55.4381 49.0994 54.4379C50.0996 53.4377 50.6615 52.0812 50.6615 50.6667V21.3333M37.3281 8L50.6615 21.3333M23.9948 40L29.3281 45.3333L39.9948 34.6667" stroke="black" stroke-width="4" stroke-linecap="round" stroke-linejoin="round"/>
</svg>
