<svg width="32" height="32" viewBox="0 0 32 32" fill="none" xmlns="http://www.w3.org/2000/svg">
<path d="M9.33333 26.6663H22.6667M12 21.333V26.6663M20 21.333V26.6663M12 15.9997V10.6663M16 15.9997V14.6663M20 15.9997V13.333M4 6.66634C4 6.31272 4.14048 5.97358 4.39052 5.72353C4.64057 5.47348 4.97971 5.33301 5.33333 5.33301H26.6667C27.0203 5.33301 27.3594 5.47348 27.6095 5.72353C27.8595 5.97358 28 6.31272 28 6.66634V19.9997C28 20.3533 27.8595 20.6924 27.6095 20.9425C27.3594 21.1925 27.0203 21.333 26.6667 21.333H5.33333C4.97971 21.333 4.64057 21.1925 4.39052 20.9425C4.14048 20.6924 4 20.3533 4 19.9997V6.66634Z" stroke="black" stroke-width="2" stroke-linecap="round" stroke-linejoin="round"/>
</svg>
